<svg width="16" height="16" viewBox="0 0 16 16" fill="none" xmlns="http://www.w3.org/2000/svg">
<g clipPath="url(#clip0_3367_32104)">
<path d="M13.4994 12.9176C7.0226 16 3.00305 13.421 0.430002 11.8546C0.270783 11.7559 0.000165731 11.8777 0.234963 12.1474C1.09217 13.1868 3.90143 15.692 7.56833 15.692C11.2378 15.692 13.4207 13.6898 13.6938 13.3405C13.965 12.9942 13.7734 12.8032 13.4993 12.9176H13.4994ZM15.3184 11.913C15.1444 11.6865 14.2608 11.6443 13.7046 11.7126C13.1476 11.779 12.3116 12.1194 12.3843 12.3238C12.4216 12.4003 12.4977 12.366 12.8803 12.3316C13.264 12.2933 14.3389 12.1577 14.5628 12.4504C14.7878 12.7452 14.22 14.1496 14.1163 14.3761C14.0161 14.6026 14.1546 14.661 14.3428 14.5101C14.5284 14.3593 14.8645 13.9688 15.09 13.4162C15.3139 12.8606 15.4506 12.0855 15.3184 11.913Z" fill="#FF9900"/>
<path fill-rule="evenodd" clip-rule="evenodd" d="M9.14438 6.62799C9.14438 7.43676 9.16481 8.11124 8.75603 8.82948C8.42608 9.41349 7.90343 9.77261 7.31949 9.77261C6.52235 9.77261 6.05811 9.16528 6.05811 8.26892C6.05811 6.49948 7.64353 6.17834 9.14438 6.17834V6.62799ZM11.2379 11.688C11.1006 11.8106 10.9021 11.8194 10.7473 11.7376C10.0583 11.1654 9.93561 10.8997 9.55606 10.3537C8.41734 11.5158 7.61146 11.8632 6.13405 11.8632C4.388 11.8632 3.02734 10.7858 3.02734 8.62804C3.02734 6.94335 3.9413 5.79583 5.24053 5.23527C6.36762 4.73884 7.94141 4.65126 9.14438 4.51408V4.24543C9.14438 3.75195 9.18229 3.16801 8.89327 2.74174C8.63921 2.35924 8.15454 2.20155 7.72821 2.20155C6.93698 2.20155 6.23037 2.60739 6.05811 3.44829C6.02302 3.6352 5.88584 3.81916 5.69899 3.8279L3.68428 3.61188C3.51497 3.57384 3.32812 3.43666 3.37483 3.17675C3.83907 0.735842 6.04346 0 8.01723 0C9.0275 0 10.3472 0.268647 11.1444 1.03366C12.1546 1.97673 12.0583 3.23515 12.0583 4.60455V7.8397C12.0583 8.812 12.4612 9.23827 12.8408 9.76387C12.9751 9.95072 13.0043 10.1756 12.8349 10.3157C12.4115 10.669 11.6582 11.326 11.2436 11.6939L11.2378 11.688" fill="black"/>
<path d="M13.4994 12.9176C7.0226 16 3.00305 13.421 0.430002 11.8546C0.270783 11.7559 0.000165731 11.8777 0.234963 12.1474C1.09217 13.1868 3.90143 15.692 7.56833 15.692C11.2378 15.692 13.4207 13.6898 13.6938 13.3405C13.965 12.9942 13.7734 12.8032 13.4993 12.9176H13.4994ZM15.3184 11.913C15.1444 11.6865 14.2608 11.6443 13.7046 11.7126C13.1476 11.779 12.3116 12.1194 12.3843 12.3238C12.4216 12.4003 12.4977 12.366 12.8803 12.3316C13.264 12.2933 14.3389 12.1577 14.5628 12.4504C14.7878 12.7452 14.22 14.1496 14.1163 14.3761C14.0161 14.6026 14.1546 14.661 14.3428 14.5101C14.5284 14.3593 14.8645 13.9688 15.09 13.4162C15.3139 12.8606 15.4506 12.0855 15.3184 11.913Z" fill="#FF9900"/>
<path fill-rule="evenodd" clip-rule="evenodd" d="M9.14438 6.62799C9.14438 7.43676 9.16481 8.11124 8.75603 8.82948C8.42608 9.41349 7.90343 9.77261 7.31949 9.77261C6.52235 9.77261 6.05811 9.16528 6.05811 8.26892C6.05811 6.49948 7.64353 6.17834 9.14438 6.17834V6.62799ZM11.2379 11.688C11.1006 11.8106 10.9021 11.8194 10.7473 11.7376C10.0583 11.1654 9.93561 10.8997 9.55606 10.3537C8.41734 11.5158 7.61146 11.8632 6.13405 11.8632C4.388 11.8632 3.02734 10.7858 3.02734 8.62804C3.02734 6.94335 3.9413 5.79583 5.24053 5.23527C6.36762 4.73884 7.94141 4.65126 9.14438 4.51408V4.24543C9.14438 3.75195 9.18229 3.16801 8.89327 2.74174C8.63921 2.35924 8.15454 2.20155 7.72821 2.20155C6.93698 2.20155 6.23037 2.60739 6.05811 3.44829C6.02302 3.6352 5.88584 3.81916 5.69899 3.8279L3.68428 3.61188C3.51497 3.57384 3.32812 3.43666 3.37483 3.17675C3.83907 0.735842 6.04346 0 8.01723 0C9.0275 0 10.3472 0.268647 11.1444 1.03366C12.1546 1.97673 12.0583 3.23515 12.0583 4.60455V7.8397C12.0583 8.812 12.4612 9.23827 12.8408 9.76387C12.9751 9.95072 13.0043 10.1756 12.8349 10.3157C12.4115 10.669 11.6582 11.326 11.2436 11.6939L11.2378 11.688" fill="black"/>
</g>
<defs>
<clipPath id="clip0_3367_32104">
<rect width="15.4503" height="16" fill="white"/>
</clipPath>
</defs>
</svg>
