<svg width="49" height="16" viewBox="0 0 49 16" fill="none" xmlns="http://www.w3.org/2000/svg">
<g clip-path="url(#clip0_3367_32168)">
<path d="M12.1677 5.53154H6.60323V7.18265H10.5499C10.3543 9.49377 8.42856 10.4858 6.60989 10.4858C6.03375 10.4883 5.46287 10.376 4.93059 10.1555C4.39831 9.93499 3.91529 9.61065 3.50973 9.20141C3.10418 8.79217 2.78421 8.30624 2.56851 7.77199C2.35282 7.23774 2.24571 6.66587 2.25345 6.08977C2.25345 3.59021 4.18856 1.66577 6.61523 1.66577C8.48723 1.66577 9.59034 2.8591 9.59034 2.8591L10.7459 1.66177C10.7459 1.66177 9.26145 0.00976562 6.55478 0.00976562C3.10812 0.00976562 0.441895 2.91865 0.441895 6.06043C0.441895 9.1391 2.94989 12.1413 6.64189 12.1413C9.88945 12.1413 12.2668 9.91643 12.2668 6.62665C12.2668 5.93243 12.1659 5.53154 12.1659 5.53154H12.1677Z" fill="#4885ED"/>
<path d="M16.7262 4.33553C14.4426 4.33553 12.8062 6.12086 12.8062 8.2022C12.8062 10.3151 14.3928 12.1333 16.7528 12.1333C18.8888 12.1333 20.6386 10.5009 20.6386 8.24753C20.6386 5.66975 18.603 4.33508 16.7262 4.33508V4.33553ZM16.7484 5.86708C17.871 5.86708 18.935 6.77508 18.935 8.23775C18.935 9.66886 17.8755 10.6031 16.743 10.6031C15.4986 10.6031 14.5208 9.60664 14.5208 8.22619C14.5208 6.87508 15.4897 5.86708 16.7519 5.86708H16.7484Z" fill="#DB3236"/>
<path d="M25.2511 4.33553C22.9675 4.33553 21.3311 6.12086 21.3311 8.2022C21.3311 10.3151 22.9177 12.1333 25.2777 12.1333C27.4137 12.1333 29.1635 10.5009 29.1635 8.24753C29.1635 5.66975 27.1279 4.33508 25.2511 4.33508V4.33553ZM25.2733 5.86708C26.3959 5.86708 27.4599 6.77508 27.4599 8.23775C27.4599 9.66886 26.4004 10.6031 25.2679 10.6031C24.0235 10.6031 23.0457 9.60664 23.0457 8.22619C23.0457 6.87508 24.0146 5.86708 25.2768 5.86708H25.2733Z" fill="#F4C20D"/>
<path d="M33.6123 4.33997C31.5163 4.33997 29.8691 6.17552 29.8691 8.23596C29.8691 10.5826 31.7789 12.1391 33.5758 12.1391C34.6869 12.1391 35.278 11.6977 35.7091 11.1915V11.9604C35.7091 13.3057 34.8923 14.1115 33.6594 14.1115C32.4683 14.1115 31.8709 13.2257 31.6594 12.7235L30.1607 13.3457C30.6923 14.4702 31.7625 15.6422 33.6718 15.6422C35.7607 15.6422 37.3438 14.3297 37.3438 11.5769V4.57419H35.7154V5.23463C35.2131 4.69241 34.5251 4.33997 33.6131 4.33997H33.6123ZM33.7634 5.86885C34.7909 5.86885 35.846 6.74619 35.846 8.24441C35.846 9.76752 34.7927 10.6066 33.7407 10.6066C32.6234 10.6066 31.5838 9.69997 31.5838 8.25863C31.5838 6.76174 32.6638 5.86885 33.7634 5.86885Z" fill="#4885ED"/>
<path d="M44.6222 4.33069C42.6454 4.33069 40.9854 5.90402 40.9854 8.22402C40.9854 10.68 42.8356 12.1365 44.8076 12.1365C46.4574 12.1365 47.4742 11.2342 48.0742 10.4254L46.7262 9.52847C46.3765 10.0707 45.7916 10.6018 44.816 10.6018C43.72 10.6018 43.216 10.0018 42.9036 9.41958L48.1316 7.25069L47.8649 6.61513C47.36 5.37069 46.1814 4.33069 44.6222 4.33069ZM44.6902 5.83024C45.4027 5.83024 45.9151 6.20891 46.1329 6.66313L42.6414 8.12225C42.4902 6.99247 43.5614 5.83024 44.6858 5.83024H44.6902Z" fill="#DB3236"/>
<path d="M38.4888 11.9053H40.2061V0.41333H38.4888V11.9053Z" fill="#3CBA54"/>
</g>
<defs>
<clipPath id="clip0_3367_32168">
<rect width="48.4444" height="16" fill="white"/>
</clipPath>
</defs>
</svg>
