<svg width="76" height="16" viewBox="0 0 76 16" fill="none" xmlns="http://www.w3.org/2000/svg">
<g clipPath="url(#clip0_3367_32122)">
<path d="M31.2 3.2V12.8H29.5334V5.26667H29.5112L26.5334 12.8H25.4223L22.3778 5.26667H22.3556V12.8H20.8223V3.2H23.2223L25.9778 10.3111H26.0223L28.9334 3.2H31.2ZM32.5778 3.93334C32.5778 3.66667 32.6667 3.44445 32.8667 3.26667C33.0667 3.08889 33.2889 3 33.5556 3C33.8445 3 34.0889 3.08889 34.2667 3.26667C34.4445 3.44445 34.5556 3.66667 34.5556 3.93334C34.5556 4.2 34.4667 4.42222 34.2667 4.6C34.0667 4.77778 33.8445 4.86667 33.5556 4.86667C33.2667 4.86667 33.0445 4.77778 32.8667 4.6C32.6889 4.4 32.5778 4.17778 32.5778 3.93334ZM34.3778 5.91111V12.8H32.7556V5.91111H34.3778ZM39.2889 11.6222C39.5334 11.6222 39.8 11.5778 40.0889 11.4444C40.3778 11.3333 40.6445 11.1778 40.8889 11V12.5111C40.6223 12.6667 40.3334 12.7778 40 12.8444C39.6667 12.9111 39.3112 12.9556 38.9112 12.9556C37.8889 12.9556 37.0667 12.6444 36.4445 12C35.8 11.3556 35.4889 10.5333 35.4889 9.55556C35.4889 8.44445 35.8223 7.53334 36.4667 6.82222C37.1112 6.11111 38.0223 5.75556 39.2223 5.75556C39.5334 5.75556 39.8445 5.8 40.1334 5.86667C40.4445 5.93334 40.6889 6.04445 40.8667 6.13334V7.68889C40.6223 7.51111 40.3556 7.35556 40.1112 7.26667C39.8445 7.17778 39.5778 7.11111 39.3112 7.11111C38.6667 7.11111 38.1556 7.31111 37.7556 7.73334C37.3556 8.15556 37.1778 8.71111 37.1778 9.42222C37.1778 10.1111 37.3778 10.6667 37.7556 11.0444C38.1334 11.4222 38.6445 11.6222 39.2889 11.6222ZM45.4889 5.8C45.6223 5.8 45.7334 5.8 45.8445 5.82222C45.9556 5.84445 46.0445 5.86667 46.1112 5.88889V7.53334C46.0223 7.46667 45.9112 7.4 45.7334 7.35556C45.5556 7.31111 45.3778 7.26667 45.1334 7.26667C44.7334 7.26667 44.4 7.44445 44.1334 7.77778C43.8667 8.11111 43.7112 8.62222 43.7112 9.33334V12.8H42.0889V5.91111H43.7112V7H43.7334C43.8889 6.62222 44.1112 6.33334 44.4 6.11111C44.7112 5.91111 45.0667 5.8 45.4889 5.8ZM46.2 9.46667C46.2 8.33334 46.5334 7.42222 47.1556 6.75556C47.8 6.08889 48.6889 5.75556 49.8223 5.75556C50.8889 5.75556 51.7334 6.06667 52.3334 6.71111C52.9334 7.35556 53.2445 8.22222 53.2445 9.31111C53.2445 10.4222 52.9112 11.3111 52.2889 11.9778C51.6445 12.6444 50.7778 12.9778 49.6667 12.9778C48.6 12.9778 47.7556 12.6667 47.1334 12.0444C46.5112 11.4 46.2 10.5333 46.2 9.46667ZM47.8889 9.4C47.8889 10.1111 48.0445 10.6667 48.3778 11.0444C48.7112 11.4222 49.1778 11.6222 49.7778 11.6222C50.3556 11.6222 50.8223 11.4444 51.1334 11.0444C51.4445 10.6667 51.6 10.1111 51.6 9.35556C51.6 8.62222 51.4445 8.06667 51.1334 7.66667C50.8223 7.28889 50.3556 7.08889 49.8 7.08889C49.2 7.08889 48.7556 7.28889 48.4223 7.68889C48.0445 8.11111 47.8889 8.66667 47.8889 9.4ZM55.6667 7.73334C55.6667 7.95556 55.7334 8.15556 55.8889 8.28889C56.0445 8.42222 56.3556 8.57778 56.8667 8.77778C57.5112 9.04445 57.9778 9.33334 58.2223 9.64445C58.4889 9.97778 58.6223 10.3556 58.6223 10.8222C58.6223 11.4667 58.3778 11.9778 57.8667 12.3778C57.3778 12.7778 56.6889 12.9556 55.8445 12.9556C55.5556 12.9556 55.2445 12.9111 54.8889 12.8444C54.5334 12.7778 54.2445 12.6889 54 12.5778V10.9778C54.2889 11.1778 54.6223 11.3556 54.9556 11.4667C55.2889 11.5778 55.6 11.6444 55.8889 11.6444C56.2445 11.6444 56.5334 11.6 56.6889 11.4889C56.8667 11.3778 56.9556 11.2222 56.9556 10.9778C56.9556 10.7556 56.8667 10.5778 56.6889 10.4C56.5112 10.2444 56.1556 10.0667 55.6667 9.86667C55.0667 9.62222 54.6445 9.33333 54.4 9.02222C54.1556 8.71111 54.0223 8.31111 54.0223 7.82222C54.0223 7.2 54.2667 6.68889 54.7556 6.28889C55.2445 5.88889 55.8889 5.68889 56.6667 5.68889C56.9112 5.68889 57.1778 5.71111 57.4667 5.77778C57.7556 5.84445 58.0223 5.91111 58.2223 5.97778V7.55556C58 7.42222 57.7556 7.28889 57.4667 7.17778C57.1778 7.06667 56.8889 7.02222 56.6223 7.02222C56.3112 7.02222 56.0667 7.08889 55.9112 7.2C55.7556 7.35556 55.6667 7.51111 55.6667 7.73334ZM59.3112 9.46667C59.3112 8.33334 59.6445 7.42222 60.2667 6.75556C60.9112 6.08889 61.8 5.75556 62.9334 5.75556C64 5.75556 64.8445 6.06667 65.4445 6.71111C66.0445 7.35556 66.3556 8.22222 66.3556 9.31111C66.3556 10.4222 66.0223 11.3111 65.4 11.9778C64.7556 12.6444 63.8889 12.9778 62.7778 12.9778C61.7112 12.9778 60.8667 12.6667 60.2445 12.0444C59.6445 11.4 59.3112 10.5333 59.3112 9.46667ZM61 9.4C61 10.1111 61.1556 10.6667 61.4889 11.0444C61.8223 11.4222 62.2889 11.6222 62.8889 11.6222C63.4667 11.6222 63.9334 11.4444 64.2445 11.0444C64.5556 10.6667 64.7112 10.1111 64.7112 9.35556C64.7112 8.62222 64.5556 8.06667 64.2445 7.66667C63.9334 7.28889 63.4667 7.08889 62.9112 7.08889C62.3112 7.08889 61.8667 7.28889 61.5334 7.68889C61.1778 8.11111 61 8.66667 61 9.4ZM71.7556 7.24445H69.3334V12.8H67.6889V7.24445H66.5334V5.91111H67.6889V4.95556C67.6889 4.24445 67.9334 3.64445 68.4 3.17778C68.8667 2.71111 69.4667 2.48889 70.2 2.48889C70.4 2.48889 70.5778 2.51111 70.7334 2.51111C70.8889 2.51111 71.0223 2.55556 71.1334 2.6V4C71.0889 3.97778 70.9778 3.93334 70.8445 3.88889C70.7112 3.84445 70.5556 3.82223 70.3778 3.82223C70.0445 3.82223 69.7778 3.93334 69.6 4.13334C69.4223 4.33334 69.3334 4.66667 69.3334 5.06667V5.88889H71.7556V4.33334L73.3778 3.84445V5.88889H75.0223V7.22222H73.3778V10.4444C73.3778 10.8667 73.4667 11.1556 73.6 11.3333C73.7556 11.5111 74 11.6 74.3334 11.6C74.4223 11.6 74.5334 11.5778 74.6667 11.5333C74.8 11.4889 74.9112 11.4444 75 11.3778V12.7111C74.8889 12.7778 74.7334 12.8222 74.4889 12.8667C74.2445 12.9111 74.0223 12.9333 73.7778 12.9333C73.0889 12.9333 72.5778 12.7556 72.2445 12.4C71.9112 12.0444 71.7334 11.4889 71.7334 10.7556L71.7556 7.24445Z" fill="#737373"/>
<path d="M7.6 0H0V7.6H7.6V0Z" fill="#F25022"/>
<path d="M15.9999 0H8.3999V7.6H15.9999V0Z" fill="#7FBA00"/>
<path d="M7.6 8.40002H0V16H7.6V8.40002Z" fill="#00A4EF"/>
<path d="M15.9999 8.40002H8.3999V16H15.9999V8.40002Z" fill="#FFB900"/>
</g>
<defs>
<clipPath id="clip0_3367_32122">
<rect width="75.0222" height="16" fill="white"/>
</clipPath>
</defs>
</svg>
