<svg width="128" height="128" viewBox="0 0 128 128" fill="none" xmlns="http://www.w3.org/2000/svg">
<g clip-path="url(#clip0_758_318)">
<mask id="mask0_758_318" style="mask-type:luminance" maskUnits="userSpaceOnUse" x="0" y="0" width="128" height="128">
<path d="M128 0H0V128H128V0Z" fill="white"/>
</mask>
<g mask="url(#mask0_758_318)">
<path d="M106.24 0H21.76C9.74228 0 0 9.74228 0 21.76V106.24C0 118.258 9.74228 128 21.76 128H106.24C118.258 128 128 118.258 128 106.24V21.76C128 9.74228 118.258 0 106.24 0Z" fill="#D6FF62"/>
<mask id="mask1_758_318" style="mask-type:luminance" maskUnits="userSpaceOnUse" x="19" y="25" width="92" height="68">
<path d="M110.08 25.0562H19.2012V92.8764H110.08V25.0562Z" fill="white"/>
</mask>
<g mask="url(#mask1_758_318)">
<path d="M19.2012 91.7687L45.2569 25.0562H53.9419L27.795 91.7687H19.2012Z" fill="#0B151E"/>
<path d="M70.9215 45.2917C82.2866 45.2917 90.2328 51.7593 91.8051 61.8314H83.1199C81.6415 56.1033 77.0207 53.0524 71.2009 53.0524C62.9781 53.0524 57.3412 59.3344 57.3412 69.1297C57.3412 78.9249 62.6072 85.1156 70.8327 85.1156C77.0233 85.1156 81.6441 81.882 83.2139 76.5218H91.8991C90.1438 86.3172 81.7355 92.8761 70.8327 92.8761C57.5267 92.8761 48.75 83.4517 48.75 69.2211C48.75 54.9906 57.7122 45.2892 70.9265 45.2892L70.9215 45.2917Z" fill="#0B151E"/>
<path d="M96.5176 86.4088C96.5176 82.8042 99.5659 79.8473 103.171 79.8473C106.775 79.8473 109.733 82.8042 109.733 86.4088C109.733 90.0134 106.684 92.8764 103.171 92.8764C99.6574 92.8764 96.5176 89.9195 96.5176 86.4088Z" fill="#0B151E"/>
</g>
</g>
</g>
<defs>
<clipPath id="clip0_758_318">
<rect width="128" height="128" fill="white"/>
</clipPath>
</defs>
</svg>