<svg width="20" height="21" viewBox="0 0 20 21" fill="none" xmlns="http://www.w3.org/2000/svg">
<rect y="0.5" width="20" height="20" rx="4.26667" fill="#D6FF62"/>
<mask id="mask0_2194_16333" style="mask-type:luminance" maskUnits="userSpaceOnUse" x="3" y="4" width="15" height="12">
<path d="M17.2001 4.41502H3.00024V15.0119H17.2001V4.41502Z" fill="white"/>
</mask>
<g mask="url(#mask0_2194_16333)">
<path d="M3.00024 14.8389L7.07143 4.41502H8.42849L4.34301 14.8389H3.00024Z" fill="#0B151E"/>
<path d="M11.0815 7.57684C12.8573 7.57684 14.0989 8.58739 14.3445 10.1612H12.9875C12.7565 9.26612 12.0345 8.78942 11.1251 8.78942C9.84033 8.78942 8.95957 9.771 8.95957 11.3015C8.95957 12.832 9.78236 13.7993 11.0676 13.7993C12.0349 13.7993 12.7569 13.294 13.0022 12.4565H14.3592C14.085 13.987 12.7712 15.0119 11.0676 15.0119C8.98853 15.0119 7.61719 13.5393 7.61719 11.3158C7.61719 9.09227 9.01752 7.57643 11.0823 7.57643L11.0815 7.57684Z" fill="#0B151E"/>
<path d="M15.0807 14.0014C15.0807 13.4382 15.557 12.9762 16.1202 12.9762C16.6834 12.9762 17.1455 13.4382 17.1455 14.0014C17.1455 14.5646 16.6691 15.0119 16.1202 15.0119C15.5713 15.0119 15.0807 14.5499 15.0807 14.0014Z" fill="#0B151E"/>
</g>
</svg>
