<svg width="20" height="21" viewBox="0 0 20 21" fill="none" xmlns="http://www.w3.org/2000/svg">
<g clip-path="url(#clip0_2194_16334)">
<path d="M12.2721 2.70779V6.44342L16.47 17.2252C16.47 17.2252 17.7515 19.8584 14.0861 20.5H5.72417C5.72417 20.5 2.30778 20.1435 3.12681 17.4384L7.53832 6.44357V2.70779H12.2721Z" fill="#009688"/>
<path d="M12.3617 2.27346H7.32592C6.91806 2.27346 6.5863 1.91063 6.5863 1.46234C6.5863 1.01377 6.91792 0.65094 7.32592 0.65094H12.3617C12.7714 0.65094 13.1026 1.01377 13.1026 1.46234C13.1026 1.91063 12.7713 2.27346 12.3617 2.27346Z" fill="#004D40"/>
<path d="M11.0322 8.80728C11.5725 8.80728 12.0132 9.33527 12.0132 9.98914C12.0132 10.6401 11.5722 11.1694 11.0322 11.1694C10.4905 11.1694 10.0511 10.6401 10.0511 9.98914C10.0511 9.33498 10.4905 8.80728 11.0322 8.80728Z" fill="white"/>
<path d="M8.02079 11.8732C8.4775 11.8732 8.84773 11.427 8.84773 10.8765C8.84773 10.326 8.4775 9.87981 8.02079 9.87981C7.56408 9.87981 7.19385 10.326 7.19385 10.8765C7.19385 11.427 7.56408 11.8732 8.02079 11.8732Z" fill="white"/>
<path d="M12.6455 6.19583V4.41909C12.6455 4.41909 14.8986 3.92232 16.0246 6.54298C16.0246 6.54298 14.2698 7.82152 12.6455 6.19583Z" fill="#004D40"/>
<path d="M7.12701 6.19583V4.41909C7.12701 4.41909 4.87363 3.92232 3.74817 6.54298C3.74817 6.54298 5.50132 7.82152 7.12701 6.19583Z" fill="#004D40"/>
<path d="M14.0001 13.5485C10.3363 12.412 7.25598 13.0221 5.75042 13.4834L4.2322 17.1377C3.54869 19.3193 6.4027 19.606 6.4027 19.606H13.3867C16.448 19.0888 15.3781 16.9665 15.3781 16.9665L14.0001 13.5485Z" fill="white"/>
<path d="M8.71992 14.9063C8.71992 15.3004 8.19035 15.6209 7.53807 15.6209C6.88578 15.6209 6.35779 15.3002 6.35779 14.9063C6.35779 14.5107 6.88578 14.1913 7.53807 14.1913C8.19064 14.1916 8.71992 14.5107 8.71992 14.9063Z" fill="#004D40"/>
<path d="M12.9229 14.9063C12.9229 15.3004 12.3934 15.6209 11.7427 15.6209C11.0885 15.6209 10.5608 15.3002 10.5608 14.9063C10.5608 14.5107 11.0885 14.1913 11.7427 14.1913C12.3936 14.1916 12.9229 14.5107 12.9229 14.9063Z" fill="#004D40"/>
</g>
<defs>
<clipPath id="clip0_2194_16334">
<rect width="20" height="20" fill="white" transform="translate(0 0.5)"/>
</clipPath>
</defs>
</svg>
