<svg width="20" height="21" viewBox="0 0 20 21" fill="none" xmlns="http://www.w3.org/2000/svg">
<path fill-rule="evenodd" clip-rule="evenodd" d="M16.2222 18.5H3.77778C2.79594 18.5 2 17.7041 2 16.7222V4.27778C2 3.29594 2.79594 2.5 3.77778 2.5H16.2222C17.2041 2.5 18 3.29594 18 4.27778V16.7222C18 17.7041 17.2041 18.5 16.2222 18.5ZM13.4035 16.2778H15.7778V11.4003C15.7778 9.33654 14.6079 8.33871 12.9739 8.33871C11.3391 8.33871 10.6511 9.61176 10.6511 9.61176V8.57407H8.36296V16.2778H10.6511V12.2338C10.6511 11.1502 11.1499 10.5054 12.1046 10.5054C12.9822 10.5054 13.4035 11.1251 13.4035 12.2338V16.2778ZM4.22222 6.14377C4.22222 6.92881 4.85379 7.56533 5.63319 7.56533C6.41259 7.56533 7.04378 6.92881 7.04378 6.14377C7.04378 5.35874 6.41259 4.72222 5.63319 4.72222C4.85379 4.72222 4.22222 5.35874 4.22222 6.14377ZM6.83765 16.2778H4.45168V8.57407H6.83765V16.2778Z" fill="#0B151E"/>
</svg>
