<svg width="20" height="21" viewBox="0 0 20 21" fill="none" xmlns="http://www.w3.org/2000/svg">
<g clip-path="url(#clip0_2194_16338)">
<path d="M4.19297 4.28393C3.47038 4.87066 3.00109 5.72193 2.90122 6.66882L2 15.247L2.00469 15.3946L2.00704 15.4443C2.04103 15.9842 2.27089 16.4862 2.64549 16.8618C3.05292 17.2704 3.60743 17.5054 4.19487 17.5049L12.6093 17.498L12.6974 17.4967C13.5548 17.4686 14.3507 17.1467 14.9697 16.5869C15.6742 15.9497 16.0848 15.0684 16.1334 14.1364C16.1821 13.2044 15.8655 12.2848 15.2311 11.5772L9.038 4.66891L8.97819 4.60401C8.38416 3.98243 7.61377 3.60309 6.7854 3.51496C5.84263 3.41466 4.91556 3.6972 4.19297 4.28393ZM6.45149 6.68102C6.53636 6.69005 6.61532 6.72893 6.67437 6.79068L12.8754 13.7075C12.9415 13.7812 12.9729 13.8727 12.9679 13.9698C12.9628 14.0669 12.922 14.1546 12.8486 14.2209C12.7852 14.2782 12.7036 14.3112 12.6184 14.3141L5.28464 14.3202L6.05354 7.00356C6.06387 6.90562 6.11055 6.82095 6.18584 6.75982C6.26113 6.69868 6.35334 6.67058 6.45149 6.68102Z" fill="#70211D"/>
<path d="M15.796 2.5L4.20042 2.50949L4.10606 2.51185L4.05295 2.51458C3.56226 2.5481 3.09649 2.7459 2.73045 3.07692C2.29208 3.47336 2.03597 4.02316 2.00571 4.60303C1.97545 5.18289 2.17294 5.75657 2.56765 6.19686L12.9418 17.769L13.0066 17.8379L13.0442 17.8757C13.397 18.2199 13.8549 18.4355 14.3447 18.4876C14.9313 18.5501 15.5096 18.3738 15.9592 18.0087C16.4088 17.6437 16.7015 17.1127 16.7637 16.5235L18 4.76714L17.9953 4.61882L17.993 4.56917C17.9588 4.02701 17.728 3.52297 17.3519 3.14578C16.9427 2.73552 16.3859 2.49952 15.796 2.5ZM14.7159 5.68422L13.8398 14.013L6.37986 5.69099L14.7159 5.68422Z" fill="#ED7344"/>
</g>
<defs>
<clipPath id="clip0_2194_16338">
<rect width="16" height="16" fill="white" transform="translate(2 2.5)"/>
</clipPath>
</defs>
</svg>
