<svg width="20" height="21" viewBox="0 0 20 21" fill="none" xmlns="http://www.w3.org/2000/svg">
<path d="M15.5544 8.1053C14.9835 7.92017 14.6886 7.98259 14.0898 7.9151C13.164 7.81095 12.7952 7.43781 12.6387 6.47745C12.5511 5.94137 12.6545 5.15645 12.431 4.67049C12.0035 3.74389 11.0032 3.32832 9.99823 3.56552C9.14975 3.76607 8.44376 4.6406 8.40464 5.53827C8.35994 6.56321 8.92621 7.43775 9.89857 7.73955C10.3605 7.8832 10.8514 7.95552 11.3338 7.99215C12.2186 8.05869 12.2866 8.56592 12.526 8.98342C12.6769 9.24664 12.8231 9.50601 12.8231 10.2909C12.8231 11.0757 12.6759 11.3351 12.526 11.5983C12.2866 12.0149 11.9914 12.2877 11.1066 12.3552C10.6241 12.3919 10.1323 12.4642 9.67133 12.6079C8.69897 12.9106 8.13269 13.7842 8.17739 14.8091C8.21651 15.7068 8.9225 16.5813 9.77098 16.7819C10.7759 17.02 11.7762 16.6035 12.2037 15.6769C12.4282 15.1909 12.5511 14.6404 12.6387 14.1043C12.7961 13.1439 13.1649 12.7708 14.0898 12.6667C14.6886 12.5992 15.3084 12.6667 15.8696 12.3379C16.4627 11.891 16.9925 11.2204 16.9925 10.2909C16.9925 9.36138 16.4215 8.38684 15.5544 8.1053Z" fill="#F44250"/>
<path d="M6.05594 12.4691C4.88893 12.4691 3.93701 11.4856 3.93701 10.2798C3.93701 9.07406 4.88893 8.09052 6.05594 8.09052C7.22296 8.09052 8.17488 9.07406 8.17488 10.2798C8.17488 11.4846 7.22201 12.4691 6.05594 12.4691Z" fill="#121212"/>
<path d="M2.15248 16.9184C0.987339 16.9155 0.0382335 15.9281 0.0410218 14.7214C0.0438379 13.5166 0.999497 12.5359 2.16746 12.5398C3.33352 12.5427 4.28262 13.5301 4.27889 14.7368C4.27607 15.9406 3.32041 16.9213 2.15248 16.9184Z" fill="#121212"/>
<path d="M17.8969 16.9183C16.7281 16.9251 15.7687 15.9483 15.7621 14.7455C15.7556 13.5378 16.701 12.5466 17.8651 12.5398C19.0341 12.5331 19.9933 13.5098 20 14.7127C20.0064 15.9193 19.0612 16.9115 17.8969 16.9183Z" fill="#121212"/>
</svg>
