<svg width="20" height="21" viewBox="0 0 20 21" fill="none" xmlns="http://www.w3.org/2000/svg">
<g clip-path="url(#clip0_2194_16340)">
<path fill-rule="evenodd" clip-rule="evenodd" d="M6.35432 4.10248L9.74226 6.4882C9.81873 6.54072 9.90805 6.56948 9.9997 6.5711C10.0915 6.57042 10.1811 6.54157 10.2572 6.4882L13.6477 4.09445C13.7794 3.99714 13.8521 3.83492 13.8388 3.66754C13.8256 3.50018 13.7285 3.35242 13.5833 3.2787L10.1954 1.54825C10.0668 1.48392 9.91712 1.48392 9.7886 1.54825L6.41096 3.2787C6.2631 3.35281 6.16471 3.50344 6.15302 3.67354C6.14133 3.84365 6.2181 4.00727 6.35432 4.10248ZM11.1505 7.23707C11.1507 7.39527 11.2258 7.54325 11.3513 7.63291L14.0673 9.54791C14.2412 9.67157 14.4738 9.65612 14.6311 9.51045L16.9095 7.40825C17.011 7.31467 17.0674 7.17913 17.0634 7.03817C17.0594 6.89721 16.9955 6.76532 16.8889 6.67808L14.7135 4.88344C14.5554 4.75386 14.3348 4.7452 14.1677 4.86204L11.3513 6.84926C11.228 6.93728 11.1532 7.08171 11.1505 7.23707ZM4.39517 9.8421C4.50495 9.94384 4.56138 10.0939 4.54707 10.246C4.53282 10.3989 4.44716 10.5349 4.31794 10.6097L2.69605 11.6127C2.53164 11.7141 2.32406 11.6994 2.17432 11.5759C2.02458 11.4524 1.9638 11.2457 2.02155 11.0564L2.62139 9.10927C2.66845 8.95501 2.78772 8.83612 2.93805 8.79367C3.08826 8.74858 3.25024 8.78811 3.3654 8.89798L4.39517 9.8421ZM13.192 10.0454L10.2597 7.97525C10.1039 7.86707 9.90067 7.86707 9.74484 7.97525L6.81256 10.0454C6.69594 10.1286 6.62205 10.2625 6.61175 10.4091C6.60416 10.5568 6.66089 10.7002 6.76622 10.7996L9.69593 13.5036C9.78042 13.5813 9.88941 13.6242 10.0023 13.624C10.1151 13.6239 10.224 13.5811 10.3086 13.5036L13.2383 10.7996C13.344 10.7006 13.4 10.5566 13.3902 10.4091C13.382 10.2625 13.3088 10.1281 13.192 10.0454ZM5.37089 9.51045L3.09509 7.40823C2.99269 7.31227 2.93619 7.17432 2.94063 7.03113C2.9431 6.88999 3.00641 6.75746 3.11311 6.67005L5.2885 4.86472C5.44773 4.7355 5.66875 4.72688 5.83686 4.84332L8.65071 6.83054C8.7813 6.91888 8.86006 7.06981 8.86006 7.23172C8.86006 7.39361 8.7813 7.54456 8.65071 7.63291L5.93726 9.54789C5.76234 9.67103 5.52939 9.65562 5.37089 9.51045ZM17.0562 12.5301L14.7392 11.0991C14.5672 10.9922 14.3481 11.0138 14.1986 11.1526L11.3667 13.7604C11.2473 13.8704 11.1912 14.0369 11.2184 14.2003C11.2457 14.3637 11.3525 14.5009 11.5006 14.5627L15.4292 16.2049C15.4831 16.228 15.5408 16.2398 15.5991 16.2397C15.7814 16.2403 15.9469 16.1291 16.0213 15.9562L17.239 13.1425C17.3381 12.9199 17.2592 12.6554 17.0562 12.5301ZM17.378 9.10928L17.9779 11.0564H17.9727C18.0171 11.202 17.9919 11.3609 17.9049 11.4841C17.8179 11.6072 17.6795 11.6798 17.5325 11.6795C17.45 11.6798 17.369 11.6567 17.2982 11.6127L15.6737 10.6097C15.5472 10.5333 15.4645 10.3975 15.4523 10.246C15.4372 10.0938 15.4937 9.94331 15.6042 9.84212L16.634 8.89532C16.7503 8.78775 16.9111 8.74851 17.0614 8.79101C17.2116 8.83527 17.3305 8.95477 17.378 9.10928ZM8.78458 14.199C8.81227 14.0362 8.75671 13.8702 8.63784 13.7604L5.80596 11.1526C5.65643 11.0138 5.4374 10.9922 5.26533 11.0991L2.94834 12.5301C2.74773 12.656 2.66836 12.9171 2.76299 13.1399L3.98327 15.9535C4.08436 16.1881 4.34574 16.2979 4.57539 16.2022L8.50139 14.5601C8.64956 14.4987 8.75669 14.3622 8.78458 14.199ZM10.1748 15.0014L13.3259 16.3173C13.4799 16.3853 13.5864 16.5348 13.6039 16.7077C13.6239 16.8829 13.5485 17.055 13.4082 17.1544L10.2546 19.4144C10.179 19.4692 10.0893 19.499 9.99714 19.5C9.90507 19.4985 9.81549 19.4687 9.73969 19.4144L6.5886 17.1544C6.44786 17.0553 6.37156 16.8833 6.39035 16.7077C6.41139 16.533 6.52167 16.3836 6.6787 16.3173L9.82979 15.0014C9.94061 14.9558 10.064 14.9558 10.1748 15.0014Z" fill="#BF4722"/>
</g>
<defs>
<clipPath id="clip0_2194_16340">
<rect width="16" height="18" fill="white" transform="translate(2 1.5)"/>
</clipPath>
</defs>
</svg>
