<svg width="20" height="21" viewBox="0 0 20 21" fill="none" xmlns="http://www.w3.org/2000/svg">
<path fill-rule="evenodd" clip-rule="evenodd" d="M6.21662 4.18155C6.21662 5.1115 6.96822 5.8631 7.89817 5.8631H9.57973V4.18155C9.57973 3.2516 8.82812 2.5 7.89817 2.5C6.96822 2.5 6.21662 3.2516 6.21662 4.18155ZM9.57973 8.39817C9.57973 7.46822 8.82812 6.71662 7.89817 6.71662H3.68155C2.7516 6.71662 2 7.46822 2 8.39817C2 9.32812 2.7516 10.0797 3.68155 10.0797H7.89817C8.82812 10.0797 9.57973 9.32812 9.57973 8.39817ZM3.69388 14.2954C4.62383 14.2954 5.37543 13.5438 5.37543 12.6138V10.9323H3.69388C2.76393 10.9323 2.01233 11.6839 2.01233 12.6138C2.01233 13.5438 2.76393 14.2954 3.69388 14.2954ZM7.89776 10.9323C6.96781 10.9323 6.21621 11.6839 6.21621 12.6138V16.8177C6.21621 17.7477 6.96781 18.4993 7.89776 18.4993C8.82771 18.4993 9.57932 17.7477 9.57932 16.8177V12.6138C9.57932 11.6839 8.82771 10.9323 7.89776 10.9323ZM14.6375 8.39817C14.6375 7.46822 15.3891 6.71662 16.319 6.71662C17.249 6.71662 18.0006 7.46822 18.0006 8.39817C18.0006 9.32812 17.249 10.0797 16.319 10.0797H14.6375V8.39817ZM13.7967 8.39817C13.7967 9.32812 13.0451 10.0797 12.1151 10.0797C11.1852 10.0797 10.4336 9.32812 10.4336 8.39817V4.18155C10.4336 3.2516 11.1852 2.5 12.1151 2.5C13.0451 2.5 13.7967 3.2516 13.7967 4.18155V8.39817ZM13.7967 16.8177C13.7967 15.8878 13.0451 15.1362 12.1151 15.1362H10.4336V16.8177C10.4336 17.7477 11.1852 18.4993 12.1151 18.4993C13.0451 18.4993 13.7967 17.7477 13.7967 16.8177ZM10.4336 12.6138C10.4336 13.5438 11.1852 14.2954 12.1151 14.2954H16.3318C17.2617 14.2954 18.0133 13.5438 18.0133 12.6138C18.0133 11.6839 17.2617 10.9323 16.3318 10.9323H12.1151C11.1852 10.9323 10.4336 11.6839 10.4336 12.6138Z" fill="#0B151E"/>
</svg>
