<svg width="1200" height="675" viewBox="0 0 1200 675" fill="none" xmlns="http://www.w3.org/2000/svg">
<g clip-path="url(#clip0_1092_1083)">
<rect width="1200" height="675" fill="#0B151E"/>
<path opacity="0.1" d="M70 48V628" stroke="url(#paint0_linear_1092_1083)"/>
<path opacity="0.1" d="M246.668 48V628" stroke="url(#paint1_linear_1092_1083)"/>
<path opacity="0.05" d="M423.332 48V628" stroke="url(#paint2_linear_1092_1083)"/>
<path opacity="0.05" d="M600 48V628" stroke="url(#paint3_linear_1092_1083)"/>
<path opacity="0.05" d="M776.668 48V628" stroke="url(#paint4_linear_1092_1083)"/>
<path opacity="0.1" d="M953.332 48V628" stroke="url(#paint5_linear_1092_1083)"/>
<path opacity="0.1" d="M1130 48V628" stroke="url(#paint6_linear_1092_1083)"/>
<circle opacity="0.2" cx="600" cy="543" r="2" fill="white"/>
<circle cx="424" cy="122" r="2" fill="white"/>
<circle opacity="0.2" cx="247" cy="286" r="2" fill="white"/>
<circle cx="70" cy="458" r="2" fill="white"/>
<circle opacity="0.5" cx="777" cy="150" r="2" fill="white"/>
<circle opacity="0.5" cx="953" cy="508" r="2" fill="white"/>
<circle cx="1130" cy="150" r="2" fill="white"/>
<path d="M252.208 283.056C233.464 283.056 221.32 270.032 221.32 249.88C221.32 229.904 233.904 216.616 252.736 216.616C267.96 216.616 279.312 225.504 281.512 239.32H269.632C267.432 231.84 261.008 227.44 252.472 227.44C240.592 227.44 233.112 236.064 233.112 249.792C233.112 263.432 240.68 272.232 252.472 272.232C261.184 272.232 267.872 267.656 269.984 260.528H281.688C279.224 274.08 267.432 283.056 252.208 283.056ZM285.893 260.176C285.893 246.624 295.661 237.296 309.125 237.296C322.589 237.296 332.357 246.624 332.357 260.176C332.357 273.728 322.589 283.056 309.125 283.056C295.661 283.056 285.893 273.728 285.893 260.176ZM296.629 260.176C296.629 268.096 301.733 273.464 309.125 273.464C316.517 273.464 321.621 268.096 321.621 260.176C321.621 252.256 316.517 246.888 309.125 246.888C301.733 246.888 296.629 252.256 296.629 260.176ZM356.971 283.144C344.387 283.144 336.555 273.904 336.555 260.44C336.555 246.888 344.475 237.208 357.587 237.208C363.659 237.208 369.027 239.76 371.755 244.072V216.528H382.403V282H372.547L371.843 275.224C369.203 280.24 363.571 283.144 356.971 283.144ZM359.347 273.288C366.827 273.288 371.667 267.92 371.667 260.088C371.667 252.256 366.827 246.8 359.347 246.8C351.867 246.8 347.291 252.344 347.291 260.088C347.291 267.832 351.867 273.288 359.347 273.288ZM411.279 283.144C398.343 283.144 389.279 273.728 389.279 260.264C389.279 246.624 398.167 237.208 410.927 237.208C423.951 237.208 432.223 245.92 432.223 259.472V262.728L399.487 262.816C400.279 270.472 404.327 274.344 411.455 274.344C417.351 274.344 421.223 272.056 422.455 267.92H432.399C430.551 277.424 422.631 283.144 411.279 283.144ZM411.015 246.008C404.679 246.008 400.807 249.44 399.751 255.952H421.575C421.575 249.968 417.439 246.008 411.015 246.008ZM449.792 282H439.056V238.528H448.912L449.792 243.632C451.992 240.024 456.392 237.208 462.64 237.208C469.24 237.208 473.816 240.464 476.104 245.48C478.304 240.464 483.408 237.208 490.008 237.208C500.568 237.208 506.376 243.544 506.376 253.576V282H495.728V256.392C495.728 250.144 492.384 246.888 487.28 246.888C482.088 246.888 478.128 250.232 478.128 257.36V282H467.392V256.304C467.392 250.232 464.136 246.976 459.032 246.976C453.928 246.976 449.792 250.32 449.792 257.36V282ZM512.603 260.176C512.603 246.624 522.371 237.296 535.835 237.296C549.299 237.296 559.067 246.624 559.067 260.176C559.067 273.728 549.299 283.056 535.835 283.056C522.371 283.056 512.603 273.728 512.603 260.176ZM523.339 260.176C523.339 268.096 528.443 273.464 535.835 273.464C543.227 273.464 548.331 268.096 548.331 260.176C548.331 252.256 543.227 246.888 535.835 246.888C528.443 246.888 523.339 252.256 523.339 260.176ZM583.681 283.144C571.097 283.144 563.265 273.904 563.265 260.44C563.265 246.888 571.185 237.208 584.297 237.208C590.369 237.208 595.737 239.76 598.465 244.072V216.528H609.113V282H599.257L598.553 275.224C595.913 280.24 590.281 283.144 583.681 283.144ZM586.057 273.288C593.537 273.288 598.377 267.92 598.377 260.088C598.377 252.256 593.537 246.8 586.057 246.8C578.577 246.8 574.001 252.344 574.001 260.088C574.001 267.832 578.577 273.288 586.057 273.288ZM660.124 282L635.836 217.672H647.804L661.884 254.72C663.292 258.592 664.524 262.376 665.932 267.568C667.516 261.936 668.836 257.976 670.068 254.72L683.972 217.672H695.676L671.74 282H660.124ZM697.644 235.624C697.644 224.36 706.972 216.528 720.524 216.528C733.548 216.528 741.82 223.744 742.172 235.36H730.908C730.644 229.816 726.684 226.56 720.348 226.56C713.396 226.56 708.908 229.904 708.908 235.272C708.908 239.848 711.372 242.4 716.74 243.632L726.86 245.832C737.86 248.208 743.228 253.84 743.228 263.432C743.228 275.4 733.9 283.144 719.732 283.144C706.004 283.144 697.028 275.84 696.764 264.312H708.028C708.116 269.768 712.516 273.024 719.732 273.024C727.212 273.024 731.964 269.768 731.964 264.4C731.964 260.088 729.764 257.536 724.484 256.392L714.276 254.104C703.364 251.728 697.644 245.48 697.644 235.624ZM800.808 283.056C782.064 283.056 769.92 270.032 769.92 249.88C769.92 229.904 782.504 216.616 801.336 216.616C816.56 216.616 827.912 225.504 830.112 239.32H818.232C816.032 231.84 809.608 227.44 801.072 227.44C789.192 227.44 781.712 236.064 781.712 249.792C781.712 263.432 789.28 272.232 801.072 272.232C809.784 272.232 816.472 267.656 818.584 260.528H830.288C827.824 274.08 816.032 283.056 800.808 283.056ZM834.494 260.176C834.494 246.624 844.262 237.296 857.726 237.296C871.19 237.296 880.958 246.624 880.958 260.176C880.958 273.728 871.19 283.056 857.726 283.056C844.262 283.056 834.494 273.728 834.494 260.176ZM845.23 260.176C845.23 268.096 850.334 273.464 857.726 273.464C865.118 273.464 870.222 268.096 870.222 260.176C870.222 252.256 865.118 246.888 857.726 246.888C850.334 246.888 845.23 252.256 845.23 260.176ZM905.572 283.144C892.988 283.144 885.156 273.904 885.156 260.44C885.156 246.888 893.076 237.208 906.188 237.208C912.26 237.208 917.628 239.76 920.356 244.072V216.528H931.004V282H921.148L920.444 275.224C917.804 280.24 912.172 283.144 905.572 283.144ZM907.948 273.288C915.428 273.288 920.268 267.92 920.268 260.088C920.268 252.256 915.428 246.8 907.948 246.8C900.468 246.8 895.892 252.344 895.892 260.088C895.892 267.832 900.468 273.288 907.948 273.288ZM959.88 283.144C946.944 283.144 937.88 273.728 937.88 260.264C937.88 246.624 946.768 237.208 959.528 237.208C972.552 237.208 980.824 245.92 980.824 259.472V262.728L948.088 262.816C948.88 270.472 952.928 274.344 960.056 274.344C965.952 274.344 969.824 272.056 971.056 267.92H981C979.152 277.424 971.232 283.144 959.88 283.144ZM959.616 246.008C953.28 246.008 949.408 249.44 948.352 255.952H970.176C970.176 249.968 966.04 246.008 959.616 246.008ZM456.335 370H416.383V305.672H456.335V316.056H427.647V332.6H453.343V342.544H427.647V359.616H456.335V370ZM472.771 370H460.539L475.499 348.704L460.539 326.528H473.035L482.627 341.312L491.867 326.528H503.923L489.139 348.528L503.483 370H491.163L481.923 355.656L472.771 370ZM525.063 370H514.327V335.504H505.967V326.528H514.327V312.976H525.063V326.528H533.511V335.504H525.063V370ZM557.443 371.144C544.507 371.144 535.443 361.728 535.443 348.264C535.443 334.624 544.331 325.208 557.091 325.208C570.115 325.208 578.387 333.92 578.387 347.472V350.728L545.651 350.816C546.443 358.472 550.491 362.344 557.619 362.344C563.515 362.344 567.387 360.056 568.619 355.92H578.563C576.715 365.424 568.795 371.144 557.443 371.144ZM557.179 334.008C550.843 334.008 546.971 337.44 545.915 343.952H567.739C567.739 337.968 563.603 334.008 557.179 334.008ZM595.956 370H585.22V326.528H595.164L596.044 332.16C598.772 327.76 604.052 325.208 609.948 325.208C620.86 325.208 626.492 331.984 626.492 343.248V370H615.756V345.8C615.756 338.496 612.148 334.976 606.604 334.976C600.004 334.976 595.956 339.552 595.956 346.592V370ZM631.42 356.8H641.628C641.716 360.584 644.532 362.96 649.46 362.96C654.476 362.96 657.204 360.936 657.204 357.768C657.204 355.568 656.06 353.984 652.188 353.104L644.356 351.256C636.524 349.496 632.74 345.8 632.74 338.848C632.74 330.312 639.956 325.208 649.988 325.208C659.756 325.208 666.356 330.84 666.444 339.288H656.236C656.148 335.592 653.684 333.216 649.548 333.216C645.324 333.216 642.86 335.152 642.86 338.408C642.86 340.872 644.796 342.456 648.492 343.336L656.324 345.184C663.628 346.856 667.324 350.2 667.324 356.888C667.324 365.688 659.844 371.144 649.108 371.144C638.284 371.144 631.42 365.336 631.42 356.8ZM679.107 317.816C675.411 317.816 672.507 314.912 672.507 311.304C672.507 307.696 675.411 304.88 679.107 304.88C682.627 304.88 685.531 307.696 685.531 311.304C685.531 314.912 682.627 317.816 679.107 317.816ZM673.739 370V326.528H684.475V370H673.739ZM691.255 348.176C691.255 334.624 701.023 325.296 714.487 325.296C727.951 325.296 737.719 334.624 737.719 348.176C737.719 361.728 727.951 371.056 714.487 371.056C701.023 371.056 691.255 361.728 691.255 348.176ZM701.991 348.176C701.991 356.096 707.095 361.464 714.487 361.464C721.879 361.464 726.983 356.096 726.983 348.176C726.983 340.256 721.879 334.888 714.487 334.888C707.095 334.888 701.991 340.256 701.991 348.176ZM755.205 370H744.469V326.528H754.413L755.293 332.16C758.021 327.76 763.301 325.208 769.197 325.208C780.109 325.208 785.741 331.984 785.741 343.248V370H775.005V345.8C775.005 338.496 771.397 334.976 765.853 334.976C759.253 334.976 755.205 339.552 755.205 346.592V370Z" fill="white"/>
<rect x="522.5" y="425" width="155" height="46" rx="8" fill="#D6FF62"/>
<path d="M554.061 447.948C554.061 452.832 550.849 456.264 546.229 456.264C541.631 456.264 538.463 452.854 538.463 447.948C538.463 443.064 541.653 439.632 546.251 439.632C550.849 439.632 554.061 443.042 554.061 447.948ZM551.091 447.948C551.091 444.516 549.199 442.338 546.251 442.338C543.303 442.338 541.411 444.516 541.411 447.948C541.411 451.38 543.303 453.558 546.251 453.558C549.199 453.558 551.091 451.336 551.091 447.948ZM561.497 456L555.425 439.918H558.417L561.937 449.18C562.289 450.148 562.597 451.094 562.949 452.392C563.345 450.984 563.675 449.994 563.983 449.18L567.459 439.918H570.385L564.401 456H561.497ZM583.479 456H573.491V439.918H583.479V442.514H576.307V446.65H582.731V449.136H576.307V453.404H583.479V456ZM590.448 456H587.632V439.918H593.77C597.422 439.918 599.556 441.766 599.556 444.934C599.556 447.09 598.544 448.63 596.652 449.4L599.71 456H596.63L593.902 449.994H590.448V456ZM590.448 442.426V447.508H593.77C595.552 447.508 596.608 446.562 596.608 444.934C596.608 443.328 595.552 442.426 593.77 442.426H590.448ZM607.787 456L601.715 439.918H604.707L608.227 449.18C608.579 450.148 608.887 451.094 609.239 452.392C609.635 450.984 609.965 449.994 610.273 449.18L613.749 439.918H616.675L610.691 456H607.787ZM622.598 439.918V456H619.782V439.918H622.598ZM637.25 456H627.262V439.918H637.25V442.514H630.078V446.65H636.502V449.136H630.078V453.404H637.25V456ZM644.747 456L639.951 439.918H642.877L645.429 448.41C645.671 449.29 645.913 450.192 646.155 451.6C646.419 450.17 646.661 449.334 646.947 448.41L649.477 439.918H652.579L655.065 448.41C655.329 449.312 655.571 450.236 655.835 451.6C656.143 450.104 656.363 449.246 656.605 448.432L659.201 439.918H662.061L657.177 456H654.449L651.017 444.296L647.519 456H644.747Z" fill="#0B151E"/>
<g clip-path="url(#clip1_1092_1083)">
<path d="M503 119.486L515.029 88.5986H519.038L506.967 119.486H503Z" fill="white"/>
<path d="M526.876 97.968C532.123 97.968 535.791 100.962 536.517 105.626H532.508C531.825 102.974 529.692 101.561 527.005 101.561C523.209 101.561 520.607 104.47 520.607 109.005C520.607 113.54 523.038 116.406 526.835 116.406C529.693 116.406 531.826 114.909 532.551 112.427H536.561C535.75 116.962 531.869 119.999 526.835 119.999C520.692 119.999 516.641 115.636 516.641 109.047C516.641 102.458 520.778 97.9668 526.879 97.9668L526.876 97.968Z" fill="white"/>
<path d="M549.44 98.0098C555.668 98.0098 560.275 102.545 560.275 109.004C560.275 115.463 555.668 119.999 549.44 119.999C543.211 119.999 538.562 115.463 538.562 109.004C538.562 102.545 543.169 98.0098 549.44 98.0098ZM549.44 116.406C553.449 116.406 556.265 113.368 556.265 109.004C556.265 104.641 553.449 101.603 549.44 101.603C545.43 101.603 542.614 104.641 542.614 109.004C542.614 113.368 545.387 116.406 549.44 116.406Z" fill="white"/>
<path d="M562.488 109.09C562.488 102.673 566.2 97.9677 572.385 97.9677C575.584 97.9677 578.272 99.379 579.679 101.946V88H583.647V119.486H580.064L579.723 115.679C578.358 118.545 575.542 120 572.215 120C566.158 120 562.489 115.465 562.489 109.091L562.488 109.09ZM579.636 108.962C579.636 104.685 577.119 101.604 573.024 101.604C568.929 101.604 566.54 104.685 566.54 108.962C566.54 113.24 568.929 116.363 573.024 116.363C577.119 116.363 579.636 113.325 579.636 108.962Z" fill="white"/>
<path d="M585.949 109.048C585.949 102.503 590.087 97.9678 596.144 97.9678C602.201 97.9678 605.955 102.075 605.955 108.278V109.775L589.831 109.817C590.13 114.224 592.433 116.662 596.401 116.662C599.514 116.662 601.562 115.379 602.244 112.983H605.998C604.975 117.475 601.476 119.999 596.315 119.999C590.172 119.999 585.949 115.55 585.949 109.047V109.048ZM589.917 107.123H601.947C601.947 103.658 599.686 101.348 596.145 101.348C592.605 101.348 590.429 103.444 589.917 107.123Z" fill="white"/>
<path d="M608.301 119.486V98.5664H611.883L612.267 101.304C613.333 99.3368 615.552 97.9678 618.495 97.9678C621.737 97.9678 624.041 99.5932 625.107 102.203C626.089 99.5932 628.606 97.9678 631.847 97.9678C636.625 97.9678 639.525 100.962 639.525 105.796V119.486H635.601V106.78C635.601 103.486 633.767 101.604 630.951 101.604C627.922 101.604 625.918 103.744 625.918 107.08V119.486H621.95V106.738C621.95 103.444 620.158 101.647 617.344 101.647C614.315 101.647 612.31 103.743 612.31 107.079V119.485H608.301V119.486Z" fill="white"/>
<path d="M653.088 98.0098C659.317 98.0098 663.923 102.545 663.923 109.004C663.923 115.463 659.317 119.999 653.088 119.999C646.86 119.999 642.211 115.463 642.211 109.004C642.211 102.545 646.817 98.0098 653.088 98.0098ZM653.088 116.406C657.098 116.406 659.913 113.368 659.913 109.004C659.913 104.641 657.098 101.603 653.088 101.603C649.079 101.603 646.263 104.641 646.263 109.004C646.263 113.368 649.035 116.406 653.088 116.406Z" fill="white"/>
<path d="M666.137 109.09C666.137 102.673 669.848 97.9677 676.033 97.9677C679.233 97.9677 681.921 99.379 683.328 101.946V88H687.295V119.486H683.713L683.371 115.679C682.006 118.545 679.19 120 675.863 120C669.806 120 666.138 115.465 666.138 109.091L666.137 109.09ZM683.285 108.962C683.285 104.685 680.768 101.604 676.673 101.604C672.577 101.604 670.189 104.685 670.189 108.962C670.189 113.24 672.577 116.363 676.673 116.363C680.768 116.363 683.285 113.325 683.285 108.962Z" fill="white"/>
<path d="M690.879 117.006C690.879 115.337 692.286 113.968 693.95 113.968C695.614 113.968 696.979 115.337 696.979 117.006C696.979 118.675 695.572 120 693.95 120C692.328 120 690.879 118.631 690.879 117.006Z" fill="white"/>
</g>
<g opacity="0.3" filter="url(#filter0_f_1092_1083)">
<ellipse cx="600" cy="751" rx="480" ry="330" transform="rotate(-180 600 751)" fill="url(#paint7_linear_1092_1083)"/>
</g>
</g>
<defs>
<filter id="filter0_f_1092_1083" x="-87.968" y="213.032" width="1375.94" height="1075.94" filterUnits="userSpaceOnUse" color-interpolation-filters="sRGB">
<feFlood flood-opacity="0" result="BackgroundImageFix"/>
<feBlend mode="normal" in="SourceGraphic" in2="BackgroundImageFix" result="shape"/>
<feGaussianBlur stdDeviation="103.984" result="effect1_foregroundBlur_1092_1083"/>
</filter>
<linearGradient id="paint0_linear_1092_1083" x1="70" y1="48.373" x2="82.559" y2="627.728" gradientUnits="userSpaceOnUse">
<stop stop-color="white" stop-opacity="0"/>
<stop offset="0.165" stop-color="white" stop-opacity="0.450549"/>
<stop offset="0.495" stop-color="white"/>
<stop offset="0.775" stop-color="white" stop-opacity="0.452703"/>
<stop offset="1" stop-color="white" stop-opacity="0"/>
</linearGradient>
<linearGradient id="paint1_linear_1092_1083" x1="246.668" y1="48.373" x2="259.227" y2="627.728" gradientUnits="userSpaceOnUse">
<stop stop-color="white" stop-opacity="0"/>
<stop offset="0.165" stop-color="white" stop-opacity="0.450549"/>
<stop offset="0.495" stop-color="white"/>
<stop offset="0.775" stop-color="white" stop-opacity="0.452703"/>
<stop offset="1" stop-color="white" stop-opacity="0"/>
</linearGradient>
<linearGradient id="paint2_linear_1092_1083" x1="423.332" y1="48.373" x2="435.891" y2="627.728" gradientUnits="userSpaceOnUse">
<stop stop-color="white" stop-opacity="0"/>
<stop offset="0.165" stop-color="white" stop-opacity="0.450549"/>
<stop offset="0.495" stop-color="white"/>
<stop offset="0.775" stop-color="white" stop-opacity="0.452703"/>
<stop offset="1" stop-color="white" stop-opacity="0"/>
</linearGradient>
<linearGradient id="paint3_linear_1092_1083" x1="600" y1="48.373" x2="612.559" y2="627.728" gradientUnits="userSpaceOnUse">
<stop stop-color="white" stop-opacity="0"/>
<stop offset="0.165" stop-color="white" stop-opacity="0.450549"/>
<stop offset="0.495" stop-color="white"/>
<stop offset="0.775" stop-color="white" stop-opacity="0.452703"/>
<stop offset="1" stop-color="white" stop-opacity="0"/>
</linearGradient>
<linearGradient id="paint4_linear_1092_1083" x1="776.668" y1="48.373" x2="789.227" y2="627.728" gradientUnits="userSpaceOnUse">
<stop stop-color="white" stop-opacity="0"/>
<stop offset="0.165" stop-color="white" stop-opacity="0.450549"/>
<stop offset="0.495" stop-color="white"/>
<stop offset="0.775" stop-color="white" stop-opacity="0.452703"/>
<stop offset="1" stop-color="white" stop-opacity="0"/>
</linearGradient>
<linearGradient id="paint5_linear_1092_1083" x1="953.332" y1="48.373" x2="965.891" y2="627.728" gradientUnits="userSpaceOnUse">
<stop stop-color="white" stop-opacity="0"/>
<stop offset="0.165" stop-color="white" stop-opacity="0.450549"/>
<stop offset="0.495" stop-color="white"/>
<stop offset="0.775" stop-color="white" stop-opacity="0.452703"/>
<stop offset="1" stop-color="white" stop-opacity="0"/>
</linearGradient>
<linearGradient id="paint6_linear_1092_1083" x1="1130" y1="48.373" x2="1142.56" y2="627.728" gradientUnits="userSpaceOnUse">
<stop stop-color="white" stop-opacity="0"/>
<stop offset="0.165" stop-color="white" stop-opacity="0.450549"/>
<stop offset="0.495" stop-color="white"/>
<stop offset="0.775" stop-color="white" stop-opacity="0.452703"/>
<stop offset="1" stop-color="white" stop-opacity="0"/>
</linearGradient>
<linearGradient id="paint7_linear_1092_1083" x1="600" y1="421" x2="600" y2="1081" gradientUnits="userSpaceOnUse">
<stop stop-color="white"/>
<stop offset="1" stop-color="white" stop-opacity="0"/>
</linearGradient>
<clipPath id="clip0_1092_1083">
<rect width="1200" height="675" fill="white"/>
</clipPath>
<clipPath id="clip1_1092_1083">
<rect width="194" height="32" fill="white" transform="translate(503 88)"/>
</clipPath>
</defs>
</svg>
