<svg width="1200" height="675" viewBox="0 0 1200 675" fill="none" xmlns="http://www.w3.org/2000/svg">
<g clip-path="url(#clip0_813_654)">
<rect width="1200" height="675" fill="#0B151E"/>
<path opacity="0.1" d="M70 48V628" stroke="url(#paint0_linear_813_654)"/>
<path opacity="0.1" d="M246.668 48V628" stroke="url(#paint1_linear_813_654)"/>
<path opacity="0.05" d="M423.332 48V628" stroke="url(#paint2_linear_813_654)"/>
<path opacity="0.05" d="M600 48V628" stroke="url(#paint3_linear_813_654)"/>
<path opacity="0.05" d="M776.668 48V628" stroke="url(#paint4_linear_813_654)"/>
<path opacity="0.1" d="M953.332 48V628" stroke="url(#paint5_linear_813_654)"/>
<path opacity="0.1" d="M1130 48V628" stroke="url(#paint6_linear_813_654)"/>
<circle opacity="0.2" cx="600" cy="543" r="2" fill="white"/>
<circle cx="424" cy="122" r="2" fill="white"/>
<circle opacity="0.2" cx="247" cy="286" r="2" fill="white"/>
<circle cx="70" cy="458" r="2" fill="white"/>
<circle opacity="0.5" cx="777" cy="150" r="2" fill="white"/>
<circle opacity="0.5" cx="953" cy="508" r="2" fill="white"/>
<circle cx="1130" cy="150" r="2" fill="white"/>
<path d="M201.408 326H178.264V261.672H200.792C219.8 261.672 232.912 274.784 232.912 293.968C232.912 312.888 220.064 326 201.408 326ZM199.736 272.056H189.528V315.616H200.352C213.2 315.616 221.032 307.344 221.032 293.968C221.032 280.328 213.024 272.056 199.736 272.056ZM259.508 327.144C246.572 327.144 237.508 317.728 237.508 304.264C237.508 290.624 246.396 281.208 259.156 281.208C272.18 281.208 280.452 289.92 280.452 303.472V306.728L247.716 306.816C248.508 314.472 252.556 318.344 259.684 318.344C265.58 318.344 269.452 316.056 270.684 311.92H280.628C278.78 321.424 270.86 327.144 259.508 327.144ZM259.244 290.008C252.908 290.008 249.036 293.44 247.98 299.952H269.804C269.804 293.968 265.668 290.008 259.244 290.008ZM287.285 346.152V282.528H297.229L297.933 289.128C300.573 284.112 306.293 281.208 312.893 281.208C325.125 281.208 333.221 290.096 333.221 303.736C333.221 317.288 325.829 327.144 312.893 327.144C306.381 327.144 300.749 324.592 298.021 320.192V346.152H287.285ZM298.109 304.264C298.109 312.096 302.949 317.464 310.341 317.464C317.909 317.464 322.397 312.008 322.397 304.264C322.397 296.52 317.909 290.976 310.341 290.976C302.949 290.976 298.109 296.432 298.109 304.264ZM350.833 326H340.185V260.528H350.833V326ZM357.783 304.176C357.783 290.624 367.551 281.296 381.015 281.296C394.479 281.296 404.247 290.624 404.247 304.176C404.247 317.728 394.479 327.056 381.015 327.056C367.551 327.056 357.783 317.728 357.783 304.176ZM368.519 304.176C368.519 312.096 373.623 317.464 381.015 317.464C388.407 317.464 393.511 312.096 393.511 304.176C393.511 296.256 388.407 290.888 381.015 290.888C373.623 290.888 368.519 296.256 368.519 304.176ZM405.58 346.152V337.176H412.004C416.228 337.176 418.868 336.208 420.716 331.104L421.948 327.848L404.436 282.528H415.788L426.964 314.208L438.756 282.528H449.844L428.548 335.68C425.292 343.776 420.716 347.12 413.588 347.12C410.596 347.12 407.956 346.768 405.58 346.152ZM459.55 273.816C455.854 273.816 452.95 270.912 452.95 267.304C452.95 263.696 455.854 260.88 459.55 260.88C463.07 260.88 465.974 263.696 465.974 267.304C465.974 270.912 463.07 273.816 459.55 273.816ZM454.182 326V282.528H464.918V326H454.182ZM484.986 326H474.25V282.528H484.194L485.074 288.16C487.802 283.76 493.082 281.208 498.978 281.208C509.89 281.208 515.522 287.984 515.522 299.248V326H504.786V301.8C504.786 294.496 501.178 290.976 495.634 290.976C489.034 290.976 484.986 295.552 484.986 302.592V326ZM521.847 303.296C521.847 290.624 530.119 281.12 542.527 281.12C549.039 281.12 554.143 283.848 556.695 288.512L557.311 282.528H567.255V323.8C567.255 338.32 558.543 347.384 544.463 347.384C531.967 347.384 523.431 340.256 522.111 328.64H532.847C533.551 334.272 537.863 337.616 544.463 337.616C551.855 337.616 556.607 332.952 556.607 325.736V318.52C553.879 322.568 548.511 325.12 542.263 325.12C529.943 325.12 521.847 315.88 521.847 303.296ZM532.671 303.032C532.671 310.336 537.335 315.792 544.375 315.792C551.767 315.792 556.343 310.6 556.343 303.032C556.343 295.64 551.855 290.536 544.375 290.536C537.247 290.536 532.671 295.904 532.671 303.032ZM627.34 327.056C608.596 327.056 596.452 314.032 596.452 293.88C596.452 273.904 609.036 260.616 627.868 260.616C643.092 260.616 654.444 269.504 656.644 283.32H644.764C642.564 275.84 636.14 271.44 627.604 271.44C615.724 271.44 608.244 280.064 608.244 293.792C608.244 307.432 615.812 316.232 627.604 316.232C636.316 316.232 643.004 311.656 645.116 304.528H656.82C654.356 318.08 642.564 327.056 627.34 327.056ZM661.026 304.176C661.026 290.624 670.794 281.296 684.258 281.296C697.722 281.296 707.49 290.624 707.49 304.176C707.49 317.728 697.722 327.056 684.258 327.056C670.794 327.056 661.026 317.728 661.026 304.176ZM671.762 304.176C671.762 312.096 676.866 317.464 684.258 317.464C691.65 317.464 696.754 312.096 696.754 304.176C696.754 296.256 691.65 290.888 684.258 290.888C676.866 290.888 671.762 296.256 671.762 304.176ZM732.103 327.144C719.519 327.144 711.687 317.904 711.687 304.44C711.687 290.888 719.607 281.208 732.719 281.208C738.791 281.208 744.159 283.76 746.887 288.072V260.528H757.535V326H747.679L746.975 319.224C744.335 324.24 738.703 327.144 732.103 327.144ZM734.479 317.288C741.959 317.288 746.799 311.92 746.799 304.088C746.799 296.256 741.959 290.8 734.479 290.8C726.999 290.8 722.423 296.344 722.423 304.088C722.423 311.832 726.999 317.288 734.479 317.288ZM786.412 327.144C773.476 327.144 764.412 317.728 764.412 304.264C764.412 290.624 773.3 281.208 786.06 281.208C799.084 281.208 807.356 289.92 807.356 303.472V306.728L774.62 306.816C775.412 314.472 779.46 318.344 786.588 318.344C792.484 318.344 796.356 316.056 797.588 311.92H807.532C805.684 321.424 797.764 327.144 786.412 327.144ZM786.148 290.008C779.812 290.008 775.94 293.44 774.884 299.952H796.708C796.708 293.968 792.572 290.008 786.148 290.008ZM824.924 326H814.188V282.528H824.044L824.924 287.632C827.124 284.024 831.524 281.208 837.772 281.208C844.372 281.208 848.948 284.464 851.236 289.48C853.436 284.464 858.54 281.208 865.14 281.208C875.7 281.208 881.508 287.544 881.508 297.576V326H870.86V300.392C870.86 294.144 867.516 290.888 862.412 290.888C857.22 290.888 853.26 294.232 853.26 301.36V326H842.524V300.304C842.524 294.232 839.268 290.976 834.164 290.976C829.06 290.976 824.924 294.32 824.924 301.36V326ZM887.736 304.176C887.736 290.624 897.504 281.296 910.968 281.296C924.432 281.296 934.2 290.624 934.2 304.176C934.2 317.728 924.432 327.056 910.968 327.056C897.504 327.056 887.736 317.728 887.736 304.176ZM898.472 304.176C898.472 312.096 903.576 317.464 910.968 317.464C918.36 317.464 923.464 312.096 923.464 304.176C923.464 296.256 918.36 290.888 910.968 290.888C903.576 290.888 898.472 296.256 898.472 304.176ZM958.814 327.144C946.23 327.144 938.398 317.904 938.398 304.44C938.398 290.888 946.318 281.208 959.43 281.208C965.502 281.208 970.87 283.76 973.598 288.072V260.528H984.246V326H974.39L973.686 319.224C971.046 324.24 965.414 327.144 958.814 327.144ZM961.19 317.288C968.67 317.288 973.51 311.92 973.51 304.088C973.51 296.256 968.67 290.8 961.19 290.8C953.71 290.8 949.134 296.344 949.134 304.088C949.134 311.832 953.71 317.288 961.19 317.288ZM990.33 312.8H1000.54C1000.63 316.584 1003.44 318.96 1008.37 318.96C1013.39 318.96 1016.11 316.936 1016.11 313.768C1016.11 311.568 1014.97 309.984 1011.1 309.104L1003.27 307.256C995.434 305.496 991.65 301.8 991.65 294.848C991.65 286.312 998.866 281.208 1008.9 281.208C1018.67 281.208 1025.27 286.84 1025.35 295.288H1015.15C1015.06 291.592 1012.59 289.216 1008.46 289.216C1004.23 289.216 1001.77 291.152 1001.77 294.408C1001.77 296.872 1003.71 298.456 1007.4 299.336L1015.23 301.184C1022.54 302.856 1026.23 306.2 1026.23 312.888C1026.23 321.688 1018.75 327.144 1008.02 327.144C997.194 327.144 990.33 321.336 990.33 312.8Z" fill="white"/>
<rect x="462.5" y="381" width="275" height="46" rx="8" fill="#D6FF62"/>
<path d="M483.818 412L477.746 395.918H480.738L484.258 405.18C484.61 406.148 484.918 407.094 485.27 408.392C485.666 406.984 485.996 405.994 486.304 405.18L489.78 395.918H492.706L486.722 412H483.818ZM494.738 400.406C494.738 397.59 497.07 395.632 500.458 395.632C503.714 395.632 505.782 397.436 505.87 400.34H503.054C502.988 398.954 501.998 398.14 500.414 398.14C498.676 398.14 497.554 398.976 497.554 400.318C497.554 401.462 498.17 402.1 499.512 402.408L502.042 402.958C504.792 403.552 506.134 404.96 506.134 407.358C506.134 410.35 503.802 412.286 500.26 412.286C496.828 412.286 494.584 410.46 494.518 407.578H497.334C497.356 408.942 498.456 409.756 500.26 409.756C502.13 409.756 503.318 408.942 503.318 407.6C503.318 406.522 502.768 405.884 501.448 405.598L498.896 405.026C496.168 404.432 494.738 402.87 494.738 400.406ZM523.609 412.264C518.923 412.264 515.887 409.008 515.887 403.97C515.887 398.976 519.033 395.654 523.741 395.654C527.547 395.654 530.385 397.876 530.935 401.33H527.965C527.415 399.46 525.809 398.36 523.675 398.36C520.705 398.36 518.835 400.516 518.835 403.948C518.835 407.358 520.727 409.558 523.675 409.558C525.853 409.558 527.525 408.414 528.053 406.632H530.979C530.363 410.02 527.415 412.264 523.609 412.264ZM549.279 403.948C549.279 408.832 546.067 412.264 541.447 412.264C536.849 412.264 533.681 408.854 533.681 403.948C533.681 399.064 536.871 395.632 541.469 395.632C546.067 395.632 549.279 399.042 549.279 403.948ZM546.309 403.948C546.309 400.516 544.417 398.338 541.469 398.338C538.521 398.338 536.629 400.516 536.629 403.948C536.629 407.38 538.521 409.558 541.469 409.558C544.417 409.558 546.309 407.336 546.309 403.948ZM558.786 412H553V395.918H558.632C563.384 395.918 566.662 399.196 566.662 403.992C566.662 408.722 563.45 412 558.786 412ZM558.368 398.514H555.816V409.404H558.522C561.734 409.404 563.692 407.336 563.692 403.992C563.692 400.582 561.69 398.514 558.368 398.514ZM580.373 412H570.385V395.918H580.373V398.514H573.201V402.65H579.625V405.136H573.201V409.404H580.373V412ZM601.543 412H591.555V395.918H601.543V398.514H594.371V402.65H600.795V405.136H594.371V409.404H601.543V412ZM609.744 403.97L604.398 395.918H607.742L609.7 398.8C610.36 399.79 610.91 400.714 611.504 401.814L615.244 395.918H618.522L613.264 403.948L618.544 412H615.222L613.418 409.338C612.714 408.26 612.142 407.292 611.504 406.126L607.588 412H604.288L609.744 403.97ZM620.363 398.514V395.918H632.595V398.514H627.887V412H625.071V398.514H620.363ZM645.836 412H635.848V395.918H645.836V398.514H638.664V402.65H645.088V405.136H638.664V409.404H645.836V412ZM652.761 412H649.989V395.918H652.783L660.329 407.314V395.918H663.101V412H660.329L652.761 400.604V412ZM666.665 400.406C666.665 397.59 668.997 395.632 672.385 395.632C675.641 395.632 677.709 397.436 677.797 400.34H674.981C674.915 398.954 673.925 398.14 672.341 398.14C670.603 398.14 669.481 398.976 669.481 400.318C669.481 401.462 670.097 402.1 671.439 402.408L673.969 402.958C676.719 403.552 678.061 404.96 678.061 407.358C678.061 410.35 675.729 412.286 672.187 412.286C668.755 412.286 666.511 410.46 666.445 407.578H669.261C669.283 408.942 670.383 409.756 672.187 409.756C674.057 409.756 675.245 408.942 675.245 407.6C675.245 406.522 674.695 405.884 673.375 405.598L670.823 405.026C668.095 404.432 666.665 402.87 666.665 400.406ZM684.524 395.918V412H681.708V395.918H684.524ZM703.863 403.948C703.863 408.832 700.651 412.264 696.031 412.264C691.433 412.264 688.265 408.854 688.265 403.948C688.265 399.064 691.455 395.632 696.053 395.632C700.651 395.632 703.863 399.042 703.863 403.948ZM700.893 403.948C700.893 400.516 699.001 398.338 696.053 398.338C693.105 398.338 691.213 400.516 691.213 403.948C691.213 407.38 693.105 409.558 696.053 409.558C699.001 409.558 700.893 407.336 700.893 403.948ZM710.356 412H707.584V395.918H710.378L717.924 407.314V395.918H720.696V412H717.924L710.356 400.604V412Z" fill="#0B151E"/>
<g clip-path="url(#clip1_813_654)">
<path d="M503 119.486L515.029 88.5986H519.038L506.967 119.486H503Z" fill="white"/>
<path d="M526.876 97.9675C532.123 97.9675 535.791 100.962 536.517 105.625H532.508C531.825 102.973 529.692 101.561 527.005 101.561C523.209 101.561 520.607 104.469 520.607 109.004C520.607 113.539 523.038 116.406 526.835 116.406C529.693 116.406 531.826 114.908 532.551 112.427H536.561C535.75 116.962 531.869 119.999 526.835 119.999C520.692 119.999 516.641 115.635 516.641 109.047C516.641 102.458 520.778 97.9663 526.879 97.9663L526.876 97.9675Z" fill="white"/>
<path d="M549.44 98.0098C555.668 98.0098 560.275 102.545 560.275 109.004C560.275 115.463 555.668 119.999 549.44 119.999C543.211 119.999 538.562 115.463 538.562 109.004C538.562 102.545 543.169 98.0098 549.44 98.0098ZM549.44 116.406C553.449 116.406 556.265 113.368 556.265 109.004C556.265 104.641 553.449 101.603 549.44 101.603C545.43 101.603 542.614 104.641 542.614 109.004C542.614 113.368 545.387 116.406 549.44 116.406Z" fill="white"/>
<path d="M562.488 109.09C562.488 102.673 566.2 97.9677 572.385 97.9677C575.584 97.9677 578.272 99.379 579.679 101.946V88H583.647V119.486H580.064L579.723 115.679C578.358 118.545 575.542 120 572.215 120C566.158 120 562.489 115.465 562.489 109.091L562.488 109.09ZM579.636 108.962C579.636 104.685 577.119 101.604 573.024 101.604C568.929 101.604 566.54 104.685 566.54 108.962C566.54 113.24 568.929 116.363 573.024 116.363C577.119 116.363 579.636 113.325 579.636 108.962Z" fill="white"/>
<path d="M585.949 109.048C585.949 102.503 590.087 97.9678 596.144 97.9678C602.201 97.9678 605.955 102.075 605.955 108.278V109.775L589.831 109.817C590.13 114.224 592.433 116.662 596.401 116.662C599.514 116.662 601.562 115.379 602.244 112.983H605.998C604.975 117.475 601.476 119.999 596.315 119.999C590.172 119.999 585.949 115.55 585.949 109.047V109.048ZM589.917 107.123H601.947C601.947 103.658 599.686 101.348 596.145 101.348C592.605 101.348 590.429 103.444 589.917 107.123Z" fill="white"/>
<path d="M608.301 119.486V98.5664H611.883L612.267 101.304C613.333 99.3368 615.552 97.9678 618.495 97.9678C621.737 97.9678 624.041 99.5932 625.107 102.203C626.089 99.5932 628.606 97.9678 631.847 97.9678C636.625 97.9678 639.525 100.962 639.525 105.796V119.486H635.601V106.78C635.601 103.486 633.767 101.604 630.951 101.604C627.922 101.604 625.918 103.744 625.918 107.08V119.486H621.95V106.738C621.95 103.444 620.158 101.647 617.344 101.647C614.315 101.647 612.31 103.743 612.31 107.079V119.485H608.301V119.486Z" fill="white"/>
<path d="M653.088 98.0098C659.317 98.0098 663.923 102.545 663.923 109.004C663.923 115.463 659.317 119.999 653.088 119.999C646.86 119.999 642.211 115.463 642.211 109.004C642.211 102.545 646.817 98.0098 653.088 98.0098ZM653.088 116.406C657.098 116.406 659.913 113.368 659.913 109.004C659.913 104.641 657.098 101.603 653.088 101.603C649.079 101.603 646.263 104.641 646.263 109.004C646.263 113.368 649.035 116.406 653.088 116.406Z" fill="white"/>
<path d="M666.137 109.09C666.137 102.673 669.848 97.9677 676.033 97.9677C679.233 97.9677 681.921 99.379 683.328 101.946V88H687.295V119.486H683.713L683.371 115.679C682.006 118.545 679.19 120 675.863 120C669.806 120 666.138 115.465 666.138 109.091L666.137 109.09ZM683.285 108.962C683.285 104.685 680.768 101.604 676.673 101.604C672.577 101.604 670.189 104.685 670.189 108.962C670.189 113.24 672.577 116.363 676.673 116.363C680.768 116.363 683.285 113.325 683.285 108.962Z" fill="white"/>
<path d="M690.879 117.005C690.879 115.336 692.286 113.967 693.95 113.967C695.614 113.967 696.979 115.336 696.979 117.005C696.979 118.674 695.572 120 693.95 120C692.328 120 690.879 118.631 690.879 117.005Z" fill="white"/>
</g>
<g opacity="0.3" filter="url(#filter0_f_813_654)">
<ellipse cx="600" cy="751" rx="480" ry="330" transform="rotate(-180 600 751)" fill="url(#paint7_linear_813_654)"/>
</g>
</g>
<defs>
<filter id="filter0_f_813_654" x="-87.968" y="213.032" width="1375.94" height="1075.94" filterUnits="userSpaceOnUse" color-interpolation-filters="sRGB">
<feFlood flood-opacity="0" result="BackgroundImageFix"/>
<feBlend mode="normal" in="SourceGraphic" in2="BackgroundImageFix" result="shape"/>
<feGaussianBlur stdDeviation="103.984" result="effect1_foregroundBlur_813_654"/>
</filter>
<linearGradient id="paint0_linear_813_654" x1="70" y1="48.373" x2="82.559" y2="627.728" gradientUnits="userSpaceOnUse">
<stop stop-color="white" stop-opacity="0"/>
<stop offset="0.165" stop-color="white" stop-opacity="0.450549"/>
<stop offset="0.495" stop-color="white"/>
<stop offset="0.775" stop-color="white" stop-opacity="0.452703"/>
<stop offset="1" stop-color="white" stop-opacity="0"/>
</linearGradient>
<linearGradient id="paint1_linear_813_654" x1="246.668" y1="48.373" x2="259.227" y2="627.728" gradientUnits="userSpaceOnUse">
<stop stop-color="white" stop-opacity="0"/>
<stop offset="0.165" stop-color="white" stop-opacity="0.450549"/>
<stop offset="0.495" stop-color="white"/>
<stop offset="0.775" stop-color="white" stop-opacity="0.452703"/>
<stop offset="1" stop-color="white" stop-opacity="0"/>
</linearGradient>
<linearGradient id="paint2_linear_813_654" x1="423.332" y1="48.373" x2="435.891" y2="627.728" gradientUnits="userSpaceOnUse">
<stop stop-color="white" stop-opacity="0"/>
<stop offset="0.165" stop-color="white" stop-opacity="0.450549"/>
<stop offset="0.495" stop-color="white"/>
<stop offset="0.775" stop-color="white" stop-opacity="0.452703"/>
<stop offset="1" stop-color="white" stop-opacity="0"/>
</linearGradient>
<linearGradient id="paint3_linear_813_654" x1="600" y1="48.373" x2="612.559" y2="627.728" gradientUnits="userSpaceOnUse">
<stop stop-color="white" stop-opacity="0"/>
<stop offset="0.165" stop-color="white" stop-opacity="0.450549"/>
<stop offset="0.495" stop-color="white"/>
<stop offset="0.775" stop-color="white" stop-opacity="0.452703"/>
<stop offset="1" stop-color="white" stop-opacity="0"/>
</linearGradient>
<linearGradient id="paint4_linear_813_654" x1="776.668" y1="48.373" x2="789.227" y2="627.728" gradientUnits="userSpaceOnUse">
<stop stop-color="white" stop-opacity="0"/>
<stop offset="0.165" stop-color="white" stop-opacity="0.450549"/>
<stop offset="0.495" stop-color="white"/>
<stop offset="0.775" stop-color="white" stop-opacity="0.452703"/>
<stop offset="1" stop-color="white" stop-opacity="0"/>
</linearGradient>
<linearGradient id="paint5_linear_813_654" x1="953.332" y1="48.373" x2="965.891" y2="627.728" gradientUnits="userSpaceOnUse">
<stop stop-color="white" stop-opacity="0"/>
<stop offset="0.165" stop-color="white" stop-opacity="0.450549"/>
<stop offset="0.495" stop-color="white"/>
<stop offset="0.775" stop-color="white" stop-opacity="0.452703"/>
<stop offset="1" stop-color="white" stop-opacity="0"/>
</linearGradient>
<linearGradient id="paint6_linear_813_654" x1="1130" y1="48.373" x2="1142.56" y2="627.728" gradientUnits="userSpaceOnUse">
<stop stop-color="white" stop-opacity="0"/>
<stop offset="0.165" stop-color="white" stop-opacity="0.450549"/>
<stop offset="0.495" stop-color="white"/>
<stop offset="0.775" stop-color="white" stop-opacity="0.452703"/>
<stop offset="1" stop-color="white" stop-opacity="0"/>
</linearGradient>
<linearGradient id="paint7_linear_813_654" x1="600" y1="421" x2="600" y2="1081" gradientUnits="userSpaceOnUse">
<stop stop-color="white"/>
<stop offset="1" stop-color="white" stop-opacity="0"/>
</linearGradient>
<clipPath id="clip0_813_654">
<rect width="1200" height="675" fill="white"/>
</clipPath>
<clipPath id="clip1_813_654">
<rect width="194" height="32" fill="white" transform="translate(503 88)"/>
</clipPath>
</defs>
</svg>
