<svg width="1200" height="675" viewBox="0 0 1200 675" fill="none" xmlns="http://www.w3.org/2000/svg">
<g clip-path="url(#clip0_811_488)">
<rect width="1200" height="675" fill="#0B151E"/>
<path opacity="0.1" d="M70 48V628" stroke="url(#paint0_linear_811_488)"/>
<path opacity="0.1" d="M246.668 48V628" stroke="url(#paint1_linear_811_488)"/>
<path opacity="0.05" d="M423.332 48V628" stroke="url(#paint2_linear_811_488)"/>
<path opacity="0.05" d="M600 48V628" stroke="url(#paint3_linear_811_488)"/>
<path opacity="0.05" d="M776.668 48V628" stroke="url(#paint4_linear_811_488)"/>
<path opacity="0.1" d="M953.332 48V628" stroke="url(#paint5_linear_811_488)"/>
<path opacity="0.1" d="M1130 48V628" stroke="url(#paint6_linear_811_488)"/>
<circle opacity="0.2" cx="600" cy="543" r="2" fill="white"/>
<circle cx="424" cy="122" r="2" fill="white"/>
<circle opacity="0.2" cx="247" cy="286" r="2" fill="white"/>
<circle cx="70" cy="458" r="2" fill="white"/>
<circle opacity="0.5" cx="777" cy="150" r="2" fill="white"/>
<circle opacity="0.5" cx="953" cy="508" r="2" fill="white"/>
<circle cx="1130" cy="150" r="2" fill="white"/>
<path d="M225.494 328.5H214.23V264.172H238.782C253.39 264.172 261.926 271.564 261.926 284.236C261.926 292.86 257.878 299.02 250.31 302.1L262.542 328.5H250.222L239.31 304.476H225.494V328.5ZM225.494 274.204V294.532H238.782C245.91 294.532 250.134 290.748 250.134 284.236C250.134 277.812 245.91 274.204 238.782 274.204H225.494ZM298.03 285.028H308.766V328.5H298.822L298.03 322.692C295.39 326.828 289.758 329.644 283.95 329.644C273.918 329.644 268.022 322.868 268.022 312.22V285.028H278.758V308.436C278.758 316.708 282.014 320.052 287.998 320.052C294.774 320.052 298.03 316.092 298.03 307.82V285.028ZM328.831 328.5H318.095V285.028H328.039L328.919 290.66C331.647 286.26 336.927 283.708 342.823 283.708C353.735 283.708 359.367 290.484 359.367 301.748V328.5H348.631V304.3C348.631 296.996 345.023 293.476 339.479 293.476C332.879 293.476 328.831 298.052 328.831 305.092V328.5ZM378.891 328.5H368.155V285.028H378.099L378.979 290.66C381.707 286.26 386.987 283.708 392.883 283.708C403.795 283.708 409.427 290.484 409.427 301.748V328.5H398.691V304.3C398.691 296.996 395.083 293.476 389.539 293.476C382.939 293.476 378.891 298.052 378.891 305.092V328.5ZM423.584 276.316C419.888 276.316 416.984 273.412 416.984 269.804C416.984 266.196 419.888 263.38 423.584 263.38C427.104 263.38 430.008 266.196 430.008 269.804C430.008 273.412 427.104 276.316 423.584 276.316ZM418.216 328.5V285.028H428.952V328.5H418.216ZM449.02 328.5H438.284V285.028H448.228L449.108 290.66C451.836 286.26 457.116 283.708 463.012 283.708C473.924 283.708 479.556 290.484 479.556 301.748V328.5H468.82V304.3C468.82 296.996 465.212 293.476 459.668 293.476C453.068 293.476 449.02 298.052 449.02 305.092V328.5ZM485.88 305.796C485.88 293.124 494.152 283.62 506.56 283.62C513.072 283.62 518.176 286.348 520.728 291.012L521.344 285.028H531.288V326.3C531.288 340.82 522.576 349.884 508.496 349.884C496 349.884 487.464 342.756 486.144 331.14H496.88C497.584 336.772 501.896 340.116 508.496 340.116C515.888 340.116 520.64 335.452 520.64 328.236V321.02C517.912 325.068 512.544 327.62 506.296 327.62C493.976 327.62 485.88 318.38 485.88 305.796ZM496.704 305.532C496.704 312.836 501.368 318.292 508.408 318.292C515.8 318.292 520.376 313.1 520.376 305.532C520.376 298.14 515.888 293.036 508.408 293.036C501.28 293.036 496.704 298.404 496.704 305.532ZM591.374 329.556C572.63 329.556 560.486 316.532 560.486 296.38C560.486 276.404 573.07 263.116 591.902 263.116C607.126 263.116 618.478 272.004 620.678 285.82H608.798C606.598 278.34 600.174 273.94 591.638 273.94C579.758 273.94 572.278 282.564 572.278 296.292C572.278 309.932 579.846 318.732 591.638 318.732C600.35 318.732 607.038 314.156 609.15 307.028H620.854C618.39 320.58 606.598 329.556 591.374 329.556ZM625.059 306.676C625.059 293.124 634.827 283.796 648.291 283.796C661.755 283.796 671.523 293.124 671.523 306.676C671.523 320.228 661.755 329.556 648.291 329.556C634.827 329.556 625.059 320.228 625.059 306.676ZM635.795 306.676C635.795 314.596 640.899 319.964 648.291 319.964C655.683 319.964 660.787 314.596 660.787 306.676C660.787 298.756 655.683 293.388 648.291 293.388C640.899 293.388 635.795 298.756 635.795 306.676ZM696.137 329.644C683.553 329.644 675.721 320.404 675.721 306.94C675.721 293.388 683.641 283.708 696.753 283.708C702.825 283.708 708.193 286.26 710.921 290.572V263.028H721.569V328.5H711.713L711.009 321.724C708.369 326.74 702.737 329.644 696.137 329.644ZM698.513 319.788C705.993 319.788 710.833 314.42 710.833 306.588C710.833 298.756 705.993 293.3 698.513 293.3C691.033 293.3 686.457 298.844 686.457 306.588C686.457 314.332 691.033 319.788 698.513 319.788ZM750.445 329.644C737.509 329.644 728.445 320.228 728.445 306.764C728.445 293.124 737.333 283.708 750.093 283.708C763.117 283.708 771.389 292.42 771.389 305.972V309.228L738.653 309.316C739.445 316.972 743.493 320.844 750.621 320.844C756.517 320.844 760.389 318.556 761.621 314.42H771.565C769.717 323.924 761.797 329.644 750.445 329.644ZM750.181 292.508C743.845 292.508 739.973 295.94 738.917 302.452H760.741C760.741 296.468 756.605 292.508 750.181 292.508ZM788.958 328.5H778.222V285.028H788.078L788.958 290.132C791.158 286.524 795.558 283.708 801.806 283.708C808.406 283.708 812.982 286.964 815.27 291.98C817.47 286.964 822.574 283.708 829.174 283.708C839.734 283.708 845.542 290.044 845.542 300.076V328.5H834.894V302.892C834.894 296.644 831.55 293.388 826.446 293.388C821.254 293.388 817.294 296.732 817.294 303.86V328.5H806.558V302.804C806.558 296.732 803.302 293.476 798.198 293.476C793.094 293.476 788.958 296.82 788.958 303.86V328.5ZM851.769 306.676C851.769 293.124 861.537 283.796 875.001 283.796C888.465 283.796 898.233 293.124 898.233 306.676C898.233 320.228 888.465 329.556 875.001 329.556C861.537 329.556 851.769 320.228 851.769 306.676ZM862.505 306.676C862.505 314.596 867.609 319.964 875.001 319.964C882.393 319.964 887.497 314.596 887.497 306.676C887.497 298.756 882.393 293.388 875.001 293.388C867.609 293.388 862.505 298.756 862.505 306.676ZM922.847 329.644C910.263 329.644 902.431 320.404 902.431 306.94C902.431 293.388 910.351 283.708 923.463 283.708C929.535 283.708 934.903 286.26 937.631 290.572V263.028H948.279V328.5H938.423L937.719 321.724C935.079 326.74 929.447 329.644 922.847 329.644ZM925.223 319.788C932.703 319.788 937.543 314.42 937.543 306.588C937.543 298.756 932.703 293.3 925.223 293.3C917.743 293.3 913.167 298.844 913.167 306.588C913.167 314.332 917.743 319.788 925.223 319.788ZM954.363 315.3H964.571C964.659 319.084 967.475 321.46 972.403 321.46C977.419 321.46 980.147 319.436 980.147 316.268C980.147 314.068 979.003 312.484 975.131 311.604L967.299 309.756C959.467 307.996 955.683 304.3 955.683 297.348C955.683 288.812 962.899 283.708 972.931 283.708C982.699 283.708 989.299 289.34 989.387 297.788H979.179C979.091 294.092 976.627 291.716 972.491 291.716C968.267 291.716 965.803 293.652 965.803 296.908C965.803 299.372 967.739 300.956 971.435 301.836L979.267 303.684C986.571 305.356 990.267 308.7 990.267 315.388C990.267 324.188 982.787 329.644 972.051 329.644C961.227 329.644 954.363 323.836 954.363 315.3Z" fill="white"/>
<path d="M371.007 415.5L364.557 393.81H367.617L371.577 407.07C371.877 408.21 372.177 409.35 372.477 411C372.837 409.26 373.167 408.21 373.497 407.07L377.607 393.81H380.787L384.867 407.07C385.227 408.24 385.527 409.38 385.857 411C386.217 409.17 386.517 408.06 386.817 407.1L390.807 393.81H393.807L387.267 415.5H384.447L379.197 398.34L373.887 415.5H371.007ZM397.073 397.35C396.053 397.35 395.213 396.51 395.213 395.49C395.213 394.44 396.053 393.63 397.073 393.63C398.093 393.63 398.933 394.44 398.933 395.49C398.933 396.51 398.093 397.35 397.073 397.35ZM395.693 415.5V400.83H398.513V415.5H395.693ZM406.147 415.5H403.327V403.2H400.447V400.83H403.327V396.24H406.147V400.83H409.027V403.2H406.147V415.5ZM413.778 415.47H410.958V393.42H413.778V403.08C414.708 401.49 416.478 400.41 418.758 400.41C422.508 400.41 424.308 402.78 424.308 406.53V415.5H421.488V407.16C421.488 404.19 420.078 402.99 417.978 402.99C415.248 402.99 413.778 404.97 413.778 407.49V415.47ZM444.697 415.83C438.517 415.83 434.407 411.39 434.407 404.67C434.407 397.98 438.637 393.45 444.847 393.45C449.737 393.45 453.487 396.36 454.297 400.8H451.147C450.337 397.98 447.907 396.27 444.757 396.27C440.377 396.27 437.497 399.57 437.497 404.64C437.497 409.71 440.377 413.01 444.757 413.01C447.937 413.01 450.457 411.3 451.267 408.63H454.387C453.457 412.95 449.587 415.83 444.697 415.83ZM455.952 408.15C455.952 403.62 459.192 400.44 463.602 400.44C467.982 400.44 471.222 403.62 471.222 408.15C471.222 412.68 467.982 415.86 463.602 415.86C459.192 415.86 455.952 412.68 455.952 408.15ZM458.802 408.15C458.802 411.21 460.752 413.34 463.602 413.34C466.422 413.34 468.402 411.21 468.402 408.15C468.402 405.09 466.422 402.96 463.602 402.96C460.752 402.96 458.802 405.09 458.802 408.15ZM479.624 415.86C475.364 415.86 472.784 412.68 472.784 408.21C472.784 403.71 475.394 400.41 479.744 400.41C481.994 400.41 483.884 401.4 484.874 403.2V393.42H487.664V415.5H485.144L484.904 412.83C483.944 414.84 481.964 415.86 479.624 415.86ZM480.194 413.31C483.074 413.31 484.844 411.18 484.844 408.12C484.844 405.12 483.074 402.96 480.194 402.96C477.314 402.96 475.634 405.12 475.634 408.12C475.634 411.15 477.314 413.31 480.194 413.31ZM497.462 415.86C493.142 415.86 490.172 412.74 490.172 408.18C490.172 403.59 493.082 400.41 497.342 400.41C501.512 400.41 504.242 403.29 504.242 407.64V408.69L492.902 408.72C493.112 411.81 494.732 413.52 497.522 413.52C499.712 413.52 501.152 412.62 501.632 410.94H504.272C503.552 414.09 501.092 415.86 497.462 415.86ZM497.342 402.78C494.882 402.78 493.322 404.25 492.962 406.83H501.422C501.422 404.4 499.832 402.78 497.342 402.78ZM509.612 415.5H506.792V400.83H509.312L509.582 402.75C510.332 401.37 511.892 400.41 513.962 400.41C516.242 400.41 517.862 401.55 518.612 403.38C519.302 401.55 521.072 400.41 523.352 400.41C526.712 400.41 528.752 402.51 528.752 405.9V415.5H525.992V406.59C525.992 404.28 524.702 402.96 522.722 402.96C520.592 402.96 519.182 404.46 519.182 406.8V415.5H516.392V406.56C516.392 404.25 515.132 402.99 513.152 402.99C511.022 402.99 509.612 404.46 509.612 406.8V415.5ZM531.101 408.15C531.101 403.62 534.341 400.44 538.751 400.44C543.131 400.44 546.371 403.62 546.371 408.15C546.371 412.68 543.131 415.86 538.751 415.86C534.341 415.86 531.101 412.68 531.101 408.15ZM533.951 408.15C533.951 411.21 535.901 413.34 538.751 413.34C541.571 413.34 543.551 411.21 543.551 408.15C543.551 405.09 541.571 402.96 538.751 402.96C535.901 402.96 533.951 405.09 533.951 408.15ZM554.773 415.86C550.513 415.86 547.933 412.68 547.933 408.21C547.933 403.71 550.543 400.41 554.893 400.41C557.143 400.41 559.033 401.4 560.023 403.2V393.42H562.813V415.5H560.293L560.053 412.83C559.093 414.84 557.113 415.86 554.773 415.86ZM555.343 413.31C558.223 413.31 559.993 411.18 559.993 408.12C559.993 405.12 558.223 402.96 555.343 402.96C552.463 402.96 550.783 405.12 550.783 408.12C550.783 411.15 552.463 413.31 555.343 413.31ZM583.364 415.83C577.184 415.83 573.074 411.39 573.074 404.67C573.074 397.98 577.304 393.45 583.514 393.45C588.404 393.45 592.154 396.36 592.964 400.8H589.814C589.004 397.98 586.574 396.27 583.424 396.27C579.044 396.27 576.164 399.57 576.164 404.64C576.164 409.71 579.044 413.01 583.424 413.01C586.604 413.01 589.124 411.3 589.934 408.63H593.054C592.124 412.95 588.254 415.83 583.364 415.83ZM598.999 393.81V412.77H608.539V415.5H596.059V393.81H598.999ZM614.073 393.81V415.5H611.133V393.81H614.073ZM640.226 415.5L638.516 413.55C636.836 415.05 634.526 415.89 631.796 415.89C627.146 415.89 624.086 413.49 624.086 409.86C624.086 407.19 625.796 405.06 629.396 403.2C627.536 401.07 626.846 399.75 626.846 398.13C626.846 395.4 628.976 393.45 632.036 393.45C635.006 393.45 637.046 395.28 637.046 397.95C637.046 400.11 635.936 401.79 633.146 403.68L638.336 409.59C638.816 408.42 639.086 406.98 639.086 405.36H641.816C641.816 407.82 641.216 409.98 640.166 411.66L643.526 415.5H640.226ZM629.516 398.1C629.516 399.24 630.026 400.14 631.706 402.06C633.536 400.95 634.406 399.63 634.406 398.01C634.406 396.6 633.506 395.73 632.006 395.73C630.476 395.73 629.516 396.66 629.516 398.1ZM627.026 409.65C627.026 412.02 628.916 413.46 632.066 413.46C634.076 413.46 635.696 412.86 636.896 411.69L630.806 404.79C628.106 406.29 627.026 407.7 627.026 409.65ZM655.179 393.81V415.5H652.239V393.81H655.179ZM666.807 415.5H659.637V393.81H666.687C673.167 393.81 677.547 398.19 677.547 404.67C677.547 411.12 673.227 415.5 666.807 415.5ZM666.477 396.51H662.577V412.77H666.597C671.427 412.77 674.487 409.65 674.487 404.67C674.487 399.63 671.427 396.51 666.477 396.51ZM693.917 415.5H680.687V393.81H693.917V396.51H683.627V403.29H692.897V405.9H683.627V412.77H693.917V415.5ZM718.41 415.5H705.18V393.81H718.41V396.51H708.12V403.29H717.39V405.9H708.12V412.77H718.41V415.5ZM723.091 415.5H719.851L724.981 408.24L719.881 400.83H723.151L726.871 406.29L730.501 400.83H733.711L728.611 408.24L733.621 415.5H730.351L726.691 410.13L723.091 415.5ZM740.189 415.5H737.369V403.2H734.489V400.83H737.369V396.24H740.189V400.83H743.069V403.2H740.189V415.5ZM751.183 415.86C746.863 415.86 743.893 412.74 743.893 408.18C743.893 403.59 746.803 400.41 751.063 400.41C755.233 400.41 757.963 403.29 757.963 407.64V408.69L746.623 408.72C746.833 411.81 748.453 413.52 751.243 413.52C753.433 413.52 754.873 412.62 755.353 410.94H757.993C757.273 414.09 754.813 415.86 751.183 415.86ZM751.063 402.78C748.603 402.78 747.043 404.25 746.683 406.83H755.143C755.143 404.4 753.553 402.78 751.063 402.78ZM763.333 415.5H760.513V400.83H763.063L763.363 403.08C764.293 401.4 766.153 400.41 768.223 400.41C772.093 400.41 773.863 402.78 773.863 406.53V415.5H771.043V407.16C771.043 404.19 769.663 402.99 767.503 402.99C764.863 402.99 763.333 404.88 763.333 407.73V415.5ZM775.793 411.24H778.493C778.493 412.74 779.633 413.64 781.493 413.64C783.473 413.64 784.613 412.83 784.613 411.48C784.613 410.49 784.133 409.89 782.603 409.5L780.023 408.9C777.413 408.27 776.183 406.98 776.183 404.82C776.183 402.12 778.463 400.41 781.703 400.41C784.913 400.41 787.013 402.21 787.073 405H784.373C784.313 403.53 783.323 402.6 781.613 402.6C779.843 402.6 778.853 403.38 778.853 404.73C778.853 405.72 779.573 406.38 781.013 406.74L783.593 407.37C786.083 407.97 787.313 409.11 787.313 411.3C787.313 414.09 784.913 415.86 781.433 415.86C777.983 415.86 775.793 414.03 775.793 411.24ZM791.221 397.35C790.201 397.35 789.361 396.51 789.361 395.49C789.361 394.44 790.201 393.63 791.221 393.63C792.241 393.63 793.081 394.44 793.081 395.49C793.081 396.51 792.241 397.35 791.221 397.35ZM789.841 415.5V400.83H792.661V415.5H789.841ZM795.195 408.15C795.195 403.62 798.435 400.44 802.845 400.44C807.225 400.44 810.465 403.62 810.465 408.15C810.465 412.68 807.225 415.86 802.845 415.86C798.435 415.86 795.195 412.68 795.195 408.15ZM798.045 408.15C798.045 411.21 799.995 413.34 802.845 413.34C805.665 413.34 807.645 411.21 807.645 408.15C807.645 405.09 805.665 402.96 802.845 402.96C799.995 402.96 798.045 405.09 798.045 408.15ZM815.806 415.5H812.986V400.83H815.536L815.836 403.08C816.766 401.4 818.626 400.41 820.696 400.41C824.566 400.41 826.336 402.78 826.336 406.53V415.5H823.516V407.16C823.516 404.19 822.136 402.99 819.976 402.99C817.336 402.99 815.806 404.88 815.806 407.73V415.5ZM831.742 415.86C830.572 415.86 829.582 414.9 829.582 413.76C829.582 412.59 830.572 411.63 831.742 411.63C832.882 411.63 833.872 412.59 833.872 413.76C833.872 414.9 832.882 415.86 831.742 415.86Z" fill="white"/>
<g clip-path="url(#clip1_811_488)">
<path d="M503 119.486L515.029 88.5986H519.038L506.967 119.486H503Z" fill="white"/>
<path d="M526.876 97.9675C532.123 97.9675 535.791 100.962 536.517 105.625H532.508C531.825 102.973 529.692 101.561 527.005 101.561C523.209 101.561 520.607 104.469 520.607 109.004C520.607 113.539 523.038 116.406 526.835 116.406C529.693 116.406 531.826 114.908 532.551 112.427H536.561C535.75 116.962 531.869 119.999 526.835 119.999C520.692 119.999 516.641 115.635 516.641 109.047C516.641 102.458 520.778 97.9663 526.879 97.9663L526.876 97.9675Z" fill="white"/>
<path d="M549.44 98.0098C555.668 98.0098 560.275 102.545 560.275 109.004C560.275 115.463 555.668 119.999 549.44 119.999C543.211 119.999 538.562 115.463 538.562 109.004C538.562 102.545 543.169 98.0098 549.44 98.0098ZM549.44 116.406C553.449 116.406 556.265 113.368 556.265 109.004C556.265 104.641 553.449 101.603 549.44 101.603C545.43 101.603 542.614 104.641 542.614 109.004C542.614 113.368 545.387 116.406 549.44 116.406Z" fill="white"/>
<path d="M562.488 109.09C562.488 102.673 566.2 97.9677 572.385 97.9677C575.584 97.9677 578.272 99.379 579.679 101.946V88H583.647V119.486H580.064L579.723 115.679C578.358 118.545 575.542 120 572.215 120C566.158 120 562.489 115.465 562.489 109.091L562.488 109.09ZM579.636 108.962C579.636 104.685 577.119 101.604 573.024 101.604C568.929 101.604 566.54 104.685 566.54 108.962C566.54 113.24 568.929 116.363 573.024 116.363C577.119 116.363 579.636 113.325 579.636 108.962Z" fill="white"/>
<path d="M585.949 109.048C585.949 102.503 590.087 97.9678 596.144 97.9678C602.201 97.9678 605.955 102.075 605.955 108.278V109.775L589.831 109.817C590.13 114.224 592.433 116.662 596.401 116.662C599.514 116.662 601.562 115.379 602.244 112.983H605.998C604.975 117.475 601.476 119.999 596.315 119.999C590.172 119.999 585.949 115.55 585.949 109.047V109.048ZM589.917 107.123H601.947C601.947 103.658 599.686 101.348 596.145 101.348C592.605 101.348 590.429 103.444 589.917 107.123Z" fill="white"/>
<path d="M608.301 119.486V98.5664H611.883L612.267 101.304C613.333 99.3368 615.552 97.9678 618.495 97.9678C621.737 97.9678 624.041 99.5932 625.107 102.203C626.089 99.5932 628.606 97.9678 631.847 97.9678C636.625 97.9678 639.525 100.962 639.525 105.796V119.486H635.601V106.78C635.601 103.486 633.767 101.604 630.951 101.604C627.922 101.604 625.918 103.744 625.918 107.08V119.486H621.95V106.738C621.95 103.444 620.158 101.647 617.344 101.647C614.315 101.647 612.31 103.743 612.31 107.079V119.485H608.301V119.486Z" fill="white"/>
<path d="M653.088 98.0098C659.317 98.0098 663.923 102.545 663.923 109.004C663.923 115.463 659.317 119.999 653.088 119.999C646.86 119.999 642.211 115.463 642.211 109.004C642.211 102.545 646.817 98.0098 653.088 98.0098ZM653.088 116.406C657.098 116.406 659.913 113.368 659.913 109.004C659.913 104.641 657.098 101.603 653.088 101.603C649.079 101.603 646.263 104.641 646.263 109.004C646.263 113.368 649.035 116.406 653.088 116.406Z" fill="white"/>
<path d="M666.137 109.09C666.137 102.673 669.848 97.9677 676.033 97.9677C679.233 97.9677 681.921 99.379 683.328 101.946V88H687.295V119.486H683.713L683.371 115.679C682.006 118.545 679.19 120 675.863 120C669.806 120 666.138 115.465 666.138 109.091L666.137 109.09ZM683.285 108.962C683.285 104.685 680.768 101.604 676.673 101.604C672.577 101.604 670.189 104.685 670.189 108.962C670.189 113.24 672.577 116.363 676.673 116.363C680.768 116.363 683.285 113.325 683.285 108.962Z" fill="white"/>
<path d="M690.879 117.005C690.879 115.336 692.286 113.967 693.95 113.967C695.614 113.967 696.979 115.336 696.979 117.005C696.979 118.674 695.572 120 693.95 120C692.328 120 690.879 118.631 690.879 117.005Z" fill="white"/>
</g>
<g opacity="0.3" filter="url(#filter0_f_811_488)">
<ellipse cx="600" cy="751" rx="480" ry="330" transform="rotate(-180 600 751)" fill="url(#paint7_linear_811_488)"/>
</g>
</g>
<defs>
<filter id="filter0_f_811_488" x="-87.968" y="213.032" width="1375.94" height="1075.94" filterUnits="userSpaceOnUse" color-interpolation-filters="sRGB">
<feFlood flood-opacity="0" result="BackgroundImageFix"/>
<feBlend mode="normal" in="SourceGraphic" in2="BackgroundImageFix" result="shape"/>
<feGaussianBlur stdDeviation="103.984" result="effect1_foregroundBlur_811_488"/>
</filter>
<linearGradient id="paint0_linear_811_488" x1="70" y1="48.373" x2="82.559" y2="627.728" gradientUnits="userSpaceOnUse">
<stop stop-color="white" stop-opacity="0"/>
<stop offset="0.165" stop-color="white" stop-opacity="0.450549"/>
<stop offset="0.495" stop-color="white"/>
<stop offset="0.775" stop-color="white" stop-opacity="0.452703"/>
<stop offset="1" stop-color="white" stop-opacity="0"/>
</linearGradient>
<linearGradient id="paint1_linear_811_488" x1="246.668" y1="48.373" x2="259.227" y2="627.728" gradientUnits="userSpaceOnUse">
<stop stop-color="white" stop-opacity="0"/>
<stop offset="0.165" stop-color="white" stop-opacity="0.450549"/>
<stop offset="0.495" stop-color="white"/>
<stop offset="0.775" stop-color="white" stop-opacity="0.452703"/>
<stop offset="1" stop-color="white" stop-opacity="0"/>
</linearGradient>
<linearGradient id="paint2_linear_811_488" x1="423.332" y1="48.373" x2="435.891" y2="627.728" gradientUnits="userSpaceOnUse">
<stop stop-color="white" stop-opacity="0"/>
<stop offset="0.165" stop-color="white" stop-opacity="0.450549"/>
<stop offset="0.495" stop-color="white"/>
<stop offset="0.775" stop-color="white" stop-opacity="0.452703"/>
<stop offset="1" stop-color="white" stop-opacity="0"/>
</linearGradient>
<linearGradient id="paint3_linear_811_488" x1="600" y1="48.373" x2="612.559" y2="627.728" gradientUnits="userSpaceOnUse">
<stop stop-color="white" stop-opacity="0"/>
<stop offset="0.165" stop-color="white" stop-opacity="0.450549"/>
<stop offset="0.495" stop-color="white"/>
<stop offset="0.775" stop-color="white" stop-opacity="0.452703"/>
<stop offset="1" stop-color="white" stop-opacity="0"/>
</linearGradient>
<linearGradient id="paint4_linear_811_488" x1="776.668" y1="48.373" x2="789.227" y2="627.728" gradientUnits="userSpaceOnUse">
<stop stop-color="white" stop-opacity="0"/>
<stop offset="0.165" stop-color="white" stop-opacity="0.450549"/>
<stop offset="0.495" stop-color="white"/>
<stop offset="0.775" stop-color="white" stop-opacity="0.452703"/>
<stop offset="1" stop-color="white" stop-opacity="0"/>
</linearGradient>
<linearGradient id="paint5_linear_811_488" x1="953.332" y1="48.373" x2="965.891" y2="627.728" gradientUnits="userSpaceOnUse">
<stop stop-color="white" stop-opacity="0"/>
<stop offset="0.165" stop-color="white" stop-opacity="0.450549"/>
<stop offset="0.495" stop-color="white"/>
<stop offset="0.775" stop-color="white" stop-opacity="0.452703"/>
<stop offset="1" stop-color="white" stop-opacity="0"/>
</linearGradient>
<linearGradient id="paint6_linear_811_488" x1="1130" y1="48.373" x2="1142.56" y2="627.728" gradientUnits="userSpaceOnUse">
<stop stop-color="white" stop-opacity="0"/>
<stop offset="0.165" stop-color="white" stop-opacity="0.450549"/>
<stop offset="0.495" stop-color="white"/>
<stop offset="0.775" stop-color="white" stop-opacity="0.452703"/>
<stop offset="1" stop-color="white" stop-opacity="0"/>
</linearGradient>
<linearGradient id="paint7_linear_811_488" x1="600" y1="421" x2="600" y2="1081" gradientUnits="userSpaceOnUse">
<stop stop-color="white"/>
<stop offset="1" stop-color="white" stop-opacity="0"/>
</linearGradient>
<clipPath id="clip0_811_488">
<rect width="1200" height="675" fill="white"/>
</clipPath>
<clipPath id="clip1_811_488">
<rect width="194" height="32" fill="white" transform="translate(503 88)"/>
</clipPath>
</defs>
</svg>
