<svg width="1200" height="675" viewBox="0 0 1200 675" fill="none" xmlns="http://www.w3.org/2000/svg">
<g clip-path="url(#clip0_811_455)">
<rect width="1200" height="675" fill="white"/>
<g opacity="0.4" filter="url(#filter0_f_811_455)">
<circle cx="159" cy="83" r="300" transform="rotate(90 159 83)" fill="url(#paint0_linear_811_455)"/>
</g>
<g opacity="0.4" filter="url(#filter1_f_811_455)">
<ellipse cx="996" cy="551" rx="330" ry="330" transform="rotate(-180 996 551)" fill="url(#paint1_linear_811_455)"/>
</g>
<path opacity="0.1" d="M70 48V628" stroke="url(#paint2_linear_811_455)"/>
<path opacity="0.1" d="M246.668 48V628" stroke="url(#paint3_linear_811_455)"/>
<path opacity="0.05" d="M423.332 48V628" stroke="url(#paint4_linear_811_455)"/>
<path opacity="0.05" d="M600 48V628" stroke="url(#paint5_linear_811_455)"/>
<path opacity="0.05" d="M776.668 48V628" stroke="url(#paint6_linear_811_455)"/>
<path opacity="0.1" d="M953.332 48V628" stroke="url(#paint7_linear_811_455)"/>
<path opacity="0.1" d="M1130 48V628" stroke="url(#paint8_linear_811_455)"/>
<circle opacity="0.2" cx="600" cy="543" r="2" fill="#0B151E"/>
<circle cx="424" cy="122" r="2" fill="#0B151E"/>
<circle opacity="0.2" cx="247" cy="286" r="2" fill="#0B151E"/>
<circle cx="70" cy="458" r="2" fill="#0B151E"/>
<circle opacity="0.5" cx="777" cy="150" r="2" fill="#0B151E"/>
<circle opacity="0.5" cx="953" cy="508" r="2" fill="#0B151E"/>
<circle cx="1130" cy="150" r="2" fill="#0B151E"/>
<path d="M201.408 328.5H178.264V264.172H200.792C219.8 264.172 232.912 277.284 232.912 296.468C232.912 315.388 220.064 328.5 201.408 328.5ZM199.736 274.556H189.528V318.116H200.352C213.2 318.116 221.032 309.844 221.032 296.468C221.032 282.828 213.024 274.556 199.736 274.556ZM259.508 329.644C246.572 329.644 237.508 320.228 237.508 306.764C237.508 293.124 246.396 283.708 259.156 283.708C272.18 283.708 280.452 292.42 280.452 305.972V309.228L247.716 309.316C248.508 316.972 252.556 320.844 259.684 320.844C265.58 320.844 269.452 318.556 270.684 314.42H280.628C278.78 323.924 270.86 329.644 259.508 329.644ZM259.244 292.508C252.908 292.508 249.036 295.94 247.98 302.452H269.804C269.804 296.468 265.668 292.508 259.244 292.508ZM287.285 348.652V285.028H297.229L297.933 291.628C300.573 286.612 306.293 283.708 312.893 283.708C325.125 283.708 333.221 292.596 333.221 306.236C333.221 319.788 325.829 329.644 312.893 329.644C306.381 329.644 300.749 327.092 298.021 322.692V348.652H287.285ZM298.109 306.764C298.109 314.596 302.949 319.964 310.341 319.964C317.909 319.964 322.397 314.508 322.397 306.764C322.397 299.02 317.909 293.476 310.341 293.476C302.949 293.476 298.109 298.932 298.109 306.764ZM350.833 328.5H340.185V263.028H350.833V328.5ZM357.783 306.676C357.783 293.124 367.551 283.796 381.015 283.796C394.479 283.796 404.247 293.124 404.247 306.676C404.247 320.228 394.479 329.556 381.015 329.556C367.551 329.556 357.783 320.228 357.783 306.676ZM368.519 306.676C368.519 314.596 373.623 319.964 381.015 319.964C388.407 319.964 393.511 314.596 393.511 306.676C393.511 298.756 388.407 293.388 381.015 293.388C373.623 293.388 368.519 298.756 368.519 306.676ZM405.58 348.652V339.676H412.004C416.228 339.676 418.868 338.708 420.716 333.604L421.948 330.348L404.436 285.028H415.788L426.964 316.708L438.756 285.028H449.844L428.548 338.18C425.292 346.276 420.716 349.62 413.588 349.62C410.596 349.62 407.956 349.268 405.58 348.652ZM459.55 276.316C455.854 276.316 452.95 273.412 452.95 269.804C452.95 266.196 455.854 263.38 459.55 263.38C463.07 263.38 465.974 266.196 465.974 269.804C465.974 273.412 463.07 276.316 459.55 276.316ZM454.182 328.5V285.028H464.918V328.5H454.182ZM484.986 328.5H474.25V285.028H484.194L485.074 290.66C487.802 286.26 493.082 283.708 498.978 283.708C509.89 283.708 515.522 290.484 515.522 301.748V328.5H504.786V304.3C504.786 296.996 501.178 293.476 495.634 293.476C489.034 293.476 484.986 298.052 484.986 305.092V328.5ZM521.847 305.796C521.847 293.124 530.119 283.62 542.527 283.62C549.039 283.62 554.143 286.348 556.695 291.012L557.311 285.028H567.255V326.3C567.255 340.82 558.543 349.884 544.463 349.884C531.967 349.884 523.431 342.756 522.111 331.14H532.847C533.551 336.772 537.863 340.116 544.463 340.116C551.855 340.116 556.607 335.452 556.607 328.236V321.02C553.879 325.068 548.511 327.62 542.263 327.62C529.943 327.62 521.847 318.38 521.847 305.796ZM532.671 305.532C532.671 312.836 537.335 318.292 544.375 318.292C551.767 318.292 556.343 313.1 556.343 305.532C556.343 298.14 551.855 293.036 544.375 293.036C537.247 293.036 532.671 298.404 532.671 305.532ZM627.34 329.556C608.596 329.556 596.452 316.532 596.452 296.38C596.452 276.404 609.036 263.116 627.868 263.116C643.092 263.116 654.444 272.004 656.644 285.82H644.764C642.564 278.34 636.14 273.94 627.604 273.94C615.724 273.94 608.244 282.564 608.244 296.292C608.244 309.932 615.812 318.732 627.604 318.732C636.316 318.732 643.004 314.156 645.116 307.028H656.82C654.356 320.58 642.564 329.556 627.34 329.556ZM661.026 306.676C661.026 293.124 670.794 283.796 684.258 283.796C697.722 283.796 707.49 293.124 707.49 306.676C707.49 320.228 697.722 329.556 684.258 329.556C670.794 329.556 661.026 320.228 661.026 306.676ZM671.762 306.676C671.762 314.596 676.866 319.964 684.258 319.964C691.65 319.964 696.754 314.596 696.754 306.676C696.754 298.756 691.65 293.388 684.258 293.388C676.866 293.388 671.762 298.756 671.762 306.676ZM732.103 329.644C719.519 329.644 711.687 320.404 711.687 306.94C711.687 293.388 719.607 283.708 732.719 283.708C738.791 283.708 744.159 286.26 746.887 290.572V263.028H757.535V328.5H747.679L746.975 321.724C744.335 326.74 738.703 329.644 732.103 329.644ZM734.479 319.788C741.959 319.788 746.799 314.42 746.799 306.588C746.799 298.756 741.959 293.3 734.479 293.3C726.999 293.3 722.423 298.844 722.423 306.588C722.423 314.332 726.999 319.788 734.479 319.788ZM786.412 329.644C773.476 329.644 764.412 320.228 764.412 306.764C764.412 293.124 773.3 283.708 786.06 283.708C799.084 283.708 807.356 292.42 807.356 305.972V309.228L774.62 309.316C775.412 316.972 779.46 320.844 786.588 320.844C792.484 320.844 796.356 318.556 797.588 314.42H807.532C805.684 323.924 797.764 329.644 786.412 329.644ZM786.148 292.508C779.812 292.508 775.94 295.94 774.884 302.452H796.708C796.708 296.468 792.572 292.508 786.148 292.508ZM824.924 328.5H814.188V285.028H824.044L824.924 290.132C827.124 286.524 831.524 283.708 837.772 283.708C844.372 283.708 848.948 286.964 851.236 291.98C853.436 286.964 858.54 283.708 865.14 283.708C875.7 283.708 881.508 290.044 881.508 300.076V328.5H870.86V302.892C870.86 296.644 867.516 293.388 862.412 293.388C857.22 293.388 853.26 296.732 853.26 303.86V328.5H842.524V302.804C842.524 296.732 839.268 293.476 834.164 293.476C829.06 293.476 824.924 296.82 824.924 303.86V328.5ZM887.736 306.676C887.736 293.124 897.504 283.796 910.968 283.796C924.432 283.796 934.2 293.124 934.2 306.676C934.2 320.228 924.432 329.556 910.968 329.556C897.504 329.556 887.736 320.228 887.736 306.676ZM898.472 306.676C898.472 314.596 903.576 319.964 910.968 319.964C918.36 319.964 923.464 314.596 923.464 306.676C923.464 298.756 918.36 293.388 910.968 293.388C903.576 293.388 898.472 298.756 898.472 306.676ZM958.814 329.644C946.23 329.644 938.398 320.404 938.398 306.94C938.398 293.388 946.318 283.708 959.43 283.708C965.502 283.708 970.87 286.26 973.598 290.572V263.028H984.246V328.5H974.39L973.686 321.724C971.046 326.74 965.414 329.644 958.814 329.644ZM961.19 319.788C968.67 319.788 973.51 314.42 973.51 306.588C973.51 298.756 968.67 293.3 961.19 293.3C953.71 293.3 949.134 298.844 949.134 306.588C949.134 314.332 953.71 319.788 961.19 319.788ZM990.33 315.3H1000.54C1000.63 319.084 1003.44 321.46 1008.37 321.46C1013.39 321.46 1016.11 319.436 1016.11 316.268C1016.11 314.068 1014.97 312.484 1011.1 311.604L1003.27 309.756C995.434 307.996 991.65 304.3 991.65 297.348C991.65 288.812 998.866 283.708 1008.9 283.708C1018.67 283.708 1025.27 289.34 1025.35 297.788H1015.15C1015.06 294.092 1012.59 291.716 1008.46 291.716C1004.23 291.716 1001.77 293.652 1001.77 296.908C1001.77 299.372 1003.71 300.956 1007.4 301.836L1015.23 303.684C1022.54 305.356 1026.23 308.7 1026.23 315.388C1026.23 324.188 1018.75 329.644 1008.02 329.644C997.194 329.644 990.33 323.836 990.33 315.3Z" fill="#0B151E"/>
<path d="M371.007 415.5L364.557 393.81H367.617L371.577 407.07C371.877 408.21 372.177 409.35 372.477 411C372.837 409.26 373.167 408.21 373.497 407.07L377.607 393.81H380.787L384.867 407.07C385.227 408.24 385.527 409.38 385.857 411C386.217 409.17 386.517 408.06 386.817 407.1L390.807 393.81H393.807L387.267 415.5H384.447L379.197 398.34L373.887 415.5H371.007ZM397.073 397.35C396.053 397.35 395.213 396.51 395.213 395.49C395.213 394.44 396.053 393.63 397.073 393.63C398.093 393.63 398.933 394.44 398.933 395.49C398.933 396.51 398.093 397.35 397.073 397.35ZM395.693 415.5V400.83H398.513V415.5H395.693ZM406.147 415.5H403.327V403.2H400.447V400.83H403.327V396.24H406.147V400.83H409.027V403.2H406.147V415.5ZM413.778 415.47H410.958V393.42H413.778V403.08C414.708 401.49 416.478 400.41 418.758 400.41C422.508 400.41 424.308 402.78 424.308 406.53V415.5H421.488V407.16C421.488 404.19 420.078 402.99 417.978 402.99C415.248 402.99 413.778 404.97 413.778 407.49V415.47ZM444.697 415.83C438.517 415.83 434.407 411.39 434.407 404.67C434.407 397.98 438.637 393.45 444.847 393.45C449.737 393.45 453.487 396.36 454.297 400.8H451.147C450.337 397.98 447.907 396.27 444.757 396.27C440.377 396.27 437.497 399.57 437.497 404.64C437.497 409.71 440.377 413.01 444.757 413.01C447.937 413.01 450.457 411.3 451.267 408.63H454.387C453.457 412.95 449.587 415.83 444.697 415.83ZM455.952 408.15C455.952 403.62 459.192 400.44 463.602 400.44C467.982 400.44 471.222 403.62 471.222 408.15C471.222 412.68 467.982 415.86 463.602 415.86C459.192 415.86 455.952 412.68 455.952 408.15ZM458.802 408.15C458.802 411.21 460.752 413.34 463.602 413.34C466.422 413.34 468.402 411.21 468.402 408.15C468.402 405.09 466.422 402.96 463.602 402.96C460.752 402.96 458.802 405.09 458.802 408.15ZM479.624 415.86C475.364 415.86 472.784 412.68 472.784 408.21C472.784 403.71 475.394 400.41 479.744 400.41C481.994 400.41 483.884 401.4 484.874 403.2V393.42H487.664V415.5H485.144L484.904 412.83C483.944 414.84 481.964 415.86 479.624 415.86ZM480.194 413.31C483.074 413.31 484.844 411.18 484.844 408.12C484.844 405.12 483.074 402.96 480.194 402.96C477.314 402.96 475.634 405.12 475.634 408.12C475.634 411.15 477.314 413.31 480.194 413.31ZM497.462 415.86C493.142 415.86 490.172 412.74 490.172 408.18C490.172 403.59 493.082 400.41 497.342 400.41C501.512 400.41 504.242 403.29 504.242 407.64V408.69L492.902 408.72C493.112 411.81 494.732 413.52 497.522 413.52C499.712 413.52 501.152 412.62 501.632 410.94H504.272C503.552 414.09 501.092 415.86 497.462 415.86ZM497.342 402.78C494.882 402.78 493.322 404.25 492.962 406.83H501.422C501.422 404.4 499.832 402.78 497.342 402.78ZM509.612 415.5H506.792V400.83H509.312L509.582 402.75C510.332 401.37 511.892 400.41 513.962 400.41C516.242 400.41 517.862 401.55 518.612 403.38C519.302 401.55 521.072 400.41 523.352 400.41C526.712 400.41 528.752 402.51 528.752 405.9V415.5H525.992V406.59C525.992 404.28 524.702 402.96 522.722 402.96C520.592 402.96 519.182 404.46 519.182 406.8V415.5H516.392V406.56C516.392 404.25 515.132 402.99 513.152 402.99C511.022 402.99 509.612 404.46 509.612 406.8V415.5ZM531.101 408.15C531.101 403.62 534.341 400.44 538.751 400.44C543.131 400.44 546.371 403.62 546.371 408.15C546.371 412.68 543.131 415.86 538.751 415.86C534.341 415.86 531.101 412.68 531.101 408.15ZM533.951 408.15C533.951 411.21 535.901 413.34 538.751 413.34C541.571 413.34 543.551 411.21 543.551 408.15C543.551 405.09 541.571 402.96 538.751 402.96C535.901 402.96 533.951 405.09 533.951 408.15ZM554.773 415.86C550.513 415.86 547.933 412.68 547.933 408.21C547.933 403.71 550.543 400.41 554.893 400.41C557.143 400.41 559.033 401.4 560.023 403.2V393.42H562.813V415.5H560.293L560.053 412.83C559.093 414.84 557.113 415.86 554.773 415.86ZM555.343 413.31C558.223 413.31 559.993 411.18 559.993 408.12C559.993 405.12 558.223 402.96 555.343 402.96C552.463 402.96 550.783 405.12 550.783 408.12C550.783 411.15 552.463 413.31 555.343 413.31ZM583.364 415.83C577.184 415.83 573.074 411.39 573.074 404.67C573.074 397.98 577.304 393.45 583.514 393.45C588.404 393.45 592.154 396.36 592.964 400.8H589.814C589.004 397.98 586.574 396.27 583.424 396.27C579.044 396.27 576.164 399.57 576.164 404.64C576.164 409.71 579.044 413.01 583.424 413.01C586.604 413.01 589.124 411.3 589.934 408.63H593.054C592.124 412.95 588.254 415.83 583.364 415.83ZM598.999 393.81V412.77H608.539V415.5H596.059V393.81H598.999ZM614.073 393.81V415.5H611.133V393.81H614.073ZM640.226 415.5L638.516 413.55C636.836 415.05 634.526 415.89 631.796 415.89C627.146 415.89 624.086 413.49 624.086 409.86C624.086 407.19 625.796 405.06 629.396 403.2C627.536 401.07 626.846 399.75 626.846 398.13C626.846 395.4 628.976 393.45 632.036 393.45C635.006 393.45 637.046 395.28 637.046 397.95C637.046 400.11 635.936 401.79 633.146 403.68L638.336 409.59C638.816 408.42 639.086 406.98 639.086 405.36H641.816C641.816 407.82 641.216 409.98 640.166 411.66L643.526 415.5H640.226ZM629.516 398.1C629.516 399.24 630.026 400.14 631.706 402.06C633.536 400.95 634.406 399.63 634.406 398.01C634.406 396.6 633.506 395.73 632.006 395.73C630.476 395.73 629.516 396.66 629.516 398.1ZM627.026 409.65C627.026 412.02 628.916 413.46 632.066 413.46C634.076 413.46 635.696 412.86 636.896 411.69L630.806 404.79C628.106 406.29 627.026 407.7 627.026 409.65ZM655.179 393.81V415.5H652.239V393.81H655.179ZM666.807 415.5H659.637V393.81H666.687C673.167 393.81 677.547 398.19 677.547 404.67C677.547 411.12 673.227 415.5 666.807 415.5ZM666.477 396.51H662.577V412.77H666.597C671.427 412.77 674.487 409.65 674.487 404.67C674.487 399.63 671.427 396.51 666.477 396.51ZM693.917 415.5H680.687V393.81H693.917V396.51H683.627V403.29H692.897V405.9H683.627V412.77H693.917V415.5ZM718.41 415.5H705.18V393.81H718.41V396.51H708.12V403.29H717.39V405.9H708.12V412.77H718.41V415.5ZM723.091 415.5H719.851L724.981 408.24L719.881 400.83H723.151L726.871 406.29L730.501 400.83H733.711L728.611 408.24L733.621 415.5H730.351L726.691 410.13L723.091 415.5ZM740.189 415.5H737.369V403.2H734.489V400.83H737.369V396.24H740.189V400.83H743.069V403.2H740.189V415.5ZM751.183 415.86C746.863 415.86 743.893 412.74 743.893 408.18C743.893 403.59 746.803 400.41 751.063 400.41C755.233 400.41 757.963 403.29 757.963 407.64V408.69L746.623 408.72C746.833 411.81 748.453 413.52 751.243 413.52C753.433 413.52 754.873 412.62 755.353 410.94H757.993C757.273 414.09 754.813 415.86 751.183 415.86ZM751.063 402.78C748.603 402.78 747.043 404.25 746.683 406.83H755.143C755.143 404.4 753.553 402.78 751.063 402.78ZM763.333 415.5H760.513V400.83H763.063L763.363 403.08C764.293 401.4 766.153 400.41 768.223 400.41C772.093 400.41 773.863 402.78 773.863 406.53V415.5H771.043V407.16C771.043 404.19 769.663 402.99 767.503 402.99C764.863 402.99 763.333 404.88 763.333 407.73V415.5ZM775.793 411.24H778.493C778.493 412.74 779.633 413.64 781.493 413.64C783.473 413.64 784.613 412.83 784.613 411.48C784.613 410.49 784.133 409.89 782.603 409.5L780.023 408.9C777.413 408.27 776.183 406.98 776.183 404.82C776.183 402.12 778.463 400.41 781.703 400.41C784.913 400.41 787.013 402.21 787.073 405H784.373C784.313 403.53 783.323 402.6 781.613 402.6C779.843 402.6 778.853 403.38 778.853 404.73C778.853 405.72 779.573 406.38 781.013 406.74L783.593 407.37C786.083 407.97 787.313 409.11 787.313 411.3C787.313 414.09 784.913 415.86 781.433 415.86C777.983 415.86 775.793 414.03 775.793 411.24ZM791.221 397.35C790.201 397.35 789.361 396.51 789.361 395.49C789.361 394.44 790.201 393.63 791.221 393.63C792.241 393.63 793.081 394.44 793.081 395.49C793.081 396.51 792.241 397.35 791.221 397.35ZM789.841 415.5V400.83H792.661V415.5H789.841ZM795.195 408.15C795.195 403.62 798.435 400.44 802.845 400.44C807.225 400.44 810.465 403.62 810.465 408.15C810.465 412.68 807.225 415.86 802.845 415.86C798.435 415.86 795.195 412.68 795.195 408.15ZM798.045 408.15C798.045 411.21 799.995 413.34 802.845 413.34C805.665 413.34 807.645 411.21 807.645 408.15C807.645 405.09 805.665 402.96 802.845 402.96C799.995 402.96 798.045 405.09 798.045 408.15ZM815.806 415.5H812.986V400.83H815.536L815.836 403.08C816.766 401.4 818.626 400.41 820.696 400.41C824.566 400.41 826.336 402.78 826.336 406.53V415.5H823.516V407.16C823.516 404.19 822.136 402.99 819.976 402.99C817.336 402.99 815.806 404.88 815.806 407.73V415.5ZM831.742 415.86C830.572 415.86 829.582 414.9 829.582 413.76C829.582 412.59 830.572 411.63 831.742 411.63C832.882 411.63 833.872 412.59 833.872 413.76C833.872 414.9 832.882 415.86 831.742 415.86Z" fill="#0B151E"/>
<g clip-path="url(#clip1_811_455)">
<path d="M501 119.486L513.029 88.5986H517.038L504.967 119.486H501Z" fill="#0B151E"/>
<path d="M524.876 97.9675C530.123 97.9675 533.791 100.962 534.517 105.625H530.508C529.825 102.973 527.692 101.561 525.005 101.561C521.209 101.561 518.607 104.469 518.607 109.004C518.607 113.539 521.038 116.406 524.835 116.406C527.693 116.406 529.826 114.908 530.551 112.427H534.561C533.75 116.962 529.869 119.999 524.835 119.999C518.692 119.999 514.641 115.635 514.641 109.047C514.641 102.458 518.778 97.9663 524.879 97.9663L524.876 97.9675Z" fill="#0B151E"/>
<path d="M547.44 98.0098C553.668 98.0098 558.275 102.545 558.275 109.004C558.275 115.463 553.668 119.999 547.44 119.999C541.211 119.999 536.562 115.463 536.562 109.004C536.562 102.545 541.169 98.0098 547.44 98.0098ZM547.44 116.406C551.449 116.406 554.265 113.368 554.265 109.004C554.265 104.641 551.449 101.603 547.44 101.603C543.43 101.603 540.614 104.641 540.614 109.004C540.614 113.368 543.387 116.406 547.44 116.406Z" fill="#0B151E"/>
<path d="M560.488 109.09C560.488 102.673 564.2 97.9677 570.385 97.9677C573.584 97.9677 576.272 99.379 577.679 101.946V88H581.647V119.486H578.064L577.723 115.679C576.358 118.545 573.542 120 570.215 120C564.158 120 560.489 115.465 560.489 109.091L560.488 109.09ZM577.636 108.962C577.636 104.685 575.119 101.604 571.024 101.604C566.929 101.604 564.54 104.685 564.54 108.962C564.54 113.24 566.929 116.363 571.024 116.363C575.119 116.363 577.636 113.325 577.636 108.962Z" fill="#0B151E"/>
<path d="M583.949 109.048C583.949 102.503 588.087 97.9678 594.144 97.9678C600.201 97.9678 603.955 102.075 603.955 108.278V109.775L587.831 109.817C588.13 114.224 590.433 116.662 594.401 116.662C597.514 116.662 599.562 115.379 600.244 112.983H603.998C602.975 117.475 599.476 119.999 594.315 119.999C588.172 119.999 583.949 115.55 583.949 109.047V109.048ZM587.917 107.123H599.947C599.947 103.658 597.686 101.348 594.145 101.348C590.605 101.348 588.429 103.444 587.917 107.123Z" fill="#0B151E"/>
<path d="M606.301 119.486V98.5664H609.883L610.267 101.304C611.333 99.3368 613.552 97.9678 616.495 97.9678C619.737 97.9678 622.041 99.5932 623.107 102.203C624.089 99.5932 626.606 97.9678 629.847 97.9678C634.625 97.9678 637.525 100.962 637.525 105.796V119.486H633.601V106.78C633.601 103.486 631.767 101.604 628.951 101.604C625.922 101.604 623.918 103.744 623.918 107.08V119.486H619.95V106.738C619.95 103.444 618.158 101.647 615.344 101.647C612.315 101.647 610.31 103.743 610.31 107.079V119.485H606.301V119.486Z" fill="#0B151E"/>
<path d="M651.088 98.0098C657.317 98.0098 661.923 102.545 661.923 109.004C661.923 115.463 657.317 119.999 651.088 119.999C644.86 119.999 640.211 115.463 640.211 109.004C640.211 102.545 644.817 98.0098 651.088 98.0098ZM651.088 116.406C655.098 116.406 657.913 113.368 657.913 109.004C657.913 104.641 655.098 101.603 651.088 101.603C647.079 101.603 644.263 104.641 644.263 109.004C644.263 113.368 647.035 116.406 651.088 116.406Z" fill="#0B151E"/>
<path d="M664.137 109.09C664.137 102.673 667.848 97.9677 674.033 97.9677C677.233 97.9677 679.921 99.379 681.328 101.946V88H685.295V119.486H681.713L681.371 115.679C680.006 118.545 677.19 120 673.863 120C667.806 120 664.138 115.465 664.138 109.091L664.137 109.09ZM681.285 108.962C681.285 104.685 678.768 101.604 674.673 101.604C670.577 101.604 668.189 104.685 668.189 108.962C668.189 113.24 670.577 116.363 674.673 116.363C678.768 116.363 681.285 113.325 681.285 108.962Z" fill="#0B151E"/>
<path d="M688.879 117.005C688.879 115.336 690.286 113.967 691.95 113.967C693.614 113.967 694.979 115.336 694.979 117.005C694.979 118.674 693.572 120 691.95 120C690.328 120 688.879 118.631 688.879 117.005Z" fill="#0B151E"/>
</g>
</g>
<defs>
<filter id="filter0_f_811_455" x="-409.858" y="-485.858" width="1137.72" height="1137.72" filterUnits="userSpaceOnUse" color-interpolation-filters="sRGB">
<feFlood flood-opacity="0" result="BackgroundImageFix"/>
<feBlend mode="normal" in="SourceGraphic" in2="BackgroundImageFix" result="shape"/>
<feGaussianBlur stdDeviation="134.429" result="effect1_foregroundBlur_811_455"/>
</filter>
<filter id="filter1_f_811_455" x="458.032" y="13.032" width="1075.94" height="1075.94" filterUnits="userSpaceOnUse" color-interpolation-filters="sRGB">
<feFlood flood-opacity="0" result="BackgroundImageFix"/>
<feBlend mode="normal" in="SourceGraphic" in2="BackgroundImageFix" result="shape"/>
<feGaussianBlur stdDeviation="103.984" result="effect1_foregroundBlur_811_455"/>
</filter>
<linearGradient id="paint0_linear_811_455" x1="159" y1="-217" x2="159" y2="383" gradientUnits="userSpaceOnUse">
<stop stop-color="#BBFC03"/>
<stop offset="1" stop-color="#BBFC03" stop-opacity="0.17"/>
</linearGradient>
<linearGradient id="paint1_linear_811_455" x1="996" y1="221" x2="996" y2="881" gradientUnits="userSpaceOnUse">
<stop stop-color="#BBFC03"/>
<stop offset="1" stop-color="#BBFC03" stop-opacity="0"/>
</linearGradient>
<linearGradient id="paint2_linear_811_455" x1="70" y1="48.373" x2="82.559" y2="627.728" gradientUnits="userSpaceOnUse">
<stop stop-color="#0B151E" stop-opacity="0"/>
<stop offset="0.165" stop-color="#0B151E" stop-opacity="0.450549"/>
<stop offset="0.495" stop-color="#0B151E"/>
<stop offset="0.775" stop-color="#0B151E" stop-opacity="0.452703"/>
<stop offset="1" stop-color="#0B151E" stop-opacity="0"/>
</linearGradient>
<linearGradient id="paint3_linear_811_455" x1="246.668" y1="48.373" x2="259.227" y2="627.728" gradientUnits="userSpaceOnUse">
<stop stop-color="#0B151E" stop-opacity="0"/>
<stop offset="0.165" stop-color="#0B151E" stop-opacity="0.450549"/>
<stop offset="0.495" stop-color="#0B151E"/>
<stop offset="0.775" stop-color="#0B151E" stop-opacity="0.452703"/>
<stop offset="1" stop-color="#0B151E" stop-opacity="0"/>
</linearGradient>
<linearGradient id="paint4_linear_811_455" x1="423.332" y1="48.373" x2="435.891" y2="627.728" gradientUnits="userSpaceOnUse">
<stop stop-color="#0B151E" stop-opacity="0"/>
<stop offset="0.165" stop-color="#0B151E" stop-opacity="0.450549"/>
<stop offset="0.495" stop-color="#0B151E"/>
<stop offset="0.775" stop-color="#0B151E" stop-opacity="0.452703"/>
<stop offset="1" stop-color="#0B151E" stop-opacity="0"/>
</linearGradient>
<linearGradient id="paint5_linear_811_455" x1="600" y1="48.373" x2="612.559" y2="627.728" gradientUnits="userSpaceOnUse">
<stop stop-color="#0B151E" stop-opacity="0"/>
<stop offset="0.165" stop-color="#0B151E" stop-opacity="0.450549"/>
<stop offset="0.495" stop-color="#0B151E"/>
<stop offset="0.775" stop-color="#0B151E" stop-opacity="0.452703"/>
<stop offset="1" stop-color="#0B151E" stop-opacity="0"/>
</linearGradient>
<linearGradient id="paint6_linear_811_455" x1="776.668" y1="48.373" x2="789.227" y2="627.728" gradientUnits="userSpaceOnUse">
<stop stop-color="#0B151E" stop-opacity="0"/>
<stop offset="0.165" stop-color="#0B151E" stop-opacity="0.450549"/>
<stop offset="0.495" stop-color="#0B151E"/>
<stop offset="0.775" stop-color="#0B151E" stop-opacity="0.452703"/>
<stop offset="1" stop-color="#0B151E" stop-opacity="0"/>
</linearGradient>
<linearGradient id="paint7_linear_811_455" x1="953.332" y1="48.373" x2="965.891" y2="627.728" gradientUnits="userSpaceOnUse">
<stop stop-color="#0B151E" stop-opacity="0"/>
<stop offset="0.165" stop-color="#0B151E" stop-opacity="0.450549"/>
<stop offset="0.495" stop-color="#0B151E"/>
<stop offset="0.775" stop-color="#0B151E" stop-opacity="0.452703"/>
<stop offset="1" stop-color="#0B151E" stop-opacity="0"/>
</linearGradient>
<linearGradient id="paint8_linear_811_455" x1="1130" y1="48.373" x2="1142.56" y2="627.728" gradientUnits="userSpaceOnUse">
<stop stop-color="#0B151E" stop-opacity="0"/>
<stop offset="0.165" stop-color="#0B151E" stop-opacity="0.450549"/>
<stop offset="0.495" stop-color="#0B151E"/>
<stop offset="0.775" stop-color="#0B151E" stop-opacity="0.452703"/>
<stop offset="1" stop-color="#0B151E" stop-opacity="0"/>
</linearGradient>
<clipPath id="clip0_811_455">
<rect width="1200" height="675" fill="white"/>
</clipPath>
<clipPath id="clip1_811_455">
<rect width="194" height="32" fill="white" transform="translate(501 88)"/>
</clipPath>
</defs>
</svg>
