<svg width="1200" height="675" viewBox="0 0 1200 675" fill="none" xmlns="http://www.w3.org/2000/svg">
<g clip-path="url(#clip0_993_880)">
<rect width="1200" height="675" fill="#0B151E"/>
<path opacity="0.1" d="M70 48V628" stroke="url(#paint0_linear_993_880)"/>
<path opacity="0.1" d="M246.668 48V628" stroke="url(#paint1_linear_993_880)"/>
<path opacity="0.05" d="M423.332 48V628" stroke="url(#paint2_linear_993_880)"/>
<path opacity="0.05" d="M600 48V628" stroke="url(#paint3_linear_993_880)"/>
<path opacity="0.05" d="M776.668 48V628" stroke="url(#paint4_linear_993_880)"/>
<path opacity="0.1" d="M953.332 48V628" stroke="url(#paint5_linear_993_880)"/>
<path opacity="0.1" d="M1130 48V628" stroke="url(#paint6_linear_993_880)"/>
<circle opacity="0.2" cx="600" cy="543" r="2" fill="white"/>
<circle cx="424" cy="122" r="2" fill="white"/>
<circle opacity="0.2" cx="247" cy="286" r="2" fill="white"/>
<circle cx="70" cy="458" r="2" fill="white"/>
<circle opacity="0.5" cx="777" cy="150" r="2" fill="white"/>
<circle opacity="0.5" cx="953" cy="508" r="2" fill="white"/>
<circle cx="1130" cy="150" r="2" fill="white"/>
<path d="M217.903 328.5V264.172H243.511C256.183 264.172 263.927 270.772 263.927 281.508C263.927 288.636 260.759 293.74 254.687 296.292C261.463 298.492 264.895 303.596 264.895 311.076C264.895 322.076 257.239 328.5 243.951 328.5H217.903ZM242.543 274.116H229.167V291.628H242.807C248.967 291.628 252.399 288.372 252.399 282.652C252.399 277.108 248.879 274.116 242.543 274.116ZM243.511 301.132H229.167V318.556H243.511C249.847 318.556 253.367 315.476 253.367 309.668C253.367 304.212 249.759 301.132 243.511 301.132ZM301.36 285.028H312.096V328.5H302.152L301.36 322.692C298.72 326.828 293.088 329.644 287.28 329.644C277.248 329.644 271.352 322.868 271.352 312.22V285.028H282.088V308.436C282.088 316.708 285.344 320.052 291.328 320.052C298.104 320.052 301.36 316.092 301.36 307.82V285.028ZM326.792 276.316C323.096 276.316 320.192 273.412 320.192 269.804C320.192 266.196 323.096 263.38 326.792 263.38C330.312 263.38 333.216 266.196 333.216 269.804C333.216 273.412 330.312 276.316 326.792 276.316ZM321.424 328.5V285.028H332.16V328.5H321.424ZM352.316 328.5H341.668V263.028H352.316V328.5ZM379.682 329.644C367.098 329.644 359.266 320.404 359.266 306.94C359.266 293.388 367.186 283.708 380.298 283.708C386.37 283.708 391.738 286.26 394.466 290.572V263.028H405.114V328.5H395.258L394.554 321.724C391.914 326.74 386.282 329.644 379.682 329.644ZM382.058 319.788C389.538 319.788 394.378 314.42 394.378 306.588C394.378 298.756 389.538 293.3 382.058 293.3C374.578 293.3 370.002 298.844 370.002 306.588C370.002 314.332 374.578 319.788 382.058 319.788ZM419.911 276.316C416.215 276.316 413.311 273.412 413.311 269.804C413.311 266.196 416.215 263.38 419.911 263.38C423.431 263.38 426.335 266.196 426.335 269.804C426.335 273.412 423.431 276.316 419.911 276.316ZM414.543 328.5V285.028H425.279V328.5H414.543ZM445.347 328.5H434.611V285.028H444.555L445.435 290.66C448.163 286.26 453.443 283.708 459.339 283.708C470.251 283.708 475.883 290.484 475.883 301.748V328.5H465.147V304.3C465.147 296.996 461.539 293.476 455.995 293.476C449.395 293.476 445.347 298.052 445.347 305.092V328.5ZM482.207 305.796C482.207 293.124 490.479 283.62 502.887 283.62C509.399 283.62 514.503 286.348 517.055 291.012L517.671 285.028H527.615V326.3C527.615 340.82 518.903 349.884 504.823 349.884C492.327 349.884 483.791 342.756 482.471 331.14H493.207C493.911 336.772 498.223 340.116 504.823 340.116C512.215 340.116 516.967 335.452 516.967 328.236V321.02C514.239 325.068 508.871 327.62 502.623 327.62C490.303 327.62 482.207 318.38 482.207 305.796ZM493.031 305.532C493.031 312.836 497.695 318.292 504.735 318.292C512.127 318.292 516.703 313.1 516.703 305.532C516.703 298.14 512.215 293.036 504.735 293.036C497.607 293.036 493.031 298.404 493.031 305.532ZM587.701 329.556C568.957 329.556 556.813 316.532 556.813 296.38C556.813 276.404 569.397 263.116 588.229 263.116C603.453 263.116 614.805 272.004 617.005 285.82H605.125C602.925 278.34 596.501 273.94 587.965 273.94C576.085 273.94 568.605 282.564 568.605 296.292C568.605 309.932 576.173 318.732 587.965 318.732C596.677 318.732 603.365 314.156 605.477 307.028H617.181C614.717 320.58 602.925 329.556 587.701 329.556ZM621.386 306.676C621.386 293.124 631.154 283.796 644.618 283.796C658.082 283.796 667.85 293.124 667.85 306.676C667.85 320.228 658.082 329.556 644.618 329.556C631.154 329.556 621.386 320.228 621.386 306.676ZM632.122 306.676C632.122 314.596 637.226 319.964 644.618 319.964C652.01 319.964 657.114 314.596 657.114 306.676C657.114 298.756 652.01 293.388 644.618 293.388C637.226 293.388 632.122 298.756 632.122 306.676ZM692.464 329.644C679.88 329.644 672.048 320.404 672.048 306.94C672.048 293.388 679.968 283.708 693.08 283.708C699.152 283.708 704.52 286.26 707.248 290.572V263.028H717.896V328.5H708.04L707.336 321.724C704.696 326.74 699.064 329.644 692.464 329.644ZM694.84 319.788C702.32 319.788 707.16 314.42 707.16 306.588C707.16 298.756 702.32 293.3 694.84 293.3C687.36 293.3 682.784 298.844 682.784 306.588C682.784 314.332 687.36 319.788 694.84 319.788ZM746.772 329.644C733.836 329.644 724.772 320.228 724.772 306.764C724.772 293.124 733.66 283.708 746.42 283.708C759.444 283.708 767.716 292.42 767.716 305.972V309.228L734.98 309.316C735.772 316.972 739.82 320.844 746.948 320.844C752.844 320.844 756.716 318.556 757.948 314.42H767.892C766.044 323.924 758.124 329.644 746.772 329.644ZM746.508 292.508C740.172 292.508 736.3 295.94 735.244 302.452H757.068C757.068 296.468 752.932 292.508 746.508 292.508ZM785.285 328.5H774.549V285.028H784.405L785.285 290.132C787.485 286.524 791.885 283.708 798.133 283.708C804.733 283.708 809.309 286.964 811.597 291.98C813.797 286.964 818.901 283.708 825.501 283.708C836.061 283.708 841.869 290.044 841.869 300.076V328.5H831.221V302.892C831.221 296.644 827.877 293.388 822.773 293.388C817.581 293.388 813.621 296.732 813.621 303.86V328.5H802.885V302.804C802.885 296.732 799.629 293.476 794.525 293.476C789.421 293.476 785.285 296.82 785.285 303.86V328.5ZM848.096 306.676C848.096 293.124 857.864 283.796 871.328 283.796C884.792 283.796 894.56 293.124 894.56 306.676C894.56 320.228 884.792 329.556 871.328 329.556C857.864 329.556 848.096 320.228 848.096 306.676ZM858.832 306.676C858.832 314.596 863.936 319.964 871.328 319.964C878.72 319.964 883.824 314.596 883.824 306.676C883.824 298.756 878.72 293.388 871.328 293.388C863.936 293.388 858.832 298.756 858.832 306.676ZM919.174 329.644C906.59 329.644 898.758 320.404 898.758 306.94C898.758 293.388 906.678 283.708 919.79 283.708C925.862 283.708 931.23 286.26 933.958 290.572V263.028H944.606V328.5H934.75L934.046 321.724C931.406 326.74 925.774 329.644 919.174 329.644ZM921.55 319.788C929.03 319.788 933.87 314.42 933.87 306.588C933.87 298.756 929.03 293.3 921.55 293.3C914.07 293.3 909.494 298.844 909.494 306.588C909.494 314.332 914.07 319.788 921.55 319.788ZM950.69 315.3H960.898C960.986 319.084 963.802 321.46 968.73 321.46C973.746 321.46 976.474 319.436 976.474 316.268C976.474 314.068 975.33 312.484 971.458 311.604L963.626 309.756C955.794 307.996 952.01 304.3 952.01 297.348C952.01 288.812 959.226 283.708 969.258 283.708C979.026 283.708 985.626 289.34 985.714 297.788H975.506C975.418 294.092 972.954 291.716 968.818 291.716C964.594 291.716 962.13 293.652 962.13 296.908C962.13 299.372 964.066 300.956 967.762 301.836L975.594 303.684C982.898 305.356 986.594 308.7 986.594 315.388C986.594 324.188 979.114 329.644 968.378 329.644C957.554 329.644 950.69 323.836 950.69 315.3Z" fill="white"/>
<path d="M514.594 396.21C509.914 396.21 507.094 399.66 507.094 404.79C507.094 410.04 510.154 413.07 514.624 413.07C518.314 413.07 521.284 411.18 521.284 406.8V406.17H514.024V403.56H524.044V415.53H521.584L521.374 412.59C520.204 414.48 517.564 415.86 514.384 415.86C508.234 415.86 504.004 411.42 504.004 404.73C504.004 398.13 508.264 393.45 514.654 393.45C519.394 393.45 523.084 396.18 523.804 400.35H520.684C519.874 397.59 517.474 396.21 514.594 396.21ZM533.484 415.86C529.164 415.86 526.194 412.74 526.194 408.18C526.194 403.59 529.104 400.41 533.364 400.41C537.534 400.41 540.264 403.29 540.264 407.64V408.69L528.924 408.72C529.134 411.81 530.754 413.52 533.544 413.52C535.734 413.52 537.174 412.62 537.654 410.94H540.294C539.574 414.09 537.114 415.86 533.484 415.86ZM533.364 402.78C530.904 402.78 529.344 404.25 528.984 406.83H537.444C537.444 404.4 535.854 402.78 533.364 402.78ZM546.807 415.5H543.987V403.2H541.107V400.83H543.987V396.24H546.807V400.83H549.687V403.2H546.807V415.5ZM556.021 415.5H553.201V403.2H550.321V400.83H553.201V396.24H556.021V400.83H558.901V403.2H556.021V415.5ZM562.212 397.35C561.192 397.35 560.352 396.51 560.352 395.49C560.352 394.44 561.192 393.63 562.212 393.63C563.232 393.63 564.072 394.44 564.072 395.49C564.072 396.51 563.232 397.35 562.212 397.35ZM560.832 415.5V400.83H563.652V415.5H560.832ZM569.966 415.5H567.146V400.83H569.696L569.996 403.08C570.926 401.4 572.786 400.41 574.856 400.41C578.726 400.41 580.496 402.78 580.496 406.53V415.5H577.676V407.16C577.676 404.19 576.296 402.99 574.136 402.99C571.496 402.99 569.966 404.88 569.966 407.73V415.5ZM582.872 407.79C582.872 403.65 585.542 400.41 589.802 400.41C592.172 400.41 594.002 401.49 594.932 403.32L595.142 400.83H597.662V414.9C597.662 419.52 594.812 422.46 590.312 422.46C586.322 422.46 583.592 420.21 583.052 416.49H585.872C586.232 418.65 587.852 419.91 590.312 419.91C593.072 419.91 594.872 418.11 594.872 415.32V412.38C593.912 414.09 591.992 415.11 589.682 415.11C585.512 415.11 582.872 411.9 582.872 407.79ZM585.692 407.73C585.692 410.49 587.402 412.65 590.162 412.65C593.012 412.65 594.752 410.61 594.752 407.73C594.752 404.91 593.072 402.87 590.192 402.87C587.372 402.87 585.692 405.03 585.692 407.73ZM607.535 411.24H610.235C610.235 412.74 611.375 413.64 613.235 413.64C615.215 413.64 616.355 412.83 616.355 411.48C616.355 410.49 615.875 409.89 614.345 409.5L611.765 408.9C609.155 408.27 607.925 406.98 607.925 404.82C607.925 402.12 610.205 400.41 613.445 400.41C616.655 400.41 618.755 402.21 618.815 405H616.115C616.055 403.53 615.065 402.6 613.355 402.6C611.585 402.6 610.595 403.38 610.595 404.73C610.595 405.72 611.315 406.38 612.755 406.74L615.335 407.37C617.825 407.97 619.055 409.11 619.055 411.3C619.055 414.09 616.655 415.86 613.175 415.86C609.725 415.86 607.535 414.03 607.535 411.24ZM625.722 415.5H622.902V403.2H620.022V400.83H622.902V396.24H625.722V400.83H628.602V403.2H625.722V415.5ZM634.647 415.86C631.497 415.86 629.637 414.09 629.637 411.42C629.637 408.72 631.647 407.04 635.097 406.77L639.717 406.41V405.99C639.717 403.53 638.247 402.66 636.267 402.66C633.897 402.66 632.547 403.71 632.547 405.48H630.087C630.087 402.42 632.607 400.41 636.387 400.41C640.017 400.41 642.477 402.33 642.477 406.29V415.5H640.077L639.777 413.13C639.027 414.81 637.017 415.86 634.647 415.86ZM635.457 413.67C638.127 413.67 639.747 411.93 639.747 409.17V408.39L635.997 408.69C633.507 408.93 632.487 409.89 632.487 411.33C632.487 412.89 633.627 413.67 635.457 413.67ZM654.183 400.71V403.29H652.923C650.253 403.29 648.603 404.91 648.603 407.73V415.5H645.783V400.86H648.423L648.603 403.08C649.203 401.55 650.673 400.53 652.683 400.53C653.193 400.53 653.613 400.59 654.183 400.71ZM660.953 415.5H658.133V403.2H655.253V400.83H658.133V396.24H660.953V400.83H663.833V403.2H660.953V415.5ZM671.948 415.86C667.628 415.86 664.658 412.74 664.658 408.18C664.658 403.59 667.568 400.41 671.828 400.41C675.998 400.41 678.728 403.29 678.728 407.64V408.69L667.388 408.72C667.598 411.81 669.218 413.52 672.008 413.52C674.198 413.52 675.638 412.62 676.118 410.94H678.758C678.038 414.09 675.578 415.86 671.948 415.86ZM671.828 402.78C669.368 402.78 667.808 404.25 667.448 406.83H675.908C675.908 404.4 674.318 402.78 671.828 402.78ZM687.157 415.86C682.897 415.86 680.317 412.68 680.317 408.21C680.317 403.71 682.927 400.41 687.277 400.41C689.527 400.41 691.417 401.4 692.407 403.2V393.42H695.197V415.5H692.677L692.437 412.83C691.477 414.84 689.497 415.86 687.157 415.86ZM687.727 413.31C690.607 413.31 692.377 411.18 692.377 408.12C692.377 405.12 690.607 402.96 687.727 402.96C684.847 402.96 683.167 405.12 683.167 408.12C683.167 411.15 684.847 413.31 687.727 413.31Z" fill="white"/>
<g clip-path="url(#clip1_993_880)">
<path d="M503 119.486L515.029 88.5986H519.038L506.967 119.486H503Z" fill="white"/>
<path d="M526.876 97.9675C532.123 97.9675 535.791 100.962 536.517 105.625H532.508C531.825 102.973 529.692 101.561 527.005 101.561C523.209 101.561 520.607 104.469 520.607 109.004C520.607 113.539 523.038 116.406 526.835 116.406C529.693 116.406 531.826 114.908 532.551 112.427H536.561C535.75 116.962 531.869 119.999 526.835 119.999C520.692 119.999 516.641 115.635 516.641 109.047C516.641 102.458 520.778 97.9663 526.879 97.9663L526.876 97.9675Z" fill="white"/>
<path d="M549.44 98.0098C555.668 98.0098 560.275 102.545 560.275 109.004C560.275 115.463 555.668 119.999 549.44 119.999C543.211 119.999 538.562 115.463 538.562 109.004C538.562 102.545 543.169 98.0098 549.44 98.0098ZM549.44 116.406C553.449 116.406 556.265 113.368 556.265 109.004C556.265 104.641 553.449 101.603 549.44 101.603C545.43 101.603 542.614 104.641 542.614 109.004C542.614 113.368 545.387 116.406 549.44 116.406Z" fill="white"/>
<path d="M562.488 109.09C562.488 102.673 566.2 97.9677 572.385 97.9677C575.584 97.9677 578.272 99.379 579.679 101.946V88H583.647V119.486H580.064L579.723 115.679C578.358 118.545 575.542 120 572.215 120C566.158 120 562.489 115.465 562.489 109.091L562.488 109.09ZM579.636 108.962C579.636 104.685 577.119 101.604 573.024 101.604C568.929 101.604 566.54 104.685 566.54 108.962C566.54 113.24 568.929 116.363 573.024 116.363C577.119 116.363 579.636 113.325 579.636 108.962Z" fill="white"/>
<path d="M585.949 109.048C585.949 102.503 590.087 97.9678 596.144 97.9678C602.201 97.9678 605.955 102.075 605.955 108.278V109.775L589.831 109.817C590.13 114.224 592.433 116.662 596.401 116.662C599.514 116.662 601.562 115.379 602.244 112.983H605.998C604.975 117.475 601.476 119.999 596.315 119.999C590.172 119.999 585.949 115.55 585.949 109.047V109.048ZM589.917 107.123H601.947C601.947 103.658 599.686 101.348 596.145 101.348C592.605 101.348 590.429 103.444 589.917 107.123Z" fill="white"/>
<path d="M608.301 119.486V98.5664H611.883L612.267 101.304C613.333 99.3368 615.552 97.9678 618.495 97.9678C621.737 97.9678 624.041 99.5932 625.107 102.203C626.089 99.5932 628.606 97.9678 631.847 97.9678C636.625 97.9678 639.525 100.962 639.525 105.796V119.486H635.601V106.78C635.601 103.486 633.767 101.604 630.951 101.604C627.922 101.604 625.918 103.744 625.918 107.08V119.486H621.95V106.738C621.95 103.444 620.158 101.647 617.344 101.647C614.315 101.647 612.31 103.743 612.31 107.079V119.485H608.301V119.486Z" fill="white"/>
<path d="M653.088 98.0098C659.317 98.0098 663.923 102.545 663.923 109.004C663.923 115.463 659.317 119.999 653.088 119.999C646.86 119.999 642.211 115.463 642.211 109.004C642.211 102.545 646.817 98.0098 653.088 98.0098ZM653.088 116.406C657.098 116.406 659.913 113.368 659.913 109.004C659.913 104.641 657.098 101.603 653.088 101.603C649.079 101.603 646.263 104.641 646.263 109.004C646.263 113.368 649.035 116.406 653.088 116.406Z" fill="white"/>
<path d="M666.137 109.09C666.137 102.673 669.848 97.9677 676.033 97.9677C679.233 97.9677 681.921 99.379 683.328 101.946V88H687.295V119.486H683.713L683.371 115.679C682.006 118.545 679.19 120 675.863 120C669.806 120 666.138 115.465 666.138 109.091L666.137 109.09ZM683.285 108.962C683.285 104.685 680.768 101.604 676.673 101.604C672.577 101.604 670.189 104.685 670.189 108.962C670.189 113.24 672.577 116.363 676.673 116.363C680.768 116.363 683.285 113.325 683.285 108.962Z" fill="white"/>
<path d="M690.879 117.005C690.879 115.336 692.286 113.967 693.95 113.967C695.614 113.967 696.979 115.336 696.979 117.005C696.979 118.674 695.572 120 693.95 120C692.328 120 690.879 118.631 690.879 117.005Z" fill="white"/>
</g>
<g opacity="0.3" filter="url(#filter0_f_993_880)">
<ellipse cx="600" cy="751" rx="480" ry="330" transform="rotate(-180 600 751)" fill="url(#paint7_linear_993_880)"/>
</g>
</g>
<defs>
<filter id="filter0_f_993_880" x="-87.968" y="213.032" width="1375.94" height="1075.94" filterUnits="userSpaceOnUse" color-interpolation-filters="sRGB">
<feFlood flood-opacity="0" result="BackgroundImageFix"/>
<feBlend mode="normal" in="SourceGraphic" in2="BackgroundImageFix" result="shape"/>
<feGaussianBlur stdDeviation="103.984" result="effect1_foregroundBlur_993_880"/>
</filter>
<linearGradient id="paint0_linear_993_880" x1="70" y1="48.373" x2="82.559" y2="627.728" gradientUnits="userSpaceOnUse">
<stop stop-color="white" stop-opacity="0"/>
<stop offset="0.165" stop-color="white" stop-opacity="0.450549"/>
<stop offset="0.495" stop-color="white"/>
<stop offset="0.775" stop-color="white" stop-opacity="0.452703"/>
<stop offset="1" stop-color="white" stop-opacity="0"/>
</linearGradient>
<linearGradient id="paint1_linear_993_880" x1="246.668" y1="48.373" x2="259.227" y2="627.728" gradientUnits="userSpaceOnUse">
<stop stop-color="white" stop-opacity="0"/>
<stop offset="0.165" stop-color="white" stop-opacity="0.450549"/>
<stop offset="0.495" stop-color="white"/>
<stop offset="0.775" stop-color="white" stop-opacity="0.452703"/>
<stop offset="1" stop-color="white" stop-opacity="0"/>
</linearGradient>
<linearGradient id="paint2_linear_993_880" x1="423.332" y1="48.373" x2="435.891" y2="627.728" gradientUnits="userSpaceOnUse">
<stop stop-color="white" stop-opacity="0"/>
<stop offset="0.165" stop-color="white" stop-opacity="0.450549"/>
<stop offset="0.495" stop-color="white"/>
<stop offset="0.775" stop-color="white" stop-opacity="0.452703"/>
<stop offset="1" stop-color="white" stop-opacity="0"/>
</linearGradient>
<linearGradient id="paint3_linear_993_880" x1="600" y1="48.373" x2="612.559" y2="627.728" gradientUnits="userSpaceOnUse">
<stop stop-color="white" stop-opacity="0"/>
<stop offset="0.165" stop-color="white" stop-opacity="0.450549"/>
<stop offset="0.495" stop-color="white"/>
<stop offset="0.775" stop-color="white" stop-opacity="0.452703"/>
<stop offset="1" stop-color="white" stop-opacity="0"/>
</linearGradient>
<linearGradient id="paint4_linear_993_880" x1="776.668" y1="48.373" x2="789.227" y2="627.728" gradientUnits="userSpaceOnUse">
<stop stop-color="white" stop-opacity="0"/>
<stop offset="0.165" stop-color="white" stop-opacity="0.450549"/>
<stop offset="0.495" stop-color="white"/>
<stop offset="0.775" stop-color="white" stop-opacity="0.452703"/>
<stop offset="1" stop-color="white" stop-opacity="0"/>
</linearGradient>
<linearGradient id="paint5_linear_993_880" x1="953.332" y1="48.373" x2="965.891" y2="627.728" gradientUnits="userSpaceOnUse">
<stop stop-color="white" stop-opacity="0"/>
<stop offset="0.165" stop-color="white" stop-opacity="0.450549"/>
<stop offset="0.495" stop-color="white"/>
<stop offset="0.775" stop-color="white" stop-opacity="0.452703"/>
<stop offset="1" stop-color="white" stop-opacity="0"/>
</linearGradient>
<linearGradient id="paint6_linear_993_880" x1="1130" y1="48.373" x2="1142.56" y2="627.728" gradientUnits="userSpaceOnUse">
<stop stop-color="white" stop-opacity="0"/>
<stop offset="0.165" stop-color="white" stop-opacity="0.450549"/>
<stop offset="0.495" stop-color="white"/>
<stop offset="0.775" stop-color="white" stop-opacity="0.452703"/>
<stop offset="1" stop-color="white" stop-opacity="0"/>
</linearGradient>
<linearGradient id="paint7_linear_993_880" x1="600" y1="421" x2="600" y2="1081" gradientUnits="userSpaceOnUse">
<stop stop-color="white"/>
<stop offset="1" stop-color="white" stop-opacity="0"/>
</linearGradient>
<clipPath id="clip0_993_880">
<rect width="1200" height="675" fill="white"/>
</clipPath>
<clipPath id="clip1_993_880">
<rect width="194" height="32" fill="white" transform="translate(503 88)"/>
</clipPath>
</defs>
</svg>
