<svg width="14" height="14" viewBox="0 0 14 14" fill="none" xmlns="http://www.w3.org/2000/svg">
<path d="M4.06403 2.25L5.62653 3.125L4.75153 1.5625L5.62653 0L4.06403 0.875L2.50153 0L3.37653 1.5625L2.50153 3.125L4.06403 2.25ZM11.564 8.375L10.0015 7.5L10.8765 9.0625L10.0015 10.625L11.564 9.75L13.1265 10.625L12.2515 9.0625L13.1265 7.5L11.564 8.375ZM13.1265 0L11.564 0.875L10.0015 0L10.8765 1.5625L10.0015 3.125L11.564 2.25L13.1265 3.125L12.2515 1.5625L13.1265 0ZM8.35778 3.30625C8.29996 3.24831 8.23128 3.20234 8.15567 3.17098C8.08006 3.13962 7.99901 3.12347 7.91715 3.12347C7.8353 3.12347 7.75425 3.13962 7.67864 3.17098C7.60303 3.20234 7.53435 3.24831 7.47653 3.30625L0.182778 10.6C0.124838 10.6578 0.0788706 10.7265 0.0475072 10.8021C0.0161438 10.8777 0 10.9588 0 11.0406C0 11.1225 0.0161438 11.2035 0.0475072 11.2791C0.0788706 11.3547 0.124838 11.4234 0.182778 11.4813L1.64528 12.9437C1.88903 13.1875 2.28278 13.1875 2.52653 12.9437L9.81403 5.65625C9.87197 5.59843 9.91794 5.52975 9.9493 5.45414C9.98066 5.37853 9.99681 5.29748 9.99681 5.21563C9.99681 5.13377 9.98066 5.05272 9.9493 4.97711C9.91794 4.9015 9.87197 4.83282 9.81403 4.775L8.35778 3.30625ZM7.71403 6.7375L6.38903 5.4125L7.91403 3.8875L9.23903 5.2125L7.71403 6.7375Z" fill="#16C39A"/>
</svg>
