<svg width="146" height="128" viewBox="0 0 146 128" fill="none" xmlns="http://www.w3.org/2000/svg">
    <path fill-rule="evenodd" clip-rule="evenodd"
        d="M88.7407 0L140.037 51.297C147.012 58.271 147.012 69.684 140.037 76.658L88.7237 127.972L72.6367 111.885L120.544 63.978L72.6527 16.087L88.7407 0Z"
        fill="#FFB703" />
    <path fill-rule="evenodd" clip-rule="evenodd"
        d="M5.23138 51.296L56.5284 0L72.6154 16.087L24.7244 63.978L72.6314 111.885L56.5444 127.972L5.23037 76.659C-1.74363 69.684 -1.74362 58.271 5.23138 51.296Z"
        fill="#219EBC" />
    <path fill-rule="evenodd" clip-rule="evenodd"
        d="M48.6789 40.0226C61.8549 26.8466 83.4139 26.8466 96.5889 40.0226C109.764 53.1976 109.764 74.7576 96.5889 87.9326L72.6339 111.888L48.6789 87.9326C35.5029 74.7576 35.5029 53.1986 48.6789 40.0226ZM62.9659 54.6666C68.2829 49.3496 76.9829 49.3496 82.2999 54.6666C87.6169 59.9836 87.6179 68.6826 82.3009 73.9996C76.9839 79.3166 68.2829 79.3166 62.9669 73.9996C57.6509 68.6836 57.6499 59.9836 62.9659 54.6666Z"
        fill="#D92C29" />
</svg>