<svg width="20" height="20" viewBox="0 0 20 20" fill="none" xmlns="http://www.w3.org/2000/svg">
<path d="M10.0003 5.83333C10.0003 4.94928 9.64914 4.10143 9.02401 3.47631C8.39889 2.85119 7.55105 2.5 6.66699 2.5H1.66699V15H7.50033C8.16337 15 8.79925 15.2634 9.26809 15.7322C9.73693 16.2011 10.0003 16.837 10.0003 17.5M10.0003 5.83333V17.5M10.0003 5.83333C10.0003 4.94928 10.3515 4.10143 10.9766 3.47631C11.6018 2.85119 12.4496 2.5 13.3337 2.5H18.3337V15H12.5003C11.8373 15 11.2014 15.2634 10.7326 15.7322C10.2637 16.2011 10.0003 16.837 10.0003 17.5" stroke="#0B151E" stroke-width="1.2" stroke-linecap="square"/>
</svg>
