<svg width="1200" height="675" viewBox="0 0 1200 675" fill="none" xmlns="http://www.w3.org/2000/svg">
<g clip-path="url(#clip0_805_349)">
<rect width="1200" height="675" fill="white"/>
<g opacity="0.4" filter="url(#filter0_f_805_349)">
<circle cx="159" cy="83" r="300" transform="rotate(90 159 83)" fill="url(#paint0_linear_805_349)"/>
</g>
<g opacity="0.4" filter="url(#filter1_f_805_349)">
<ellipse cx="996" cy="551" rx="330" ry="330" transform="rotate(-180 996 551)" fill="url(#paint1_linear_805_349)"/>
</g>
<path opacity="0.1" d="M70 48V628" stroke="url(#paint2_linear_805_349)"/>
<path opacity="0.1" d="M246.668 48V628" stroke="url(#paint3_linear_805_349)"/>
<path opacity="0.05" d="M423.332 48V628" stroke="url(#paint4_linear_805_349)"/>
<path opacity="0.05" d="M600 48V628" stroke="url(#paint5_linear_805_349)"/>
<path opacity="0.05" d="M776.668 48V628" stroke="url(#paint6_linear_805_349)"/>
<path opacity="0.1" d="M953.332 48V628" stroke="url(#paint7_linear_805_349)"/>
<path opacity="0.1" d="M1130 48V628" stroke="url(#paint8_linear_805_349)"/>
<circle opacity="0.2" cx="600" cy="543" r="2" fill="#0B151E"/>
<circle cx="424" cy="122" r="2" fill="#0B151E"/>
<circle opacity="0.2" cx="247" cy="286" r="2" fill="#0B151E"/>
<circle cx="70" cy="458" r="2" fill="#0B151E"/>
<circle opacity="0.5" cx="777" cy="150" r="2" fill="#0B151E"/>
<circle opacity="0.5" cx="953" cy="508" r="2" fill="#0B151E"/>
<circle cx="1130" cy="150" r="2" fill="#0B151E"/>
<path d="M265.055 309.056C246.311 309.056 234.167 296.032 234.167 275.88C234.167 255.904 246.751 242.616 265.583 242.616C280.807 242.616 292.159 251.504 294.359 265.32H282.479C280.279 257.84 273.855 253.44 265.319 253.44C253.439 253.44 245.959 262.064 245.959 275.792C245.959 289.432 253.527 298.232 265.319 298.232C274.031 298.232 280.719 293.656 282.831 286.528H294.535C292.071 300.08 280.279 309.056 265.055 309.056ZM298.741 286.176C298.741 272.624 308.509 263.296 321.973 263.296C335.437 263.296 345.205 272.624 345.205 286.176C345.205 299.728 335.437 309.056 321.973 309.056C308.509 309.056 298.741 299.728 298.741 286.176ZM309.477 286.176C309.477 294.096 314.581 299.464 321.973 299.464C329.365 299.464 334.469 294.096 334.469 286.176C334.469 278.256 329.365 272.888 321.973 272.888C314.581 272.888 309.477 278.256 309.477 286.176ZM369.818 309.144C357.234 309.144 349.402 299.904 349.402 286.44C349.402 272.888 357.322 263.208 370.434 263.208C376.506 263.208 381.874 265.76 384.602 270.072V242.528H395.25V308H385.394L384.69 301.224C382.05 306.24 376.418 309.144 369.818 309.144ZM372.194 299.288C379.674 299.288 384.514 293.92 384.514 286.088C384.514 278.256 379.674 272.8 372.194 272.8C364.714 272.8 360.138 278.344 360.138 286.088C360.138 293.832 364.714 299.288 372.194 299.288ZM424.127 309.144C411.191 309.144 402.127 299.728 402.127 286.264C402.127 272.624 411.015 263.208 423.775 263.208C436.799 263.208 445.071 271.92 445.071 285.472V288.728L412.335 288.816C413.127 296.472 417.175 300.344 424.303 300.344C430.199 300.344 434.071 298.056 435.303 293.92H445.247C443.399 303.424 435.479 309.144 424.127 309.144ZM423.863 272.008C417.527 272.008 413.655 275.44 412.599 281.952H434.423C434.423 275.968 430.287 272.008 423.863 272.008ZM462.639 308H451.903V264.528H461.759L462.639 269.632C464.839 266.024 469.239 263.208 475.487 263.208C482.087 263.208 486.663 266.464 488.951 271.48C491.151 266.464 496.255 263.208 502.855 263.208C513.415 263.208 519.223 269.544 519.223 279.576V308H508.575V282.392C508.575 276.144 505.231 272.888 500.127 272.888C494.935 272.888 490.975 276.232 490.975 283.36V308H480.239V282.304C480.239 276.232 476.983 272.976 471.879 272.976C466.775 272.976 462.639 276.32 462.639 283.36V308ZM525.451 286.176C525.451 272.624 535.219 263.296 548.683 263.296C562.147 263.296 571.915 272.624 571.915 286.176C571.915 299.728 562.147 309.056 548.683 309.056C535.219 309.056 525.451 299.728 525.451 286.176ZM536.187 286.176C536.187 294.096 541.291 299.464 548.683 299.464C556.075 299.464 561.179 294.096 561.179 286.176C561.179 278.256 556.075 272.888 548.683 272.888C541.291 272.888 536.187 278.256 536.187 286.176ZM596.528 309.144C583.944 309.144 576.112 299.904 576.112 286.44C576.112 272.888 584.032 263.208 597.144 263.208C603.216 263.208 608.584 265.76 611.312 270.072V242.528H621.96V308H612.104L611.4 301.224C608.76 306.24 603.128 309.144 596.528 309.144ZM598.904 299.288C606.384 299.288 611.224 293.92 611.224 286.088C611.224 278.256 606.384 272.8 598.904 272.8C591.424 272.8 586.848 278.344 586.848 286.088C586.848 293.832 591.424 299.288 598.904 299.288ZM666.196 308H654.932V243.672H679.484C694.092 243.672 702.628 251.064 702.628 263.736C702.628 272.36 698.58 278.52 691.012 281.6L703.244 308H690.924L680.012 283.976H666.196V308ZM666.196 253.704V274.032H679.484C686.612 274.032 690.836 270.248 690.836 263.736C690.836 257.312 686.612 253.704 679.484 253.704H666.196ZM726.895 309.144C713.959 309.144 704.895 299.728 704.895 286.264C704.895 272.624 713.783 263.208 726.543 263.208C739.567 263.208 747.839 271.92 747.839 285.472V288.728L715.103 288.816C715.895 296.472 719.943 300.344 727.071 300.344C732.967 300.344 736.839 298.056 738.071 293.92H748.015C746.167 303.424 738.247 309.144 726.895 309.144ZM726.631 272.008C720.295 272.008 716.423 275.44 715.367 281.952H737.191C737.191 275.968 733.055 272.008 726.631 272.008ZM752.207 285.296C752.207 272.624 760.479 263.12 772.887 263.12C779.399 263.12 784.503 265.848 787.055 270.512L787.671 264.528H797.615V305.8C797.615 320.32 788.903 329.384 774.823 329.384C762.327 329.384 753.791 322.256 752.471 310.64H763.207C763.911 316.272 768.223 319.616 774.823 319.616C782.215 319.616 786.967 314.952 786.967 307.736V300.52C784.239 304.568 778.871 307.12 772.623 307.12C760.303 307.12 752.207 297.88 752.207 285.296ZM763.031 285.032C763.031 292.336 767.695 297.792 774.735 297.792C782.127 297.792 786.703 292.6 786.703 285.032C786.703 277.64 782.215 272.536 774.735 272.536C767.607 272.536 763.031 277.904 763.031 285.032ZM812.334 255.816C808.638 255.816 805.734 252.912 805.734 249.304C805.734 245.696 808.638 242.88 812.334 242.88C815.854 242.88 818.758 245.696 818.758 249.304C818.758 252.912 815.854 255.816 812.334 255.816ZM806.966 308V264.528H817.702V308H806.966ZM823.69 294.8H833.898C833.986 298.584 836.802 300.96 841.73 300.96C846.746 300.96 849.474 298.936 849.474 295.768C849.474 293.568 848.33 291.984 844.458 291.104L836.626 289.256C828.794 287.496 825.01 283.8 825.01 276.848C825.01 268.312 832.226 263.208 842.258 263.208C852.026 263.208 858.626 268.84 858.714 277.288H848.506C848.418 273.592 845.954 271.216 841.818 271.216C837.594 271.216 835.13 273.152 835.13 276.408C835.13 278.872 837.066 280.456 840.762 281.336L848.594 283.184C855.898 284.856 859.594 288.2 859.594 294.888C859.594 303.688 852.114 309.144 841.378 309.144C830.554 309.144 823.69 303.336 823.69 294.8ZM880.793 308H870.057V273.504H861.697V264.528H870.057V250.976H880.793V264.528H889.241V273.504H880.793V308ZM921.435 264.352V274.296H917.475C909.731 274.296 904.891 278.432 904.891 286.88V308H894.155V264.616H904.275L904.891 270.952C906.739 266.64 910.875 263.736 916.683 263.736C918.179 263.736 919.675 263.912 921.435 264.352ZM924.447 328.152V319.176H930.871C935.095 319.176 937.735 318.208 939.583 313.104L940.815 309.848L923.303 264.528H934.655L945.831 296.208L957.623 264.528H968.711L947.415 317.68C944.159 325.776 939.583 329.12 932.455 329.12C929.463 329.12 926.823 328.768 924.447 328.152Z" fill="#0B151E"/>
<path d="M343.307 395H330.077V373.31H343.307V376.01H333.017V382.79H342.287V385.4H333.017V392.27H343.307V395ZM347.987 395H344.747L349.877 387.74L344.777 380.33H348.047L351.767 385.79L355.397 380.33H358.607L353.507 387.74L358.517 395H355.247L351.587 389.63L347.987 395ZM360.36 401.57V380.33H362.91L363.12 382.97C364.11 380.96 366.09 379.91 368.43 379.91C372.63 379.91 375.24 383.06 375.24 387.56C375.24 392.03 372.78 395.39 368.43 395.39C366.09 395.39 364.14 394.4 363.18 392.6V401.57H360.36ZM363.21 387.68C363.21 390.68 364.95 392.84 367.83 392.84C370.71 392.84 372.42 390.68 372.42 387.68C372.42 384.65 370.71 382.49 367.83 382.49C364.95 382.49 363.21 384.62 363.21 387.68ZM380.628 395H377.808V372.92H380.628V395ZM383.219 387.65C383.219 383.12 386.459 379.94 390.869 379.94C395.249 379.94 398.489 383.12 398.489 387.65C398.489 392.18 395.249 395.36 390.869 395.36C386.459 395.36 383.219 392.18 383.219 387.65ZM386.069 387.65C386.069 390.71 388.019 392.84 390.869 392.84C393.689 392.84 395.669 390.71 395.669 387.65C395.669 384.59 393.689 382.46 390.869 382.46C388.019 382.46 386.069 384.59 386.069 387.65ZM409.411 380.21V382.79H408.151C405.481 382.79 403.831 384.41 403.831 387.23V395H401.011V380.36H403.651L403.831 382.58C404.431 381.05 405.901 380.03 407.911 380.03C408.421 380.03 408.841 380.09 409.411 380.21ZM417.258 395.36C412.938 395.36 409.968 392.24 409.968 387.68C409.968 383.09 412.878 379.91 417.138 379.91C421.308 379.91 424.038 382.79 424.038 387.14V388.19L412.698 388.22C412.908 391.31 414.528 393.02 417.318 393.02C419.508 393.02 420.948 392.12 421.428 390.44H424.068C423.348 393.59 420.888 395.36 417.258 395.36ZM417.138 382.28C414.678 382.28 413.118 383.75 412.758 386.33H421.218C421.218 383.9 419.628 382.28 417.138 382.28ZM429.91 393.83C429.91 395.99 428.29 397.79 426.16 398.06V396.8C427.39 396.59 428.26 395.78 428.26 394.85C428.05 394.97 427.81 395.03 427.45 395.03C426.46 395.03 425.62 394.31 425.62 393.2C425.62 392 426.43 391.13 427.63 391.13C428.89 391.13 429.91 392.18 429.91 393.83ZM439.774 390.74H442.474C442.474 392.24 443.614 393.14 445.474 393.14C447.454 393.14 448.594 392.33 448.594 390.98C448.594 389.99 448.114 389.39 446.584 389L444.004 388.4C441.394 387.77 440.164 386.48 440.164 384.32C440.164 381.62 442.444 379.91 445.684 379.91C448.894 379.91 450.994 381.71 451.054 384.5H448.354C448.294 383.03 447.304 382.1 445.594 382.1C443.824 382.1 442.834 382.88 442.834 384.23C442.834 385.22 443.554 385.88 444.994 386.24L447.574 386.87C450.064 387.47 451.294 388.61 451.294 390.8C451.294 393.59 448.894 395.36 445.414 395.36C441.964 395.36 439.774 393.53 439.774 390.74ZM456.641 394.97H453.821V372.92H456.641V382.58C457.571 380.99 459.341 379.91 461.621 379.91C465.371 379.91 467.171 382.28 467.171 386.03V395H464.351V386.66C464.351 383.69 462.941 382.49 460.841 382.49C458.111 382.49 456.641 384.47 456.641 386.99V394.97ZM474.767 395.36C471.617 395.36 469.757 393.59 469.757 390.92C469.757 388.22 471.767 386.54 475.217 386.27L479.837 385.91V385.49C479.837 383.03 478.367 382.16 476.387 382.16C474.017 382.16 472.667 383.21 472.667 384.98H470.207C470.207 381.92 472.727 379.91 476.507 379.91C480.137 379.91 482.597 381.83 482.597 385.79V395H480.197L479.897 392.63C479.147 394.31 477.137 395.36 474.767 395.36ZM475.577 393.17C478.247 393.17 479.867 391.43 479.867 388.67V387.89L476.117 388.19C473.627 388.43 472.607 389.39 472.607 390.83C472.607 392.39 473.747 393.17 475.577 393.17ZM494.303 380.21V382.79H493.043C490.373 382.79 488.723 384.41 488.723 387.23V395H485.903V380.36H488.543L488.723 382.58C489.323 381.05 490.793 380.03 492.803 380.03C493.313 380.03 493.733 380.09 494.303 380.21ZM502.15 395.36C497.83 395.36 494.86 392.24 494.86 387.68C494.86 383.09 497.77 379.91 502.03 379.91C506.2 379.91 508.93 382.79 508.93 387.14V388.19L497.59 388.22C497.8 391.31 499.42 393.02 502.21 393.02C504.4 393.02 505.84 392.12 506.32 390.44H508.96C508.24 393.59 505.78 395.36 502.15 395.36ZM502.03 382.28C499.57 382.28 498.01 383.75 497.65 386.33H506.11C506.11 383.9 504.52 382.28 502.03 382.28ZM514.802 393.83C514.802 395.99 513.182 397.79 511.052 398.06V396.8C512.282 396.59 513.152 395.78 513.152 394.85C512.942 394.97 512.702 395.03 512.342 395.03C511.352 395.03 510.512 394.31 510.512 393.2C510.512 392 511.322 391.13 512.522 391.13C513.782 391.13 514.802 392.18 514.802 393.83ZM530.156 395.36C527.006 395.36 525.146 393.59 525.146 390.92C525.146 388.22 527.156 386.54 530.606 386.27L535.226 385.91V385.49C535.226 383.03 533.756 382.16 531.776 382.16C529.406 382.16 528.056 383.21 528.056 384.98H525.596C525.596 381.92 528.116 379.91 531.896 379.91C535.526 379.91 537.986 381.83 537.986 385.79V395H535.586L535.286 392.63C534.536 394.31 532.526 395.36 530.156 395.36ZM530.966 393.17C533.636 393.17 535.256 391.43 535.256 388.67V387.89L531.506 388.19C529.016 388.43 527.996 389.39 527.996 390.83C527.996 392.39 529.136 393.17 530.966 393.17ZM544.111 395H541.291V380.33H543.841L544.141 382.58C545.071 380.9 546.931 379.91 549.001 379.91C552.871 379.91 554.641 382.28 554.641 386.03V395H551.821V386.66C551.821 383.69 550.441 382.49 548.281 382.49C545.641 382.49 544.111 384.38 544.111 387.23V395ZM563.827 395.36C559.567 395.36 556.987 392.18 556.987 387.71C556.987 383.21 559.597 379.91 563.947 379.91C566.197 379.91 568.087 380.9 569.077 382.7V372.92H571.867V395H569.347L569.107 392.33C568.147 394.34 566.167 395.36 563.827 395.36ZM564.397 392.81C567.277 392.81 569.047 390.68 569.047 387.62C569.047 384.62 567.277 382.46 564.397 382.46C561.517 382.46 559.837 384.62 559.837 387.62C559.837 390.65 561.517 392.81 564.397 392.81ZM588.818 395.36C584.558 395.36 581.978 392.18 581.978 387.71C581.978 383.21 584.588 379.91 588.938 379.91C591.188 379.91 593.078 380.9 594.068 382.7V372.92H596.858V395H594.338L594.098 392.33C593.138 394.34 591.158 395.36 588.818 395.36ZM589.388 392.81C592.268 392.81 594.038 390.68 594.038 387.62C594.038 384.62 592.268 382.46 589.388 382.46C586.508 382.46 584.828 384.62 584.828 387.62C584.828 390.65 586.508 392.81 589.388 392.81ZM606.657 395.36C602.337 395.36 599.367 392.24 599.367 387.68C599.367 383.09 602.277 379.91 606.537 379.91C610.707 379.91 613.437 382.79 613.437 387.14V388.19L602.097 388.22C602.307 391.31 603.927 393.02 606.717 393.02C608.907 393.02 610.347 392.12 610.827 390.44H613.467C612.747 393.59 610.287 395.36 606.657 395.36ZM606.537 382.28C604.077 382.28 602.517 383.75 602.157 386.33H610.617C610.617 383.9 609.027 382.28 606.537 382.28ZM615.986 401.57V380.33H618.536L618.746 382.97C619.736 380.96 621.716 379.91 624.056 379.91C628.256 379.91 630.866 383.06 630.866 387.56C630.866 392.03 628.406 395.39 624.056 395.39C621.716 395.39 619.766 394.4 618.806 392.6V401.57H615.986ZM618.836 387.68C618.836 390.68 620.576 392.84 623.456 392.84C626.336 392.84 628.046 390.68 628.046 387.68C628.046 384.65 626.336 382.49 623.456 382.49C620.576 382.49 618.836 384.62 618.836 387.68ZM636.255 395H633.435V372.92H636.255V395ZM638.846 387.65C638.846 383.12 642.086 379.94 646.496 379.94C650.876 379.94 654.116 383.12 654.116 387.65C654.116 392.18 650.876 395.36 646.496 395.36C642.086 395.36 638.846 392.18 638.846 387.65ZM641.696 387.65C641.696 390.71 643.646 392.84 646.496 392.84C649.316 392.84 651.296 390.71 651.296 387.65C651.296 384.59 649.316 382.46 646.496 382.46C643.646 382.46 641.696 384.59 641.696 387.65ZM654.73 401.57V399.26H656.62C657.97 399.26 659.05 399.05 659.74 397.19L660.25 395.78L654.34 380.33H657.31L661.57 392.15L665.92 380.33H668.83L661.9 398.3C660.91 400.82 659.44 401.87 657.19 401.87C656.26 401.87 655.48 401.75 654.73 401.57ZM677.124 387.68C677.124 383.09 680.034 379.91 684.324 379.91C688.014 379.91 690.594 382.01 691.104 385.28H688.284C687.804 383.42 686.304 382.43 684.414 382.43C681.744 382.43 679.914 384.47 679.914 387.65C679.914 390.8 681.624 392.84 684.294 392.84C686.304 392.84 687.804 391.79 688.314 390.05H691.134C690.564 393.23 687.834 395.36 684.294 395.36C679.974 395.36 677.124 392.3 677.124 387.68ZM692.55 387.65C692.55 383.12 695.79 379.94 700.2 379.94C704.58 379.94 707.82 383.12 707.82 387.65C707.82 392.18 704.58 395.36 700.2 395.36C695.79 395.36 692.55 392.18 692.55 387.65ZM695.4 387.65C695.4 390.71 697.35 392.84 700.2 392.84C703.02 392.84 705 390.71 705 387.65C705 384.59 703.02 382.46 700.2 382.46C697.35 382.46 695.4 384.59 695.4 387.65ZM713.161 395H710.341V380.33H712.861L713.131 382.25C713.881 380.87 715.441 379.91 717.511 379.91C719.791 379.91 721.411 381.05 722.161 382.88C722.851 381.05 724.621 379.91 726.901 379.91C730.261 379.91 732.301 382.01 732.301 385.4V395H729.541V386.09C729.541 383.78 728.251 382.46 726.271 382.46C724.141 382.46 722.731 383.96 722.731 386.3V395H719.941V386.06C719.941 383.75 718.681 382.49 716.701 382.49C714.571 382.49 713.161 383.96 713.161 386.3V395ZM738.43 395H735.61V380.33H738.13L738.4 382.25C739.15 380.87 740.71 379.91 742.78 379.91C745.06 379.91 746.68 381.05 747.43 382.88C748.12 381.05 749.89 379.91 752.17 379.91C755.53 379.91 757.57 382.01 757.57 385.4V395H754.81V386.09C754.81 383.78 753.52 382.46 751.54 382.46C749.41 382.46 748 383.96 748 386.3V395H745.21V386.06C745.21 383.75 743.95 382.49 741.97 382.49C739.84 382.49 738.43 383.96 738.43 386.3V395ZM771.019 380.33H773.809V395H771.289L770.989 392.78C770.149 394.31 768.199 395.36 766.039 395.36C762.619 395.36 760.699 393.05 760.699 389.45V380.33H763.519V388.52C763.519 391.67 764.869 392.87 767.029 392.87C769.609 392.87 771.019 391.22 771.019 388.07V380.33ZM780.121 395H777.301V380.33H779.851L780.151 382.58C781.081 380.9 782.941 379.91 785.011 379.91C788.881 379.91 790.651 382.28 790.651 386.03V395H787.831V386.66C787.831 383.69 786.451 382.49 784.291 382.49C781.651 382.49 780.121 384.38 780.121 387.23V395ZM795.337 376.85C794.317 376.85 793.477 376.01 793.477 374.99C793.477 373.94 794.317 373.13 795.337 373.13C796.357 373.13 797.197 373.94 797.197 374.99C797.197 376.01 796.357 376.85 795.337 376.85ZM793.957 395V380.33H796.777V395H793.957ZM804.411 395H801.591V382.7H798.711V380.33H801.591V375.74H804.411V380.33H807.291V382.7H804.411V395ZM807.812 401.57V399.26H809.702C811.052 399.26 812.132 399.05 812.822 397.19L813.332 395.78L807.422 380.33H810.392L814.652 392.15L819.002 380.33H821.912L814.982 398.3C813.992 400.82 812.522 401.87 810.272 401.87C809.342 401.87 808.562 401.75 807.812 401.57ZM822.534 388.31V385.79H831.684V388.31H822.534ZM837.884 395H835.064V372.92H837.884V395ZM847.765 395.36C843.445 395.36 840.475 392.24 840.475 387.68C840.475 383.09 843.385 379.91 847.645 379.91C851.815 379.91 854.545 382.79 854.545 387.14V388.19L843.205 388.22C843.415 391.31 845.035 393.02 847.825 393.02C850.015 393.02 851.455 392.12 851.935 390.44H854.575C853.855 393.59 851.395 395.36 847.765 395.36ZM847.645 382.28C845.185 382.28 843.625 383.75 843.265 386.33H851.725C851.725 383.9 850.135 382.28 847.645 382.28ZM862.975 395.36C858.715 395.36 856.135 392.18 856.135 387.71C856.135 383.21 858.745 379.91 863.095 379.91C865.345 379.91 867.235 380.9 868.225 382.7V372.92H871.015V395H868.495L868.255 392.33C867.295 394.34 865.315 395.36 862.975 395.36ZM863.545 392.81C866.425 392.81 868.195 390.68 868.195 387.62C868.195 384.62 866.425 382.46 863.545 382.46C860.665 382.46 858.985 384.62 858.985 387.62C858.985 390.65 860.665 392.81 863.545 392.81ZM528.202 428.68C528.202 424.09 531.112 420.91 535.402 420.91C539.092 420.91 541.672 423.01 542.182 426.28H539.362C538.882 424.42 537.382 423.43 535.492 423.43C532.822 423.43 530.992 425.47 530.992 428.65C530.992 431.8 532.702 433.84 535.372 433.84C537.382 433.84 538.882 432.79 539.392 431.05H542.212C541.642 434.23 538.912 436.36 535.372 436.36C531.052 436.36 528.202 433.3 528.202 428.68ZM543.627 428.65C543.627 424.12 546.867 420.94 551.277 420.94C555.657 420.94 558.897 424.12 558.897 428.65C558.897 433.18 555.657 436.36 551.277 436.36C546.867 436.36 543.627 433.18 543.627 428.65ZM546.477 428.65C546.477 431.71 548.427 433.84 551.277 433.84C554.097 433.84 556.077 431.71 556.077 428.65C556.077 425.59 554.097 423.46 551.277 423.46C548.427 423.46 546.477 425.59 546.477 428.65ZM567.299 436.36C563.039 436.36 560.459 433.18 560.459 428.71C560.459 424.21 563.069 420.91 567.419 420.91C569.669 420.91 571.559 421.9 572.549 423.7V413.92H575.339V436H572.819L572.579 433.33C571.619 435.34 569.639 436.36 567.299 436.36ZM567.869 433.81C570.749 433.81 572.519 431.68 572.519 428.62C572.519 425.62 570.749 423.46 567.869 423.46C564.989 423.46 563.309 425.62 563.309 428.62C563.309 431.65 564.989 433.81 567.869 433.81ZM585.137 436.36C580.817 436.36 577.847 433.24 577.847 428.68C577.847 424.09 580.757 420.91 585.017 420.91C589.187 420.91 591.917 423.79 591.917 428.14V429.19L580.577 429.22C580.787 432.31 582.407 434.02 585.197 434.02C587.387 434.02 588.827 433.12 589.307 431.44H591.947C591.227 434.59 588.767 436.36 585.137 436.36ZM585.017 423.28C582.557 423.28 580.997 424.75 580.637 427.33H589.097C589.097 424.9 587.507 423.28 585.017 423.28ZM597.287 436H594.467V421.33H596.987L597.257 423.25C598.007 421.87 599.567 420.91 601.637 420.91C603.917 420.91 605.537 422.05 606.287 423.88C606.977 422.05 608.747 420.91 611.027 420.91C614.387 420.91 616.427 423.01 616.427 426.4V436H613.667V427.09C613.667 424.78 612.377 423.46 610.397 423.46C608.267 423.46 606.857 424.96 606.857 427.3V436H604.067V427.06C604.067 424.75 602.807 423.49 600.827 423.49C598.697 423.49 597.287 424.96 597.287 427.3V436ZM618.776 428.65C618.776 424.12 622.016 420.94 626.426 420.94C630.806 420.94 634.046 424.12 634.046 428.65C634.046 433.18 630.806 436.36 626.426 436.36C622.016 436.36 618.776 433.18 618.776 428.65ZM621.626 428.65C621.626 431.71 623.576 433.84 626.426 433.84C629.246 433.84 631.226 431.71 631.226 428.65C631.226 425.59 629.246 423.46 626.426 423.46C623.576 423.46 621.626 425.59 621.626 428.65ZM642.448 436.36C638.188 436.36 635.608 433.18 635.608 428.71C635.608 424.21 638.218 420.91 642.568 420.91C644.818 420.91 646.708 421.9 647.698 423.7V413.92H650.488V436H647.968L647.728 433.33C646.768 435.34 644.788 436.36 642.448 436.36ZM643.018 433.81C645.898 433.81 647.668 431.68 647.668 428.62C647.668 425.62 645.898 423.46 643.018 423.46C640.138 423.46 638.458 425.62 638.458 428.62C638.458 431.65 640.138 433.81 643.018 433.81ZM652.756 431.74H655.456C655.456 433.24 656.596 434.14 658.456 434.14C660.436 434.14 661.576 433.33 661.576 431.98C661.576 430.99 661.096 430.39 659.566 430L656.986 429.4C654.376 428.77 653.146 427.48 653.146 425.32C653.146 422.62 655.426 420.91 658.666 420.91C661.876 420.91 663.976 422.71 664.036 425.5H661.336C661.276 424.03 660.286 423.1 658.576 423.1C656.806 423.1 655.816 423.88 655.816 425.23C655.816 426.22 656.536 426.88 657.976 427.24L660.556 427.87C663.046 428.47 664.276 429.61 664.276 431.8C664.276 434.59 661.876 436.36 658.396 436.36C654.946 436.36 652.756 434.53 652.756 431.74ZM668.727 436.36C667.557 436.36 666.567 435.4 666.567 434.26C666.567 433.09 667.557 432.13 668.727 432.13C669.867 432.13 670.857 433.09 670.857 434.26C670.857 435.4 669.867 436.36 668.727 436.36Z" fill="#0B151E"/>
<g clip-path="url(#clip1_805_349)">
<path d="M501 119.486L513.029 88.5986H517.038L504.967 119.486H501Z" fill="#0B151E"/>
<path d="M524.876 97.9677C530.123 97.9677 533.791 100.962 534.517 105.625H530.508C529.825 102.973 527.692 101.561 525.005 101.561C521.209 101.561 518.607 104.469 518.607 109.004C518.607 113.54 521.038 116.406 524.835 116.406C527.693 116.406 529.826 114.909 530.551 112.427H534.561C533.75 116.962 529.869 119.999 524.835 119.999C518.692 119.999 514.641 115.635 514.641 109.047C514.641 102.458 518.778 97.9666 524.879 97.9666L524.876 97.9677Z" fill="#0B151E"/>
<path d="M547.44 98.01C553.668 98.01 558.275 102.545 558.275 109.004C558.275 115.464 553.668 119.999 547.44 119.999C541.211 119.999 536.562 115.464 536.562 109.004C536.562 102.545 541.169 98.01 547.44 98.01ZM547.44 116.406C551.449 116.406 554.265 113.368 554.265 109.004C554.265 104.641 551.449 101.603 547.44 101.603C543.43 101.603 540.614 104.641 540.614 109.004C540.614 113.368 543.387 116.406 547.44 116.406Z" fill="#0B151E"/>
<path d="M560.488 109.09C560.488 102.673 564.2 97.9677 570.385 97.9677C573.584 97.9677 576.272 99.379 577.679 101.946V88H581.647V119.486H578.064L577.723 115.679C576.358 118.545 573.542 120 570.215 120C564.158 120 560.489 115.465 560.489 109.091L560.488 109.09ZM577.636 108.962C577.636 104.685 575.119 101.604 571.024 101.604C566.929 101.604 564.54 104.685 564.54 108.962C564.54 113.24 566.929 116.363 571.024 116.363C575.119 116.363 577.636 113.325 577.636 108.962Z" fill="#0B151E"/>
<path d="M583.949 109.048C583.949 102.503 588.087 97.9678 594.144 97.9678C600.201 97.9678 603.955 102.075 603.955 108.278V109.775L587.831 109.817C588.13 114.224 590.433 116.662 594.401 116.662C597.514 116.662 599.562 115.379 600.244 112.983H603.998C602.975 117.475 599.476 119.999 594.315 119.999C588.172 119.999 583.949 115.55 583.949 109.047V109.048ZM587.917 107.123H599.947C599.947 103.658 597.686 101.348 594.145 101.348C590.605 101.348 588.429 103.444 587.917 107.123Z" fill="#0B151E"/>
<path d="M606.301 119.486V98.5664H609.883L610.267 101.304C611.333 99.3368 613.552 97.9678 616.495 97.9678C619.737 97.9678 622.041 99.5932 623.107 102.203C624.089 99.5932 626.606 97.9678 629.847 97.9678C634.625 97.9678 637.525 100.962 637.525 105.796V119.486H633.601V106.78C633.601 103.486 631.767 101.604 628.951 101.604C625.922 101.604 623.918 103.744 623.918 107.08V119.486H619.95V106.738C619.95 103.444 618.158 101.647 615.344 101.647C612.315 101.647 610.31 103.743 610.31 107.079V119.485H606.301V119.486Z" fill="#0B151E"/>
<path d="M651.088 98.01C657.317 98.01 661.923 102.545 661.923 109.004C661.923 115.464 657.317 119.999 651.088 119.999C644.86 119.999 640.211 115.464 640.211 109.004C640.211 102.545 644.817 98.01 651.088 98.01ZM651.088 116.406C655.098 116.406 657.913 113.368 657.913 109.004C657.913 104.641 655.098 101.603 651.088 101.603C647.079 101.603 644.263 104.641 644.263 109.004C644.263 113.368 647.035 116.406 651.088 116.406Z" fill="#0B151E"/>
<path d="M664.137 109.09C664.137 102.673 667.848 97.9677 674.033 97.9677C677.233 97.9677 679.921 99.379 681.328 101.946V88H685.295V119.486H681.713L681.371 115.679C680.006 118.545 677.19 120 673.863 120C667.806 120 664.138 115.465 664.138 109.091L664.137 109.09ZM681.285 108.962C681.285 104.685 678.768 101.604 674.673 101.604C670.577 101.604 668.189 104.685 668.189 108.962C668.189 113.24 670.577 116.363 674.673 116.363C678.768 116.363 681.285 113.325 681.285 108.962Z" fill="#0B151E"/>
<path d="M688.879 117.005C688.879 115.337 690.286 113.968 691.95 113.968C693.614 113.968 694.979 115.337 694.979 117.005C694.979 118.674 693.572 120 691.95 120C690.328 120 688.879 118.631 688.879 117.005Z" fill="#0B151E"/>
</g>
</g>
<defs>
<filter id="filter0_f_805_349" x="-409.858" y="-485.858" width="1137.72" height="1137.72" filterUnits="userSpaceOnUse" color-interpolation-filters="sRGB">
<feFlood flood-opacity="0" result="BackgroundImageFix"/>
<feBlend mode="normal" in="SourceGraphic" in2="BackgroundImageFix" result="shape"/>
<feGaussianBlur stdDeviation="134.429" result="effect1_foregroundBlur_805_349"/>
</filter>
<filter id="filter1_f_805_349" x="458.032" y="13.032" width="1075.94" height="1075.94" filterUnits="userSpaceOnUse" color-interpolation-filters="sRGB">
<feFlood flood-opacity="0" result="BackgroundImageFix"/>
<feBlend mode="normal" in="SourceGraphic" in2="BackgroundImageFix" result="shape"/>
<feGaussianBlur stdDeviation="103.984" result="effect1_foregroundBlur_805_349"/>
</filter>
<linearGradient id="paint0_linear_805_349" x1="159" y1="-217" x2="159" y2="383" gradientUnits="userSpaceOnUse">
<stop stop-color="#BBFC03"/>
<stop offset="1" stop-color="#BBFC03" stop-opacity="0.17"/>
</linearGradient>
<linearGradient id="paint1_linear_805_349" x1="996" y1="221" x2="996" y2="881" gradientUnits="userSpaceOnUse">
<stop stop-color="#BBFC03"/>
<stop offset="1" stop-color="#BBFC03" stop-opacity="0"/>
</linearGradient>
<linearGradient id="paint2_linear_805_349" x1="70" y1="48.373" x2="82.559" y2="627.728" gradientUnits="userSpaceOnUse">
<stop stop-color="#0B151E" stop-opacity="0"/>
<stop offset="0.165" stop-color="#0B151E" stop-opacity="0.450549"/>
<stop offset="0.495" stop-color="#0B151E"/>
<stop offset="0.775" stop-color="#0B151E" stop-opacity="0.452703"/>
<stop offset="1" stop-color="#0B151E" stop-opacity="0"/>
</linearGradient>
<linearGradient id="paint3_linear_805_349" x1="246.668" y1="48.373" x2="259.227" y2="627.728" gradientUnits="userSpaceOnUse">
<stop stop-color="#0B151E" stop-opacity="0"/>
<stop offset="0.165" stop-color="#0B151E" stop-opacity="0.450549"/>
<stop offset="0.495" stop-color="#0B151E"/>
<stop offset="0.775" stop-color="#0B151E" stop-opacity="0.452703"/>
<stop offset="1" stop-color="#0B151E" stop-opacity="0"/>
</linearGradient>
<linearGradient id="paint4_linear_805_349" x1="423.332" y1="48.373" x2="435.891" y2="627.728" gradientUnits="userSpaceOnUse">
<stop stop-color="#0B151E" stop-opacity="0"/>
<stop offset="0.165" stop-color="#0B151E" stop-opacity="0.450549"/>
<stop offset="0.495" stop-color="#0B151E"/>
<stop offset="0.775" stop-color="#0B151E" stop-opacity="0.452703"/>
<stop offset="1" stop-color="#0B151E" stop-opacity="0"/>
</linearGradient>
<linearGradient id="paint5_linear_805_349" x1="600" y1="48.373" x2="612.559" y2="627.728" gradientUnits="userSpaceOnUse">
<stop stop-color="#0B151E" stop-opacity="0"/>
<stop offset="0.165" stop-color="#0B151E" stop-opacity="0.450549"/>
<stop offset="0.495" stop-color="#0B151E"/>
<stop offset="0.775" stop-color="#0B151E" stop-opacity="0.452703"/>
<stop offset="1" stop-color="#0B151E" stop-opacity="0"/>
</linearGradient>
<linearGradient id="paint6_linear_805_349" x1="776.668" y1="48.373" x2="789.227" y2="627.728" gradientUnits="userSpaceOnUse">
<stop stop-color="#0B151E" stop-opacity="0"/>
<stop offset="0.165" stop-color="#0B151E" stop-opacity="0.450549"/>
<stop offset="0.495" stop-color="#0B151E"/>
<stop offset="0.775" stop-color="#0B151E" stop-opacity="0.452703"/>
<stop offset="1" stop-color="#0B151E" stop-opacity="0"/>
</linearGradient>
<linearGradient id="paint7_linear_805_349" x1="953.332" y1="48.373" x2="965.891" y2="627.728" gradientUnits="userSpaceOnUse">
<stop stop-color="#0B151E" stop-opacity="0"/>
<stop offset="0.165" stop-color="#0B151E" stop-opacity="0.450549"/>
<stop offset="0.495" stop-color="#0B151E"/>
<stop offset="0.775" stop-color="#0B151E" stop-opacity="0.452703"/>
<stop offset="1" stop-color="#0B151E" stop-opacity="0"/>
</linearGradient>
<linearGradient id="paint8_linear_805_349" x1="1130" y1="48.373" x2="1142.56" y2="627.728" gradientUnits="userSpaceOnUse">
<stop stop-color="#0B151E" stop-opacity="0"/>
<stop offset="0.165" stop-color="#0B151E" stop-opacity="0.450549"/>
<stop offset="0.495" stop-color="#0B151E"/>
<stop offset="0.775" stop-color="#0B151E" stop-opacity="0.452703"/>
<stop offset="1" stop-color="#0B151E" stop-opacity="0"/>
</linearGradient>
<clipPath id="clip0_805_349">
<rect width="1200" height="675" fill="white"/>
</clipPath>
<clipPath id="clip1_805_349">
<rect width="194" height="32" fill="white" transform="translate(501 88)"/>
</clipPath>
</defs>
</svg>
