<svg width="1200" height="675" viewBox="0 0 1200 675" fill="none" xmlns="http://www.w3.org/2000/svg">
<g clip-path="url(#clip0_1092_984)">
<rect width="1200" height="675" fill="white"/>
<g opacity="0.4" filter="url(#filter0_f_1092_984)">
<circle cx="159" cy="83" r="300" transform="rotate(90 159 83)" fill="url(#paint0_linear_1092_984)"/>
</g>
<g opacity="0.4" filter="url(#filter1_f_1092_984)">
<ellipse cx="996" cy="551" rx="330" ry="330" transform="rotate(-180 996 551)" fill="url(#paint1_linear_1092_984)"/>
</g>
<path opacity="0.1" d="M70 48V628" stroke="url(#paint2_linear_1092_984)"/>
<path opacity="0.1" d="M246.668 48V628" stroke="url(#paint3_linear_1092_984)"/>
<path opacity="0.05" d="M423.332 48V628" stroke="url(#paint4_linear_1092_984)"/>
<path opacity="0.05" d="M600 48V628" stroke="url(#paint5_linear_1092_984)"/>
<path opacity="0.05" d="M776.668 48V628" stroke="url(#paint6_linear_1092_984)"/>
<path opacity="0.1" d="M953.332 48V628" stroke="url(#paint7_linear_1092_984)"/>
<path opacity="0.1" d="M1130 48V628" stroke="url(#paint8_linear_1092_984)"/>
<circle opacity="0.2" cx="600" cy="543" r="2" fill="#0B151E"/>
<circle cx="424" cy="122" r="2" fill="#0B151E"/>
<circle opacity="0.2" cx="247" cy="286" r="2" fill="#0B151E"/>
<circle cx="70" cy="458" r="2" fill="#0B151E"/>
<circle opacity="0.5" cx="777" cy="150" r="2" fill="#0B151E"/>
<circle opacity="0.5" cx="953" cy="508" r="2" fill="#0B151E"/>
<circle cx="1130" cy="150" r="2" fill="#0B151E"/>
<path d="M265.055 327.056C246.311 327.056 234.167 314.032 234.167 293.88C234.167 273.904 246.751 260.616 265.583 260.616C280.807 260.616 292.159 269.504 294.359 283.32H282.479C280.279 275.84 273.855 271.44 265.319 271.44C253.439 271.44 245.959 280.064 245.959 293.792C245.959 307.432 253.527 316.232 265.319 316.232C274.031 316.232 280.719 311.656 282.831 304.528H294.535C292.071 318.08 280.279 327.056 265.055 327.056ZM298.741 304.176C298.741 290.624 308.509 281.296 321.973 281.296C335.437 281.296 345.205 290.624 345.205 304.176C345.205 317.728 335.437 327.056 321.973 327.056C308.509 327.056 298.741 317.728 298.741 304.176ZM309.477 304.176C309.477 312.096 314.581 317.464 321.973 317.464C329.365 317.464 334.469 312.096 334.469 304.176C334.469 296.256 329.365 290.888 321.973 290.888C314.581 290.888 309.477 296.256 309.477 304.176ZM369.818 327.144C357.234 327.144 349.402 317.904 349.402 304.44C349.402 290.888 357.322 281.208 370.434 281.208C376.506 281.208 381.874 283.76 384.602 288.072V260.528H395.25V326H385.394L384.69 319.224C382.05 324.24 376.418 327.144 369.818 327.144ZM372.194 317.288C379.674 317.288 384.514 311.92 384.514 304.088C384.514 296.256 379.674 290.8 372.194 290.8C364.714 290.8 360.138 296.344 360.138 304.088C360.138 311.832 364.714 317.288 372.194 317.288ZM424.127 327.144C411.191 327.144 402.127 317.728 402.127 304.264C402.127 290.624 411.015 281.208 423.775 281.208C436.799 281.208 445.071 289.92 445.071 303.472V306.728L412.335 306.816C413.127 314.472 417.175 318.344 424.303 318.344C430.199 318.344 434.071 316.056 435.303 311.92H445.247C443.399 321.424 435.479 327.144 424.127 327.144ZM423.863 290.008C417.527 290.008 413.655 293.44 412.599 299.952H434.423C434.423 293.968 430.287 290.008 423.863 290.008ZM462.639 326H451.903V282.528H461.759L462.639 287.632C464.839 284.024 469.239 281.208 475.487 281.208C482.087 281.208 486.663 284.464 488.951 289.48C491.151 284.464 496.255 281.208 502.855 281.208C513.415 281.208 519.223 287.544 519.223 297.576V326H508.575V300.392C508.575 294.144 505.231 290.888 500.127 290.888C494.935 290.888 490.975 294.232 490.975 301.36V326H480.239V300.304C480.239 294.232 476.983 290.976 471.879 290.976C466.775 290.976 462.639 294.32 462.639 301.36V326ZM525.451 304.176C525.451 290.624 535.219 281.296 548.683 281.296C562.147 281.296 571.915 290.624 571.915 304.176C571.915 317.728 562.147 327.056 548.683 327.056C535.219 327.056 525.451 317.728 525.451 304.176ZM536.187 304.176C536.187 312.096 541.291 317.464 548.683 317.464C556.075 317.464 561.179 312.096 561.179 304.176C561.179 296.256 556.075 290.888 548.683 290.888C541.291 290.888 536.187 296.256 536.187 304.176ZM596.528 327.144C583.944 327.144 576.112 317.904 576.112 304.44C576.112 290.888 584.032 281.208 597.144 281.208C603.216 281.208 608.584 283.76 611.312 288.072V260.528H621.96V326H612.104L611.4 319.224C608.76 324.24 603.128 327.144 596.528 327.144ZM598.904 317.288C606.384 317.288 611.224 311.92 611.224 304.088C611.224 296.256 606.384 290.8 598.904 290.8C591.424 290.8 586.848 296.344 586.848 304.088C586.848 311.832 591.424 317.288 598.904 317.288ZM666.196 326H654.932V261.672H679.484C694.092 261.672 702.628 269.064 702.628 281.736C702.628 290.36 698.58 296.52 691.012 299.6L703.244 326H690.924L680.012 301.976H666.196V326ZM666.196 271.704V292.032H679.484C686.612 292.032 690.836 288.248 690.836 281.736C690.836 275.312 686.612 271.704 679.484 271.704H666.196ZM726.895 327.144C713.959 327.144 704.895 317.728 704.895 304.264C704.895 290.624 713.783 281.208 726.543 281.208C739.567 281.208 747.839 289.92 747.839 303.472V306.728L715.103 306.816C715.895 314.472 719.943 318.344 727.071 318.344C732.967 318.344 736.839 316.056 738.071 311.92H748.015C746.167 321.424 738.247 327.144 726.895 327.144ZM726.631 290.008C720.295 290.008 716.423 293.44 715.367 299.952H737.191C737.191 293.968 733.055 290.008 726.631 290.008ZM752.207 303.296C752.207 290.624 760.479 281.12 772.887 281.12C779.399 281.12 784.503 283.848 787.055 288.512L787.671 282.528H797.615V323.8C797.615 338.32 788.903 347.384 774.823 347.384C762.327 347.384 753.791 340.256 752.471 328.64H763.207C763.911 334.272 768.223 337.616 774.823 337.616C782.215 337.616 786.967 332.952 786.967 325.736V318.52C784.239 322.568 778.871 325.12 772.623 325.12C760.303 325.12 752.207 315.88 752.207 303.296ZM763.031 303.032C763.031 310.336 767.695 315.792 774.735 315.792C782.127 315.792 786.703 310.6 786.703 303.032C786.703 295.64 782.215 290.536 774.735 290.536C767.607 290.536 763.031 295.904 763.031 303.032ZM812.334 273.816C808.638 273.816 805.734 270.912 805.734 267.304C805.734 263.696 808.638 260.88 812.334 260.88C815.854 260.88 818.758 263.696 818.758 267.304C818.758 270.912 815.854 273.816 812.334 273.816ZM806.966 326V282.528H817.702V326H806.966ZM823.69 312.8H833.898C833.986 316.584 836.802 318.96 841.73 318.96C846.746 318.96 849.474 316.936 849.474 313.768C849.474 311.568 848.33 309.984 844.458 309.104L836.626 307.256C828.794 305.496 825.01 301.8 825.01 294.848C825.01 286.312 832.226 281.208 842.258 281.208C852.026 281.208 858.626 286.84 858.714 295.288H848.506C848.418 291.592 845.954 289.216 841.818 289.216C837.594 289.216 835.13 291.152 835.13 294.408C835.13 296.872 837.066 298.456 840.762 299.336L848.594 301.184C855.898 302.856 859.594 306.2 859.594 312.888C859.594 321.688 852.114 327.144 841.378 327.144C830.554 327.144 823.69 321.336 823.69 312.8ZM880.793 326H870.057V291.504H861.697V282.528H870.057V268.976H880.793V282.528H889.241V291.504H880.793V326ZM921.435 282.352V292.296H917.475C909.731 292.296 904.891 296.432 904.891 304.88V326H894.155V282.616H904.275L904.891 288.952C906.739 284.64 910.875 281.736 916.683 281.736C918.179 281.736 919.675 281.912 921.435 282.352ZM924.447 346.152V337.176H930.871C935.095 337.176 937.735 336.208 939.583 331.104L940.815 327.848L923.303 282.528H934.655L945.831 314.208L957.623 282.528H968.711L947.415 335.68C944.159 343.776 939.583 347.12 932.455 347.12C929.463 347.12 926.823 346.768 924.447 346.152Z" fill="#0B151E"/>
<rect x="522.5" y="381" width="155" height="46" rx="8" fill="#D6FF62"/>
<path d="M554.061 403.948C554.061 408.832 550.849 412.264 546.229 412.264C541.631 412.264 538.463 408.854 538.463 403.948C538.463 399.064 541.653 395.632 546.251 395.632C550.849 395.632 554.061 399.042 554.061 403.948ZM551.091 403.948C551.091 400.516 549.199 398.338 546.251 398.338C543.303 398.338 541.411 400.516 541.411 403.948C541.411 407.38 543.303 409.558 546.251 409.558C549.199 409.558 551.091 407.336 551.091 403.948ZM561.497 412L555.425 395.918H558.417L561.937 405.18C562.289 406.148 562.597 407.094 562.949 408.392C563.345 406.984 563.675 405.994 563.983 405.18L567.459 395.918H570.385L564.401 412H561.497ZM583.479 412H573.491V395.918H583.479V398.514H576.307V402.65H582.731V405.136H576.307V409.404H583.479V412ZM590.448 412H587.632V395.918H593.77C597.422 395.918 599.556 397.766 599.556 400.934C599.556 403.09 598.544 404.63 596.652 405.4L599.71 412H596.63L593.902 405.994H590.448V412ZM590.448 398.426V403.508H593.77C595.552 403.508 596.608 402.562 596.608 400.934C596.608 399.328 595.552 398.426 593.77 398.426H590.448ZM607.787 412L601.715 395.918H604.707L608.227 405.18C608.579 406.148 608.887 407.094 609.239 408.392C609.635 406.984 609.965 405.994 610.273 405.18L613.749 395.918H616.675L610.691 412H607.787ZM622.598 395.918V412H619.782V395.918H622.598ZM637.25 412H627.262V395.918H637.25V398.514H630.078V402.65H636.502V405.136H630.078V409.404H637.25V412ZM644.747 412L639.951 395.918H642.877L645.429 404.41C645.671 405.29 645.913 406.192 646.155 407.6C646.419 406.17 646.661 405.334 646.947 404.41L649.477 395.918H652.579L655.065 404.41C655.329 405.312 655.571 406.236 655.835 407.6C656.143 406.104 656.363 405.246 656.605 404.432L659.201 395.918H662.061L657.177 412H654.449L651.017 400.296L647.519 412H644.747Z" fill="#0B151E"/>
<g clip-path="url(#clip1_1092_984)">
<path d="M501 119.486L513.029 88.5986H517.038L504.967 119.486H501Z" fill="#0B151E"/>
<path d="M524.876 97.968C530.123 97.968 533.791 100.962 534.517 105.626H530.508C529.825 102.974 527.692 101.561 525.005 101.561C521.209 101.561 518.607 104.47 518.607 109.005C518.607 113.54 521.038 116.406 524.835 116.406C527.693 116.406 529.826 114.909 530.551 112.427H534.561C533.75 116.962 529.869 119.999 524.835 119.999C518.692 119.999 514.641 115.636 514.641 109.047C514.641 102.458 518.778 97.9668 524.879 97.9668L524.876 97.968Z" fill="#0B151E"/>
<path d="M547.44 98.0098C553.668 98.0098 558.275 102.545 558.275 109.004C558.275 115.463 553.668 119.999 547.44 119.999C541.211 119.999 536.562 115.463 536.562 109.004C536.562 102.545 541.169 98.0098 547.44 98.0098ZM547.44 116.406C551.449 116.406 554.265 113.368 554.265 109.004C554.265 104.641 551.449 101.603 547.44 101.603C543.43 101.603 540.614 104.641 540.614 109.004C540.614 113.368 543.387 116.406 547.44 116.406Z" fill="#0B151E"/>
<path d="M560.488 109.09C560.488 102.673 564.2 97.9677 570.385 97.9677C573.584 97.9677 576.272 99.379 577.679 101.946V88H581.647V119.486H578.064L577.723 115.679C576.358 118.545 573.542 120 570.215 120C564.158 120 560.489 115.465 560.489 109.091L560.488 109.09ZM577.636 108.962C577.636 104.685 575.119 101.604 571.024 101.604C566.929 101.604 564.54 104.685 564.54 108.962C564.54 113.24 566.929 116.363 571.024 116.363C575.119 116.363 577.636 113.325 577.636 108.962Z" fill="#0B151E"/>
<path d="M583.949 109.048C583.949 102.503 588.087 97.9678 594.144 97.9678C600.201 97.9678 603.955 102.075 603.955 108.278V109.775L587.831 109.817C588.13 114.224 590.433 116.662 594.401 116.662C597.514 116.662 599.562 115.379 600.244 112.983H603.998C602.975 117.475 599.476 119.999 594.315 119.999C588.172 119.999 583.949 115.55 583.949 109.047V109.048ZM587.917 107.123H599.947C599.947 103.658 597.686 101.348 594.145 101.348C590.605 101.348 588.429 103.444 587.917 107.123Z" fill="#0B151E"/>
<path d="M606.301 119.486V98.5664H609.883L610.267 101.304C611.333 99.3368 613.552 97.9678 616.495 97.9678C619.737 97.9678 622.041 99.5932 623.107 102.203C624.089 99.5932 626.606 97.9678 629.847 97.9678C634.625 97.9678 637.525 100.962 637.525 105.796V119.486H633.601V106.78C633.601 103.486 631.767 101.604 628.951 101.604C625.922 101.604 623.918 103.744 623.918 107.08V119.486H619.95V106.738C619.95 103.444 618.158 101.647 615.344 101.647C612.315 101.647 610.31 103.743 610.31 107.079V119.485H606.301V119.486Z" fill="#0B151E"/>
<path d="M651.088 98.0098C657.317 98.0098 661.923 102.545 661.923 109.004C661.923 115.463 657.317 119.999 651.088 119.999C644.86 119.999 640.211 115.463 640.211 109.004C640.211 102.545 644.817 98.0098 651.088 98.0098ZM651.088 116.406C655.098 116.406 657.913 113.368 657.913 109.004C657.913 104.641 655.098 101.603 651.088 101.603C647.079 101.603 644.263 104.641 644.263 109.004C644.263 113.368 647.035 116.406 651.088 116.406Z" fill="#0B151E"/>
<path d="M664.137 109.09C664.137 102.673 667.848 97.9677 674.033 97.9677C677.233 97.9677 679.921 99.379 681.328 101.946V88H685.295V119.486H681.713L681.371 115.679C680.006 118.545 677.19 120 673.863 120C667.806 120 664.138 115.465 664.138 109.091L664.137 109.09ZM681.285 108.962C681.285 104.685 678.768 101.604 674.673 101.604C670.577 101.604 668.189 104.685 668.189 108.962C668.189 113.24 670.577 116.363 674.673 116.363C678.768 116.363 681.285 113.325 681.285 108.962Z" fill="#0B151E"/>
<path d="M688.879 117.006C688.879 115.337 690.286 113.968 691.95 113.968C693.614 113.968 694.979 115.337 694.979 117.006C694.979 118.675 693.572 120 691.95 120C690.328 120 688.879 118.631 688.879 117.006Z" fill="#0B151E"/>
</g>
</g>
<defs>
<filter id="filter0_f_1092_984" x="-409.858" y="-485.858" width="1137.72" height="1137.72" filterUnits="userSpaceOnUse" color-interpolation-filters="sRGB">
<feFlood flood-opacity="0" result="BackgroundImageFix"/>
<feBlend mode="normal" in="SourceGraphic" in2="BackgroundImageFix" result="shape"/>
<feGaussianBlur stdDeviation="134.429" result="effect1_foregroundBlur_1092_984"/>
</filter>
<filter id="filter1_f_1092_984" x="458.032" y="13.032" width="1075.94" height="1075.94" filterUnits="userSpaceOnUse" color-interpolation-filters="sRGB">
<feFlood flood-opacity="0" result="BackgroundImageFix"/>
<feBlend mode="normal" in="SourceGraphic" in2="BackgroundImageFix" result="shape"/>
<feGaussianBlur stdDeviation="103.984" result="effect1_foregroundBlur_1092_984"/>
</filter>
<linearGradient id="paint0_linear_1092_984" x1="159" y1="-217" x2="159" y2="383" gradientUnits="userSpaceOnUse">
<stop stop-color="#BBFC03"/>
<stop offset="1" stop-color="#BBFC03" stop-opacity="0.17"/>
</linearGradient>
<linearGradient id="paint1_linear_1092_984" x1="996" y1="221" x2="996" y2="881" gradientUnits="userSpaceOnUse">
<stop stop-color="#BBFC03"/>
<stop offset="1" stop-color="#BBFC03" stop-opacity="0"/>
</linearGradient>
<linearGradient id="paint2_linear_1092_984" x1="70" y1="48.373" x2="82.559" y2="627.728" gradientUnits="userSpaceOnUse">
<stop stop-color="#0B151E" stop-opacity="0"/>
<stop offset="0.165" stop-color="#0B151E" stop-opacity="0.450549"/>
<stop offset="0.495" stop-color="#0B151E"/>
<stop offset="0.775" stop-color="#0B151E" stop-opacity="0.452703"/>
<stop offset="1" stop-color="#0B151E" stop-opacity="0"/>
</linearGradient>
<linearGradient id="paint3_linear_1092_984" x1="246.668" y1="48.373" x2="259.227" y2="627.728" gradientUnits="userSpaceOnUse">
<stop stop-color="#0B151E" stop-opacity="0"/>
<stop offset="0.165" stop-color="#0B151E" stop-opacity="0.450549"/>
<stop offset="0.495" stop-color="#0B151E"/>
<stop offset="0.775" stop-color="#0B151E" stop-opacity="0.452703"/>
<stop offset="1" stop-color="#0B151E" stop-opacity="0"/>
</linearGradient>
<linearGradient id="paint4_linear_1092_984" x1="423.332" y1="48.373" x2="435.891" y2="627.728" gradientUnits="userSpaceOnUse">
<stop stop-color="#0B151E" stop-opacity="0"/>
<stop offset="0.165" stop-color="#0B151E" stop-opacity="0.450549"/>
<stop offset="0.495" stop-color="#0B151E"/>
<stop offset="0.775" stop-color="#0B151E" stop-opacity="0.452703"/>
<stop offset="1" stop-color="#0B151E" stop-opacity="0"/>
</linearGradient>
<linearGradient id="paint5_linear_1092_984" x1="600" y1="48.373" x2="612.559" y2="627.728" gradientUnits="userSpaceOnUse">
<stop stop-color="#0B151E" stop-opacity="0"/>
<stop offset="0.165" stop-color="#0B151E" stop-opacity="0.450549"/>
<stop offset="0.495" stop-color="#0B151E"/>
<stop offset="0.775" stop-color="#0B151E" stop-opacity="0.452703"/>
<stop offset="1" stop-color="#0B151E" stop-opacity="0"/>
</linearGradient>
<linearGradient id="paint6_linear_1092_984" x1="776.668" y1="48.373" x2="789.227" y2="627.728" gradientUnits="userSpaceOnUse">
<stop stop-color="#0B151E" stop-opacity="0"/>
<stop offset="0.165" stop-color="#0B151E" stop-opacity="0.450549"/>
<stop offset="0.495" stop-color="#0B151E"/>
<stop offset="0.775" stop-color="#0B151E" stop-opacity="0.452703"/>
<stop offset="1" stop-color="#0B151E" stop-opacity="0"/>
</linearGradient>
<linearGradient id="paint7_linear_1092_984" x1="953.332" y1="48.373" x2="965.891" y2="627.728" gradientUnits="userSpaceOnUse">
<stop stop-color="#0B151E" stop-opacity="0"/>
<stop offset="0.165" stop-color="#0B151E" stop-opacity="0.450549"/>
<stop offset="0.495" stop-color="#0B151E"/>
<stop offset="0.775" stop-color="#0B151E" stop-opacity="0.452703"/>
<stop offset="1" stop-color="#0B151E" stop-opacity="0"/>
</linearGradient>
<linearGradient id="paint8_linear_1092_984" x1="1130" y1="48.373" x2="1142.56" y2="627.728" gradientUnits="userSpaceOnUse">
<stop stop-color="#0B151E" stop-opacity="0"/>
<stop offset="0.165" stop-color="#0B151E" stop-opacity="0.450549"/>
<stop offset="0.495" stop-color="#0B151E"/>
<stop offset="0.775" stop-color="#0B151E" stop-opacity="0.452703"/>
<stop offset="1" stop-color="#0B151E" stop-opacity="0"/>
</linearGradient>
<clipPath id="clip0_1092_984">
<rect width="1200" height="675" fill="white"/>
</clipPath>
<clipPath id="clip1_1092_984">
<rect width="194" height="32" fill="white" transform="translate(501 88)"/>
</clipPath>
</defs>
</svg>
