<svg width="1200" height="675" viewBox="0 0 1200 675" fill="none" xmlns="http://www.w3.org/2000/svg">
<g clip-path="url(#clip0_808_390)">
<rect width="1200" height="675" fill="white"/>
<g opacity="0.4" filter="url(#filter0_f_808_390)">
<circle cx="159" cy="83" r="300" transform="rotate(90 159 83)" fill="url(#paint0_linear_808_390)"/>
</g>
<g opacity="0.4" filter="url(#filter1_f_808_390)">
<ellipse cx="996" cy="551" rx="330" ry="330" transform="rotate(-180 996 551)" fill="url(#paint1_linear_808_390)"/>
</g>
<path opacity="0.1" d="M70 48V628" stroke="url(#paint2_linear_808_390)"/>
<path opacity="0.1" d="M246.668 48V628" stroke="url(#paint3_linear_808_390)"/>
<path opacity="0.05" d="M423.332 48V628" stroke="url(#paint4_linear_808_390)"/>
<path opacity="0.05" d="M600 48V628" stroke="url(#paint5_linear_808_390)"/>
<path opacity="0.05" d="M776.668 48V628" stroke="url(#paint6_linear_808_390)"/>
<path opacity="0.1" d="M953.332 48V628" stroke="url(#paint7_linear_808_390)"/>
<path opacity="0.1" d="M1130 48V628" stroke="url(#paint8_linear_808_390)"/>
<circle opacity="0.2" cx="600" cy="543" r="2" fill="#0B151E"/>
<circle cx="424" cy="122" r="2" fill="#0B151E"/>
<circle opacity="0.2" cx="247" cy="286" r="2" fill="#0B151E"/>
<circle cx="70" cy="458" r="2" fill="#0B151E"/>
<circle opacity="0.5" cx="777" cy="150" r="2" fill="#0B151E"/>
<circle opacity="0.5" cx="953" cy="508" r="2" fill="#0B151E"/>
<circle cx="1130" cy="150" r="2" fill="#0B151E"/>
<path d="M265.055 329.556C246.311 329.556 234.167 316.532 234.167 296.38C234.167 276.404 246.751 263.116 265.583 263.116C280.807 263.116 292.159 272.004 294.359 285.82H282.479C280.279 278.34 273.855 273.94 265.319 273.94C253.439 273.94 245.959 282.564 245.959 296.292C245.959 309.932 253.527 318.732 265.319 318.732C274.031 318.732 280.719 314.156 282.831 307.028H294.535C292.071 320.58 280.279 329.556 265.055 329.556ZM298.741 306.676C298.741 293.124 308.509 283.796 321.973 283.796C335.437 283.796 345.205 293.124 345.205 306.676C345.205 320.228 335.437 329.556 321.973 329.556C308.509 329.556 298.741 320.228 298.741 306.676ZM309.477 306.676C309.477 314.596 314.581 319.964 321.973 319.964C329.365 319.964 334.469 314.596 334.469 306.676C334.469 298.756 329.365 293.388 321.973 293.388C314.581 293.388 309.477 298.756 309.477 306.676ZM369.818 329.644C357.234 329.644 349.402 320.404 349.402 306.94C349.402 293.388 357.322 283.708 370.434 283.708C376.506 283.708 381.874 286.26 384.602 290.572V263.028H395.25V328.5H385.394L384.69 321.724C382.05 326.74 376.418 329.644 369.818 329.644ZM372.194 319.788C379.674 319.788 384.514 314.42 384.514 306.588C384.514 298.756 379.674 293.3 372.194 293.3C364.714 293.3 360.138 298.844 360.138 306.588C360.138 314.332 364.714 319.788 372.194 319.788ZM424.127 329.644C411.191 329.644 402.127 320.228 402.127 306.764C402.127 293.124 411.015 283.708 423.775 283.708C436.799 283.708 445.071 292.42 445.071 305.972V309.228L412.335 309.316C413.127 316.972 417.175 320.844 424.303 320.844C430.199 320.844 434.071 318.556 435.303 314.42H445.247C443.399 323.924 435.479 329.644 424.127 329.644ZM423.863 292.508C417.527 292.508 413.655 295.94 412.599 302.452H434.423C434.423 296.468 430.287 292.508 423.863 292.508ZM462.639 328.5H451.903V285.028H461.759L462.639 290.132C464.839 286.524 469.239 283.708 475.487 283.708C482.087 283.708 486.663 286.964 488.951 291.98C491.151 286.964 496.255 283.708 502.855 283.708C513.415 283.708 519.223 290.044 519.223 300.076V328.5H508.575V302.892C508.575 296.644 505.231 293.388 500.127 293.388C494.935 293.388 490.975 296.732 490.975 303.86V328.5H480.239V302.804C480.239 296.732 476.983 293.476 471.879 293.476C466.775 293.476 462.639 296.82 462.639 303.86V328.5ZM525.451 306.676C525.451 293.124 535.219 283.796 548.683 283.796C562.147 283.796 571.915 293.124 571.915 306.676C571.915 320.228 562.147 329.556 548.683 329.556C535.219 329.556 525.451 320.228 525.451 306.676ZM536.187 306.676C536.187 314.596 541.291 319.964 548.683 319.964C556.075 319.964 561.179 314.596 561.179 306.676C561.179 298.756 556.075 293.388 548.683 293.388C541.291 293.388 536.187 298.756 536.187 306.676ZM596.528 329.644C583.944 329.644 576.112 320.404 576.112 306.94C576.112 293.388 584.032 283.708 597.144 283.708C603.216 283.708 608.584 286.26 611.312 290.572V263.028H621.96V328.5H612.104L611.4 321.724C608.76 326.74 603.128 329.644 596.528 329.644ZM598.904 319.788C606.384 319.788 611.224 314.42 611.224 306.588C611.224 298.756 606.384 293.3 598.904 293.3C591.424 293.3 586.848 298.844 586.848 306.588C586.848 314.332 591.424 319.788 598.904 319.788ZM666.196 328.5H654.932V264.172H679.484C694.092 264.172 702.628 271.564 702.628 284.236C702.628 292.86 698.58 299.02 691.012 302.1L703.244 328.5H690.924L680.012 304.476H666.196V328.5ZM666.196 274.204V294.532H679.484C686.612 294.532 690.836 290.748 690.836 284.236C690.836 277.812 686.612 274.204 679.484 274.204H666.196ZM726.895 329.644C713.959 329.644 704.895 320.228 704.895 306.764C704.895 293.124 713.783 283.708 726.543 283.708C739.567 283.708 747.839 292.42 747.839 305.972V309.228L715.103 309.316C715.895 316.972 719.943 320.844 727.071 320.844C732.967 320.844 736.839 318.556 738.071 314.42H748.015C746.167 323.924 738.247 329.644 726.895 329.644ZM726.631 292.508C720.295 292.508 716.423 295.94 715.367 302.452H737.191C737.191 296.468 733.055 292.508 726.631 292.508ZM752.207 305.796C752.207 293.124 760.479 283.62 772.887 283.62C779.399 283.62 784.503 286.348 787.055 291.012L787.671 285.028H797.615V326.3C797.615 340.82 788.903 349.884 774.823 349.884C762.327 349.884 753.791 342.756 752.471 331.14H763.207C763.911 336.772 768.223 340.116 774.823 340.116C782.215 340.116 786.967 335.452 786.967 328.236V321.02C784.239 325.068 778.871 327.62 772.623 327.62C760.303 327.62 752.207 318.38 752.207 305.796ZM763.031 305.532C763.031 312.836 767.695 318.292 774.735 318.292C782.127 318.292 786.703 313.1 786.703 305.532C786.703 298.14 782.215 293.036 774.735 293.036C767.607 293.036 763.031 298.404 763.031 305.532ZM812.334 276.316C808.638 276.316 805.734 273.412 805.734 269.804C805.734 266.196 808.638 263.38 812.334 263.38C815.854 263.38 818.758 266.196 818.758 269.804C818.758 273.412 815.854 276.316 812.334 276.316ZM806.966 328.5V285.028H817.702V328.5H806.966ZM823.69 315.3H833.898C833.986 319.084 836.802 321.46 841.73 321.46C846.746 321.46 849.474 319.436 849.474 316.268C849.474 314.068 848.33 312.484 844.458 311.604L836.626 309.756C828.794 307.996 825.01 304.3 825.01 297.348C825.01 288.812 832.226 283.708 842.258 283.708C852.026 283.708 858.626 289.34 858.714 297.788H848.506C848.418 294.092 845.954 291.716 841.818 291.716C837.594 291.716 835.13 293.652 835.13 296.908C835.13 299.372 837.066 300.956 840.762 301.836L848.594 303.684C855.898 305.356 859.594 308.7 859.594 315.388C859.594 324.188 852.114 329.644 841.378 329.644C830.554 329.644 823.69 323.836 823.69 315.3ZM880.793 328.5H870.057V294.004H861.697V285.028H870.057V271.476H880.793V285.028H889.241V294.004H880.793V328.5ZM921.435 284.852V294.796H917.475C909.731 294.796 904.891 298.932 904.891 307.38V328.5H894.155V285.116H904.275L904.891 291.452C906.739 287.14 910.875 284.236 916.683 284.236C918.179 284.236 919.675 284.412 921.435 284.852ZM924.447 348.652V339.676H930.871C935.095 339.676 937.735 338.708 939.583 333.604L940.815 330.348L923.303 285.028H934.655L945.831 316.708L957.623 285.028H968.711L947.415 338.18C944.159 346.276 939.583 349.62 932.455 349.62C929.463 349.62 926.823 349.268 924.447 348.652Z" fill="#0B151E"/>
<path d="M366.023 406.29H357.503V415.5H354.563V393.81H367.643V396.51H357.503V403.62H366.023V406.29ZM368.021 408.15C368.021 403.62 371.261 400.44 375.671 400.44C380.051 400.44 383.291 403.62 383.291 408.15C383.291 412.68 380.051 415.86 375.671 415.86C371.261 415.86 368.021 412.68 368.021 408.15ZM370.871 408.15C370.871 411.21 372.821 413.34 375.671 413.34C378.491 413.34 380.471 411.21 380.471 408.15C380.471 405.09 378.491 402.96 375.671 402.96C372.821 402.96 370.871 405.09 370.871 408.15ZM394.213 400.71V403.29H392.953C390.283 403.29 388.633 404.91 388.633 407.73V415.5H385.813V400.86H388.453L388.633 403.08C389.233 401.55 390.703 400.53 392.713 400.53C393.223 400.53 393.643 400.59 394.213 400.71ZM408.001 415.5H405.181V403.2H402.301V400.83H405.181V396.24H408.001V400.83H410.881V403.2H408.001V415.5ZM415.631 415.47H412.811V393.42H415.631V403.08C416.561 401.49 418.331 400.41 420.611 400.41C424.361 400.41 426.161 402.78 426.161 406.53V415.5H423.341V407.16C423.341 404.19 421.931 402.99 419.831 402.99C417.101 402.99 415.631 404.97 415.631 407.49V415.47ZM435.797 415.86C431.477 415.86 428.507 412.74 428.507 408.18C428.507 403.59 431.417 400.41 435.677 400.41C439.847 400.41 442.577 403.29 442.577 407.64V408.69L431.237 408.72C431.447 411.81 433.067 413.52 435.857 413.52C438.047 413.52 439.487 412.62 439.967 410.94H442.607C441.887 414.09 439.427 415.86 435.797 415.86ZM435.677 402.78C433.217 402.78 431.657 404.25 431.297 406.83H439.757C439.757 404.4 438.167 402.78 435.677 402.78ZM451.77 408.18C451.77 403.59 454.68 400.41 458.97 400.41C462.66 400.41 465.24 402.51 465.75 405.78H462.93C462.45 403.92 460.95 402.93 459.06 402.93C456.39 402.93 454.56 404.97 454.56 408.15C454.56 411.3 456.27 413.34 458.94 413.34C460.95 413.34 462.45 412.29 462.96 410.55H465.78C465.21 413.73 462.48 415.86 458.94 415.86C454.62 415.86 451.77 412.8 451.77 408.18ZM467.196 408.15C467.196 403.62 470.436 400.44 474.846 400.44C479.226 400.44 482.466 403.62 482.466 408.15C482.466 412.68 479.226 415.86 474.846 415.86C470.436 415.86 467.196 412.68 467.196 408.15ZM470.046 408.15C470.046 411.21 471.996 413.34 474.846 413.34C477.666 413.34 479.646 411.21 479.646 408.15C479.646 405.09 477.666 402.96 474.846 402.96C471.996 402.96 470.046 405.09 470.046 408.15ZM487.807 415.5H484.987V400.83H487.507L487.777 402.75C488.527 401.37 490.087 400.41 492.157 400.41C494.437 400.41 496.057 401.55 496.807 403.38C497.497 401.55 499.267 400.41 501.547 400.41C504.907 400.41 506.947 402.51 506.947 405.9V415.5H504.187V406.59C504.187 404.28 502.897 402.96 500.917 402.96C498.787 402.96 497.377 404.46 497.377 406.8V415.5H494.587V406.56C494.587 404.25 493.327 402.99 491.347 402.99C489.217 402.99 487.807 404.46 487.807 406.8V415.5ZM513.076 415.5H510.256V400.83H512.776L513.046 402.75C513.796 401.37 515.356 400.41 517.426 400.41C519.706 400.41 521.326 401.55 522.076 403.38C522.766 401.55 524.536 400.41 526.816 400.41C530.176 400.41 532.216 402.51 532.216 405.9V415.5H529.456V406.59C529.456 404.28 528.166 402.96 526.186 402.96C524.056 402.96 522.646 404.46 522.646 406.8V415.5H519.856V406.56C519.856 404.25 518.596 402.99 516.616 402.99C514.486 402.99 513.076 404.46 513.076 406.8V415.5ZM545.666 400.83H548.456V415.5H545.936L545.636 413.28C544.796 414.81 542.846 415.86 540.686 415.86C537.266 415.86 535.346 413.55 535.346 409.95V400.83H538.166V409.02C538.166 412.17 539.516 413.37 541.676 413.37C544.256 413.37 545.666 411.72 545.666 408.57V400.83ZM554.767 415.5H551.947V400.83H554.497L554.797 403.08C555.727 401.4 557.587 400.41 559.657 400.41C563.527 400.41 565.297 402.78 565.297 406.53V415.5H562.477V407.16C562.477 404.19 561.097 402.99 558.937 402.99C556.297 402.99 554.767 404.88 554.767 407.73V415.5ZM569.983 397.35C568.963 397.35 568.123 396.51 568.123 395.49C568.123 394.44 568.963 393.63 569.983 393.63C571.003 393.63 571.843 394.44 571.843 395.49C571.843 396.51 571.003 397.35 569.983 397.35ZM568.603 415.5V400.83H571.423V415.5H568.603ZM579.057 415.5H576.237V403.2H573.357V400.83H576.237V396.24H579.057V400.83H581.937V403.2H579.057V415.5ZM582.458 422.07V419.76H584.348C585.698 419.76 586.778 419.55 587.468 417.69L587.978 416.28L582.068 400.83H585.038L589.298 412.65L593.648 400.83H596.558L589.628 418.8C588.638 421.32 587.168 422.37 584.918 422.37C583.988 422.37 583.208 422.25 582.458 422.07ZM599.949 414.33C599.949 416.49 598.329 418.29 596.199 418.56V417.3C597.429 417.09 598.299 416.28 598.299 415.35C598.089 415.47 597.849 415.53 597.489 415.53C596.499 415.53 595.659 414.81 595.659 413.7C595.659 412.5 596.469 411.63 597.669 411.63C598.929 411.63 599.949 412.68 599.949 414.33ZM613.563 415.5H611.013V393.42H613.833V403.35C614.793 401.43 616.773 400.41 619.173 400.41C623.373 400.41 625.893 403.71 625.893 408.24C625.893 412.68 623.253 415.86 618.993 415.86C616.683 415.86 614.733 414.84 613.773 412.83L613.563 415.5ZM613.863 408.12C613.863 411.18 615.603 413.31 618.483 413.31C621.363 413.31 623.073 411.15 623.073 408.12C623.073 405.12 621.363 402.96 618.483 402.96C615.603 402.96 613.863 405.12 613.863 408.12ZM626.493 422.07V419.76H628.383C629.733 419.76 630.813 419.55 631.503 417.69L632.013 416.28L626.103 400.83H629.073L633.333 412.65L637.683 400.83H640.593L633.663 418.8C632.673 421.32 631.203 422.37 628.953 422.37C628.023 422.37 627.243 422.25 626.493 422.07ZM653.988 415.5H651.168V403.2H648.288V400.83H651.168V396.24H653.988V400.83H656.868V403.2H653.988V415.5ZM661.619 415.47H658.799V393.42H661.619V403.08C662.549 401.49 664.319 400.41 666.599 400.41C670.349 400.41 672.149 402.78 672.149 406.53V415.5H669.329V407.16C669.329 404.19 667.919 402.99 665.819 402.99C663.089 402.99 661.619 404.97 661.619 407.49V415.47ZM681.784 415.86C677.464 415.86 674.494 412.74 674.494 408.18C674.494 403.59 677.404 400.41 681.664 400.41C685.834 400.41 688.564 403.29 688.564 407.64V408.69L677.224 408.72C677.434 411.81 679.054 413.52 681.844 413.52C684.034 413.52 685.474 412.62 685.954 410.94H688.594C687.874 414.09 685.414 415.86 681.784 415.86ZM681.664 402.78C679.204 402.78 677.644 404.25 677.284 406.83H685.744C685.744 404.4 684.154 402.78 681.664 402.78ZM697.757 408.18C697.757 403.59 700.667 400.41 704.957 400.41C708.647 400.41 711.227 402.51 711.737 405.78H708.917C708.437 403.92 706.937 402.93 705.047 402.93C702.377 402.93 700.547 404.97 700.547 408.15C700.547 411.3 702.257 413.34 704.927 413.34C706.937 413.34 708.437 412.29 708.947 410.55H711.767C711.197 413.73 708.467 415.86 704.927 415.86C700.607 415.86 697.757 412.8 697.757 408.18ZM713.183 408.15C713.183 403.62 716.423 400.44 720.833 400.44C725.213 400.44 728.453 403.62 728.453 408.15C728.453 412.68 725.213 415.86 720.833 415.86C716.423 415.86 713.183 412.68 713.183 408.15ZM716.033 408.15C716.033 411.21 717.983 413.34 720.833 413.34C723.653 413.34 725.633 411.21 725.633 408.15C725.633 405.09 723.653 402.96 720.833 402.96C717.983 402.96 716.033 405.09 716.033 408.15ZM733.794 415.5H730.974V400.83H733.494L733.764 402.75C734.514 401.37 736.074 400.41 738.144 400.41C740.424 400.41 742.044 401.55 742.794 403.38C743.484 401.55 745.254 400.41 747.534 400.41C750.894 400.41 752.934 402.51 752.934 405.9V415.5H750.174V406.59C750.174 404.28 748.884 402.96 746.904 402.96C744.774 402.96 743.364 404.46 743.364 406.8V415.5H740.574V406.56C740.574 404.25 739.314 402.99 737.334 402.99C735.204 402.99 733.794 404.46 733.794 406.8V415.5ZM759.064 415.5H756.244V400.83H758.764L759.034 402.75C759.784 401.37 761.344 400.41 763.414 400.41C765.694 400.41 767.314 401.55 768.064 403.38C768.754 401.55 770.524 400.41 772.804 400.41C776.164 400.41 778.204 402.51 778.204 405.9V415.5H775.444V406.59C775.444 404.28 774.154 402.96 772.174 402.96C770.044 402.96 768.634 404.46 768.634 406.8V415.5H765.844V406.56C765.844 404.25 764.584 402.99 762.604 402.99C760.474 402.99 759.064 404.46 759.064 406.8V415.5ZM791.653 400.83H794.443V415.5H791.923L791.623 413.28C790.783 414.81 788.833 415.86 786.673 415.86C783.253 415.86 781.333 413.55 781.333 409.95V400.83H784.153V409.02C784.153 412.17 785.503 413.37 787.663 413.37C790.243 413.37 791.653 411.72 791.653 408.57V400.83ZM800.754 415.5H797.934V400.83H800.484L800.784 403.08C801.714 401.4 803.574 400.41 805.644 400.41C809.514 400.41 811.284 402.78 811.284 406.53V415.5H808.464V407.16C808.464 404.19 807.084 402.99 804.924 402.99C802.284 402.99 800.754 404.88 800.754 407.73V415.5ZM815.97 397.35C814.95 397.35 814.11 396.51 814.11 395.49C814.11 394.44 814.95 393.63 815.97 393.63C816.99 393.63 817.83 394.44 817.83 395.49C817.83 396.51 816.99 397.35 815.97 397.35ZM814.59 415.5V400.83H817.41V415.5H814.59ZM825.044 415.5H822.224V403.2H819.344V400.83H822.224V396.24H825.044V400.83H827.924V403.2H825.044V415.5ZM828.445 422.07V419.76H830.335C831.685 419.76 832.765 419.55 833.455 417.69L833.965 416.28L828.055 400.83H831.025L835.285 412.65L839.635 400.83H842.545L835.615 418.8C834.625 421.32 833.155 422.37 830.905 422.37C829.975 422.37 829.195 422.25 828.445 422.07ZM843.806 415.86C842.636 415.86 841.646 414.9 841.646 413.76C841.646 412.59 842.636 411.63 843.806 411.63C844.946 411.63 845.936 412.59 845.936 413.76C845.936 414.9 844.946 415.86 843.806 415.86Z" fill="#0B151E"/>
<g clip-path="url(#clip1_808_390)">
<path d="M501 119.486L513.029 88.5986H517.038L504.967 119.486H501Z" fill="#0B151E"/>
<path d="M524.876 97.9677C530.123 97.9677 533.791 100.962 534.517 105.625H530.508C529.825 102.973 527.692 101.561 525.005 101.561C521.209 101.561 518.607 104.469 518.607 109.004C518.607 113.54 521.038 116.406 524.835 116.406C527.693 116.406 529.826 114.909 530.551 112.427H534.561C533.75 116.962 529.869 119.999 524.835 119.999C518.692 119.999 514.641 115.635 514.641 109.047C514.641 102.458 518.778 97.9666 524.879 97.9666L524.876 97.9677Z" fill="#0B151E"/>
<path d="M547.44 98.01C553.668 98.01 558.275 102.545 558.275 109.004C558.275 115.464 553.668 119.999 547.44 119.999C541.211 119.999 536.562 115.464 536.562 109.004C536.562 102.545 541.169 98.01 547.44 98.01ZM547.44 116.406C551.449 116.406 554.265 113.368 554.265 109.004C554.265 104.641 551.449 101.603 547.44 101.603C543.43 101.603 540.614 104.641 540.614 109.004C540.614 113.368 543.387 116.406 547.44 116.406Z" fill="#0B151E"/>
<path d="M560.488 109.09C560.488 102.673 564.2 97.9677 570.385 97.9677C573.584 97.9677 576.272 99.379 577.679 101.946V88H581.647V119.486H578.064L577.723 115.679C576.358 118.545 573.542 120 570.215 120C564.158 120 560.489 115.465 560.489 109.091L560.488 109.09ZM577.636 108.962C577.636 104.685 575.119 101.604 571.024 101.604C566.929 101.604 564.54 104.685 564.54 108.962C564.54 113.24 566.929 116.363 571.024 116.363C575.119 116.363 577.636 113.325 577.636 108.962Z" fill="#0B151E"/>
<path d="M583.949 109.048C583.949 102.503 588.087 97.9678 594.144 97.9678C600.201 97.9678 603.955 102.075 603.955 108.278V109.775L587.831 109.817C588.13 114.224 590.433 116.662 594.401 116.662C597.514 116.662 599.562 115.379 600.244 112.983H603.998C602.975 117.475 599.476 119.999 594.315 119.999C588.172 119.999 583.949 115.55 583.949 109.047V109.048ZM587.917 107.123H599.947C599.947 103.658 597.686 101.348 594.145 101.348C590.605 101.348 588.429 103.444 587.917 107.123Z" fill="#0B151E"/>
<path d="M606.301 119.486V98.5664H609.883L610.267 101.304C611.333 99.3368 613.552 97.9678 616.495 97.9678C619.737 97.9678 622.041 99.5932 623.107 102.203C624.089 99.5932 626.606 97.9678 629.847 97.9678C634.625 97.9678 637.525 100.962 637.525 105.796V119.486H633.601V106.78C633.601 103.486 631.767 101.604 628.951 101.604C625.922 101.604 623.918 103.744 623.918 107.08V119.486H619.95V106.738C619.95 103.444 618.158 101.647 615.344 101.647C612.315 101.647 610.31 103.743 610.31 107.079V119.485H606.301V119.486Z" fill="#0B151E"/>
<path d="M651.088 98.01C657.317 98.01 661.923 102.545 661.923 109.004C661.923 115.464 657.317 119.999 651.088 119.999C644.86 119.999 640.211 115.464 640.211 109.004C640.211 102.545 644.817 98.01 651.088 98.01ZM651.088 116.406C655.098 116.406 657.913 113.368 657.913 109.004C657.913 104.641 655.098 101.603 651.088 101.603C647.079 101.603 644.263 104.641 644.263 109.004C644.263 113.368 647.035 116.406 651.088 116.406Z" fill="#0B151E"/>
<path d="M664.137 109.09C664.137 102.673 667.848 97.9677 674.033 97.9677C677.233 97.9677 679.921 99.379 681.328 101.946V88H685.295V119.486H681.713L681.371 115.679C680.006 118.545 677.19 120 673.863 120C667.806 120 664.138 115.465 664.138 109.091L664.137 109.09ZM681.285 108.962C681.285 104.685 678.768 101.604 674.673 101.604C670.577 101.604 668.189 104.685 668.189 108.962C668.189 113.24 670.577 116.363 674.673 116.363C678.768 116.363 681.285 113.325 681.285 108.962Z" fill="#0B151E"/>
<path d="M688.879 117.005C688.879 115.337 690.286 113.968 691.95 113.968C693.614 113.968 694.979 115.337 694.979 117.005C694.979 118.674 693.572 120 691.95 120C690.328 120 688.879 118.631 688.879 117.005Z" fill="#0B151E"/>
</g>
</g>
<defs>
<filter id="filter0_f_808_390" x="-409.858" y="-485.858" width="1137.72" height="1137.72" filterUnits="userSpaceOnUse" color-interpolation-filters="sRGB">
<feFlood flood-opacity="0" result="BackgroundImageFix"/>
<feBlend mode="normal" in="SourceGraphic" in2="BackgroundImageFix" result="shape"/>
<feGaussianBlur stdDeviation="134.429" result="effect1_foregroundBlur_808_390"/>
</filter>
<filter id="filter1_f_808_390" x="458.032" y="13.032" width="1075.94" height="1075.94" filterUnits="userSpaceOnUse" color-interpolation-filters="sRGB">
<feFlood flood-opacity="0" result="BackgroundImageFix"/>
<feBlend mode="normal" in="SourceGraphic" in2="BackgroundImageFix" result="shape"/>
<feGaussianBlur stdDeviation="103.984" result="effect1_foregroundBlur_808_390"/>
</filter>
<linearGradient id="paint0_linear_808_390" x1="159" y1="-217" x2="159" y2="383" gradientUnits="userSpaceOnUse">
<stop stop-color="#BBFC03"/>
<stop offset="1" stop-color="#BBFC03" stop-opacity="0.17"/>
</linearGradient>
<linearGradient id="paint1_linear_808_390" x1="996" y1="221" x2="996" y2="881" gradientUnits="userSpaceOnUse">
<stop stop-color="#BBFC03"/>
<stop offset="1" stop-color="#BBFC03" stop-opacity="0"/>
</linearGradient>
<linearGradient id="paint2_linear_808_390" x1="70" y1="48.373" x2="82.559" y2="627.728" gradientUnits="userSpaceOnUse">
<stop stop-color="#0B151E" stop-opacity="0"/>
<stop offset="0.165" stop-color="#0B151E" stop-opacity="0.450549"/>
<stop offset="0.495" stop-color="#0B151E"/>
<stop offset="0.775" stop-color="#0B151E" stop-opacity="0.452703"/>
<stop offset="1" stop-color="#0B151E" stop-opacity="0"/>
</linearGradient>
<linearGradient id="paint3_linear_808_390" x1="246.668" y1="48.373" x2="259.227" y2="627.728" gradientUnits="userSpaceOnUse">
<stop stop-color="#0B151E" stop-opacity="0"/>
<stop offset="0.165" stop-color="#0B151E" stop-opacity="0.450549"/>
<stop offset="0.495" stop-color="#0B151E"/>
<stop offset="0.775" stop-color="#0B151E" stop-opacity="0.452703"/>
<stop offset="1" stop-color="#0B151E" stop-opacity="0"/>
</linearGradient>
<linearGradient id="paint4_linear_808_390" x1="423.332" y1="48.373" x2="435.891" y2="627.728" gradientUnits="userSpaceOnUse">
<stop stop-color="#0B151E" stop-opacity="0"/>
<stop offset="0.165" stop-color="#0B151E" stop-opacity="0.450549"/>
<stop offset="0.495" stop-color="#0B151E"/>
<stop offset="0.775" stop-color="#0B151E" stop-opacity="0.452703"/>
<stop offset="1" stop-color="#0B151E" stop-opacity="0"/>
</linearGradient>
<linearGradient id="paint5_linear_808_390" x1="600" y1="48.373" x2="612.559" y2="627.728" gradientUnits="userSpaceOnUse">
<stop stop-color="#0B151E" stop-opacity="0"/>
<stop offset="0.165" stop-color="#0B151E" stop-opacity="0.450549"/>
<stop offset="0.495" stop-color="#0B151E"/>
<stop offset="0.775" stop-color="#0B151E" stop-opacity="0.452703"/>
<stop offset="1" stop-color="#0B151E" stop-opacity="0"/>
</linearGradient>
<linearGradient id="paint6_linear_808_390" x1="776.668" y1="48.373" x2="789.227" y2="627.728" gradientUnits="userSpaceOnUse">
<stop stop-color="#0B151E" stop-opacity="0"/>
<stop offset="0.165" stop-color="#0B151E" stop-opacity="0.450549"/>
<stop offset="0.495" stop-color="#0B151E"/>
<stop offset="0.775" stop-color="#0B151E" stop-opacity="0.452703"/>
<stop offset="1" stop-color="#0B151E" stop-opacity="0"/>
</linearGradient>
<linearGradient id="paint7_linear_808_390" x1="953.332" y1="48.373" x2="965.891" y2="627.728" gradientUnits="userSpaceOnUse">
<stop stop-color="#0B151E" stop-opacity="0"/>
<stop offset="0.165" stop-color="#0B151E" stop-opacity="0.450549"/>
<stop offset="0.495" stop-color="#0B151E"/>
<stop offset="0.775" stop-color="#0B151E" stop-opacity="0.452703"/>
<stop offset="1" stop-color="#0B151E" stop-opacity="0"/>
</linearGradient>
<linearGradient id="paint8_linear_808_390" x1="1130" y1="48.373" x2="1142.56" y2="627.728" gradientUnits="userSpaceOnUse">
<stop stop-color="#0B151E" stop-opacity="0"/>
<stop offset="0.165" stop-color="#0B151E" stop-opacity="0.450549"/>
<stop offset="0.495" stop-color="#0B151E"/>
<stop offset="0.775" stop-color="#0B151E" stop-opacity="0.452703"/>
<stop offset="1" stop-color="#0B151E" stop-opacity="0"/>
</linearGradient>
<clipPath id="clip0_808_390">
<rect width="1200" height="675" fill="white"/>
</clipPath>
<clipPath id="clip1_808_390">
<rect width="194" height="32" fill="white" transform="translate(501 88)"/>
</clipPath>
</defs>
</svg>
