<svg width="65" height="26" viewBox="0 0 65 26" fill="none" xmlns="http://www.w3.org/2000/svg">
<path d="M10.251 15.8125C11.8043 15.8125 13.0635 14.5533 13.0635 13C13.0635 11.4467 11.8043 10.1875 10.251 10.1875C8.69768 10.1875 7.43848 11.4467 7.43848 13C7.43848 14.5533 8.69768 15.8125 10.251 15.8125Z" fill="#0B151E"/>
<path d="M15.3182 19.6599C15.5582 19.8984 15.5342 20.2944 15.2522 20.4819C13.7731 21.4738 12.032 22.0023 10.2512 21.9999C8.46986 22.0025 6.72818 21.474 5.2487 20.4819C5.18376 20.4369 5.12963 20.378 5.09021 20.3095C5.05079 20.241 5.02706 20.1646 5.02075 20.0858C5.01444 20.007 5.02569 19.9278 5.05369 19.8539C5.0817 19.78 5.12576 19.7132 5.1827 19.6584L7.2377 17.6034C7.33044 17.5147 7.4489 17.4576 7.5761 17.4403C7.70329 17.4231 7.83268 17.4466 7.9457 17.5074C8.6357 17.8614 9.4202 18.0624 10.2512 18.0624C11.0524 18.0632 11.8422 17.8729 12.5552 17.5074C12.6682 17.4466 12.7976 17.4231 12.9248 17.4403C13.052 17.4576 13.1705 17.5147 13.2632 17.6034L15.3182 19.6599Z" fill="#0B151E"/>
<path opacity="0.5" d="M15.2536 5.51661C15.5341 5.70561 15.5581 6.10161 15.3196 6.34161L13.2646 8.39661C13.1717 8.48512 13.0532 8.54193 12.926 8.55891C12.7988 8.57588 12.6695 8.55215 12.5566 8.49111C11.6035 8.00334 10.5204 7.83029 9.46275 7.99683C8.40514 8.16337 7.42755 8.66092 6.67049 9.41798C5.91343 10.175 5.41588 11.1526 5.24934 12.2102C5.0828 13.2679 5.25585 14.351 5.74362 15.3041C5.86362 15.5396 5.83362 15.8276 5.64762 16.0136L3.59262 18.0686C3.53781 18.1258 3.47095 18.1701 3.39689 18.1983C3.32283 18.2265 3.24344 18.2378 3.16446 18.2315C3.08547 18.2252 3.00889 18.2013 2.94025 18.1618C2.87161 18.1222 2.81265 18.0678 2.76762 18.0026C1.60963 16.2713 1.088 14.1919 1.29168 12.1189C1.49537 10.046 2.41175 8.10792 3.88459 6.63508C5.35743 5.16224 7.29553 4.24586 9.36846 4.04217C11.4414 3.83849 13.5208 4.36011 15.2521 5.51811L15.2536 5.51661Z" fill="#0B151E"/>
<path fill-rule="evenodd" clip-rule="evenodd" d="M30.6391 5.8285C30.6391 5.7505 30.7021 5.6875 30.7801 5.6875H32.8891C32.9671 5.6875 33.0301 5.7505 33.0301 5.8285V20.1715C33.0301 20.19 33.0264 20.2084 33.0193 20.2255C33.0123 20.2426 33.0019 20.2581 32.9888 20.2712C32.9757 20.2843 32.9601 20.2947 32.943 20.3018C32.9259 20.3089 32.9076 20.3125 32.8891 20.3125H30.7801C30.7616 20.3125 30.7432 20.3089 30.7261 20.3018C30.709 20.2947 30.6935 20.2843 30.6804 20.2712C30.6673 20.2581 30.6569 20.2426 30.6498 20.2255C30.6427 20.2084 30.6391 20.19 30.6391 20.1715V5.83V5.8285ZM27.6601 17.2705C27.6329 17.2473 27.5979 17.235 27.5622 17.2361C27.5264 17.2372 27.4923 17.2516 27.4666 17.2765C26.7622 17.9343 25.8323 18.2967 24.8686 18.289C24.445 18.3017 24.0232 18.2293 23.6281 18.076C23.236 17.9237 22.8788 17.6936 22.5781 17.3995C22.0321 16.8445 21.7186 16.0495 21.7186 15.1045C21.7186 13.21 22.9786 11.9155 24.8686 11.9155C25.3756 11.908 25.8781 12.01 26.3386 12.2155C26.7586 12.4015 27.1336 12.6655 27.4456 12.9955C27.4708 13.0228 27.5055 13.0394 27.5426 13.0419C27.5797 13.0445 27.6164 13.0327 27.6451 13.009L29.0701 11.776C29.0838 11.7641 29.095 11.7496 29.1031 11.7334C29.1112 11.7171 29.1161 11.6994 29.1173 11.6813C29.1186 11.6632 29.1162 11.645 29.1104 11.6278C29.1047 11.6106 29.0955 11.5947 29.0836 11.581C28.0111 10.384 26.3341 9.766 24.7381 9.766C21.5251 9.766 19.2466 11.9335 19.2466 15.121C19.2466 16.699 19.8121 18.0265 20.7676 18.964C21.7231 19.9015 23.0836 20.4535 24.6526 20.4535C26.6206 20.4535 28.2046 19.699 29.1331 18.73C29.1459 18.7165 29.1558 18.7006 29.1622 18.6832C29.1686 18.6658 29.1714 18.6473 29.1704 18.6287C29.1695 18.6102 29.1647 18.5921 29.1565 18.5754C29.1483 18.5588 29.1367 18.544 29.1226 18.532L27.6601 17.2705ZM44.6476 15.805C44.6435 15.8388 44.6273 15.87 44.6019 15.8926C44.5765 15.9153 44.5436 15.9279 44.5096 15.928H37.1191C37.0981 15.9277 37.0774 15.9323 37.0585 15.9414C37.0396 15.9505 37.0231 15.9639 37.0103 15.9805C36.9975 15.9971 36.9887 16.0164 36.9847 16.037C36.9807 16.0576 36.9815 16.0788 36.9871 16.099C37.3546 17.461 38.4496 18.286 39.9466 18.286C40.4506 18.2965 40.9516 18.193 41.4076 17.983C41.8336 17.788 42.2101 17.503 42.5146 17.1535C42.5321 17.1329 42.5569 17.1199 42.5838 17.1174C42.6107 17.1149 42.6376 17.123 42.6586 17.14L44.1436 18.433C44.2006 18.4825 44.2096 18.568 44.1601 18.6265C43.2631 19.684 41.8111 20.4535 39.8161 20.4535C36.7486 20.4535 34.4341 18.328 34.4341 15.1015C34.4341 13.5175 34.9786 12.19 35.8891 11.2525C36.3676 10.7695 36.9421 10.3885 37.5781 10.1335C38.2136 9.87786 38.8942 9.75287 39.5791 9.766C42.6886 9.766 44.7001 11.953 44.7001 14.9725C44.6961 15.2507 44.6786 15.5285 44.6476 15.805ZM37.0306 13.846C37.025 13.8662 37.0242 13.8874 37.0282 13.908C37.0322 13.9286 37.041 13.9479 37.0538 13.9645C37.0666 13.9811 37.0831 13.9945 37.102 14.0036C37.1209 14.0127 37.1416 14.0173 37.1626 14.017H42.0751C42.0963 14.0176 42.1174 14.0132 42.1366 14.0041C42.1559 13.995 42.1727 13.9815 42.1857 13.9647C42.1987 13.9479 42.2075 13.9282 42.2115 13.9073C42.2155 13.8864 42.2145 13.8649 42.2086 13.8445C41.8741 12.6865 41.0236 11.9125 39.7036 11.9125C39.3171 11.9011 38.9325 11.9716 38.5752 12.1195C38.2179 12.2674 37.896 12.4893 37.6306 12.7705C37.3546 13.0825 37.1506 13.45 37.0306 13.846ZM52.0111 9.766C52.0891 9.766 52.1536 9.829 52.1536 9.9085V12.2695C52.1536 12.2889 52.1497 12.3082 52.1419 12.326C52.1342 12.3438 52.1229 12.3599 52.1086 12.3731C52.0944 12.3863 52.0776 12.3965 52.0593 12.4029C52.0409 12.4094 52.0215 12.4119 52.0021 12.4105C51.8075 12.3938 51.6124 12.3833 51.4171 12.379C49.5766 12.379 48.4966 13.6735 48.4966 15.373V20.173C48.4962 20.2101 48.4812 20.2456 48.4548 20.2717C48.4284 20.2979 48.3927 20.3125 48.3556 20.3125H46.2466C46.2092 20.3125 46.1733 20.2976 46.1469 20.2712C46.1204 20.2448 46.1056 20.2089 46.1056 20.1715V10.054C46.1056 9.976 46.1686 9.913 46.2466 9.913H48.3556C48.4336 9.913 48.4966 9.976 48.4966 10.054V11.4745C48.4971 11.4772 48.4984 11.4797 48.5002 11.4817C48.5021 11.4837 48.5044 11.4852 48.5071 11.486C48.5097 11.4867 48.5125 11.4868 48.5151 11.4861C48.5178 11.4854 48.5202 11.484 48.5221 11.482C49.3471 10.381 50.5651 9.769 51.8506 9.769L52.0111 9.766ZM57.7246 15.952C57.7293 15.9468 57.7352 15.9428 57.7418 15.9403C57.7484 15.9378 57.7555 15.9369 57.7625 15.9376C57.7695 15.9383 57.7762 15.9407 57.7821 15.9445C57.7881 15.9483 57.793 15.9534 57.7966 15.9595L60.4636 20.2465C60.4763 20.2668 60.494 20.2835 60.515 20.295C60.536 20.3066 60.5596 20.3126 60.5836 20.3125H62.9806C63.0916 20.3125 63.1591 20.1925 63.1006 20.098L59.4406 14.194C59.4246 14.1681 59.4175 14.1378 59.4202 14.1075C59.4229 14.0772 59.4353 14.0486 59.4556 14.026L62.9851 10.135C63.0029 10.1147 63.0145 10.0897 63.0185 10.063C63.0225 10.0362 63.0188 10.0089 63.0077 9.98427C62.9967 9.95962 62.9788 9.93866 62.9561 9.9239C62.9335 9.90914 62.9071 9.90119 62.8801 9.901H60.3796C60.3599 9.90076 60.3404 9.90464 60.3223 9.91239C60.3042 9.92014 60.288 9.93159 60.2746 9.946L56.1976 14.392C56.1784 14.4127 56.1534 14.4272 56.1259 14.4336C56.0984 14.44 56.0696 14.438 56.0432 14.4278C56.0169 14.4176 55.9942 14.3997 55.9781 14.3765C55.9621 14.3533 55.9533 14.3257 55.9531 14.2975V5.8285C55.9531 5.7911 55.9382 5.75524 55.9118 5.7288C55.8853 5.70236 55.8495 5.6875 55.8121 5.6875H53.7031C53.6657 5.6875 53.6298 5.70236 53.6034 5.7288C53.5769 5.75524 53.5621 5.7911 53.5621 5.8285V20.1715C53.5621 20.2495 53.6251 20.3125 53.7031 20.3125H55.8121C55.8495 20.3125 55.8853 20.2976 55.9118 20.2712C55.9382 20.2448 55.9531 20.2089 55.9531 20.1715V17.914C55.9531 17.8795 55.9666 17.845 55.9906 17.8195L57.7276 15.952H57.7246Z" fill="#0B151E"/>
</svg>
