<svg width="60" height="26" viewBox="0 0 60 26" fill="none" xmlns="http://www.w3.org/2000/svg">
<g clipPath="url(#clip0_3919_7034)">
<path d="M8.14061 19.9687C7.25002 20.1251 6.34376 20.172 5.40628 20.2968L2.54683 11.9219V20.6563C1.65624 20.75 0.843761 20.875 0 21V5H2.37506L5.62499 14.0783V5H8.14061V19.9687ZM13.0625 10.8594C14.0313 10.8594 15.5157 10.8125 16.4063 10.8125V13.3124C15.2968 13.3124 14 13.3124 13.0625 13.3593V17.0781C14.5313 16.9844 16.0001 16.8593 17.4844 16.8124V19.2185L10.5624 19.7655V5H17.4844V7.5H13.0625V10.8594ZM26.7812 7.50006H24.1875V19C23.3437 19 22.5 19 21.6876 19.0312V7.50006H19.0939V5H26.7813L26.7812 7.50006ZM30.8437 10.6876H34.2656V13.1875H30.8437V18.8594H28.3904V5H35.375V7.5H30.8437V10.6876ZM39.4375 16.6719C40.8594 16.703 42.2968 16.8126 43.6875 16.8906V19.3594C41.4531 19.2186 39.2187 19.0782 36.9375 19.0312V5H39.4375V16.6719ZM45.7968 19.5313C46.5937 19.5782 47.4375 19.6251 48.2499 19.7187V5H45.7968V19.5313ZM59.2032 5L56.0312 12.6094L59.2032 21C58.2656 20.875 57.3281 20.7031 56.3905 20.5468L54.5938 15.9219L52.7658 20.172C51.8594 20.0156 50.9844 19.9687 50.0783 19.8437L53.297 12.5156L50.3907 5H53.0781L54.7187 9.20314L56.4688 5L59.2032 5Z" fill="#0B151E"/>
</g>
<defs>
<clipPath id="clip0_3919_7034">
<rect width="59.2032" height="26" fill="white"/>
</clipPath>
</defs>
</svg>
