<svg width="20" height="16" viewBox="0 0 20 16" fill="none" xmlns="http://www.w3.org/2000/svg">
<mask id="mask0_1843_33216" style="mask-type:luminance" maskUnits="userSpaceOnUse" x="0" y="0" width="20" height="16">
<path d="M20 0.325439H0.200073V15.1015H20V0.325439Z" fill="white"/>
</mask>
<g mask="url(#mask0_1843_33216)">
<path d="M0.200073 14.8602L5.87683 0.325439H7.76908L2.0724 14.8602H0.200073Z" fill="white"/>
<path d="M11.4687 4.73419C13.9448 4.73419 15.6761 6.14329 16.0186 8.3377H14.1264C13.8043 7.08969 12.7976 6.42499 11.5296 6.42499C9.73808 6.42499 8.50997 7.79367 8.50997 9.92778C8.50997 12.0619 9.65725 13.4106 11.4493 13.4106C12.7981 13.4106 13.8048 12.7061 14.1469 11.5383H16.0391C15.6567 13.6724 13.8248 15.1014 11.4493 15.1014C8.55035 15.1014 6.63818 13.0481 6.63818 9.9477C6.63818 6.84727 8.59077 4.73363 11.4698 4.73363L11.4687 4.73419Z" fill="white"/>
<path d="M17.0451 13.6924C17.0451 12.9071 17.7092 12.2628 18.4946 12.2628C19.2799 12.2628 19.9243 12.9071 19.9243 13.6924C19.9243 14.4778 19.26 15.1015 18.4946 15.1015C17.7292 15.1015 17.0451 14.4573 17.0451 13.6924Z" fill="white"/>
</g>
</svg>
