<svg width="20" height="21" viewBox="0 0 20 21" fill="none" xmlns="http://www.w3.org/2000/svg">
<path fill-rule="evenodd" clip-rule="evenodd" d="M10 1.5C5.02931 1.5 1 5.63094 1 10.7283C1 14.8049 3.57851 18.2643 7.15513 19.4839C7.60512 19.5687 7.76892 19.2841 7.76892 19.039C7.76892 18.8206 7.76172 18.2393 7.75722 17.4701C5.25342 18.0275 4.72512 16.2328 4.72512 16.2328C4.31651 15.1659 3.72612 14.8823 3.72612 14.8823C2.90891 14.311 3.78821 14.3221 3.78821 14.3221C4.69092 14.3866 5.16611 15.2729 5.16611 15.2729C5.96891 16.6825 7.27302 16.2752 7.78512 16.0394C7.86793 15.4433 8.10013 15.037 8.35753 14.8068C6.35952 14.5736 4.25802 13.7813 4.25802 10.2456C4.25802 9.23861 4.60901 8.41408 5.18411 7.76919C5.09142 7.53611 4.78271 6.59735 5.27231 5.32785C5.27231 5.32785 6.02831 5.0791 7.74733 6.27306C8.48152 6.0681 9.23903 5.9637 10 5.96259C10.765 5.96628 11.5345 6.06855 12.2536 6.27306C13.9717 5.0791 14.726 5.32693 14.726 5.32693C15.2173 6.59735 14.9078 7.53611 14.8159 7.76919C15.3919 8.41408 15.7411 9.23861 15.7411 10.2456C15.7411 13.7905 13.6361 14.5708 11.6317 14.7993C11.9548 15.084 12.2419 15.6469 12.2419 16.5083C12.2419 17.7409 12.2311 18.7368 12.2311 19.039C12.2311 19.286 12.3931 19.5733 12.8503 19.483C14.6426 18.8678 16.2005 17.6914 17.3039 16.1205C18.4075 14.5495 19.0008 12.6632 19 10.7283C19 5.63094 14.9699 1.5 10 1.5Z" fill="white"/>
</svg>
