<svg width="20" height="21" viewBox="0 0 20 21" fill="none" xmlns="http://www.w3.org/2000/svg">
<path d="M13.5787 17.9C13.3897 17.9914 13.1769 18.0213 12.97 17.9857C12.7631 17.95 12.5725 17.8506 12.425 17.7012L6.01998 11.8287L3.22998 13.9575C3.10433 14.0534 2.94896 14.102 2.79107 14.0949C2.63317 14.0879 2.48279 14.0255 2.36623 13.9187L1.47123 13.1C1.40164 13.036 1.34609 12.9582 1.3081 12.8716C1.27011 12.785 1.25049 12.6914 1.25049 12.5969C1.25049 12.5023 1.27011 12.4088 1.3081 12.3222C1.34609 12.2356 1.40164 12.1578 1.47123 12.0937L3.88998 9.875L1.47123 7.65625C1.40164 7.59221 1.34609 7.51443 1.3081 7.42783C1.27011 7.34123 1.25049 7.24769 1.25049 7.15312C1.25049 7.05855 1.27011 6.96501 1.3081 6.87841C1.34609 6.79181 1.40164 6.71403 1.47123 6.65L2.36623 5.83124C2.48294 5.72468 2.6334 5.66254 2.79129 5.65568C2.94919 5.64883 3.10447 5.6977 3.22998 5.79375L6.01998 7.92125L12.425 2.05C12.5728 1.90102 12.7634 1.80191 12.9702 1.76651C13.1771 1.7311 13.3898 1.76116 13.5787 1.8525L16.925 3.47C17.2762 3.64 17.5 3.9975 17.5 4.39V10.5H13.44V6.1675L8.57998 9.875L13.44 13.5825V10.5H17.5V15.3612C17.5 15.7537 17.2762 16.1112 16.925 16.2812L13.5787 17.9Z" fill="white"/>
</svg>
