<svg width="20" height="21" viewBox="0 0 20 21" fill="none" xmlns="http://www.w3.org/2000/svg">
<path fill-rule="evenodd" clip-rule="evenodd" d="M16.6927 16.8678L11.4536 9.25657L17.2613 2.5H15.9327L14.7954 3.81675L10.8613 8.39576L7.11365 2.9512L6.80315 2.5H2.19809L3.32122 4.13212L8.30406 11.372L8.30404 11.372L2.18005 18.4999H3.50865L8.89634 12.2319L8.89636 12.2319L8.89647 12.232L12.9002 18.0492L13.2108 18.5H17.8159L16.6927 16.8679V16.8678ZM10.1591 9.213L6.25574 3.54166H4.17953L9.00619 10.5544L9.00624 10.5544L9.59854 11.4146L9.59849 11.4147L9.59854 11.4148L13.7581 17.4582V17.4581H15.8343L10.7514 10.0733L10.1591 9.213Z" fill="white"/>
</svg>
