<svg width="71" height="54" viewBox="0 0 71 54" fill="none" xmlns="http://www.w3.org/2000/svg">
    <mask id="mask0_778_369" style="mask-type:luminance" maskUnits="userSpaceOnUse" x="0" y="0"
        width="71" height="54">
        <path d="M70.9992 0.575195H0V53.5598H70.9992V0.575195Z" fill="white" />
    </mask>
    <g mask="url(#mask0_778_369)">
        <path d="M0 52.6944L20.3559 0.575195H27.1412L6.7138 52.6944H0Z" fill="black" />
        <path
            d="M40.4073 16.3843C49.2864 16.3843 55.4942 21.4371 56.7227 29.3059H49.9374C48.7823 24.8308 45.1724 22.4473 40.6257 22.4473C34.2016 22.4473 29.7978 27.3551 29.7978 35.0077C29.7978 42.6602 33.9118 47.4967 40.3379 47.4967C45.1743 47.4967 48.7843 44.9704 50.0108 40.7828H56.796C55.4247 48.4354 48.8558 53.5596 40.3379 53.5596C29.9426 53.5596 23.0859 46.1968 23.0859 35.0791C23.0859 23.9615 30.0875 16.3823 40.4113 16.3823L40.4073 16.3843Z"
            fill="black" />
        <path
            d="M60.4023 48.5071C60.4023 45.691 62.7837 43.3809 65.5999 43.3809C68.416 43.3809 70.7265 45.691 70.7265 48.5071C70.7265 51.3232 68.3446 53.5599 65.5999 53.5599C62.8552 53.5599 60.4023 51.2498 60.4023 48.5071Z"
            fill="black" />
    </g>
</svg>