<?xml version="1.0" encoding="UTF-8"?>
<svg xmlns="http://www.w3.org/2000/svg" xmlns:xlink="http://www.w3.org/1999/xlink" width="18px"
    height="18px" viewBox="0 0 24 21" version="1.1">
    <g id="surface1">
        <path style=" stroke:none;fill-rule:evenodd;fill:black;fill-opacity:1;"
            d="M 9.339844 0 L 0.863281 8.417969 C -0.289062 9.558594 -0.289062 11.433594 0.863281 12.578125 L 9.339844 20.992188 L 11.609375 18.457031 L 3.347656 10.582031 L 11.609375 2.542969 Z M 9.339844 0 " />
        <path style=" stroke:none;fill-rule:evenodd;fill:black;fill-opacity:1;"
            d="M 14.695312 0 L 23.140625 8.417969 C 24.285156 9.5625 24.285156 11.433594 23.140625 12.578125 L 14.695312 21 L 12.433594 18.460938 L 20.664062 10.585938 L 12.433594 2.542969 Z M 14.695312 0 " />
        <path style=" stroke:none;fill-rule:evenodd;fill:black;fill-opacity:1;"
            d="M 15.824219 6.652344 C 13.734375 4.566406 10.3125 4.566406 8.222656 6.652344 C 6.128906 8.742188 6.128906 12.160156 8.222656 14.25 L 12.023438 18.046875 L 15.824219 14.25 C 17.914062 12.160156 17.914062 8.742188 15.824219 6.652344 Z M 13.554688 8.976562 C 12.710938 8.132812 11.332031 8.132812 10.488281 8.976562 C 9.644531 9.816406 9.644531 11.195312 10.488281 12.039062 C 11.332031 12.882812 12.710938 12.882812 13.554688 12.039062 C 14.398438 11.195312 14.398438 9.816406 13.554688 8.976562 Z M 13.554688 8.976562 " />
    </g>
</svg>