<svg width="105" height="26" viewBox="0 0 105 26" fill="none" xmlns="http://www.w3.org/2000/svg">
<g clipPath="url(#clip0_3919_16513)">
<path d="M13.073 5.07979C14.2944 5.26283 15.4476 5.76205 16.5758 6.24796C17.8155 6.78046 19.032 7.36621 20.2867 7.86377C20.3682 7.89539 20.4498 7.92867 20.5313 7.95862C21.0738 8.16829 21.603 8.41291 22.1388 8.64255C22.7478 8.90215 23.084 9.35477 23.079 10.0271C23.074 10.681 22.7412 11.122 22.1471 11.3733C19.7109 12.41 17.2831 13.4617 14.8369 14.4734C12.9831 15.2406 11.1077 15.2206 9.24894 14.4635C8.15731 14.0192 7.06735 13.5732 5.99402 13.0889C5.43822 12.8377 5.01222 12.9358 4.61451 13.3635C4.41482 13.5782 4.23344 13.8012 4.07369 14.0458C3.92892 14.2688 3.88232 14.4784 3.97884 14.748C4.1519 15.2256 4.08367 15.7082 3.71924 16.0626C3.45299 16.3222 3.50458 16.487 3.67099 16.7599C4.11862 17.4904 4.03708 18.4006 3.50624 19.0563C2.95044 19.7419 2.09012 20.0098 1.26641 19.7369C0.77551 19.5738 0.389447 19.2693 0.131516 18.8133C-0.113102 18.379 -0.0282342 18.1627 0.452681 18.0162C1.17489 17.7982 1.62751 17.319 1.84218 16.6018C1.89875 16.4154 1.87379 16.2706 1.74566 16.1059C1.18154 15.387 1.25643 14.6998 1.94368 14.1007C2.03854 14.0175 2.13339 13.9359 2.17832 13.8161C2.38965 13.2487 2.72413 12.7578 3.12184 12.3102C3.3182 12.0905 3.28825 11.9624 3.01867 11.8542C2.64592 11.7044 2.27816 11.5414 1.90874 11.3816C1.318 11.1287 0.965214 10.676 0.951901 10.0404C0.938588 9.4047 1.26142 8.92378 1.85715 8.67084C3.19839 8.10339 4.53963 7.53428 5.88253 6.97017C6.55315 6.68727 7.22543 6.40605 7.89771 6.12482C8.57 5.84359 9.1857 5.54073 9.84966 5.3294C10.299 5.18629 10.7632 5.08977 11.2308 5.03985C11.7217 4.98826 12.2193 4.98826 12.7102 5.03652C12.83 5.04817 12.9482 5.06315 13.0663 5.07979H13.073ZM11.968 6.78213C11.359 6.80709 10.6651 6.91692 10.0028 7.19315C9.0559 7.58753 8.10905 7.98358 7.16386 8.38129C6.05226 8.8489 4.94067 9.31816 3.8324 9.79076C3.72424 9.83735 3.56948 9.86231 3.57613 10.0237C3.58279 10.1602 3.72257 10.1752 3.81909 10.2184C4.18685 10.3798 4.56459 10.5196 4.92569 10.696C5.3051 10.8824 5.65954 10.8641 6.04228 10.696C7.2221 10.1768 8.43188 9.72087 9.58841 9.15509C10.4088 8.75404 11.096 8.99866 11.79 9.3814C12.1444 9.57609 12.1244 9.96382 11.7733 10.1785C11.6319 10.265 11.4755 10.3266 11.3224 10.3915C10.3173 10.8241 9.30884 11.2535 8.30375 11.6861C8.19392 11.7344 8.02418 11.7444 8.01586 11.8875C8.00754 12.0356 8.17894 12.0572 8.28711 12.1038C8.8479 12.3451 9.40536 12.5914 9.97281 12.8127C11.3923 13.3668 12.8167 13.3652 14.2228 12.7761C16.218 11.9407 18.2049 11.0904 20.1935 10.2417C20.3116 10.1918 20.5047 10.1851 20.4947 10.0071C20.4847 9.84401 20.3033 9.82903 20.1802 9.77578C18.3198 8.98036 16.456 8.19159 14.5989 7.38785C13.7885 7.03673 12.9565 6.80043 11.9664 6.78379L11.968 6.78213Z" fill="white"/>
<path d="M104.189 17.4223C103.618 17.5954 103.036 17.5072 102.458 17.4889C102.066 17.4772 102.242 17.0795 102.129 16.8732C100.217 17.9315 98.3832 17.7568 97.23 16.4155C96.0951 15.0943 96.0418 12.8761 97.1151 11.4716C97.7025 10.7011 98.503 10.2901 99.4482 10.1836C100.378 10.0788 101.27 10.1986 102.091 10.9258C102.091 10.0838 102.086 9.3549 102.091 8.62771C102.101 7.42126 101.929 7.51611 103.204 7.51944C103.533 7.51944 103.871 7.45787 104.187 7.60431V17.4223H104.189ZM102.102 13.8795C102.107 12.7446 101.402 11.9525 100.378 11.9425C99.2984 11.9325 98.5562 12.693 98.5446 13.8196C98.5329 14.9794 99.2684 15.8098 100.317 15.8165C101.36 15.8231 102.097 15.0244 102.102 13.8795Z" fill="white"/>
<path d="M11.4173 21C10.4039 20.8302 9.40876 20.6073 8.49852 20.0964C7.32868 19.4374 6.41511 18.5438 5.85598 17.3107C5.71953 17.0112 5.57975 16.6767 5.86763 16.4255C6.19878 16.1376 6.59316 15.8996 7.06909 15.9678C7.28708 15.9995 7.41854 16.1742 7.51006 16.3739C8.27553 18.0296 9.68001 18.7701 11.3957 18.9765C12.7369 19.1379 14.0232 18.9033 15.1631 18.1095C15.7638 17.6901 16.2531 17.1743 16.5709 16.502C16.8338 15.9445 17.0618 15.8663 17.6293 16.1026C17.7441 16.1509 17.8606 16.1958 17.9737 16.2491C18.3947 16.4521 18.5112 16.725 18.3348 17.166C17.799 18.5005 16.8322 19.4407 15.5924 20.1213C14.7804 20.5673 13.9051 20.8203 12.9882 20.9317C12.88 20.9451 12.7735 20.9783 12.667 21.0016H11.419L11.4173 21Z" fill="white"/>
<path d="M65.6609 12.7629C65.6609 11.39 65.6592 10.0172 65.6609 8.64432C65.6609 8.15176 65.7208 8.09185 66.2133 8.09185C67.5579 8.09185 68.9025 8.08187 70.247 8.10184C70.9459 8.11182 71.6215 8.25327 72.2472 8.59274C73.6034 9.32825 73.868 11.0922 72.7831 12.1938C72.7348 12.2437 72.6899 12.2969 72.635 12.3385C72.3937 12.5233 72.4369 12.6397 72.6932 12.7845C73.4038 13.1839 73.8264 13.7913 73.9013 14.6133C74.0111 15.8015 73.4603 16.6868 72.3504 17.1327C71.6698 17.4056 70.9543 17.4922 70.232 17.5021C68.9158 17.5188 67.5978 17.5088 66.2816 17.5071C65.7324 17.5071 65.6592 17.4323 65.6592 16.8798C65.6559 15.5069 65.6592 14.1341 65.6592 12.7612L65.6609 12.7629ZM69.4915 13.5916C69.0905 13.5916 68.6895 13.5966 68.2868 13.5916C68.0272 13.5883 67.9057 13.7014 67.9073 13.9643C67.9123 14.4353 67.914 14.9062 67.9073 15.3755C67.9024 15.67 68.0521 15.7582 68.3217 15.7549C69.0822 15.7466 69.8443 15.7632 70.6048 15.7466C71.2488 15.7316 71.6615 15.2856 71.6548 14.6533C71.6482 14.0492 71.2272 13.6149 70.6115 13.5949C70.2387 13.5833 69.8643 13.5933 69.4899 13.5916H69.4915ZM69.1271 11.9225C69.4033 11.9225 69.6796 11.9292 69.9558 11.9225C70.5998 11.9059 71.0491 11.4732 71.0558 10.8692C71.0624 10.3184 70.5948 9.81416 70.0091 9.78754C69.43 9.76257 68.8492 9.78254 68.2684 9.77755C68.0288 9.77422 67.9073 9.8724 67.909 10.1187C67.9123 10.6013 67.9123 11.0855 67.909 11.5698C67.9073 11.8094 68.0105 11.9275 68.2568 11.9242C68.5463 11.9192 68.8376 11.9242 69.1271 11.9242V11.9225Z" fill="white"/>
<path d="M38.3432 10.9207C39.8359 9.6227 42.2288 10.1386 43.2305 11.3051C44.2107 12.4466 44.437 14.4884 43.6499 15.838C42.8561 17.1992 41.2703 17.8765 39.7227 17.5154C39.34 17.4255 38.9839 17.2774 38.6743 17.0311C38.4597 16.8614 38.3914 16.9396 38.3914 17.1809C38.3948 17.9713 38.3781 18.7618 38.3964 19.5505C38.4064 19.9532 38.2334 20.1013 37.8523 20.0913C37.4779 20.0797 37.1035 20.0814 36.729 20.0913C36.3746 20.0997 36.2248 19.9199 36.2182 19.5855C36.2165 19.4607 36.2148 19.3359 36.2148 19.2111C36.2148 16.4803 36.2148 13.7496 36.2148 11.0188C36.2148 10.295 36.2515 10.2584 36.957 10.2567C37.165 10.2567 37.373 10.2567 37.581 10.2567C38.027 10.2567 38.2811 10.4786 38.3432 10.9223V10.9207ZM38.3864 13.891C38.3881 15.0293 39.1403 15.8347 40.1803 15.8164C41.2021 15.798 41.9342 14.996 41.9392 13.891C41.9442 12.7179 41.227 11.9424 40.1387 11.9424C39.087 11.9424 38.3848 12.7229 38.3881 13.891H38.3864Z" fill="white"/>
<path d="M47.2464 10.9441C48.2581 10.0638 49.3897 9.99559 50.5612 10.3234C51.9557 10.7128 52.9358 11.9941 53.024 13.4485C53.0773 14.3371 52.9708 15.1975 52.4865 15.9679C51.4382 17.6303 49.2133 18.1062 47.5709 17.0146C47.3129 16.8432 47.2963 16.9664 47.2963 17.1744C47.2963 17.9365 47.2963 18.6987 47.2963 19.4608C47.2963 20.0532 47.2597 20.0865 46.6523 20.0898C46.3611 20.0898 46.0699 20.0915 45.7787 20.0898C45.2329 20.0848 45.1829 20.0382 45.1813 19.4957C45.1813 17.0562 45.1813 14.6184 45.1813 12.1788C45.1813 11.6796 45.1879 11.1804 45.1813 10.6828C45.1763 10.3816 45.3144 10.2519 45.6073 10.2568C45.9118 10.2618 46.2163 10.2568 46.5225 10.2568C46.9563 10.2568 47.1987 10.4859 47.2497 10.9441H47.2464ZM50.8424 13.8729C50.8391 12.7097 50.1302 11.9376 49.0719 11.9442C48.0052 11.9509 47.2946 12.7197 47.2913 13.8712C47.288 14.9961 48.0368 15.8182 49.0702 15.8182C50.1136 15.8182 50.8458 15.0144 50.8441 13.8729H50.8424Z" fill="white"/>
<path d="M34.2766 17.5088C33.0186 17.5021 33.2532 17.612 32.7607 16.4837C32.2614 15.3405 32.6059 15.5286 31.3129 15.5152C30.3844 15.5053 29.4542 15.5252 28.5256 15.5069C28.1945 15.5003 28.0181 15.6201 27.9082 15.9296C27.7651 16.334 27.5788 16.7234 27.4223 17.1227C27.3175 17.3906 27.1328 17.5121 26.8482 17.5088C26.4039 17.5038 25.9596 17.5188 25.517 17.5038C25.1143 17.4905 25.0311 17.3457 25.1975 16.9696C26.3008 14.4868 27.4057 12.0041 28.5106 9.52127C28.6687 9.16682 28.8368 8.81737 28.9899 8.4596C29.103 8.19667 29.2911 8.08185 29.5756 8.08851C29.9634 8.09683 30.3544 8.11347 30.7405 8.08352C31.1598 8.0519 31.3978 8.20999 31.5692 8.60104C32.551 10.8342 33.5544 13.0591 34.5512 15.2856C34.8008 15.8431 35.0587 16.3955 35.2967 16.9563C35.4664 17.3607 35.3766 17.4888 34.9423 17.5055C34.7209 17.5138 34.4979 17.5055 34.2766 17.5055V17.5088ZM30.2845 10.523L30.1664 10.528C29.7554 11.5231 29.3443 12.5166 28.9333 13.5117C28.8518 13.7097 28.9633 13.7563 29.1313 13.7563C29.8502 13.7563 30.5691 13.753 31.288 13.758C31.5642 13.7596 31.5842 13.6365 31.4926 13.4185C31.2031 12.7313 30.9185 12.0407 30.6323 11.3517C30.5175 11.0755 30.3994 10.7993 30.2829 10.5247L30.2845 10.523Z" fill="white"/>
<path d="M61.3259 14.6731C61.6837 13.4916 62.0032 12.4333 62.3227 11.3733C62.4275 11.0288 62.5373 10.6843 62.6322 10.3382C62.6971 10.1019 62.8369 9.99542 63.0831 10.0004C63.4709 10.0071 63.8586 9.99875 64.248 10.0021C64.7356 10.0071 64.7855 10.072 64.6407 10.5496C64.0982 12.3401 63.5491 14.129 62.9999 15.9162C62.8252 16.4853 62.6605 17.0594 62.4575 17.6202C61.6171 19.9515 59.6585 20.3343 57.828 19.6487C57.2007 19.414 57.1591 19.2576 57.4619 18.6552C57.4935 18.5937 57.5252 18.5321 57.5568 18.4705C57.8086 17.9802 58.1925 17.8221 58.7083 17.9963C59.2591 18.181 59.7051 18.0761 60.0312 17.6901C60.2642 17.4138 60.3291 17.1526 60.161 16.7865C59.2308 14.743 58.3272 12.6879 57.4203 10.6344C57.1657 10.057 57.209 10.0037 57.8447 10.0021C58.0244 10.0021 58.2058 10.0004 58.3855 10.0021C59.5537 10.0154 59.2824 9.86229 59.7434 10.929C60.2326 12.0605 60.6935 13.2054 61.1678 14.3436C61.1978 14.4168 61.2377 14.4884 61.3276 14.6748L61.3259 14.6731Z" fill="white"/>
<path d="M88.1723 16.8764C87.0624 17.7534 85.8759 17.8 84.6561 17.3041C83.7825 16.9496 83.3332 16.1642 83.3814 15.2556C83.428 14.3803 83.9722 13.703 84.8808 13.4152C85.7145 13.1489 86.5765 13.1872 87.4351 13.1789C87.6431 13.1772 87.946 13.297 88.0342 13.0441C88.1274 12.7745 87.9626 12.4983 87.7563 12.3002C87.3436 11.9059 86.8177 11.8376 86.2836 11.8859C85.7577 11.9341 85.2402 12.0473 84.7793 12.3269C84.4947 12.4999 84.3183 12.4184 84.1902 12.1305C84.1003 11.9275 83.9905 11.7345 83.8907 11.5364C83.6577 11.0755 83.7109 10.9241 84.1885 10.7044C85.3866 10.1519 86.6397 10.0205 87.926 10.2634C89.3005 10.523 90.1059 11.4516 90.2291 12.8377C90.3522 14.2355 90.2607 15.635 90.2873 17.0345C90.294 17.3657 90.1326 17.5171 89.8031 17.5104C89.5119 17.5038 89.2207 17.5104 88.9294 17.5104C88.5068 17.5093 88.2544 17.298 88.1723 16.8764ZM86.9925 14.5151C86.6863 14.5318 86.3085 14.4635 85.9524 14.6266C85.4099 14.8762 85.3301 15.4969 85.791 15.8713C86.5365 16.4754 87.921 15.9728 88.0908 15.036C88.1623 14.6449 88.0725 14.5301 87.6781 14.5184C87.4717 14.5118 87.2637 14.5184 86.9925 14.5184V14.5151Z" fill="white"/>
<path d="M78.6921 10.1685C80.6707 10.1652 82.17 11.2485 82.5727 12.9675C83.1285 15.3455 81.4994 17.4738 79.0216 17.5919C77.6671 17.6568 76.4473 17.3091 75.562 16.2257C74.5869 15.0293 74.4471 13.6664 75.0728 12.2819C75.6902 10.919 76.8567 10.2933 78.316 10.1702C78.4392 10.1602 78.5657 10.1702 78.6905 10.1702L78.6921 10.1685ZM80.471 13.8911C80.4743 12.7262 79.7804 11.9474 78.7321 11.9424C77.6454 11.9391 76.9166 12.7096 76.9116 13.8694C76.9082 14.971 77.6787 15.8147 78.6938 15.8164C79.7471 15.8181 80.466 15.0376 80.471 13.8911Z" fill="white"/>
<path d="M56.197 12.5348C56.197 14.0175 56.187 15.5002 56.2036 16.9812C56.2086 17.3689 56.0988 17.5436 55.6894 17.5154C55.2901 17.4887 54.8857 17.5037 54.4846 17.5104C54.2134 17.5154 54.0786 17.4205 54.0786 17.126C54.0836 14.0508 54.0836 10.9756 54.0786 7.90038C54.0786 7.60584 54.2134 7.51099 54.483 7.51598C54.9123 7.5243 55.3416 7.52929 55.771 7.51432C56.1005 7.50267 56.2003 7.6491 56.1986 7.96361C56.1886 9.4879 56.1936 11.0105 56.1936 12.5348H56.197Z" fill="white"/>
<path d="M93.3257 11.0639C93.8898 10.5147 94.4989 10.2418 95.1928 10.1769C95.7386 10.1253 95.7869 10.1769 95.7885 10.7277C95.7885 11.0738 95.7852 11.42 95.7885 11.7661C95.7902 12.0074 95.6837 12.1122 95.4358 12.1155C95.2028 12.1189 94.9648 12.1405 94.7368 12.1871C94.003 12.3335 93.5653 12.8228 93.4638 13.5816C93.3174 14.6849 93.4189 15.7931 93.3923 16.8997C93.379 17.4738 93.3573 17.5055 92.7749 17.5071C92.4005 17.5071 92.0278 17.5071 91.6533 17.5038C91.3987 17.5038 91.2756 17.3807 91.2756 17.1194C91.2773 14.9594 91.2789 12.7995 91.2739 10.6395C91.2739 10.3466 91.412 10.2485 91.6816 10.2535C92.056 10.2601 92.4305 10.2718 92.8032 10.2501C93.1776 10.2285 93.354 10.3683 93.3091 10.7527C93.3008 10.8192 93.3157 10.8891 93.3274 11.0639H93.3257Z" fill="white"/>
</g>
<defs>
<clipPath id="clip0_3919_16513">
<rect width="104.189" height="26" fill="white"/>
</clipPath>
</defs>
</svg>
