<svg width="67" height="26" viewBox="0 0 67 26" fill="none" xmlns="http://www.w3.org/2000/svg">
<g clipPath="url(#clip0_3919_16531)">
<path d="M7.12176 19.6286C9.34959 19.6286 10.9931 18.7704 11.9609 17.6017L10.0983 16.013C9.34959 16.8347 8.41829 17.2547 7.17655 17.2547C4.65654 17.2547 3.10437 15.3556 3.10437 13.0182C3.10437 10.6808 4.65654 8.74514 7.12176 8.74514C8.2722 8.74514 9.22176 9.14688 9.98872 9.95036L11.7965 8.37992C10.6461 7.01036 9.2035 6.37122 7.12176 6.37122C3.17741 6.37122 0.456543 9.34775 0.456543 13.0182C0.456543 16.6704 3.3235 19.6286 7.12176 19.6286ZM16.614 19.6286C18.3123 19.6286 19.1705 18.9164 19.6818 17.8391V19.3912H22.074V9.89557H19.6271V11.393C19.1158 10.3704 18.2575 9.69471 16.614 9.69471C14.0027 9.69471 11.921 11.9408 11.921 14.6799C11.921 17.4191 14.0027 19.6286 16.614 19.6286ZM14.3862 14.6617C14.3862 13.1825 15.4453 11.9225 17.0157 11.9225C18.641 11.9225 19.6818 13.2008 19.6818 14.6799C19.6818 16.1591 18.641 17.4008 17.0157 17.4008C15.4453 17.4008 14.3862 16.1043 14.3862 14.6617ZM23.5387 19.3912H26.0039V6.06079H23.5387V19.3912ZM28.7767 19.6286C29.7263 19.6286 30.4019 18.8982 30.4019 18.0217C30.4019 17.1634 29.7263 16.433 28.7767 16.433C27.8272 16.433 27.1333 17.1634 27.1333 18.0217C27.1333 18.8982 27.8272 19.6286 28.7767 19.6286ZM35.6999 19.6286C37.5625 19.6286 38.8773 18.953 39.7721 17.8025L37.9825 16.2504C37.4895 16.9078 36.8686 17.3825 35.919 17.3825C34.3486 17.3825 33.2712 16.1225 33.2712 14.6434C33.2712 13.1643 34.2938 11.9043 35.8643 11.9043C36.7043 11.9043 37.4347 12.3243 37.873 12.9817L39.7721 11.4295C38.9686 10.3156 37.5625 9.63992 35.8277 9.65818C32.9243 9.67644 30.806 11.886 30.806 14.6434C30.806 17.4008 32.979 19.6286 35.6999 19.6286ZM44.8342 19.6286C47.7742 19.6286 49.8925 17.4008 49.8925 14.6617C49.8925 11.9225 47.7742 9.67644 44.8342 9.67644C41.8942 9.67644 39.7759 11.9225 39.7759 14.6617C39.7759 17.4008 41.8942 19.6286 44.8342 19.6286ZM42.2411 14.6617C42.2411 13.1825 43.2638 11.9225 44.8342 11.9225C46.4046 11.9225 47.4272 13.1825 47.4272 14.6617C47.4272 16.1408 46.4046 17.3825 44.8342 17.3825C43.2638 17.3825 42.2411 16.1408 42.2411 14.6617ZM50.9835 19.3912H53.4488V14.1869C53.4488 12.5434 54.3801 11.8312 55.4209 11.8312C56.6444 11.8312 57.4662 12.5434 57.4662 14.1869V19.3912H59.9314V14.1869C59.9314 12.3608 60.7166 11.8312 61.8673 11.8312C62.9812 11.8312 63.7664 12.5434 63.7664 14.1869V19.3912H66.2316V13.5843C66.2316 11.1921 64.6612 9.67644 62.616 9.67644C60.9542 9.67644 60.0409 10.3156 59.4018 11.466C58.7809 10.3156 57.6488 9.67644 56.3157 9.67644C54.8548 9.67644 53.9053 10.2243 53.4122 11.2834V9.89557H50.9835V19.3912Z" fill="white"/>
</g>
<defs>
<clipPath id="clip0_3919_16531">
<rect width="66.3478" height="26" fill="white"/>
</clipPath>
</defs>
</svg>
