<svg width="67" height="26" viewBox="0 0 67 26" fill="none" xmlns="http://www.w3.org/2000/svg">
<g clipPath="url(#clip0_3919_16585)">
<path d="M16.7304 9.60587H9.07926V11.8762H14.5059C14.237 15.0539 11.5891 16.4179 9.08842 16.4179C8.29622 16.4214 7.51126 16.267 6.77938 15.9638C6.04749 15.6606 5.38334 15.2146 4.8257 14.6519C4.26806 14.0892 3.82811 13.4211 3.53152 12.6865C3.23494 11.9519 3.08767 11.1656 3.09831 10.3734C3.09831 6.93654 5.75909 4.29043 9.09576 4.29043C11.6698 4.29043 13.1865 5.93126 13.1865 5.93126L14.7754 4.28493C14.7754 4.28493 12.7343 2.01343 9.01264 2.01343C4.27348 2.01343 0.607422 6.01315 0.607422 10.3331C0.607422 14.5663 4.05592 18.6943 9.13242 18.6943C13.5978 18.6943 16.8666 15.6351 16.8666 11.1117C16.8666 10.1571 16.7279 9.60587 16.7279 9.60587H16.7304Z" fill="white"/>
<path d="M22.9984 7.9613C19.8585 7.9613 17.6084 10.4161 17.6084 13.278C17.6084 16.1832 19.7901 18.6833 23.0351 18.6833C25.9721 18.6833 28.378 16.4386 28.378 13.3403C28.378 9.79586 25.5791 7.96069 22.9984 7.96069V7.9613ZM23.029 10.0672C24.5726 10.0672 26.0356 11.3157 26.0356 13.3269C26.0356 15.2946 24.5787 16.5792 23.0216 16.5792C21.3105 16.5792 19.9661 15.2091 19.9661 13.311C19.9661 11.4532 21.2983 10.0672 23.0338 10.0672H23.029Z" fill="white"/>
<path d="M34.7201 7.9613C31.5802 7.9613 29.3301 10.4161 29.3301 13.278C29.3301 16.1832 31.5117 18.6833 34.7567 18.6833C37.6937 18.6833 40.0997 16.4386 40.0997 13.3403C40.0997 9.79586 37.3008 7.96069 34.7201 7.96069V7.9613ZM34.7506 10.0672C36.2943 10.0672 37.7573 11.3157 37.7573 13.3269C37.7573 15.2946 36.3004 16.5792 34.7433 16.5792C33.0322 16.5792 31.6877 15.2091 31.6877 13.311C31.6877 11.4532 33.02 10.0672 34.7555 10.0672H34.7506Z" fill="white"/>
<path d="M46.2171 7.96753C43.3351 7.96753 41.0703 10.4914 41.0703 13.3245C41.0703 16.5512 43.6963 18.6913 46.167 18.6913C47.6948 18.6913 48.5075 18.0845 49.1003 17.3884V18.4456C49.1003 20.2955 47.9771 21.4034 46.2819 21.4034C44.6441 21.4034 43.8228 20.1855 43.5319 19.4949L41.4712 20.3505C42.2021 21.8966 43.6736 23.5081 46.299 23.5081C49.1712 23.5081 51.348 21.7035 51.348 17.9183V8.28959H49.1089V9.1977C48.4183 8.45214 47.4723 7.96753 46.2183 7.96753H46.2171ZM46.4249 10.0698C47.8378 10.0698 49.2885 11.2761 49.2885 13.3361C49.2885 15.4304 47.8402 16.5842 46.3937 16.5842C44.8574 16.5842 43.428 15.3375 43.428 13.3557C43.428 11.2975 44.913 10.0698 46.4249 10.0698Z" fill="white"/>
<path d="M61.3557 7.95459C58.6375 7.95459 56.355 10.1179 56.355 13.3079C56.355 16.6849 58.899 18.6875 61.6105 18.6875C63.879 18.6875 65.2772 17.447 66.1022 16.3348L64.2487 15.1015C63.7678 15.8471 62.9635 16.5774 61.6221 16.5774C60.1151 16.5774 59.4221 15.7524 58.9925 14.9518L66.181 11.9696L65.8144 11.0957C65.1201 9.38459 63.4995 7.95459 61.3557 7.95459ZM61.4492 10.0165C62.4288 10.0165 63.1334 10.5371 63.4329 11.1617L58.632 13.168C58.4242 11.6145 59.897 10.0165 61.4431 10.0165H61.4492Z" fill="white"/>
<path d="M52.9224 18.3699H55.2837V2.56836H52.9224V18.3699Z" fill="white"/>
</g>
<defs>
<clipPath id="clip0_3919_16585">
<rect width="66.6111" height="26" fill="white"/>
</clipPath>
</defs>
</svg>
