<svg width="85" height="26" viewBox="0 0 85 26" fill="none" xmlns="http://www.w3.org/2000/svg">
<g clipPath="url(#clip0_3919_16443)">
<path d="M35.0998 7.60029V18.4003H33.2248V9.92529H33.1998L29.8498 18.4003H28.5998L25.1748 9.92529H25.1498V18.4003H23.4248V7.60029H26.1248L29.2248 15.6003H29.2748L32.5498 7.60029H35.0998ZM36.6498 8.42529C36.6498 8.12529 36.7498 7.87529 36.9748 7.67529C37.1998 7.47529 37.4498 7.37529 37.7498 7.37529C38.0748 7.37529 38.3498 7.47529 38.5498 7.67529C38.7498 7.87529 38.8748 8.12529 38.8748 8.42529C38.8748 8.72529 38.7748 8.97529 38.5498 9.17529C38.3248 9.37529 38.0748 9.47529 37.7498 9.47529C37.4248 9.47529 37.1748 9.37529 36.9748 9.17529C36.7748 8.95029 36.6498 8.70029 36.6498 8.42529ZM38.6748 10.6503V18.4003H36.8498V10.6503H38.6748ZM44.1998 17.0753C44.4748 17.0753 44.7748 17.0253 45.0998 16.8753C45.4248 16.7503 45.7248 16.5753 45.9998 16.3753V18.0753C45.6998 18.2503 45.3748 18.3753 44.9998 18.4503C44.6248 18.5253 44.2248 18.5753 43.7748 18.5753C42.6248 18.5753 41.6998 18.2253 40.9998 17.5003C40.2748 16.7753 39.9248 15.8503 39.9248 14.7503C39.9248 13.5003 40.2998 12.4753 41.0248 11.6753C41.7498 10.8753 42.7748 10.4753 44.1248 10.4753C44.4748 10.4753 44.8248 10.5253 45.1498 10.6003C45.4998 10.6753 45.7748 10.8003 45.9748 10.9003V12.6503C45.6998 12.4503 45.3998 12.2753 45.1248 12.1753C44.8248 12.0753 44.5248 12.0003 44.2248 12.0003C43.4998 12.0003 42.9248 12.2253 42.4748 12.7003C42.0248 13.1753 41.8248 13.8003 41.8248 14.6003C41.8248 15.3753 42.0498 16.0003 42.4748 16.4253C42.8998 16.8503 43.4748 17.0753 44.1998 17.0753ZM51.1748 10.5253C51.3248 10.5253 51.4498 10.5253 51.5748 10.5503C51.6998 10.5753 51.7998 10.6003 51.8748 10.6253V12.4753C51.7748 12.4003 51.6498 12.3253 51.4498 12.2753C51.2498 12.2253 51.0498 12.1753 50.7748 12.1753C50.3248 12.1753 49.9498 12.3753 49.6498 12.7503C49.3498 13.1253 49.1748 13.7003 49.1748 14.5003V18.4003H47.3498V10.6503H49.1748V11.8753H49.1998C49.3748 11.4503 49.6248 11.1253 49.9498 10.8753C50.2998 10.6503 50.6998 10.5253 51.1748 10.5253ZM51.9748 14.6503C51.9748 13.3753 52.3498 12.3503 53.0498 11.6003C53.7748 10.8503 54.7748 10.4753 56.0498 10.4753C57.2498 10.4753 58.1998 10.8253 58.8748 11.5503C59.5498 12.2753 59.8998 13.2503 59.8998 14.4753C59.8998 15.7253 59.5248 16.7253 58.8248 17.4753C58.0998 18.2253 57.1248 18.6003 55.8748 18.6003C54.6748 18.6003 53.7248 18.2503 53.0248 17.5503C52.3248 16.8253 51.9748 15.8503 51.9748 14.6503ZM53.8748 14.5753C53.8748 15.3753 54.0498 16.0003 54.4248 16.4253C54.7998 16.8503 55.3248 17.0753 55.9998 17.0753C56.6498 17.0753 57.1748 16.8753 57.5248 16.4253C57.8748 16.0003 58.0498 15.3753 58.0498 14.5253C58.0498 13.7003 57.8748 13.0753 57.5248 12.6253C57.1748 12.2003 56.6498 11.9753 56.0248 11.9753C55.3498 11.9753 54.8498 12.2003 54.4748 12.6503C54.0498 13.1253 53.8748 13.7503 53.8748 14.5753ZM62.6248 12.7003C62.6248 12.9503 62.6998 13.1753 62.8748 13.3253C63.0498 13.4753 63.3998 13.6503 63.9748 13.8753C64.6998 14.1753 65.2248 14.5003 65.4998 14.8503C65.7998 15.2253 65.9498 15.6503 65.9498 16.1753C65.9498 16.9003 65.6748 17.4753 65.0998 17.9253C64.5498 18.3753 63.7748 18.5753 62.8248 18.5753C62.4998 18.5753 62.1498 18.5253 61.7498 18.4503C61.3498 18.3753 61.0248 18.2753 60.7498 18.1503V16.3503C61.0748 16.5753 61.4498 16.7753 61.8248 16.9003C62.1998 17.0253 62.5498 17.1003 62.8748 17.1003C63.2748 17.1003 63.5998 17.0503 63.7748 16.9253C63.9748 16.8003 64.0748 16.6253 64.0748 16.3503C64.0748 16.1003 63.9748 15.9003 63.7748 15.7003C63.5748 15.5253 63.1748 15.3253 62.6248 15.1003C61.9498 14.8253 61.4748 14.5003 61.1998 14.1503C60.9248 13.8003 60.7748 13.3503 60.7748 12.8003C60.7748 12.1003 61.0498 11.5253 61.5998 11.0753C62.1498 10.6253 62.8748 10.4003 63.7498 10.4003C64.0248 10.4003 64.3248 10.4253 64.6498 10.5003C64.9748 10.5753 65.2748 10.6503 65.4998 10.7253V12.5003C65.2498 12.3503 64.9748 12.2003 64.6498 12.0753C64.3248 11.9503 63.9998 11.9003 63.6998 11.9003C63.3498 11.9003 63.0748 11.9753 62.8998 12.1003C62.7248 12.2753 62.6248 12.4503 62.6248 12.7003ZM66.7248 14.6503C66.7248 13.3753 67.0998 12.3503 67.7998 11.6003C68.5248 10.8503 69.5248 10.4753 70.7998 10.4753C71.9998 10.4753 72.9498 10.8253 73.6248 11.5503C74.2998 12.2753 74.6498 13.2503 74.6498 14.4753C74.6498 15.7253 74.2748 16.7253 73.5748 17.4753C72.8498 18.2253 71.8748 18.6003 70.6248 18.6003C69.4248 18.6003 68.4748 18.2503 67.7748 17.5503C67.0998 16.8253 66.7248 15.8503 66.7248 14.6503ZM68.6248 14.5753C68.6248 15.3753 68.7998 16.0003 69.1748 16.4253C69.5498 16.8503 70.0748 17.0753 70.7498 17.0753C71.3998 17.0753 71.9248 16.8753 72.2748 16.4253C72.6248 16.0003 72.7998 15.3753 72.7998 14.5253C72.7998 13.7003 72.6248 13.0753 72.2748 12.6253C71.9248 12.2003 71.3998 11.9753 70.7748 11.9753C70.0998 11.9753 69.5998 12.2003 69.2248 12.6503C68.8248 13.1253 68.6248 13.7503 68.6248 14.5753ZM80.7248 12.1503H77.9998V18.4003H76.1498V12.1503H74.8498V10.6503H76.1498V9.57529C76.1498 8.77529 76.4248 8.10029 76.9498 7.57529C77.4748 7.05029 78.1498 6.80029 78.9748 6.80029C79.1998 6.80029 79.3998 6.82529 79.5748 6.82529C79.7498 6.82529 79.8998 6.87529 80.0248 6.92529V8.50029C79.9748 8.47529 79.8498 8.42529 79.6998 8.37529C79.5498 8.32529 79.3748 8.30029 79.1748 8.30029C78.7998 8.30029 78.4998 8.42529 78.2998 8.65029C78.0998 8.87529 77.9998 9.25029 77.9998 9.70029V10.6253H80.7248V8.87529L82.5498 8.32529V10.6253H84.3998V12.1253H82.5498V15.7503C82.5498 16.2253 82.6498 16.5503 82.7998 16.7503C82.9748 16.9503 83.2498 17.0503 83.6248 17.0503C83.7248 17.0503 83.8498 17.0253 83.9998 16.9753C84.1498 16.9253 84.2748 16.8753 84.3748 16.8003V18.3003C84.2498 18.3753 84.0748 18.4253 83.7998 18.4753C83.5248 18.5253 83.2748 18.5503 82.9998 18.5503C82.2248 18.5503 81.6498 18.3503 81.2748 17.9503C80.8998 17.5503 80.6998 16.9253 80.6998 16.1003L80.7248 12.1503Z" fill="white"/>
<path d="M8.55 4H0V12.55H8.55V4Z" fill="white"/>
<path d="M18.0002 4H9.4502V12.55H18.0002V4Z" fill="white"/>
<path d="M8.55 13.45H0V22H8.55V13.45Z" fill="white"/>
<path d="M18.0002 13.45H9.4502V22H18.0002V13.45Z" fill="white"/>
</g>
<defs>
<clipPath id="clip0_3919_16443">
<rect width="84.4001" height="26" fill="white"/>
</clipPath>
</defs>
</svg>
