<svg width="66" height="26" viewBox="0 0 66 26" fill="none" xmlns="http://www.w3.org/2000/svg">
<g clip-path="url(#clip0_3919_16474)">
<path d="M15.1382 26.6874V19.9286L15.2791 19.7876H16.6871L16.828 19.9286V26.6874L16.6871 26.8285H15.2791L15.1382 26.6874Z" fill="white"/>
<path d="M15.1382 6.89939V0.140945L15.2791 0H16.6871L16.828 0.140945V6.89939L16.6871 7.04033H15.2791L15.1382 6.89939Z" fill="white"/>
<path d="M9.01733 21.8155H8.81823L7.82275 20.8196V20.6204L10.1473 18.2964L11.2015 18.2969L11.3429 18.4373V19.4915L9.01733 21.8155Z" fill="white"/>
<path d="M9.01684 5.01294H8.81774L7.82227 6.00892V6.20802L10.1469 8.53212L11.201 8.53163L11.3424 8.39117V7.33705L9.01684 5.01294Z" fill="white"/>
<path d="M0.140945 12.5696H9.71581L9.85675 12.7105V14.1185L9.71581 14.2595H0.140945L0 14.1185V12.7105L0.140945 12.5696Z" fill="white"/>
<path d="M56.8474 12.5696H65.8593L66.0004 12.7105V14.1185L65.8593 14.2595H56.2846L56.1436 14.1185L56.7064 12.7105L56.8474 12.5696Z" fill="white"/>
<path d="M27.3356 14.0164L27.1947 14.1574H22.8268L22.6859 14.2983C22.6859 14.5802 22.9679 15.4253 24.0949 15.4253C24.5177 15.4253 24.94 15.2844 25.081 15.0025L25.2219 14.8616H26.9128L27.0537 15.0025C26.9128 15.8478 26.2086 17.1162 24.0949 17.1162C21.6998 17.1162 20.5723 15.4253 20.5723 13.4531C20.5723 11.4809 21.6993 9.79004 23.9539 9.79004C26.2086 9.79004 27.3356 11.4809 27.3356 13.4531V14.0169V14.0164ZM25.2219 12.6075C25.2219 12.4665 25.081 11.4804 23.9539 11.4804C22.8268 11.4804 22.6859 12.4665 22.6859 12.6075L22.8268 12.7484H25.081L25.2219 12.6075Z" fill="white"/>
<path d="M31.2808 14.8607C31.2808 15.1425 31.4217 15.2835 31.7037 15.2835H32.9716L33.1126 15.4244V16.8333L32.9716 16.9743H31.7037C30.4356 16.9743 29.3086 16.4105 29.3086 14.8607V11.7608L29.1676 11.6199H28.1816L28.0405 11.4789V10.07L28.1816 9.92904H29.1676L29.3086 9.78811V8.5201L29.4495 8.37915H31.1403L31.2812 8.5201V9.78811L31.4223 9.92904H32.9721L33.1131 10.07V11.4789L32.9721 11.6199H31.4223L31.2812 11.7608V14.8607H31.2808Z" fill="white"/>
<path d="M36.494 16.974H34.8031L34.6621 16.833V7.25227L34.8031 7.11133H36.494L36.6349 7.25227V16.833L36.494 16.974Z" fill="white"/>
<path d="M40.2977 8.80218H38.6068L38.4658 8.66123V7.25227L38.6068 7.11133H40.2977L40.4386 7.25227V8.66123L40.2977 8.80218ZM40.2977 16.974H38.6068L38.4658 16.833V10.0702L38.6068 9.92924H40.2977L40.4386 10.0702V16.833L40.2977 16.974Z" fill="white"/>
<path d="M46.9198 7.25227V8.66123L46.7787 8.80218H45.5108C45.2289 8.80218 45.0879 8.94312 45.0879 9.225V9.78879L45.2289 9.92973H46.6378L46.7787 10.0707V11.4796L46.6378 11.6206H45.2289L45.0879 11.7615V16.8335L44.947 16.9744H43.2561L43.1152 16.8335V11.7615L42.9742 11.6206H41.9882L41.8472 11.4796V10.0707L41.9882 9.92973H42.9742L43.1152 9.78879V9.225C43.1152 7.67511 44.2422 7.11133 45.5103 7.11133H46.7782L46.9192 7.25227H46.9198Z" fill="white"/>
<path d="M52.1325 17.1156C51.5687 18.5246 51.0055 19.3698 49.0327 19.3698H48.328L48.1871 19.2288V17.8199L48.328 17.679H49.0327C49.7369 17.679 49.8778 17.5379 50.0188 17.1151V16.9742L47.7646 11.4793V10.0704L47.9057 9.92944H49.1736L49.3146 10.0704L51.0055 14.8611H51.1464L52.8372 10.0704L52.9781 9.92944H54.2462L54.3871 10.0704V11.4793L52.133 17.1151L52.1325 17.1156Z" fill="white"/>
<path d="M17.461 16.9738L17.3201 16.8328L17.321 12.7503C17.321 12.0461 17.0442 11.5001 16.194 11.4823C15.7569 11.471 15.2567 11.4814 14.7224 11.504L14.6426 11.5858L14.6437 16.8328L14.5026 16.9738H12.8123L12.6714 16.8328V9.99453L12.8123 9.85359L16.6163 9.81909C18.5221 9.81909 19.2933 11.1285 19.2933 12.6064V16.8328L19.1524 16.9738H17.461Z" fill="white"/>
</g>
<defs>
<clipPath id="clip0_3919_16474">
<rect width="66.0004" height="26" fill="white"/>
</clipPath>
</defs>
</svg>
