<svg width="107" height="26" viewBox="0 0 107 26" fill="none" xmlns="http://www.w3.org/2000/svg">
<g clipPath="url(#clip0_3919_16549)">
<path d="M26.1588 5C29.6653 5 32.508 7.84264 32.508 11.3492C32.508 14.8558 29.6653 17.6984 26.1588 17.6984C22.6522 17.6984 19.8096 14.8558 19.8096 11.3492C19.8096 9.90442 20.3025 8.50287 21.2066 7.37599C21.5746 7.79894 21.7076 8.0494 22.0953 8.68254H22.3175C22.1212 8.1977 21.8325 7.72604 21.4436 7.09772C22.6475 5.76245 24.361 5.00014 26.1588 5ZM26.1588 7.79365C24.1951 7.79365 22.6032 9.38553 22.6032 11.3492C22.6032 13.3129 24.1951 14.9048 26.1588 14.9048C28.1225 14.9048 29.7143 13.3129 29.7143 11.3492C29.7143 9.38553 28.1225 7.79365 26.1588 7.79365Z" fill="white"/>
<path d="M16.254 5C12.7474 5 9.90479 7.84264 9.90479 11.3492C9.90529 12.7932 10.398 14.1938 11.3016 15.3201C11.3042 15.3168 11.3061 15.3142 11.3087 15.3109C11.3095 15.3119 11.3102 15.3129 11.311 15.3139C11.372 15.2372 11.4306 15.1588 11.488 15.0794C11.7545 14.7304 11.9388 14.4379 12.1183 13.995C12.1345 13.9597 12.1508 13.9246 12.1663 13.8889H12.381C12.335 14.0786 12.2705 14.2645 12.1909 14.453C12.0134 14.8336 11.7928 15.239 11.5686 15.6028C11.565 15.6087 11.5622 15.6138 11.5586 15.6197C12.7612 16.9428 14.466 17.6976 16.254 17.6984C18.042 17.6976 19.7468 16.9428 20.9494 15.6197C20.9458 15.6138 20.943 15.6087 20.9394 15.6028C20.7152 15.239 20.4946 14.8336 20.3171 14.453C20.2375 14.2645 20.173 14.0786 20.127 13.8889H20.3417C20.3572 13.9246 20.3735 13.9597 20.3897 13.995C20.5692 14.4379 20.7535 14.7304 21.02 15.0794C21.0774 15.1588 21.136 15.2372 21.1969 15.3139C21.1977 15.3129 21.1985 15.3119 21.1993 15.3109C21.2019 15.3142 21.2037 15.3168 21.2064 15.3201C22.11 14.1938 22.6027 12.7932 22.6032 11.3492C22.6032 7.84264 19.7606 5 16.254 5ZM16.254 7.79365C18.2177 7.79365 19.8095 9.38553 19.8095 11.3492C19.8095 13.3129 18.2177 14.9048 16.254 14.9048C14.2903 14.9048 12.6984 13.3129 12.6984 11.3492C12.6984 11.2878 12.7 11.2269 12.703 11.1663C12.7983 9.28765 14.3517 7.79365 16.254 7.79365Z" fill="white"/>
<path d="M6.34921 5C2.84264 5 0 7.84264 0 11.3492C0 14.8558 2.84264 17.6984 6.34921 17.6984C9.85578 17.6984 12.6984 14.8558 12.6984 11.3492C12.6983 9.90442 12.2055 8.50287 11.3013 7.37599C10.9334 7.79894 10.8003 8.0494 10.4127 8.68254H10.1905C10.3868 8.1977 10.6755 7.72604 11.0644 7.09772C9.86052 5.76245 8.14703 5.00014 6.34921 5ZM6.34921 7.79365C8.31289 7.79365 9.90476 9.38553 9.90476 11.3492C9.90476 13.3129 8.31289 14.9048 6.34921 14.9048C4.38553 14.9048 2.79365 13.3129 2.79365 11.3492C2.79365 9.38553 4.38553 7.79365 6.34921 7.79365Z" fill="white"/>
<path d="M41.8764 17.3476C41.2238 17.3476 40.621 17.2646 40.068 17.0986C39.515 16.9216 39.0173 16.6671 38.5749 16.3352C38.1325 15.9921 37.7399 15.5717 37.397 15.0738L38.7076 13.58C39.2495 14.3435 39.7749 14.8746 40.2837 15.1734C40.7925 15.4611 41.3843 15.6049 42.059 15.6049C42.4572 15.6049 42.8167 15.5441 43.1374 15.4223C43.4581 15.3006 43.7125 15.1291 43.9005 14.9078C44.0885 14.6865 44.1826 14.4376 44.1826 14.1609C44.1826 13.9617 44.1494 13.7792 44.083 13.6132C44.0166 13.4362 43.9116 13.2812 43.7678 13.1485C43.624 13.0157 43.447 12.894 43.2369 12.7833C43.0267 12.6616 42.7834 12.5565 42.5069 12.468C42.2304 12.3795 41.9152 12.3075 41.5612 12.2522C40.964 12.1194 40.4386 11.9535 39.9851 11.7543C39.5427 11.5551 39.1666 11.3062 38.8569 11.0074C38.5583 10.7086 38.3371 10.3656 38.1934 9.9783C38.0496 9.59103 37.9777 9.1595 37.9777 8.68371C37.9777 8.20794 38.0827 7.77088 38.2929 7.37254C38.5031 6.96314 38.7906 6.60907 39.1556 6.31032C39.5206 6.01157 39.9519 5.78473 40.4496 5.62982C40.9473 5.46385 41.4782 5.38086 42.0424 5.38086C42.6728 5.38086 43.2369 5.45831 43.7346 5.61322C44.2434 5.76813 44.6913 6.00049 45.0785 6.3103C45.4656 6.60905 45.7919 6.97971 46.0573 7.42229L44.7135 8.73346C44.4812 8.37938 44.2269 8.08615 43.9504 7.85378C43.6849 7.61035 43.3863 7.42778 43.0545 7.30607C42.7227 7.18435 42.3743 7.12349 42.0093 7.12349C41.6 7.12349 41.2406 7.18988 40.9309 7.32266C40.6323 7.44438 40.3945 7.61589 40.2176 7.83718C40.0406 8.05847 39.9521 8.31852 39.9521 8.6173C39.9521 8.8386 39.9963 9.0433 40.0848 9.2314C40.1844 9.40843 40.3226 9.56887 40.4996 9.71272C40.6876 9.85656 40.931 9.98381 41.2296 10.0945C41.5282 10.2051 41.8766 10.2992 42.2748 10.3766C42.8831 10.5094 43.4251 10.6809 43.9007 10.8911C44.3874 11.0903 44.7966 11.3282 45.1284 11.6048C45.4713 11.8814 45.7257 12.1968 45.8916 12.5509C46.0685 12.9049 46.157 13.2867 46.157 13.6961C46.157 14.4485 45.98 15.1014 45.6261 15.6547C45.2832 16.1968 44.791 16.6173 44.1496 16.916C43.5081 17.2037 42.7504 17.3476 41.8765 17.3476L41.8764 17.3476Z" fill="white"/>
<path d="M51.7939 17.3477C50.887 17.3477 50.0851 17.1596 49.3882 16.7834C48.6914 16.3961 48.1439 15.8705 47.7457 15.2065C47.3586 14.5316 47.165 13.7626 47.165 12.8995C47.165 12.2135 47.2756 11.5883 47.4969 11.024C47.7181 10.4597 48.0222 9.9728 48.4093 9.5634C48.8075 9.14294 49.2776 8.82205 49.8195 8.60074C50.3725 8.36838 50.9698 8.2522 51.6113 8.2522C52.1865 8.2522 52.7174 8.36285 53.2041 8.58414C53.7018 8.79438 54.1331 9.09313 54.4981 9.48039C54.8631 9.8566 55.1396 10.3047 55.3276 10.8248C55.5267 11.3449 55.6208 11.9092 55.6097 12.5178L55.5931 13.2481H48.4927L48.1111 11.8705H53.9843L53.7355 12.1526V11.7709C53.7023 11.4168 53.5861 11.107 53.387 10.8414C53.1879 10.5647 52.9336 10.349 52.6239 10.1941C52.3253 10.0281 51.9935 9.94511 51.6285 9.94511C51.0534 9.94511 50.5722 10.0558 50.1851 10.2771C49.798 10.4873 49.4993 10.8027 49.2892 11.2232C49.0901 11.6436 48.9906 12.1582 48.9906 12.7668C48.9906 13.3532 49.1122 13.8622 49.3556 14.2937C49.61 14.7253 49.9639 15.0628 50.4173 15.3062C50.8708 15.5385 51.3961 15.6547 51.9934 15.6547C52.4137 15.6547 52.8008 15.5883 53.1547 15.4555C53.5087 15.3117 53.8958 15.0627 54.316 14.7086L55.2451 16.0198C54.9686 16.2854 54.6368 16.5177 54.2497 16.7169C53.8625 16.916 53.4589 17.071 53.0386 17.1816C52.6183 17.2923 52.2035 17.3476 51.7943 17.3476L51.7939 17.3477Z" fill="white"/>
<path d="M57.0957 17.182V8.45185H58.9705V10.261L58.6553 10.427C58.7548 10.1393 58.8986 9.86818 59.0867 9.61369C59.2858 9.35919 59.5235 9.13236 59.8 8.93319C60.0765 8.73402 60.3752 8.57911 60.6959 8.46846C61.0166 8.35782 61.3429 8.30249 61.6748 8.30249C62.1614 8.30249 62.5872 8.38548 62.9522 8.55145C63.3283 8.70635 63.638 8.94424 63.8813 9.26509C64.1357 9.58597 64.3238 9.99539 64.4454 10.4933L64.1468 10.4435L64.2629 10.1614C64.3957 9.9069 64.5671 9.66901 64.7773 9.44774C64.9985 9.21538 65.2473 9.01621 65.5238 8.85024C65.8003 8.67321 66.0934 8.54043 66.4031 8.45191C66.7128 8.35232 67.0114 8.30253 67.299 8.30253C67.9626 8.30253 68.5101 8.43531 68.9415 8.70087C69.3728 8.96642 69.6991 9.37029 69.9204 9.91248C70.1416 10.4547 70.2522 11.1241 70.2522 11.9208V17.1822H68.3607V12.0536C68.3607 11.5778 68.2999 11.1906 68.1782 10.8918C68.0566 10.593 67.8741 10.3717 67.6307 10.2279C67.3874 10.073 67.0722 9.99554 66.6851 9.99554C66.3975 9.99554 66.121 10.0453 65.8555 10.1449C65.6011 10.2445 65.3799 10.3828 65.192 10.5599C65.0039 10.7369 64.8546 10.9471 64.744 11.1905C64.6445 11.4229 64.5947 11.683 64.5947 11.9707V17.1822H62.7034V12.0204C62.7034 11.5889 62.637 11.2238 62.5043 10.925C62.3826 10.6152 62.2001 10.3828 61.9568 10.2279C61.7134 10.073 61.4148 9.99559 61.0609 9.99559C60.7733 9.99559 60.5023 10.0454 60.248 10.145C59.9936 10.2446 59.7724 10.3829 59.5844 10.5599C59.3964 10.7259 59.2471 10.9306 59.1365 11.174C59.0369 11.4064 58.9871 11.6609 58.9871 11.9375V17.1822L57.0957 17.182Z" fill="white"/>
<path d="M76.1341 20.9996C75.5036 20.9996 74.8732 20.9 74.2426 20.7008C73.6122 20.5017 73.0979 20.2472 72.6998 19.9374L73.3965 18.5099C73.6177 18.6759 73.8721 18.8198 74.1596 18.9415C74.4583 19.0743 74.768 19.1738 75.0887 19.2402C75.4206 19.3177 75.7524 19.3564 76.0842 19.3564C76.6814 19.3564 77.1791 19.2568 77.5773 19.0576C77.9755 18.8695 78.2741 18.5819 78.4732 18.1946C78.6833 17.8184 78.7884 17.3481 78.7884 16.7838V15.1572L79.0207 15.2568C78.9654 15.6109 78.7829 15.9428 78.4732 16.2527C78.1745 16.5625 77.7985 16.817 77.345 17.0162C76.8916 17.2043 76.427 17.2983 75.9514 17.2983C75.1329 17.2983 74.3974 17.1047 73.7448 16.7174C73.1033 16.3301 72.5945 15.799 72.2184 15.124C71.8534 14.4491 71.6709 13.6745 71.6709 12.8004C71.6709 11.9262 71.8534 11.1517 72.2184 10.4767C72.5834 9.7907 73.0867 9.25405 73.7281 8.86679C74.3696 8.46845 75.0941 8.26929 75.9016 8.26929C76.2335 8.26929 76.5542 8.31355 76.8639 8.40206C77.1736 8.47952 77.4611 8.59017 77.7266 8.73401C77.992 8.87786 78.2243 9.03829 78.4233 9.21533C78.6335 9.39236 78.8049 9.58046 78.9376 9.77963C79.0704 9.9788 79.1533 10.1669 79.1865 10.3439L78.8049 10.4767L78.8215 8.45177H80.6631V16.6181C80.6631 17.3152 80.558 17.9348 80.3479 18.477C80.1488 19.0192 79.8502 19.4784 79.452 19.8546C79.0649 20.2308 78.5893 20.513 78.0252 20.7011C77.4722 20.9003 76.8417 20.9998 76.1337 20.9998L76.1341 20.9996ZM76.2005 15.6387C76.7203 15.6387 77.1793 15.517 77.5775 15.2735C77.9867 15.0301 78.3019 14.6981 78.5232 14.2777C78.7444 13.8572 78.855 13.3648 78.855 12.8005C78.855 12.2472 78.7388 11.7548 78.5066 11.3233C78.2854 10.8917 77.9757 10.5543 77.5775 10.3108C77.1793 10.0674 76.7203 9.94568 76.2004 9.94568C75.6917 9.94568 75.2382 10.0729 74.84 10.3274C74.4419 10.5709 74.1322 10.9083 73.9109 11.3399C73.6897 11.7714 73.5791 12.2582 73.5791 12.8004C73.5791 13.3537 73.6897 13.8461 73.9109 14.2776C74.1322 14.6981 74.4419 15.03 74.84 15.2735C75.2382 15.5169 75.6917 15.6387 76.2005 15.6387Z" fill="white"/>
<path d="M82.4009 17.1818V8.45173H84.2591L84.2922 11.2068L84.06 10.5761C84.1816 10.1446 84.3918 9.75731 84.6904 9.41429C84.9891 9.06021 85.332 8.78358 85.7191 8.58439C86.1062 8.37416 86.5044 8.26904 86.9136 8.26904C87.1016 8.26904 87.2841 8.28564 87.4611 8.31883C87.6381 8.35203 87.7763 8.39076 87.8759 8.43502L87.3781 10.4765C87.2454 10.4212 87.0961 10.3769 86.9302 10.3438C86.7643 10.2995 86.5984 10.2774 86.4324 10.2774C86.1449 10.2774 85.8684 10.3327 85.6029 10.4433C85.3485 10.554 85.1218 10.7089 84.9227 10.9081C84.7347 11.0962 84.5798 11.323 84.4582 11.5886C84.3476 11.8431 84.2923 12.1252 84.2923 12.435V17.1818L82.4009 17.1818Z" fill="white"/>
<path d="M92.331 17.3477C91.424 17.3477 90.6221 17.1596 89.9253 16.7834C89.2285 16.3961 88.681 15.8705 88.2828 15.2065C87.8957 14.5316 87.7021 13.7626 87.7021 12.8995C87.7021 12.2135 87.8128 11.5883 88.034 11.024C88.2552 10.4597 88.5593 9.9728 88.9464 9.5634C89.3446 9.14294 89.8147 8.82205 90.3566 8.60074C90.9096 8.36838 91.5069 8.2522 92.1484 8.2522C92.7235 8.2522 93.2544 8.36285 93.741 8.58414C94.2387 8.79438 94.6701 9.09313 95.0351 9.48039C95.4001 9.8566 95.6767 10.3047 95.8647 10.8248C96.0638 11.3449 96.1578 11.9092 96.1467 12.5178L96.1301 13.2481H89.0297L88.6481 11.8705H94.5213L94.2725 12.1526V11.7709C94.2393 11.4168 94.1232 11.107 93.9241 10.8414C93.725 10.5647 93.4706 10.349 93.1609 10.1941C92.8623 10.0281 92.5305 9.94511 92.1655 9.94511C91.5904 9.94511 91.1093 10.0558 90.7222 10.2771C90.335 10.4873 90.0364 10.8027 89.8263 11.2232C89.6272 11.6436 89.5277 12.1582 89.5277 12.7668C89.5277 13.3532 89.6493 13.8622 89.8926 14.2937C90.147 14.7253 90.501 15.0628 90.9544 15.3062C91.4078 15.5385 91.9332 15.6547 92.5305 15.6547C92.9508 15.6547 93.3379 15.5883 93.6918 15.4555C94.0458 15.3117 94.4329 15.0627 94.8531 14.7086L95.7822 16.0198C95.5057 16.2854 95.1739 16.5177 94.7868 16.7169C94.3996 16.916 93.9959 17.071 93.5757 17.1816C93.1554 17.2923 92.7406 17.3476 92.3314 17.3476L92.331 17.3477Z" fill="white"/>
<path d="M97.3218 20.8334V8.45187H99.18L99.1965 10.4436L98.8979 10.2942C98.9643 9.95122 99.1523 9.63033 99.462 9.33156C99.7717 9.02175 100.148 8.77278 100.59 8.58465C101.044 8.39654 101.514 8.30249 102 8.30249C102.775 8.30249 103.46 8.49613 104.058 8.88339C104.666 9.27066 105.147 9.80179 105.501 10.4768C105.855 11.1517 106.032 11.9263 106.032 12.8004C106.032 13.6745 105.855 14.4546 105.501 15.1406C105.158 15.8155 104.683 16.3522 104.074 16.7505C103.477 17.1378 102.797 17.3314 102.034 17.3314C101.525 17.3314 101.033 17.2318 100.557 17.0327C100.092 16.8335 99.6943 16.5735 99.3625 16.2526C99.0307 15.9317 98.8261 15.5942 98.7486 15.2401L99.2132 15.0078V20.8334L97.3218 20.8334ZM101.685 15.6385C102.172 15.6385 102.603 15.5168 102.979 15.2734C103.366 15.0299 103.671 14.698 103.892 14.2775C104.113 13.846 104.224 13.3536 104.224 12.8003C104.224 12.2581 104.113 11.7768 103.892 11.3563C103.682 10.9358 103.383 10.6039 102.996 10.3604C102.62 10.117 102.183 9.99529 101.685 9.99529C101.188 9.99529 100.745 10.117 100.358 10.3604C99.9819 10.5928 99.6833 10.9247 99.4621 11.3563C99.2408 11.7768 99.1302 12.2581 99.1302 12.8003C99.1302 13.3536 99.2408 13.846 99.4621 14.2775C99.6833 14.698 99.9819 15.0299 100.358 15.2734C100.745 15.5168 101.187 15.6385 101.685 15.6385Z" fill="white"/>
</g>
<defs>
<clipPath id="clip0_3919_16549">
<rect width="106.032" height="26" fill="white"/>
</clipPath>
</defs>
</svg>
