<svg width="102" height="26" viewBox="0 0 102 26" fill="none" xmlns="http://www.w3.org/2000/svg">
<path d="M11.2865 21.4487C10.3783 21.6108 9.50267 21.027 9.3405 20.1189L6.87564 6.65948C6.71348 5.75137 7.29726 4.87569 8.20537 4.71353C9.11348 4.55137 9.98915 5.13515 10.1513 6.04326L12.6162 19.5027C12.7783 20.4108 12.1621 21.2865 11.2865 21.4487Z" fill="white"/>
<path d="M4.83236 19.1458C4.24858 19.2431 3.6648 19.0485 3.24318 18.5945C2.65939 17.881 2.72426 16.8431 3.43777 16.2593L13.8486 7.40528C14.5621 6.8215 15.5999 6.88637 16.1837 7.59988C16.7675 8.31339 16.7026 9.35123 15.9891 9.93501L5.61074 18.7891C5.38372 18.9837 5.09182 19.1134 4.83236 19.1458Z" fill="white"/>
<path d="M16.4758 17.0053C16.184 17.0702 15.8921 17.0377 15.6326 16.9405L2.7245 12.3675C1.84882 12.0432 1.39477 11.1026 1.71909 10.2269C2.04342 9.35126 2.98396 8.89721 3.85963 9.22153L16.7353 13.7945C17.611 14.1188 18.065 15.0594 17.7407 15.935C17.5461 16.5188 17.0272 16.908 16.4758 17.0053Z" fill="white"/>
<path d="M27.2431 15.3837C27.2431 15.0594 27.1133 14.7999 26.8863 14.6053C26.6593 14.4107 26.3674 14.2161 26.0106 14.054C25.6539 13.8918 25.2647 13.7296 24.8431 13.535C24.4214 13.3729 24.0322 13.1459 23.6755 12.8864C23.3187 12.6269 23.0268 12.3026 22.7998 11.9134C22.5728 11.5242 22.4431 11.0377 22.4431 10.454C22.4431 9.93504 22.5404 9.48099 22.7025 9.12423C22.8647 8.73504 23.1241 8.44315 23.4485 8.18369C23.7728 7.92423 24.1295 7.76207 24.5836 7.63234C25.0052 7.50261 25.4917 7.43774 26.0431 7.43774C26.6593 7.43774 27.2431 7.50261 27.762 7.59991C28.2809 7.6972 28.7674 7.85937 29.0917 8.05396L28.4431 9.77288C28.216 9.64315 27.8917 9.51342 27.4376 9.41612C26.9836 9.28639 26.5295 9.25396 26.0106 9.25396C25.5241 9.25396 25.1674 9.35126 24.9079 9.54585C24.6485 9.74045 24.5187 9.99991 24.5187 10.3242C24.5187 10.6161 24.6485 10.8756 24.8755 11.0702C25.1025 11.2648 25.3944 11.4594 25.7512 11.6215C26.1079 11.7837 26.4971 11.9783 26.9187 12.1404C27.3404 12.335 27.7295 12.5296 28.0863 12.7891C28.4431 13.0486 28.7349 13.3729 28.962 13.7296C29.189 14.1188 29.3187 14.5729 29.3187 15.1242C29.3187 15.6756 29.2214 16.1621 29.0268 16.5837C28.8322 17.0053 28.5728 17.3296 28.2485 17.5891C27.9241 17.8486 27.5025 18.0756 27.016 18.2053C26.5295 18.335 26.0106 18.3999 25.4268 18.3999C24.6809 18.3999 23.9998 18.335 23.4485 18.1729C22.8647 18.0431 22.4431 17.881 22.1836 17.7513L22.8322 15.9999C22.9295 16.0648 23.0917 16.1296 23.2539 16.1945C23.416 16.2594 23.6431 16.3242 23.8376 16.3891C24.0647 16.454 24.2917 16.4864 24.5512 16.5513C24.8106 16.5837 25.0376 16.6161 25.2971 16.6161C25.9133 16.6161 26.3674 16.5188 26.6917 16.2918C27.0809 16.0972 27.2431 15.8053 27.2431 15.3837ZM30.1944 14.4432C30.1944 13.1783 30.5187 12.1729 31.1349 11.4918C31.7512 10.8107 32.6268 10.454 33.762 10.454C34.3782 10.454 34.8971 10.5513 35.3187 10.7459C35.7728 10.9404 36.1295 11.1999 36.4214 11.5567C36.7133 11.9134 36.9404 12.335 37.0701 12.8215C37.1998 13.308 37.2971 13.8594 37.2971 14.4432C37.2971 15.708 36.9728 16.7134 36.3566 17.3945C35.7403 18.0756 34.8647 18.4323 33.7295 18.4323C33.1133 18.4323 32.5944 18.335 32.1728 18.1404C31.7187 17.9459 31.362 17.6864 31.0701 17.3296C30.7782 16.9729 30.5512 16.5513 30.4214 16.0648C30.2593 15.5783 30.1944 15.0269 30.1944 14.4432ZM32.2052 14.4432C32.2052 14.7675 32.2376 15.0918 32.3025 15.3513C32.3674 15.6431 32.4647 15.8702 32.562 16.0972C32.6917 16.3242 32.8539 16.4864 33.0485 16.5837C33.2431 16.7134 33.4701 16.7459 33.762 16.7459C34.2809 16.7459 34.6701 16.5513 34.8971 16.1945C35.1566 15.8377 35.2863 15.2215 35.2863 14.4432C35.2863 13.7621 35.1566 13.1783 34.9295 12.7567C34.7025 12.335 34.3133 12.108 33.762 12.108C33.2755 12.108 32.8863 12.3026 32.6268 12.6594C32.3349 13.0161 32.2052 13.5999 32.2052 14.4432ZM40.2485 10.681V14.9621C40.2485 15.5783 40.3133 16.0323 40.4755 16.2918C40.6052 16.5513 40.8971 16.7134 41.3187 16.7134C41.6755 16.7134 41.9998 16.6161 42.2593 16.3891C42.5187 16.1621 42.6809 15.9026 42.8106 15.5783V10.7134H44.7566V15.9675C44.7566 16.3891 44.789 16.7783 44.8214 17.1675C44.8539 17.5567 44.9187 17.9134 45.016 18.2377H43.5241L43.1674 17.135H43.1025C42.8755 17.5242 42.5512 17.8486 42.1295 18.0756C41.7079 18.335 41.2214 18.4648 40.6701 18.4648C40.2809 18.4648 39.9566 18.3999 39.6322 18.3026C39.3403 18.2053 39.0809 18.0431 38.8863 17.8161C38.6917 17.5891 38.5295 17.2648 38.4322 16.8756C38.3349 16.4864 38.2701 15.9675 38.2701 15.3513V10.681H40.2485ZM50.4322 12.4972C50.1079 12.3999 49.8485 12.335 49.589 12.335C49.2322 12.335 48.9403 12.4323 48.7133 12.6269C48.4863 12.8215 48.3241 13.0486 48.2268 13.3404V18.2053H46.2809V10.681H47.8052L48.0322 11.6864H48.0971C48.2593 11.3296 48.4863 11.0377 48.7782 10.8107C49.0701 10.5837 49.4268 10.5188 49.816 10.5188C50.0755 10.5188 50.6268 10.6486 50.9187 10.7783L50.4322 12.4972ZM56.789 17.7513C56.4971 17.9783 56.1079 18.1404 55.6863 18.2702C55.2647 18.3999 54.8106 18.4323 54.3566 18.4323C53.7404 18.4323 53.2539 18.335 52.8322 18.1404C52.4106 17.9459 52.0863 17.6864 51.8268 17.3296C51.5674 16.9729 51.3728 16.5513 51.2755 16.0648C51.1458 15.5783 51.1133 15.0269 51.1133 14.4432C51.1133 13.1783 51.4052 12.1729 51.989 11.4918C52.5728 10.8107 53.3836 10.454 54.4863 10.454C55.0376 10.454 55.4917 10.4864 55.816 10.5837C56.1404 10.681 56.4647 10.7783 56.7241 10.9404L56.2701 12.5296C56.0431 12.4323 55.816 12.335 55.589 12.2702C55.362 12.2053 55.1025 12.1729 54.8106 12.1729C54.2593 12.1729 53.8701 12.3675 53.5782 12.7242C53.2863 13.081 53.1566 13.6648 53.1566 14.4432C53.1566 14.7675 53.189 15.0594 53.2539 15.3188C53.3187 15.5783 53.416 15.8377 53.5782 16.0323C53.7079 16.2269 53.9025 16.3891 54.1295 16.5188C54.3566 16.6486 54.616 16.681 54.9079 16.681C55.2322 16.681 55.5241 16.6486 55.7512 16.5513C55.9782 16.454 56.1728 16.3567 56.3674 16.2269L56.789 17.7513ZM63.6971 17.5567C63.4052 17.7837 62.9836 18.0107 62.4647 18.1729C61.9458 18.335 61.3944 18.4323 60.8106 18.4323C59.5782 18.4323 58.7025 18.0756 58.1512 17.3621C57.5998 16.6486 57.3079 15.6756 57.3079 14.4432C57.3079 13.1134 57.6322 12.108 58.2485 11.4594C58.8647 10.8107 59.7728 10.454 60.9079 10.454C61.2971 10.454 61.6539 10.5188 62.0106 10.6161C62.3674 10.7134 62.6917 10.8756 62.9836 11.1026C63.2755 11.3296 63.5025 11.654 63.6647 12.0431C63.8268 12.4323 63.9241 12.9188 63.9241 13.5026C63.9241 13.7296 63.9241 13.9242 63.8917 14.1837C63.8593 14.4107 63.8268 14.6702 63.7944 14.9296H59.2539C59.2863 15.5783 59.4485 16.0323 59.7404 16.3567C60.0322 16.681 60.5187 16.8431 61.1674 16.8431C61.589 16.8431 61.9458 16.7783 62.2701 16.6486C62.5944 16.5188 62.8539 16.3891 63.016 16.2594L63.6971 17.5567ZM60.8755 12.0107C60.3566 12.0107 59.9674 12.1729 59.7404 12.4648C59.4809 12.7567 59.3512 13.1783 59.2863 13.6972H62.0755C62.1079 13.1459 62.0431 12.7242 61.816 12.4323C61.6539 12.1729 61.3295 12.0107 60.8755 12.0107ZM71.5458 18.2053C71.5458 19.308 71.2539 20.1188 70.6701 20.6377C70.0863 21.1567 69.243 21.4161 68.1728 21.4161C67.4593 21.4161 66.8755 21.3513 66.4539 21.254C66.0322 21.1567 65.7079 21.0594 65.5133 20.9296L65.9349 19.3729C66.162 19.4702 66.4214 19.5675 66.7458 19.6323C67.0701 19.6972 67.4268 19.7621 67.8809 19.7621C68.562 19.7621 69.016 19.5999 69.2755 19.308C69.535 19.0161 69.6322 18.5945 69.6322 18.0756V17.6215H69.5674C69.2106 18.108 68.5944 18.335 67.6863 18.335C66.7133 18.335 65.9998 18.0431 65.5133 17.4269C65.0268 16.8107 64.7998 15.8702 64.7998 14.6053C64.7998 13.2432 65.1241 12.2377 65.7728 11.5567C66.4214 10.8756 67.362 10.5188 68.562 10.5188C69.2106 10.5188 69.7944 10.5513 70.2809 10.6486C70.7674 10.7459 71.189 10.8431 71.5133 10.9729V18.2053H71.5458ZM68.2377 16.7459C68.6268 16.7459 68.9187 16.6486 69.1133 16.4864C69.3079 16.3242 69.4701 16.0648 69.5998 15.708V12.335C69.2755 12.2053 68.8863 12.1404 68.4322 12.1404C67.9133 12.1404 67.5241 12.335 67.2647 12.6918C66.9728 13.081 66.8431 13.6648 66.8431 14.508C66.8431 15.254 66.9728 15.8053 67.1998 16.1945C67.4268 16.5837 67.7836 16.7459 68.2377 16.7459ZM77.2214 12.4972C76.8971 12.3999 76.6377 12.335 76.3782 12.335C76.0214 12.335 75.7295 12.4323 75.5025 12.6269C75.2755 12.8215 75.1133 13.0486 75.016 13.3404V18.2053H73.0701V10.681H74.5944L74.8214 11.6864H74.8863C75.0485 11.3296 75.2755 11.0377 75.5674 10.8107C75.8593 10.5837 76.216 10.5188 76.6052 10.5188C76.8647 10.5188 77.1566 10.5837 77.4809 10.681L77.2214 12.4972ZM78.162 11.0377C78.5512 10.8431 78.8431 10.7783 79.3944 10.681C79.9458 10.5837 80.5295 10.5188 81.1133 10.5188C81.6322 10.5188 82.0863 10.5837 82.4106 10.7134C82.735 10.8431 83.0268 11.0053 83.2539 11.2648C83.4485 11.4918 83.6106 11.7837 83.6755 12.108C83.7728 12.4323 83.8052 12.7891 83.8052 13.1783C83.8052 13.6323 83.8052 14.054 83.7728 14.508C83.7404 14.9621 83.7404 15.3837 83.7079 15.8377C83.7079 16.2594 83.7079 16.681 83.7404 17.1026C83.7728 17.5242 83.8377 17.881 83.9674 18.2702H82.3782L82.0539 17.2323C81.8593 17.5567 81.5674 17.8161 81.2106 18.0431C80.8539 18.2702 80.3998 18.3675 79.816 18.3675C79.4593 18.3675 79.1349 18.3026 78.8755 18.2053C78.5836 18.108 78.3566 17.9459 78.162 17.7513C77.9674 17.5567 77.8052 17.3296 77.7079 17.0702C77.6106 16.8107 77.5458 16.5188 77.5458 16.1621C77.5458 15.708 77.6431 15.3188 77.8701 14.9945C78.0971 14.6702 78.3566 14.4107 78.7458 14.2161C79.1349 14.0215 79.589 13.8918 80.1404 13.7945C80.6917 13.6972 81.2755 13.6972 81.9566 13.7296C82.0214 13.1783 81.989 12.7567 81.8268 12.5296C81.6647 12.2702 81.3404 12.1729 80.8214 12.1729C80.4322 12.1729 80.0106 12.2053 79.589 12.3026C79.1674 12.3999 78.9728 12.4323 78.7133 12.5621L78.162 11.0377ZM80.4647 16.7134C80.8539 16.7134 81.1782 16.6161 81.4052 16.454C81.6322 16.2918 81.7944 16.0972 81.9241 15.9026V14.9296C81.5998 14.8972 81.3079 14.8972 81.016 14.9296C80.7241 14.9621 80.4647 14.9945 80.2701 15.0594C80.0755 15.1242 79.8809 15.2215 79.7512 15.3513C79.6214 15.481 79.5566 15.6431 79.5566 15.8377C79.5566 16.1296 79.6539 16.3242 79.816 16.4864C79.9458 16.6486 80.1728 16.7134 80.4647 16.7134ZM85.3295 10.681H86.7566L86.9836 11.5891H87.0485C87.3079 11.1999 87.6322 10.9404 87.989 10.7459C88.3458 10.5513 88.7674 10.4864 89.2863 10.4864C90.2268 10.4864 90.9404 10.7783 91.4268 11.3945C91.9133 12.0107 92.1404 12.9513 92.1404 14.281C92.1404 14.9296 92.0755 15.5134 91.9133 16.0323C91.7512 16.5513 91.5241 17.0053 91.2322 17.3621C90.9404 17.7188 90.5836 18.0107 90.162 18.2053C89.7404 18.3999 89.2539 18.4972 88.7025 18.4972C88.3782 18.4972 88.1187 18.4648 87.9241 18.4323C87.7295 18.3999 87.535 18.3026 87.3079 18.2053V21.2864H85.362V10.681H85.3295ZM88.6701 12.108C88.2809 12.108 87.989 12.2053 87.762 12.3999C87.535 12.5945 87.3728 12.8864 87.2431 13.2756V16.4215C87.3728 16.5188 87.535 16.6161 87.6971 16.681C87.8593 16.7459 88.0863 16.7783 88.3458 16.7783C88.8971 16.7783 89.3187 16.5837 89.6106 16.1945C89.9025 15.8053 90.0322 15.1567 90.0322 14.2161C90.0322 13.5675 89.935 13.0486 89.7079 12.6918C89.5133 12.3026 89.1566 12.108 88.6701 12.108ZM97.816 18.2053V13.9242C97.816 13.308 97.7187 12.854 97.5566 12.5945C97.3944 12.335 97.0701 12.1729 96.616 12.1729C96.2917 12.1729 95.9674 12.2702 95.7079 12.4972C95.416 12.7242 95.2539 13.0161 95.1566 13.3729V18.1729H93.2106V7.66477H95.1566V11.5242H95.2214C95.4485 11.1999 95.7728 10.9404 96.0971 10.7459C96.4539 10.5513 96.9079 10.454 97.4268 10.454C97.816 10.454 98.1404 10.5188 98.4323 10.6161C98.7241 10.7134 98.9836 10.8756 99.1782 11.1026C99.3728 11.3296 99.535 11.654 99.5998 12.0431C99.6647 12.4323 99.7295 12.9188 99.7295 13.5026V18.2053H97.816Z" fill="white"/>
</svg>
