<svg width="1200" height="675" viewBox="0 0 1200 675" fill="none" xmlns="http://www.w3.org/2000/svg">
<g clip-path="url(#clip0_1091_978)">
<rect width="1200" height="675" fill="#0B151E"/>
<path opacity="0.1" d="M70 48V628" stroke="url(#paint0_linear_1091_978)"/>
<path opacity="0.1" d="M246.668 48V628" stroke="url(#paint1_linear_1091_978)"/>
<path opacity="0.05" d="M423.332 48V628" stroke="url(#paint2_linear_1091_978)"/>
<path opacity="0.05" d="M600 48V628" stroke="url(#paint3_linear_1091_978)"/>
<path opacity="0.05" d="M776.668 48V628" stroke="url(#paint4_linear_1091_978)"/>
<path opacity="0.1" d="M953.332 48V628" stroke="url(#paint5_linear_1091_978)"/>
<path opacity="0.1" d="M1130 48V628" stroke="url(#paint6_linear_1091_978)"/>
<circle opacity="0.2" cx="600" cy="543" r="2" fill="white"/>
<circle cx="424" cy="122" r="2" fill="white"/>
<circle opacity="0.2" cx="247" cy="286" r="2" fill="white"/>
<circle cx="70" cy="458" r="2" fill="white"/>
<circle opacity="0.5" cx="777" cy="150" r="2" fill="white"/>
<circle opacity="0.5" cx="953" cy="508" r="2" fill="white"/>
<circle cx="1130" cy="150" r="2" fill="white"/>
<path d="M357.722 327.056C338.978 327.056 326.834 314.032 326.834 293.88C326.834 273.904 339.418 260.616 358.25 260.616C373.474 260.616 384.826 269.504 387.026 283.32H375.146C372.946 275.84 366.522 271.44 357.986 271.44C346.106 271.44 338.626 280.064 338.626 293.792C338.626 307.432 346.194 316.232 357.986 316.232C366.698 316.232 373.386 311.656 375.498 304.528H387.202C384.738 318.08 372.946 327.056 357.722 327.056ZM391.407 304.176C391.407 290.624 401.175 281.296 414.639 281.296C428.103 281.296 437.871 290.624 437.871 304.176C437.871 317.728 428.103 327.056 414.639 327.056C401.175 327.056 391.407 317.728 391.407 304.176ZM402.143 304.176C402.143 312.096 407.247 317.464 414.639 317.464C422.031 317.464 427.135 312.096 427.135 304.176C427.135 296.256 422.031 290.888 414.639 290.888C407.247 290.888 402.143 296.256 402.143 304.176ZM462.485 327.144C449.901 327.144 442.069 317.904 442.069 304.44C442.069 290.888 449.989 281.208 463.101 281.208C469.173 281.208 474.541 283.76 477.269 288.072V260.528H487.917V326H478.061L477.357 319.224C474.717 324.24 469.085 327.144 462.485 327.144ZM464.861 317.288C472.341 317.288 477.181 311.92 477.181 304.088C477.181 296.256 472.341 290.8 464.861 290.8C457.381 290.8 452.805 296.344 452.805 304.088C452.805 311.832 457.381 317.288 464.861 317.288ZM516.793 327.144C503.857 327.144 494.793 317.728 494.793 304.264C494.793 290.624 503.681 281.208 516.441 281.208C529.465 281.208 537.737 289.92 537.737 303.472V306.728L505.001 306.816C505.793 314.472 509.841 318.344 516.969 318.344C522.865 318.344 526.737 316.056 527.969 311.92H537.913C536.065 321.424 528.145 327.144 516.793 327.144ZM516.529 290.008C510.193 290.008 506.321 293.44 505.265 299.952H527.089C527.089 293.968 522.953 290.008 516.529 290.008ZM555.306 326H544.57V282.528H554.426L555.306 287.632C557.506 284.024 561.906 281.208 568.154 281.208C574.754 281.208 579.33 284.464 581.618 289.48C583.818 284.464 588.922 281.208 595.522 281.208C606.082 281.208 611.89 287.544 611.89 297.576V326H601.242V300.392C601.242 294.144 597.898 290.888 592.794 290.888C587.602 290.888 583.642 294.232 583.642 301.36V326H572.906V300.304C572.906 294.232 569.65 290.976 564.546 290.976C559.442 290.976 555.306 294.32 555.306 301.36V326ZM618.117 304.176C618.117 290.624 627.885 281.296 641.349 281.296C654.813 281.296 664.581 290.624 664.581 304.176C664.581 317.728 654.813 327.056 641.349 327.056C627.885 327.056 618.117 317.728 618.117 304.176ZM628.853 304.176C628.853 312.096 633.957 317.464 641.349 317.464C648.741 317.464 653.845 312.096 653.845 304.176C653.845 296.256 648.741 290.888 641.349 290.888C633.957 290.888 628.853 296.256 628.853 304.176ZM689.195 327.144C676.611 327.144 668.779 317.904 668.779 304.44C668.779 290.888 676.699 281.208 689.811 281.208C695.883 281.208 701.251 283.76 703.979 288.072V260.528H714.627V326H704.771L704.067 319.224C701.427 324.24 695.795 327.144 689.195 327.144ZM691.571 317.288C699.051 317.288 703.891 311.92 703.891 304.088C703.891 296.256 699.051 290.8 691.571 290.8C684.091 290.8 679.515 296.344 679.515 304.088C679.515 311.832 684.091 317.288 691.571 317.288ZM774.79 327.056C756.046 327.056 743.902 314.032 743.902 293.88C743.902 273.904 756.486 260.616 775.318 260.616C790.542 260.616 801.894 269.504 804.094 283.32H792.214C790.014 275.84 783.59 271.44 775.054 271.44C763.174 271.44 755.694 280.064 755.694 293.792C755.694 307.432 763.262 316.232 775.054 316.232C783.766 316.232 790.454 311.656 792.566 304.528H804.27C801.806 318.08 790.014 327.056 774.79 327.056ZM823.875 261.672V315.616H850.803V326H812.611V261.672H823.875ZM869.467 261.672V326H858.203V261.672H869.467Z" fill="white"/>
<rect x="522.5" y="381" width="155" height="46" rx="8" fill="#D6FF62"/>
<path d="M554.061 403.948C554.061 408.832 550.849 412.264 546.229 412.264C541.631 412.264 538.463 408.854 538.463 403.948C538.463 399.064 541.653 395.632 546.251 395.632C550.849 395.632 554.061 399.042 554.061 403.948ZM551.091 403.948C551.091 400.516 549.199 398.338 546.251 398.338C543.303 398.338 541.411 400.516 541.411 403.948C541.411 407.38 543.303 409.558 546.251 409.558C549.199 409.558 551.091 407.336 551.091 403.948ZM561.497 412L555.425 395.918H558.417L561.937 405.18C562.289 406.148 562.597 407.094 562.949 408.392C563.345 406.984 563.675 405.994 563.983 405.18L567.459 395.918H570.385L564.401 412H561.497ZM583.479 412H573.491V395.918H583.479V398.514H576.307V402.65H582.731V405.136H576.307V409.404H583.479V412ZM590.448 412H587.632V395.918H593.77C597.422 395.918 599.556 397.766 599.556 400.934C599.556 403.09 598.544 404.63 596.652 405.4L599.71 412H596.63L593.902 405.994H590.448V412ZM590.448 398.426V403.508H593.77C595.552 403.508 596.608 402.562 596.608 400.934C596.608 399.328 595.552 398.426 593.77 398.426H590.448ZM607.787 412L601.715 395.918H604.707L608.227 405.18C608.579 406.148 608.887 407.094 609.239 408.392C609.635 406.984 609.965 405.994 610.273 405.18L613.749 395.918H616.675L610.691 412H607.787ZM622.598 395.918V412H619.782V395.918H622.598ZM637.25 412H627.262V395.918H637.25V398.514H630.078V402.65H636.502V405.136H630.078V409.404H637.25V412ZM644.747 412L639.951 395.918H642.877L645.429 404.41C645.671 405.29 645.913 406.192 646.155 407.6C646.419 406.17 646.661 405.334 646.947 404.41L649.477 395.918H652.579L655.065 404.41C655.329 405.312 655.571 406.236 655.835 407.6C656.143 406.104 656.363 405.246 656.605 404.432L659.201 395.918H662.061L657.177 412H654.449L651.017 400.296L647.519 412H644.747Z" fill="#0B151E"/>
<g clip-path="url(#clip1_1091_978)">
<path d="M503 119.486L515.029 88.5986H519.038L506.967 119.486H503Z" fill="white"/>
<path d="M526.876 97.968C532.123 97.968 535.791 100.962 536.517 105.626H532.508C531.825 102.974 529.692 101.561 527.005 101.561C523.209 101.561 520.607 104.47 520.607 109.005C520.607 113.54 523.038 116.406 526.835 116.406C529.693 116.406 531.826 114.909 532.551 112.427H536.561C535.75 116.962 531.869 119.999 526.835 119.999C520.692 119.999 516.641 115.636 516.641 109.047C516.641 102.458 520.778 97.9668 526.879 97.9668L526.876 97.968Z" fill="white"/>
<path d="M549.44 98.0098C555.668 98.0098 560.275 102.545 560.275 109.004C560.275 115.463 555.668 119.999 549.44 119.999C543.211 119.999 538.562 115.463 538.562 109.004C538.562 102.545 543.169 98.0098 549.44 98.0098ZM549.44 116.406C553.449 116.406 556.265 113.368 556.265 109.004C556.265 104.641 553.449 101.603 549.44 101.603C545.43 101.603 542.614 104.641 542.614 109.004C542.614 113.368 545.387 116.406 549.44 116.406Z" fill="white"/>
<path d="M562.488 109.09C562.488 102.673 566.2 97.9677 572.385 97.9677C575.584 97.9677 578.272 99.379 579.679 101.946V88H583.647V119.486H580.064L579.723 115.679C578.358 118.545 575.542 120 572.215 120C566.158 120 562.489 115.465 562.489 109.091L562.488 109.09ZM579.636 108.962C579.636 104.685 577.119 101.604 573.024 101.604C568.929 101.604 566.54 104.685 566.54 108.962C566.54 113.24 568.929 116.363 573.024 116.363C577.119 116.363 579.636 113.325 579.636 108.962Z" fill="white"/>
<path d="M585.949 109.048C585.949 102.503 590.087 97.9678 596.144 97.9678C602.201 97.9678 605.955 102.075 605.955 108.278V109.775L589.831 109.817C590.13 114.224 592.433 116.662 596.401 116.662C599.514 116.662 601.562 115.379 602.244 112.983H605.998C604.975 117.475 601.476 119.999 596.315 119.999C590.172 119.999 585.949 115.55 585.949 109.047V109.048ZM589.917 107.123H601.947C601.947 103.658 599.686 101.348 596.145 101.348C592.605 101.348 590.429 103.444 589.917 107.123Z" fill="white"/>
<path d="M608.301 119.486V98.5664H611.883L612.267 101.304C613.333 99.3368 615.552 97.9678 618.495 97.9678C621.737 97.9678 624.041 99.5932 625.107 102.203C626.089 99.5932 628.606 97.9678 631.847 97.9678C636.625 97.9678 639.525 100.962 639.525 105.796V119.486H635.601V106.78C635.601 103.486 633.767 101.604 630.951 101.604C627.922 101.604 625.918 103.744 625.918 107.08V119.486H621.95V106.738C621.95 103.444 620.158 101.647 617.344 101.647C614.315 101.647 612.31 103.743 612.31 107.079V119.485H608.301V119.486Z" fill="white"/>
<path d="M653.088 98.0098C659.317 98.0098 663.923 102.545 663.923 109.004C663.923 115.463 659.317 119.999 653.088 119.999C646.86 119.999 642.211 115.463 642.211 109.004C642.211 102.545 646.817 98.0098 653.088 98.0098ZM653.088 116.406C657.098 116.406 659.913 113.368 659.913 109.004C659.913 104.641 657.098 101.603 653.088 101.603C649.079 101.603 646.263 104.641 646.263 109.004C646.263 113.368 649.035 116.406 653.088 116.406Z" fill="white"/>
<path d="M666.137 109.09C666.137 102.673 669.848 97.9677 676.033 97.9677C679.233 97.9677 681.921 99.379 683.328 101.946V88H687.295V119.486H683.713L683.371 115.679C682.006 118.545 679.19 120 675.863 120C669.806 120 666.138 115.465 666.138 109.091L666.137 109.09ZM683.285 108.962C683.285 104.685 680.768 101.604 676.673 101.604C672.577 101.604 670.189 104.685 670.189 108.962C670.189 113.24 672.577 116.363 676.673 116.363C680.768 116.363 683.285 113.325 683.285 108.962Z" fill="white"/>
<path d="M690.879 117.006C690.879 115.337 692.286 113.968 693.95 113.968C695.614 113.968 696.979 115.337 696.979 117.006C696.979 118.675 695.572 120 693.95 120C692.328 120 690.879 118.631 690.879 117.006Z" fill="white"/>
</g>
<g opacity="0.3" filter="url(#filter0_f_1091_978)">
<ellipse cx="600" cy="751" rx="480" ry="330" transform="rotate(-180 600 751)" fill="url(#paint7_linear_1091_978)"/>
</g>
</g>
<defs>
<filter id="filter0_f_1091_978" x="-87.968" y="213.032" width="1375.94" height="1075.94" filterUnits="userSpaceOnUse" color-interpolation-filters="sRGB">
<feFlood flood-opacity="0" result="BackgroundImageFix"/>
<feBlend mode="normal" in="SourceGraphic" in2="BackgroundImageFix" result="shape"/>
<feGaussianBlur stdDeviation="103.984" result="effect1_foregroundBlur_1091_978"/>
</filter>
<linearGradient id="paint0_linear_1091_978" x1="70" y1="48.373" x2="82.559" y2="627.728" gradientUnits="userSpaceOnUse">
<stop stop-color="white" stop-opacity="0"/>
<stop offset="0.165" stop-color="white" stop-opacity="0.450549"/>
<stop offset="0.495" stop-color="white"/>
<stop offset="0.775" stop-color="white" stop-opacity="0.452703"/>
<stop offset="1" stop-color="white" stop-opacity="0"/>
</linearGradient>
<linearGradient id="paint1_linear_1091_978" x1="246.668" y1="48.373" x2="259.227" y2="627.728" gradientUnits="userSpaceOnUse">
<stop stop-color="white" stop-opacity="0"/>
<stop offset="0.165" stop-color="white" stop-opacity="0.450549"/>
<stop offset="0.495" stop-color="white"/>
<stop offset="0.775" stop-color="white" stop-opacity="0.452703"/>
<stop offset="1" stop-color="white" stop-opacity="0"/>
</linearGradient>
<linearGradient id="paint2_linear_1091_978" x1="423.332" y1="48.373" x2="435.891" y2="627.728" gradientUnits="userSpaceOnUse">
<stop stop-color="white" stop-opacity="0"/>
<stop offset="0.165" stop-color="white" stop-opacity="0.450549"/>
<stop offset="0.495" stop-color="white"/>
<stop offset="0.775" stop-color="white" stop-opacity="0.452703"/>
<stop offset="1" stop-color="white" stop-opacity="0"/>
</linearGradient>
<linearGradient id="paint3_linear_1091_978" x1="600" y1="48.373" x2="612.559" y2="627.728" gradientUnits="userSpaceOnUse">
<stop stop-color="white" stop-opacity="0"/>
<stop offset="0.165" stop-color="white" stop-opacity="0.450549"/>
<stop offset="0.495" stop-color="white"/>
<stop offset="0.775" stop-color="white" stop-opacity="0.452703"/>
<stop offset="1" stop-color="white" stop-opacity="0"/>
</linearGradient>
<linearGradient id="paint4_linear_1091_978" x1="776.668" y1="48.373" x2="789.227" y2="627.728" gradientUnits="userSpaceOnUse">
<stop stop-color="white" stop-opacity="0"/>
<stop offset="0.165" stop-color="white" stop-opacity="0.450549"/>
<stop offset="0.495" stop-color="white"/>
<stop offset="0.775" stop-color="white" stop-opacity="0.452703"/>
<stop offset="1" stop-color="white" stop-opacity="0"/>
</linearGradient>
<linearGradient id="paint5_linear_1091_978" x1="953.332" y1="48.373" x2="965.891" y2="627.728" gradientUnits="userSpaceOnUse">
<stop stop-color="white" stop-opacity="0"/>
<stop offset="0.165" stop-color="white" stop-opacity="0.450549"/>
<stop offset="0.495" stop-color="white"/>
<stop offset="0.775" stop-color="white" stop-opacity="0.452703"/>
<stop offset="1" stop-color="white" stop-opacity="0"/>
</linearGradient>
<linearGradient id="paint6_linear_1091_978" x1="1130" y1="48.373" x2="1142.56" y2="627.728" gradientUnits="userSpaceOnUse">
<stop stop-color="white" stop-opacity="0"/>
<stop offset="0.165" stop-color="white" stop-opacity="0.450549"/>
<stop offset="0.495" stop-color="white"/>
<stop offset="0.775" stop-color="white" stop-opacity="0.452703"/>
<stop offset="1" stop-color="white" stop-opacity="0"/>
</linearGradient>
<linearGradient id="paint7_linear_1091_978" x1="600" y1="421" x2="600" y2="1081" gradientUnits="userSpaceOnUse">
<stop stop-color="white"/>
<stop offset="1" stop-color="white" stop-opacity="0"/>
</linearGradient>
<clipPath id="clip0_1091_978">
<rect width="1200" height="675" fill="white"/>
</clipPath>
<clipPath id="clip1_1091_978">
<rect width="194" height="32" fill="white" transform="translate(503 88)"/>
</clipPath>
</defs>
</svg>
