<svg width="1200" height="675" viewBox="0 0 1200 675" fill="none" xmlns="http://www.w3.org/2000/svg">
<g clip-path="url(#clip0_1091_1010)">
<rect width="1200" height="675" fill="white"/>
<g opacity="0.4" filter="url(#filter0_f_1091_1010)">
<circle cx="159" cy="83" r="300" transform="rotate(90 159 83)" fill="url(#paint0_linear_1091_1010)"/>
</g>
<g opacity="0.4" filter="url(#filter1_f_1091_1010)">
<ellipse cx="996" cy="551" rx="330" ry="330" transform="rotate(-180 996 551)" fill="url(#paint1_linear_1091_1010)"/>
</g>
<path opacity="0.1" d="M70 48V628" stroke="url(#paint2_linear_1091_1010)"/>
<path opacity="0.1" d="M246.668 48V628" stroke="url(#paint3_linear_1091_1010)"/>
<path opacity="0.05" d="M423.332 48V628" stroke="url(#paint4_linear_1091_1010)"/>
<path opacity="0.05" d="M600 48V628" stroke="url(#paint5_linear_1091_1010)"/>
<path opacity="0.05" d="M776.668 48V628" stroke="url(#paint6_linear_1091_1010)"/>
<path opacity="0.1" d="M953.332 48V628" stroke="url(#paint7_linear_1091_1010)"/>
<path opacity="0.1" d="M1130 48V628" stroke="url(#paint8_linear_1091_1010)"/>
<circle opacity="0.2" cx="600" cy="543" r="2" fill="#0B151E"/>
<circle cx="424" cy="122" r="2" fill="#0B151E"/>
<circle opacity="0.2" cx="247" cy="286" r="2" fill="#0B151E"/>
<circle cx="70" cy="458" r="2" fill="#0B151E"/>
<circle opacity="0.5" cx="777" cy="150" r="2" fill="#0B151E"/>
<circle opacity="0.5" cx="953" cy="508" r="2" fill="#0B151E"/>
<circle cx="1130" cy="150" r="2" fill="#0B151E"/>
<path d="M357.722 327.056C338.978 327.056 326.834 314.032 326.834 293.88C326.834 273.904 339.418 260.616 358.25 260.616C373.474 260.616 384.826 269.504 387.026 283.32H375.146C372.946 275.84 366.522 271.44 357.986 271.44C346.106 271.44 338.626 280.064 338.626 293.792C338.626 307.432 346.194 316.232 357.986 316.232C366.698 316.232 373.386 311.656 375.498 304.528H387.202C384.738 318.08 372.946 327.056 357.722 327.056ZM391.407 304.176C391.407 290.624 401.175 281.296 414.639 281.296C428.103 281.296 437.871 290.624 437.871 304.176C437.871 317.728 428.103 327.056 414.639 327.056C401.175 327.056 391.407 317.728 391.407 304.176ZM402.143 304.176C402.143 312.096 407.247 317.464 414.639 317.464C422.031 317.464 427.135 312.096 427.135 304.176C427.135 296.256 422.031 290.888 414.639 290.888C407.247 290.888 402.143 296.256 402.143 304.176ZM462.485 327.144C449.901 327.144 442.069 317.904 442.069 304.44C442.069 290.888 449.989 281.208 463.101 281.208C469.173 281.208 474.541 283.76 477.269 288.072V260.528H487.917V326H478.061L477.357 319.224C474.717 324.24 469.085 327.144 462.485 327.144ZM464.861 317.288C472.341 317.288 477.181 311.92 477.181 304.088C477.181 296.256 472.341 290.8 464.861 290.8C457.381 290.8 452.805 296.344 452.805 304.088C452.805 311.832 457.381 317.288 464.861 317.288ZM516.793 327.144C503.857 327.144 494.793 317.728 494.793 304.264C494.793 290.624 503.681 281.208 516.441 281.208C529.465 281.208 537.737 289.92 537.737 303.472V306.728L505.001 306.816C505.793 314.472 509.841 318.344 516.969 318.344C522.865 318.344 526.737 316.056 527.969 311.92H537.913C536.065 321.424 528.145 327.144 516.793 327.144ZM516.529 290.008C510.193 290.008 506.321 293.44 505.265 299.952H527.089C527.089 293.968 522.953 290.008 516.529 290.008ZM555.306 326H544.57V282.528H554.426L555.306 287.632C557.506 284.024 561.906 281.208 568.154 281.208C574.754 281.208 579.33 284.464 581.618 289.48C583.818 284.464 588.922 281.208 595.522 281.208C606.082 281.208 611.89 287.544 611.89 297.576V326H601.242V300.392C601.242 294.144 597.898 290.888 592.794 290.888C587.602 290.888 583.642 294.232 583.642 301.36V326H572.906V300.304C572.906 294.232 569.65 290.976 564.546 290.976C559.442 290.976 555.306 294.32 555.306 301.36V326ZM618.117 304.176C618.117 290.624 627.885 281.296 641.349 281.296C654.813 281.296 664.581 290.624 664.581 304.176C664.581 317.728 654.813 327.056 641.349 327.056C627.885 327.056 618.117 317.728 618.117 304.176ZM628.853 304.176C628.853 312.096 633.957 317.464 641.349 317.464C648.741 317.464 653.845 312.096 653.845 304.176C653.845 296.256 648.741 290.888 641.349 290.888C633.957 290.888 628.853 296.256 628.853 304.176ZM689.195 327.144C676.611 327.144 668.779 317.904 668.779 304.44C668.779 290.888 676.699 281.208 689.811 281.208C695.883 281.208 701.251 283.76 703.979 288.072V260.528H714.627V326H704.771L704.067 319.224C701.427 324.24 695.795 327.144 689.195 327.144ZM691.571 317.288C699.051 317.288 703.891 311.92 703.891 304.088C703.891 296.256 699.051 290.8 691.571 290.8C684.091 290.8 679.515 296.344 679.515 304.088C679.515 311.832 684.091 317.288 691.571 317.288ZM774.79 327.056C756.046 327.056 743.902 314.032 743.902 293.88C743.902 273.904 756.486 260.616 775.318 260.616C790.542 260.616 801.894 269.504 804.094 283.32H792.214C790.014 275.84 783.59 271.44 775.054 271.44C763.174 271.44 755.694 280.064 755.694 293.792C755.694 307.432 763.262 316.232 775.054 316.232C783.766 316.232 790.454 311.656 792.566 304.528H804.27C801.806 318.08 790.014 327.056 774.79 327.056ZM823.875 261.672V315.616H850.803V326H812.611V261.672H823.875ZM869.467 261.672V326H858.203V261.672H869.467Z" fill="#0B151E"/>
<rect x="522.5" y="381" width="155" height="46" rx="8" fill="#D6FF62"/>
<path d="M554.061 403.948C554.061 408.832 550.849 412.264 546.229 412.264C541.631 412.264 538.463 408.854 538.463 403.948C538.463 399.064 541.653 395.632 546.251 395.632C550.849 395.632 554.061 399.042 554.061 403.948ZM551.091 403.948C551.091 400.516 549.199 398.338 546.251 398.338C543.303 398.338 541.411 400.516 541.411 403.948C541.411 407.38 543.303 409.558 546.251 409.558C549.199 409.558 551.091 407.336 551.091 403.948ZM561.497 412L555.425 395.918H558.417L561.937 405.18C562.289 406.148 562.597 407.094 562.949 408.392C563.345 406.984 563.675 405.994 563.983 405.18L567.459 395.918H570.385L564.401 412H561.497ZM583.479 412H573.491V395.918H583.479V398.514H576.307V402.65H582.731V405.136H576.307V409.404H583.479V412ZM590.448 412H587.632V395.918H593.77C597.422 395.918 599.556 397.766 599.556 400.934C599.556 403.09 598.544 404.63 596.652 405.4L599.71 412H596.63L593.902 405.994H590.448V412ZM590.448 398.426V403.508H593.77C595.552 403.508 596.608 402.562 596.608 400.934C596.608 399.328 595.552 398.426 593.77 398.426H590.448ZM607.787 412L601.715 395.918H604.707L608.227 405.18C608.579 406.148 608.887 407.094 609.239 408.392C609.635 406.984 609.965 405.994 610.273 405.18L613.749 395.918H616.675L610.691 412H607.787ZM622.598 395.918V412H619.782V395.918H622.598ZM637.25 412H627.262V395.918H637.25V398.514H630.078V402.65H636.502V405.136H630.078V409.404H637.25V412ZM644.747 412L639.951 395.918H642.877L645.429 404.41C645.671 405.29 645.913 406.192 646.155 407.6C646.419 406.17 646.661 405.334 646.947 404.41L649.477 395.918H652.579L655.065 404.41C655.329 405.312 655.571 406.236 655.835 407.6C656.143 406.104 656.363 405.246 656.605 404.432L659.201 395.918H662.061L657.177 412H654.449L651.017 400.296L647.519 412H644.747Z" fill="#0B151E"/>
<g clip-path="url(#clip1_1091_1010)">
<path d="M501 119.486L513.029 88.5986H517.038L504.967 119.486H501Z" fill="#0B151E"/>
<path d="M524.876 97.968C530.123 97.968 533.791 100.962 534.517 105.626H530.508C529.825 102.974 527.692 101.561 525.005 101.561C521.209 101.561 518.607 104.47 518.607 109.005C518.607 113.54 521.038 116.406 524.835 116.406C527.693 116.406 529.826 114.909 530.551 112.427H534.561C533.75 116.962 529.869 119.999 524.835 119.999C518.692 119.999 514.641 115.636 514.641 109.047C514.641 102.458 518.778 97.9668 524.879 97.9668L524.876 97.968Z" fill="#0B151E"/>
<path d="M547.44 98.0098C553.668 98.0098 558.275 102.545 558.275 109.004C558.275 115.463 553.668 119.999 547.44 119.999C541.211 119.999 536.562 115.463 536.562 109.004C536.562 102.545 541.169 98.0098 547.44 98.0098ZM547.44 116.406C551.449 116.406 554.265 113.368 554.265 109.004C554.265 104.641 551.449 101.603 547.44 101.603C543.43 101.603 540.614 104.641 540.614 109.004C540.614 113.368 543.387 116.406 547.44 116.406Z" fill="#0B151E"/>
<path d="M560.488 109.09C560.488 102.673 564.2 97.9677 570.385 97.9677C573.584 97.9677 576.272 99.379 577.679 101.946V88H581.647V119.486H578.064L577.723 115.679C576.358 118.545 573.542 120 570.215 120C564.158 120 560.489 115.465 560.489 109.091L560.488 109.09ZM577.636 108.962C577.636 104.685 575.119 101.604 571.024 101.604C566.929 101.604 564.54 104.685 564.54 108.962C564.54 113.24 566.929 116.363 571.024 116.363C575.119 116.363 577.636 113.325 577.636 108.962Z" fill="#0B151E"/>
<path d="M583.949 109.048C583.949 102.503 588.087 97.9678 594.144 97.9678C600.201 97.9678 603.955 102.075 603.955 108.278V109.775L587.831 109.817C588.13 114.224 590.433 116.662 594.401 116.662C597.514 116.662 599.562 115.379 600.244 112.983H603.998C602.975 117.475 599.476 119.999 594.315 119.999C588.172 119.999 583.949 115.55 583.949 109.047V109.048ZM587.917 107.123H599.947C599.947 103.658 597.686 101.348 594.145 101.348C590.605 101.348 588.429 103.444 587.917 107.123Z" fill="#0B151E"/>
<path d="M606.301 119.486V98.5664H609.883L610.267 101.304C611.333 99.3368 613.552 97.9678 616.495 97.9678C619.737 97.9678 622.041 99.5932 623.107 102.203C624.089 99.5932 626.606 97.9678 629.847 97.9678C634.625 97.9678 637.525 100.962 637.525 105.796V119.486H633.601V106.78C633.601 103.486 631.767 101.604 628.951 101.604C625.922 101.604 623.918 103.744 623.918 107.08V119.486H619.95V106.738C619.95 103.444 618.158 101.647 615.344 101.647C612.315 101.647 610.31 103.743 610.31 107.079V119.485H606.301V119.486Z" fill="#0B151E"/>
<path d="M651.088 98.0098C657.317 98.0098 661.923 102.545 661.923 109.004C661.923 115.463 657.317 119.999 651.088 119.999C644.86 119.999 640.211 115.463 640.211 109.004C640.211 102.545 644.817 98.0098 651.088 98.0098ZM651.088 116.406C655.098 116.406 657.913 113.368 657.913 109.004C657.913 104.641 655.098 101.603 651.088 101.603C647.079 101.603 644.263 104.641 644.263 109.004C644.263 113.368 647.035 116.406 651.088 116.406Z" fill="#0B151E"/>
<path d="M664.137 109.09C664.137 102.673 667.848 97.9677 674.033 97.9677C677.233 97.9677 679.921 99.379 681.328 101.946V88H685.295V119.486H681.713L681.371 115.679C680.006 118.545 677.19 120 673.863 120C667.806 120 664.138 115.465 664.138 109.091L664.137 109.09ZM681.285 108.962C681.285 104.685 678.768 101.604 674.673 101.604C670.577 101.604 668.189 104.685 668.189 108.962C668.189 113.24 670.577 116.363 674.673 116.363C678.768 116.363 681.285 113.325 681.285 108.962Z" fill="#0B151E"/>
<path d="M688.879 117.006C688.879 115.337 690.286 113.968 691.95 113.968C693.614 113.968 694.979 115.337 694.979 117.006C694.979 118.675 693.572 120 691.95 120C690.328 120 688.879 118.631 688.879 117.006Z" fill="#0B151E"/>
</g>
</g>
<defs>
<filter id="filter0_f_1091_1010" x="-409.858" y="-485.858" width="1137.72" height="1137.72" filterUnits="userSpaceOnUse" color-interpolation-filters="sRGB">
<feFlood flood-opacity="0" result="BackgroundImageFix"/>
<feBlend mode="normal" in="SourceGraphic" in2="BackgroundImageFix" result="shape"/>
<feGaussianBlur stdDeviation="134.429" result="effect1_foregroundBlur_1091_1010"/>
</filter>
<filter id="filter1_f_1091_1010" x="458.032" y="13.032" width="1075.94" height="1075.94" filterUnits="userSpaceOnUse" color-interpolation-filters="sRGB">
<feFlood flood-opacity="0" result="BackgroundImageFix"/>
<feBlend mode="normal" in="SourceGraphic" in2="BackgroundImageFix" result="shape"/>
<feGaussianBlur stdDeviation="103.984" result="effect1_foregroundBlur_1091_1010"/>
</filter>
<linearGradient id="paint0_linear_1091_1010" x1="159" y1="-217" x2="159" y2="383" gradientUnits="userSpaceOnUse">
<stop stop-color="#BBFC03"/>
<stop offset="1" stop-color="#BBFC03" stop-opacity="0.17"/>
</linearGradient>
<linearGradient id="paint1_linear_1091_1010" x1="996" y1="221" x2="996" y2="881" gradientUnits="userSpaceOnUse">
<stop stop-color="#BBFC03"/>
<stop offset="1" stop-color="#BBFC03" stop-opacity="0"/>
</linearGradient>
<linearGradient id="paint2_linear_1091_1010" x1="70" y1="48.373" x2="82.559" y2="627.728" gradientUnits="userSpaceOnUse">
<stop stop-color="#0B151E" stop-opacity="0"/>
<stop offset="0.165" stop-color="#0B151E" stop-opacity="0.450549"/>
<stop offset="0.495" stop-color="#0B151E"/>
<stop offset="0.775" stop-color="#0B151E" stop-opacity="0.452703"/>
<stop offset="1" stop-color="#0B151E" stop-opacity="0"/>
</linearGradient>
<linearGradient id="paint3_linear_1091_1010" x1="246.668" y1="48.373" x2="259.227" y2="627.728" gradientUnits="userSpaceOnUse">
<stop stop-color="#0B151E" stop-opacity="0"/>
<stop offset="0.165" stop-color="#0B151E" stop-opacity="0.450549"/>
<stop offset="0.495" stop-color="#0B151E"/>
<stop offset="0.775" stop-color="#0B151E" stop-opacity="0.452703"/>
<stop offset="1" stop-color="#0B151E" stop-opacity="0"/>
</linearGradient>
<linearGradient id="paint4_linear_1091_1010" x1="423.332" y1="48.373" x2="435.891" y2="627.728" gradientUnits="userSpaceOnUse">
<stop stop-color="#0B151E" stop-opacity="0"/>
<stop offset="0.165" stop-color="#0B151E" stop-opacity="0.450549"/>
<stop offset="0.495" stop-color="#0B151E"/>
<stop offset="0.775" stop-color="#0B151E" stop-opacity="0.452703"/>
<stop offset="1" stop-color="#0B151E" stop-opacity="0"/>
</linearGradient>
<linearGradient id="paint5_linear_1091_1010" x1="600" y1="48.373" x2="612.559" y2="627.728" gradientUnits="userSpaceOnUse">
<stop stop-color="#0B151E" stop-opacity="0"/>
<stop offset="0.165" stop-color="#0B151E" stop-opacity="0.450549"/>
<stop offset="0.495" stop-color="#0B151E"/>
<stop offset="0.775" stop-color="#0B151E" stop-opacity="0.452703"/>
<stop offset="1" stop-color="#0B151E" stop-opacity="0"/>
</linearGradient>
<linearGradient id="paint6_linear_1091_1010" x1="776.668" y1="48.373" x2="789.227" y2="627.728" gradientUnits="userSpaceOnUse">
<stop stop-color="#0B151E" stop-opacity="0"/>
<stop offset="0.165" stop-color="#0B151E" stop-opacity="0.450549"/>
<stop offset="0.495" stop-color="#0B151E"/>
<stop offset="0.775" stop-color="#0B151E" stop-opacity="0.452703"/>
<stop offset="1" stop-color="#0B151E" stop-opacity="0"/>
</linearGradient>
<linearGradient id="paint7_linear_1091_1010" x1="953.332" y1="48.373" x2="965.891" y2="627.728" gradientUnits="userSpaceOnUse">
<stop stop-color="#0B151E" stop-opacity="0"/>
<stop offset="0.165" stop-color="#0B151E" stop-opacity="0.450549"/>
<stop offset="0.495" stop-color="#0B151E"/>
<stop offset="0.775" stop-color="#0B151E" stop-opacity="0.452703"/>
<stop offset="1" stop-color="#0B151E" stop-opacity="0"/>
</linearGradient>
<linearGradient id="paint8_linear_1091_1010" x1="1130" y1="48.373" x2="1142.56" y2="627.728" gradientUnits="userSpaceOnUse">
<stop stop-color="#0B151E" stop-opacity="0"/>
<stop offset="0.165" stop-color="#0B151E" stop-opacity="0.450549"/>
<stop offset="0.495" stop-color="#0B151E"/>
<stop offset="0.775" stop-color="#0B151E" stop-opacity="0.452703"/>
<stop offset="1" stop-color="#0B151E" stop-opacity="0"/>
</linearGradient>
<clipPath id="clip0_1091_1010">
<rect width="1200" height="675" fill="white"/>
</clipPath>
<clipPath id="clip1_1091_1010">
<rect width="194" height="32" fill="white" transform="translate(501 88)"/>
</clipPath>
</defs>
</svg>
