<svg width="1200" height="675" viewBox="0 0 1200 675" fill="none" xmlns="http://www.w3.org/2000/svg">
<g clip-path="url(#clip0_813_616)">
<rect width="1200" height="675" fill="white"/>
<g opacity="0.4" filter="url(#filter0_f_813_616)">
<circle cx="159" cy="83" r="300" transform="rotate(90 159 83)" fill="url(#paint0_linear_813_616)"/>
</g>
<g opacity="0.4" filter="url(#filter1_f_813_616)">
<ellipse cx="996" cy="551" rx="330" ry="330" transform="rotate(-180 996 551)" fill="url(#paint1_linear_813_616)"/>
</g>
<path opacity="0.1" d="M70 48V628" stroke="url(#paint2_linear_813_616)"/>
<path opacity="0.1" d="M246.668 48V628" stroke="url(#paint3_linear_813_616)"/>
<path opacity="0.05" d="M423.332 48V628" stroke="url(#paint4_linear_813_616)"/>
<path opacity="0.05" d="M600 48V628" stroke="url(#paint5_linear_813_616)"/>
<path opacity="0.05" d="M776.668 48V628" stroke="url(#paint6_linear_813_616)"/>
<path opacity="0.1" d="M953.332 48V628" stroke="url(#paint7_linear_813_616)"/>
<path opacity="0.1" d="M1130 48V628" stroke="url(#paint8_linear_813_616)"/>
<circle opacity="0.2" cx="600" cy="543" r="2" fill="#0B151E"/>
<circle cx="424" cy="122" r="2" fill="#0B151E"/>
<circle opacity="0.2" cx="247" cy="286" r="2" fill="#0B151E"/>
<circle cx="70" cy="458" r="2" fill="#0B151E"/>
<circle opacity="0.5" cx="777" cy="150" r="2" fill="#0B151E"/>
<circle opacity="0.5" cx="953" cy="508" r="2" fill="#0B151E"/>
<circle cx="1130" cy="150" r="2" fill="#0B151E"/>
<path d="M225.494 326H214.23V261.672H238.782C253.39 261.672 261.926 269.064 261.926 281.736C261.926 290.36 257.878 296.52 250.31 299.6L262.542 326H250.222L239.31 301.976H225.494V326ZM225.494 271.704V292.032H238.782C245.91 292.032 250.134 288.248 250.134 281.736C250.134 275.312 245.91 271.704 238.782 271.704H225.494ZM298.03 282.528H308.766V326H298.822L298.03 320.192C295.39 324.328 289.758 327.144 283.95 327.144C273.918 327.144 268.022 320.368 268.022 309.72V282.528H278.758V305.936C278.758 314.208 282.014 317.552 287.998 317.552C294.774 317.552 298.03 313.592 298.03 305.32V282.528ZM328.831 326H318.095V282.528H328.039L328.919 288.16C331.647 283.76 336.927 281.208 342.823 281.208C353.735 281.208 359.367 287.984 359.367 299.248V326H348.631V301.8C348.631 294.496 345.023 290.976 339.479 290.976C332.879 290.976 328.831 295.552 328.831 302.592V326ZM378.891 326H368.155V282.528H378.099L378.979 288.16C381.707 283.76 386.987 281.208 392.883 281.208C403.795 281.208 409.427 287.984 409.427 299.248V326H398.691V301.8C398.691 294.496 395.083 290.976 389.539 290.976C382.939 290.976 378.891 295.552 378.891 302.592V326ZM423.584 273.816C419.888 273.816 416.984 270.912 416.984 267.304C416.984 263.696 419.888 260.88 423.584 260.88C427.104 260.88 430.008 263.696 430.008 267.304C430.008 270.912 427.104 273.816 423.584 273.816ZM418.216 326V282.528H428.952V326H418.216ZM449.02 326H438.284V282.528H448.228L449.108 288.16C451.836 283.76 457.116 281.208 463.012 281.208C473.924 281.208 479.556 287.984 479.556 299.248V326H468.82V301.8C468.82 294.496 465.212 290.976 459.668 290.976C453.068 290.976 449.02 295.552 449.02 302.592V326ZM485.88 303.296C485.88 290.624 494.152 281.12 506.56 281.12C513.072 281.12 518.176 283.848 520.728 288.512L521.344 282.528H531.288V323.8C531.288 338.32 522.576 347.384 508.496 347.384C496 347.384 487.464 340.256 486.144 328.64H496.88C497.584 334.272 501.896 337.616 508.496 337.616C515.888 337.616 520.64 332.952 520.64 325.736V318.52C517.912 322.568 512.544 325.12 506.296 325.12C493.976 325.12 485.88 315.88 485.88 303.296ZM496.704 303.032C496.704 310.336 501.368 315.792 508.408 315.792C515.8 315.792 520.376 310.6 520.376 303.032C520.376 295.64 515.888 290.536 508.408 290.536C501.28 290.536 496.704 295.904 496.704 303.032ZM591.374 327.056C572.63 327.056 560.486 314.032 560.486 293.88C560.486 273.904 573.07 260.616 591.902 260.616C607.126 260.616 618.478 269.504 620.678 283.32H608.798C606.598 275.84 600.174 271.44 591.638 271.44C579.758 271.44 572.278 280.064 572.278 293.792C572.278 307.432 579.846 316.232 591.638 316.232C600.35 316.232 607.038 311.656 609.15 304.528H620.854C618.39 318.08 606.598 327.056 591.374 327.056ZM625.059 304.176C625.059 290.624 634.827 281.296 648.291 281.296C661.755 281.296 671.523 290.624 671.523 304.176C671.523 317.728 661.755 327.056 648.291 327.056C634.827 327.056 625.059 317.728 625.059 304.176ZM635.795 304.176C635.795 312.096 640.899 317.464 648.291 317.464C655.683 317.464 660.787 312.096 660.787 304.176C660.787 296.256 655.683 290.888 648.291 290.888C640.899 290.888 635.795 296.256 635.795 304.176ZM696.137 327.144C683.553 327.144 675.721 317.904 675.721 304.44C675.721 290.888 683.641 281.208 696.753 281.208C702.825 281.208 708.193 283.76 710.921 288.072V260.528H721.569V326H711.713L711.009 319.224C708.369 324.24 702.737 327.144 696.137 327.144ZM698.513 317.288C705.993 317.288 710.833 311.92 710.833 304.088C710.833 296.256 705.993 290.8 698.513 290.8C691.033 290.8 686.457 296.344 686.457 304.088C686.457 311.832 691.033 317.288 698.513 317.288ZM750.445 327.144C737.509 327.144 728.445 317.728 728.445 304.264C728.445 290.624 737.333 281.208 750.093 281.208C763.117 281.208 771.389 289.92 771.389 303.472V306.728L738.653 306.816C739.445 314.472 743.493 318.344 750.621 318.344C756.517 318.344 760.389 316.056 761.621 311.92H771.565C769.717 321.424 761.797 327.144 750.445 327.144ZM750.181 290.008C743.845 290.008 739.973 293.44 738.917 299.952H760.741C760.741 293.968 756.605 290.008 750.181 290.008ZM788.958 326H778.222V282.528H788.078L788.958 287.632C791.158 284.024 795.558 281.208 801.806 281.208C808.406 281.208 812.982 284.464 815.27 289.48C817.47 284.464 822.574 281.208 829.174 281.208C839.734 281.208 845.542 287.544 845.542 297.576V326H834.894V300.392C834.894 294.144 831.55 290.888 826.446 290.888C821.254 290.888 817.294 294.232 817.294 301.36V326H806.558V300.304C806.558 294.232 803.302 290.976 798.198 290.976C793.094 290.976 788.958 294.32 788.958 301.36V326ZM851.769 304.176C851.769 290.624 861.537 281.296 875.001 281.296C888.465 281.296 898.233 290.624 898.233 304.176C898.233 317.728 888.465 327.056 875.001 327.056C861.537 327.056 851.769 317.728 851.769 304.176ZM862.505 304.176C862.505 312.096 867.609 317.464 875.001 317.464C882.393 317.464 887.497 312.096 887.497 304.176C887.497 296.256 882.393 290.888 875.001 290.888C867.609 290.888 862.505 296.256 862.505 304.176ZM922.847 327.144C910.263 327.144 902.431 317.904 902.431 304.44C902.431 290.888 910.351 281.208 923.463 281.208C929.535 281.208 934.903 283.76 937.631 288.072V260.528H948.279V326H938.423L937.719 319.224C935.079 324.24 929.447 327.144 922.847 327.144ZM925.223 317.288C932.703 317.288 937.543 311.92 937.543 304.088C937.543 296.256 932.703 290.8 925.223 290.8C917.743 290.8 913.167 296.344 913.167 304.088C913.167 311.832 917.743 317.288 925.223 317.288ZM954.363 312.8H964.571C964.659 316.584 967.475 318.96 972.403 318.96C977.419 318.96 980.147 316.936 980.147 313.768C980.147 311.568 979.003 309.984 975.131 309.104L967.299 307.256C959.467 305.496 955.683 301.8 955.683 294.848C955.683 286.312 962.899 281.208 972.931 281.208C982.699 281.208 989.299 286.84 989.387 295.288H979.179C979.091 291.592 976.627 289.216 972.491 289.216C968.267 289.216 965.803 291.152 965.803 294.408C965.803 296.872 967.739 298.456 971.435 299.336L979.267 301.184C986.571 302.856 990.267 306.2 990.267 312.888C990.267 321.688 982.787 327.144 972.051 327.144C961.227 327.144 954.363 321.336 954.363 312.8Z" fill="#0B151E"/>
<rect x="566" y="381" width="68" height="46" rx="8" fill="#D6FF62"/>
<path d="M590.024 412.264C585.338 412.264 582.302 409.008 582.302 403.97C582.302 398.976 585.448 395.654 590.156 395.654C593.962 395.654 596.8 397.876 597.35 401.33H594.38C593.83 399.46 592.224 398.36 590.09 398.36C587.12 398.36 585.25 400.516 585.25 403.948C585.25 407.358 587.142 409.558 590.09 409.558C592.268 409.558 593.94 408.414 594.468 406.632H597.394C596.778 410.02 593.83 412.264 590.024 412.264ZM603.835 395.918V409.404H610.567V412H601.019V395.918H603.835ZM616.773 395.918V412H613.957V395.918H616.773Z" fill="#0B151E"/>
<g clip-path="url(#clip1_813_616)">
<path d="M501 119.486L513.029 88.5986H517.038L504.967 119.486H501Z" fill="#0B151E"/>
<path d="M524.876 97.9675C530.123 97.9675 533.791 100.962 534.517 105.625H530.508C529.825 102.973 527.692 101.561 525.005 101.561C521.209 101.561 518.607 104.469 518.607 109.004C518.607 113.539 521.038 116.406 524.835 116.406C527.693 116.406 529.826 114.908 530.551 112.427H534.561C533.75 116.962 529.869 119.999 524.835 119.999C518.692 119.999 514.641 115.635 514.641 109.047C514.641 102.458 518.778 97.9663 524.879 97.9663L524.876 97.9675Z" fill="#0B151E"/>
<path d="M547.44 98.0098C553.668 98.0098 558.275 102.545 558.275 109.004C558.275 115.463 553.668 119.999 547.44 119.999C541.211 119.999 536.562 115.463 536.562 109.004C536.562 102.545 541.169 98.0098 547.44 98.0098ZM547.44 116.406C551.449 116.406 554.265 113.368 554.265 109.004C554.265 104.641 551.449 101.603 547.44 101.603C543.43 101.603 540.614 104.641 540.614 109.004C540.614 113.368 543.387 116.406 547.44 116.406Z" fill="#0B151E"/>
<path d="M560.488 109.09C560.488 102.673 564.2 97.9677 570.385 97.9677C573.584 97.9677 576.272 99.379 577.679 101.946V88H581.647V119.486H578.064L577.723 115.679C576.358 118.545 573.542 120 570.215 120C564.158 120 560.489 115.465 560.489 109.091L560.488 109.09ZM577.636 108.962C577.636 104.685 575.119 101.604 571.024 101.604C566.929 101.604 564.54 104.685 564.54 108.962C564.54 113.24 566.929 116.363 571.024 116.363C575.119 116.363 577.636 113.325 577.636 108.962Z" fill="#0B151E"/>
<path d="M583.949 109.048C583.949 102.503 588.087 97.9678 594.144 97.9678C600.201 97.9678 603.955 102.075 603.955 108.278V109.775L587.831 109.817C588.13 114.224 590.433 116.662 594.401 116.662C597.514 116.662 599.562 115.379 600.244 112.983H603.998C602.975 117.475 599.476 119.999 594.315 119.999C588.172 119.999 583.949 115.55 583.949 109.047V109.048ZM587.917 107.123H599.947C599.947 103.658 597.686 101.348 594.145 101.348C590.605 101.348 588.429 103.444 587.917 107.123Z" fill="#0B151E"/>
<path d="M606.301 119.486V98.5664H609.883L610.267 101.304C611.333 99.3368 613.552 97.9678 616.495 97.9678C619.737 97.9678 622.041 99.5932 623.107 102.203C624.089 99.5932 626.606 97.9678 629.847 97.9678C634.625 97.9678 637.525 100.962 637.525 105.796V119.486H633.601V106.78C633.601 103.486 631.767 101.604 628.951 101.604C625.922 101.604 623.918 103.744 623.918 107.08V119.486H619.95V106.738C619.95 103.444 618.158 101.647 615.344 101.647C612.315 101.647 610.31 103.743 610.31 107.079V119.485H606.301V119.486Z" fill="#0B151E"/>
<path d="M651.088 98.0098C657.317 98.0098 661.923 102.545 661.923 109.004C661.923 115.463 657.317 119.999 651.088 119.999C644.86 119.999 640.211 115.463 640.211 109.004C640.211 102.545 644.817 98.0098 651.088 98.0098ZM651.088 116.406C655.098 116.406 657.913 113.368 657.913 109.004C657.913 104.641 655.098 101.603 651.088 101.603C647.079 101.603 644.263 104.641 644.263 109.004C644.263 113.368 647.035 116.406 651.088 116.406Z" fill="#0B151E"/>
<path d="M664.137 109.09C664.137 102.673 667.848 97.9677 674.033 97.9677C677.233 97.9677 679.921 99.379 681.328 101.946V88H685.295V119.486H681.713L681.371 115.679C680.006 118.545 677.19 120 673.863 120C667.806 120 664.138 115.465 664.138 109.091L664.137 109.09ZM681.285 108.962C681.285 104.685 678.768 101.604 674.673 101.604C670.577 101.604 668.189 104.685 668.189 108.962C668.189 113.24 670.577 116.363 674.673 116.363C678.768 116.363 681.285 113.325 681.285 108.962Z" fill="#0B151E"/>
<path d="M688.879 117.005C688.879 115.336 690.286 113.967 691.95 113.967C693.614 113.967 694.979 115.336 694.979 117.005C694.979 118.674 693.572 120 691.95 120C690.328 120 688.879 118.631 688.879 117.005Z" fill="#0B151E"/>
</g>
</g>
<defs>
<filter id="filter0_f_813_616" x="-409.858" y="-485.858" width="1137.72" height="1137.72" filterUnits="userSpaceOnUse" color-interpolation-filters="sRGB">
<feFlood flood-opacity="0" result="BackgroundImageFix"/>
<feBlend mode="normal" in="SourceGraphic" in2="BackgroundImageFix" result="shape"/>
<feGaussianBlur stdDeviation="134.429" result="effect1_foregroundBlur_813_616"/>
</filter>
<filter id="filter1_f_813_616" x="458.032" y="13.032" width="1075.94" height="1075.94" filterUnits="userSpaceOnUse" color-interpolation-filters="sRGB">
<feFlood flood-opacity="0" result="BackgroundImageFix"/>
<feBlend mode="normal" in="SourceGraphic" in2="BackgroundImageFix" result="shape"/>
<feGaussianBlur stdDeviation="103.984" result="effect1_foregroundBlur_813_616"/>
</filter>
<linearGradient id="paint0_linear_813_616" x1="159" y1="-217" x2="159" y2="383" gradientUnits="userSpaceOnUse">
<stop stop-color="#BBFC03"/>
<stop offset="1" stop-color="#BBFC03" stop-opacity="0.17"/>
</linearGradient>
<linearGradient id="paint1_linear_813_616" x1="996" y1="221" x2="996" y2="881" gradientUnits="userSpaceOnUse">
<stop stop-color="#BBFC03"/>
<stop offset="1" stop-color="#BBFC03" stop-opacity="0"/>
</linearGradient>
<linearGradient id="paint2_linear_813_616" x1="70" y1="48.373" x2="82.559" y2="627.728" gradientUnits="userSpaceOnUse">
<stop stop-color="#0B151E" stop-opacity="0"/>
<stop offset="0.165" stop-color="#0B151E" stop-opacity="0.450549"/>
<stop offset="0.495" stop-color="#0B151E"/>
<stop offset="0.775" stop-color="#0B151E" stop-opacity="0.452703"/>
<stop offset="1" stop-color="#0B151E" stop-opacity="0"/>
</linearGradient>
<linearGradient id="paint3_linear_813_616" x1="246.668" y1="48.373" x2="259.227" y2="627.728" gradientUnits="userSpaceOnUse">
<stop stop-color="#0B151E" stop-opacity="0"/>
<stop offset="0.165" stop-color="#0B151E" stop-opacity="0.450549"/>
<stop offset="0.495" stop-color="#0B151E"/>
<stop offset="0.775" stop-color="#0B151E" stop-opacity="0.452703"/>
<stop offset="1" stop-color="#0B151E" stop-opacity="0"/>
</linearGradient>
<linearGradient id="paint4_linear_813_616" x1="423.332" y1="48.373" x2="435.891" y2="627.728" gradientUnits="userSpaceOnUse">
<stop stop-color="#0B151E" stop-opacity="0"/>
<stop offset="0.165" stop-color="#0B151E" stop-opacity="0.450549"/>
<stop offset="0.495" stop-color="#0B151E"/>
<stop offset="0.775" stop-color="#0B151E" stop-opacity="0.452703"/>
<stop offset="1" stop-color="#0B151E" stop-opacity="0"/>
</linearGradient>
<linearGradient id="paint5_linear_813_616" x1="600" y1="48.373" x2="612.559" y2="627.728" gradientUnits="userSpaceOnUse">
<stop stop-color="#0B151E" stop-opacity="0"/>
<stop offset="0.165" stop-color="#0B151E" stop-opacity="0.450549"/>
<stop offset="0.495" stop-color="#0B151E"/>
<stop offset="0.775" stop-color="#0B151E" stop-opacity="0.452703"/>
<stop offset="1" stop-color="#0B151E" stop-opacity="0"/>
</linearGradient>
<linearGradient id="paint6_linear_813_616" x1="776.668" y1="48.373" x2="789.227" y2="627.728" gradientUnits="userSpaceOnUse">
<stop stop-color="#0B151E" stop-opacity="0"/>
<stop offset="0.165" stop-color="#0B151E" stop-opacity="0.450549"/>
<stop offset="0.495" stop-color="#0B151E"/>
<stop offset="0.775" stop-color="#0B151E" stop-opacity="0.452703"/>
<stop offset="1" stop-color="#0B151E" stop-opacity="0"/>
</linearGradient>
<linearGradient id="paint7_linear_813_616" x1="953.332" y1="48.373" x2="965.891" y2="627.728" gradientUnits="userSpaceOnUse">
<stop stop-color="#0B151E" stop-opacity="0"/>
<stop offset="0.165" stop-color="#0B151E" stop-opacity="0.450549"/>
<stop offset="0.495" stop-color="#0B151E"/>
<stop offset="0.775" stop-color="#0B151E" stop-opacity="0.452703"/>
<stop offset="1" stop-color="#0B151E" stop-opacity="0"/>
</linearGradient>
<linearGradient id="paint8_linear_813_616" x1="1130" y1="48.373" x2="1142.56" y2="627.728" gradientUnits="userSpaceOnUse">
<stop stop-color="#0B151E" stop-opacity="0"/>
<stop offset="0.165" stop-color="#0B151E" stop-opacity="0.450549"/>
<stop offset="0.495" stop-color="#0B151E"/>
<stop offset="0.775" stop-color="#0B151E" stop-opacity="0.452703"/>
<stop offset="1" stop-color="#0B151E" stop-opacity="0"/>
</linearGradient>
<clipPath id="clip0_813_616">
<rect width="1200" height="675" fill="white"/>
</clipPath>
<clipPath id="clip1_813_616">
<rect width="194" height="32" fill="white" transform="translate(501 88)"/>
</clipPath>
</defs>
</svg>
